<?xml version="1.0" encoding="utf-8"?>
<!-- Generator: Adobe Illustrator 26.1.0, SVG Export Plug-In . SVG Version: 6.00 Build 0)  -->
<svg version="1.1" id="Warstwa_1" xmlns="http://www.w3.org/2000/svg" xmlns:xlink="http://www.w3.org/1999/xlink" x="0px" y="0px"
	 viewBox="0 0 1033.5 488" style="enable-background:new 0 0 1033.5 488;" xml:space="preserve">
<style type="text/css">
	.st0{fill:#761214;}
	.st1{fill:#761615;}
	.st2{fill:#FFFFFF;}
	.st3{fill:#FBBB0E;}
	.st4{fill:#1D1D1B;}
	.st5{fill:#575756;}
</style>
<g id="sign_1_">
</g>
<g>
	<g id="text_1_">
		<g id="_x34__quality">
		</g>
		<g id="_x5F__x5F__x5F__x5F__x5F__x5F__x5F__x5F__xA0_Obraz_1_">
		</g>
		<g id="DORADZTWO_I_SZKOLENIA">
			<g>
				<g>
					<path class="st0" d="M322.3,85.1h1.8v39.3h10.5v5.4h-10.5v13.1h-8.6v-13.1h-41.4L322.3,85.1z M315.5,124.5v-23.7l-25.6,23.7
						H315.5z"/>
					<path d="M457.3,91.2c3.7,2.7,6.6,6,8.6,9.9c2.1,3.8,3.1,8.1,3.1,12.8c0,3.7-0.7,7.2-2.1,10.3c-1.4,3.2-3.3,6-5.8,8.5
						c-2.4,2.4-5.2,4.5-8.5,6.2c-3.3,1.8-7,3.2-11,4.2c0.1,3.1,1.6,5.8,4.6,8.2c3,2.4,6.3,3.6,9.8,3.6c3.2,0,5.7-0.1,7.3-0.2
						c1.7-0.2,3.1-0.3,4.2-0.4v3.3c-1.8,0.4-4,0.7-6.6,1.1c-2.6,0.4-6.3,0.6-11,0.6c-2.6,0-5.2-0.3-7.7-0.8s-4.8-1.4-6.8-2.6
						s-3.7-2.7-5.1-4.5c-1.4-1.8-2.2-4.1-2.6-6.8c-5.6-0.1-10.8-1-15.6-2.6c-4.8-1.6-8.9-3.7-12.3-6.4c-3.4-2.8-6.1-6-8-9.7
						c-1.9-3.7-2.9-7.8-2.9-12.1c0-4.8,1.1-9.1,3.2-12.9c2.1-3.8,5-7,8.8-9.8c3.7-2.7,8-4.8,12.8-6.3c4.8-1.5,10-2.2,15.3-2.2
						c5.5,0,10.7,0.7,15.6,2.2C449.6,86.5,453.8,88.6,457.3,91.2z M448.6,133.2c2.2-2.5,3.8-5.4,4.8-8.6s1.5-6.8,1.5-10.7
						c0-4.1-0.6-7.8-1.7-11.2c-1.1-3.4-2.8-6.3-4.9-8.7c-2.2-2.4-4.9-4.2-8.1-5.5c-3.3-1.3-7-2-11.2-2c-4.7,0-8.7,0.8-12,2.3
						c-3.3,1.5-6,3.6-8,6.1c-2,2.4-3.4,5.3-4.4,8.6s-1.4,6.7-1.4,10.3c0,4,0.5,7.6,1.5,10.8s2.6,6.1,4.8,8.6c2.1,2.4,4.8,4.4,8,5.7
						c3.2,1.4,7,2.1,11.5,2.1c4.2,0,8-0.7,11.3-2.1C443.7,137.6,446.5,135.7,448.6,133.2z"/>
					<path d="M570.5,87.2c-1.1,0-2.7,0.2-4.8,0.5c-2.1,0.3-3.8,0.8-5.2,1.4c-1.3,0.6-2.3,2-2.8,4c-0.5,2-0.8,4.4-0.8,7.3v25.7
						c0,3.3-1,6.1-2.9,8.5c-1.9,2.4-4.4,4.4-7.6,6c-3.1,1.5-6.4,2.6-9.8,3.2c-3.4,0.7-6.7,1-9.8,1c-5,0-9.5-0.5-13.4-1.4
						c-3.9-0.9-7.2-2.2-9.9-3.8c-2.6-1.6-4.6-3.4-5.9-5.4s-2-4.2-2-6.4v-35c0-1-0.2-1.8-0.7-2.4c-0.5-0.7-1.4-1.3-2.7-1.8
						c-1-0.4-2.2-0.7-3.8-0.9c-1.5-0.2-2.8-0.4-3.8-0.4v-3h34.7v3c-1.1,0-2.5,0.2-4.1,0.4c-1.7,0.2-2.9,0.4-3.7,0.6
						c-1.3,0.3-2.2,0.9-2.7,1.7s-0.7,1.6-0.7,2.5v32.6c0,1.6,0.2,3.2,0.7,5c0.5,1.7,1.5,3.4,2.9,4.9c1.5,1.5,3.6,2.8,6.2,3.7
						c2.6,1,6.2,1.5,10.8,1.5c4.3,0,7.9-0.5,10.8-1.5c2.9-1,5.2-2.2,6.9-3.8c1.6-1.5,2.7-3.1,3.4-4.7c0.7-1.6,1-3.3,1-5v-24.3
						c0-3.1-0.3-5.6-0.9-7.6c-0.6-2-1.5-3.2-2.8-3.9c-1.4-0.7-3.2-1.2-5.6-1.6c-2.4-0.4-4.2-0.6-5.4-0.7v-3h34.1v3.1H570.5z"/>
					<path d="M661.5,143.4h-34.6v-3c3.1-0.1,5.6-0.4,7.6-0.8s3-0.9,3-1.5c0-0.3,0-0.6-0.1-0.9c-0.1-0.4-0.2-0.7-0.4-1l-6.9-13.3
						h-29.2c-1.1,1.9-2,3.6-2.7,5.1c-0.7,1.5-1.3,2.8-1.9,4c-0.5,1.2-0.9,2.2-1.1,2.9c-0.2,0.8-0.3,1.4-0.3,1.8c0,1.1,1.2,2,3.7,2.6
						s5.2,1,8.3,1.1v3h-31.4v-3c1-0.1,2.3-0.2,3.8-0.5s2.8-0.6,3.8-1.1c1.6-0.8,2.8-1.5,3.6-2.4c0.9-0.8,1.7-2,2.5-3.4
						c4.2-7.4,8.8-15.8,13.9-25s9.6-17.5,13.5-24.7h4.7l27.8,51c0.6,1.1,1.3,2,2,2.6c0.7,0.7,1.8,1.3,3.1,2c0.9,0.4,2.1,0.7,3.5,1
						s2.7,0.4,3.6,0.4v3.1C661.3,143.4,661.5,143.4,661.5,143.4z M628,119.2l-12.6-22.9l-12.5,22.9H628z"/>
					<path d="M738,125.8l-1.8,17.6H671v-3c0.9-0.1,2.3-0.2,4.1-0.3c1.8-0.1,3-0.3,3.7-0.5c1.2-0.4,2-0.9,2.6-1.6
						c0.5-0.7,0.8-1.6,0.8-2.7V93c0-0.9-0.2-1.8-0.7-2.5c-0.5-0.7-1.3-1.3-2.7-1.8c-0.9-0.3-2.2-0.7-3.8-1c-1.6-0.3-3-0.5-4-0.6v-3
						h35.2v3c-1.1,0-2.5,0.2-4.3,0.4c-1.7,0.3-3,0.5-3.8,0.7c-1.3,0.3-2.2,0.9-2.7,1.7s-0.7,1.7-0.7,2.6v39.7c0,1.8,0.1,3.3,0.4,4.3
						c0.3,1,0.9,1.8,1.8,2.4c0.9,0.5,2.2,0.8,4,1s4.3,0.2,7.5,0.2c1.4,0,3,0,4.5-0.1c1.5-0.1,3.1-0.2,4.5-0.3
						c1.4-0.2,2.6-0.4,3.8-0.7c1.2-0.3,2-0.7,2.6-1.1c1.6-1.3,3.5-3.2,5.6-5.8s3.6-4.7,4.4-6.3C733.8,125.8,738,125.8,738,125.8z"/>
					<path d="M786.8,143.4h-37.5v-3c1.1-0.1,2.6-0.1,4.6-0.3c2-0.2,3.4-0.3,4.2-0.5c1.3-0.4,2.2-0.9,2.8-1.5
						c0.6-0.6,0.9-1.5,0.9-2.6V92.7c0-1-0.2-1.8-0.6-2.4c-0.4-0.6-1.4-1.2-3.1-1.6c-1.2-0.3-2.7-0.6-4.4-0.9
						c-1.8-0.3-3.2-0.5-4.4-0.5v-3h37.5v3c-1.2,0-2.7,0.1-4.3,0.3c-1.7,0.2-3.2,0.4-4.4,0.7c-1.5,0.3-2.5,0.9-3,1.6
						c-0.5,0.8-0.8,1.6-0.8,2.5v42.8c0,0.9,0.3,1.7,0.9,2.4c0.6,0.7,1.5,1.3,2.9,1.7c0.8,0.2,2.2,0.5,4,0.7s3.4,0.4,4.7,0.4
						L786.8,143.4L786.8,143.4z"/>
					<path d="M871.7,100.3h-4.1c-0.4-1-1-2.2-1.9-3.6c-0.9-1.4-2-2.7-3.1-3.9c-1.2-1.3-2.5-2.4-3.9-3.4s-2.7-1.5-4-1.6
						c-1.2-0.1-2.7-0.2-4.6-0.3c-1.8-0.1-3.6-0.1-5.1-0.1h-3.4v47.4c0,0.9,0.3,1.8,0.8,2.5c0.5,0.8,1.5,1.4,2.9,1.8
						c0.7,0.2,2.2,0.5,4.4,0.8c2.3,0.3,4,0.5,5.3,0.5v3h-39.4v-3c1.1-0.1,2.8-0.2,5-0.3c2.3-0.2,3.8-0.4,4.7-0.6
						c1.3-0.4,2.2-0.9,2.8-1.6s0.9-1.6,0.9-2.7V87.5h-3.4c-1.2,0-2.7,0-4.5,0.1c-1.8,0-3.5,0.1-5.2,0.3c-1.3,0.1-2.6,0.7-4,1.6
						c-1.4,1-2.7,2.1-3.8,3.4c-1.2,1.3-2.2,2.6-3.1,4c-0.9,1.4-1.5,2.6-1.9,3.5H799v-16h72.7L871.7,100.3L871.7,100.3z"/>
					<path d="M956.3,87.2c-0.7,0-1.7,0.2-3.2,0.6c-1.4,0.3-2.5,0.7-3.1,1c-1.5,0.7-2.6,1.2-3.1,1.5c-0.5,0.4-1.6,1.3-3.2,2.8
						c-3.1,3.1-5.9,6.2-8.5,9.3c-2.6,3.1-5.8,7.1-9.7,12c-1.4,1.8-2.4,3.2-2.9,4.3s-0.7,2.7-0.7,4.7v11.3c0,1,0.3,1.9,0.9,2.6
						c0.6,0.7,1.5,1.3,2.9,1.8c0.8,0.2,2.3,0.5,4.4,0.8c2.1,0.3,3.8,0.5,5.1,0.5v3h-39v-3c1.1-0.1,2.7-0.2,4.9-0.3
						c2.2-0.2,3.7-0.4,4.6-0.6c1.4-0.4,2.4-1,2.9-1.7s0.8-1.6,0.8-2.7v-14.4c0-0.4-0.4-1.3-1.1-2.4c-0.8-1.2-1.7-2.5-2.7-3.9
						c-2.4-3.2-5-6.7-7.8-10.5c-2.9-3.8-5.3-7-7.5-9.6c-1.3-1.6-2.4-2.8-3.4-3.6c-1-0.8-2.1-1.5-3.4-2.1c-0.9-0.4-2.1-0.7-3.4-1
						c-1.3-0.2-2.5-0.4-3.6-0.4v-3h35.6v3c-4,0.1-6.8,0.2-8.5,0.6c-1.6,0.3-2.5,0.8-2.5,1.4c0,0.2,0.1,0.5,0.4,0.9
						c0.2,0.4,0.6,0.9,1,1.6c0.5,0.7,1.1,1.5,1.8,2.5s1.4,1.8,2,2.7c1.8,2.5,3.7,4.9,5.6,7.4c1.9,2.5,4.4,5.7,7.5,9.6
						c6.1-7,10.8-12.5,14.1-16.4c3.2-3.9,4.8-6.3,4.8-7.1c0-0.6-0.3-1.2-1-1.5c-0.7-0.3-1.5-0.7-2.6-0.9c-1.1-0.2-2.4-0.4-3.7-0.4
						c-1.3-0.1-2.6-0.1-3.7-0.2v-3h29L956.3,87.2L956.3,87.2z"/>
				</g>
				<g>
					<path class="st1" d="M121.6,70.9H70.9v140.6h76.9l1.9-34.1C99,173.5,50.9,152.1,121.6,70.9z"/>
					<path class="st1" d="M212,147V70.9h-88.7C102.8,101.1,53.3,189.9,212,147z M162.4,130.1c6.9,0,12.4,3.1,12.4,6.9
						c0,3.8-5.6,6.9-12.4,6.9c-6.9,0-12.4-3.1-12.4-6.9C149.9,133.2,155.5,130.1,162.4,130.1z"/>
					<path class="st1" d="M171.9,211.5H212v-35.7c-8.7,1-23.6,2.3-40.1,2.4C171.9,178.2,171.9,211.5,171.9,211.5z"/>
					<path class="st2" d="M123.3,70.9h-1.7C50.9,152.1,99,173.5,149.7,177.5l-1.9,34.1h24.1v-33.3c16.5-0.1,31.3-1.4,40.1-2.4V147
						C53.3,189.9,102.8,101.1,123.3,70.9z"/>
					<path class="st2" d="M162.4,144c6.9,0,12.4-3.1,12.4-6.9s-5.6-6.9-12.4-6.9c-6.9,0-12.4,3.1-12.4,6.9
						C149.9,140.9,155.5,144,162.4,144z"/>
				</g>
				<g>
					<path d="M295.4,194.8c0,1.5-0.5,2.8-1.4,3.9s-2.2,2-3.7,2.7c-1.5,0.7-3.2,1.2-5.1,1.6c-1.9,0.4-3.8,0.5-5.8,0.5h-12.1v-0.9
						c0.4,0,0.9,0,1.6-0.1s1.1-0.1,1.3-0.2c0.4-0.1,0.7-0.3,0.9-0.5c0.2-0.2,0.3-0.5,0.3-0.8v-12.8c0-0.3-0.1-0.5-0.2-0.8
						c-0.2-0.2-0.5-0.4-0.9-0.5c-0.4-0.1-0.9-0.2-1.4-0.3s-0.9-0.1-1.3-0.1v-0.7h12.8c1.8,0,3.5,0.2,5.2,0.5
						c1.7,0.3,3.2,0.8,4.5,1.3c1.7,0.7,3.1,1.7,4,2.9C294.9,191.7,295.4,193.1,295.4,194.8z M290.3,194.8c0-1.2-0.3-2.3-0.8-3.2
						c-0.5-1-1.3-1.8-2.3-2.5c-0.9-0.7-2.1-1.2-3.5-1.6c-1.4-0.4-2.9-0.6-4.6-0.6c-0.6,0-1.2,0-1.9,0c-0.7,0-1.2,0-1.6,0v13.6
						c0,0.8,0.4,1.3,1.1,1.6c0.7,0.3,1.8,0.4,3.4,0.4c1.7,0,3.3-0.2,4.6-0.6c1.3-0.4,2.4-0.9,3.2-1.6c0.9-0.7,1.5-1.5,1.9-2.4
						C290.1,197,290.3,196,290.3,194.8z"/>
					<path d="M329.6,187.9c1.3,0.8,2.3,1.8,3,3s1.1,2.4,1.1,3.8c0,1.4-0.4,2.7-1.1,3.8c-0.7,1.2-1.8,2.1-3.1,2.9
						c-1.3,0.8-2.8,1.4-4.5,1.9c-1.7,0.4-3.5,0.6-5.4,0.6c-2,0-3.9-0.2-5.6-0.7s-3.2-1.1-4.4-1.9c-1.2-0.8-2.2-1.8-2.9-2.9
						c-0.7-1.1-1.1-2.4-1.1-3.7c0-1.4,0.4-2.7,1.1-3.9c0.7-1.1,1.8-2.1,3.1-2.9c1.3-0.8,2.8-1.4,4.5-1.9c1.7-0.5,3.5-0.7,5.4-0.7
						s3.8,0.2,5.5,0.7C326.8,186.5,328.3,187.1,329.6,187.9z M326.5,200.5c0.8-0.8,1.3-1.6,1.7-2.6s0.5-2,0.5-3.2s-0.2-2.3-0.6-3.3
						c-0.4-1-1-1.9-1.7-2.6c-0.8-0.7-1.7-1.3-2.8-1.7c-1.1-0.4-2.4-0.6-3.9-0.6c-1.7,0-3.1,0.2-4.2,0.7c-1.2,0.5-2.1,1.1-2.8,1.8
						c-0.7,0.7-1.2,1.6-1.5,2.6c-0.3,1-0.5,2-0.5,3.1c0,1.2,0.2,2.3,0.5,3.3c0.4,1,0.9,1.8,1.7,2.6c0.7,0.7,1.7,1.3,2.8,1.7
						s2.5,0.6,4,0.6s2.8-0.2,4-0.6C324.9,201.9,325.8,201.2,326.5,200.5z"/>
					<path d="M372.8,203.5h-7.9c-1.7-1.7-3.3-3.1-4.7-4.3c-1.4-1.2-2.9-2.5-4.6-3.7h-3v5.6c0,0.3,0.1,0.5,0.2,0.8s0.5,0.4,1,0.5
						c0.2,0.1,0.7,0.1,1.3,0.2c0.6,0,1.1,0.1,1.6,0.1v0.9h-12.4v-0.9c0.3,0,0.8,0,1.4-0.1c0.6,0,1.1-0.1,1.3-0.2
						c0.4-0.1,0.7-0.3,0.9-0.5s0.3-0.5,0.3-0.8v-12.8c0-0.3-0.1-0.5-0.2-0.8c-0.1-0.2-0.5-0.4-1-0.5c-0.3-0.1-0.8-0.1-1.3-0.2
						c-0.6-0.1-1-0.1-1.4-0.1v-0.9h13.6c1.2,0,2.4,0.1,3.5,0.2c1.1,0.2,2.1,0.4,2.9,0.7c0.9,0.3,1.5,0.8,2,1.3s0.8,1.2,0.8,1.9
						s-0.2,1.3-0.5,1.8s-0.9,1-1.5,1.4c-0.6,0.4-1.4,0.7-2.2,0.9c-0.8,0.2-1.8,0.5-2.9,0.7c1.4,1.2,2.6,2.1,3.6,2.9
						c1,0.8,2.1,1.8,3.5,2.9c0.6,0.5,1.2,0.9,1.6,1.1c0.5,0.2,1,0.4,1.5,0.6c0.4,0.1,0.8,0.2,1.3,0.3s1,0.1,1.3,0.1L372.8,203.5
						L372.8,203.5z M362,190.3c0-1.1-0.5-1.9-1.5-2.6c-1-0.7-2.5-0.9-4.3-0.9h-3.5v7.6h2.7c1.9,0,3.5-0.4,4.7-1.1
						C361.4,192.6,362,191.6,362,190.3z"/>
					<path d="M408.2,203.5H396v-0.9c1.1,0,2-0.1,2.7-0.3s1.1-0.3,1.1-0.5c0-0.1,0-0.2,0-0.3s-0.1-0.2-0.1-0.3l-2.4-4h-10.4
						c-0.4,0.6-0.7,1.1-0.9,1.5c-0.2,0.4-0.5,0.8-0.7,1.2s-0.3,0.6-0.4,0.9c-0.1,0.2-0.1,0.4-0.1,0.5c0,0.3,0.4,0.6,1.3,0.8
						s1.8,0.3,2.9,0.3v0.9h-11v-0.9c0.4,0,0.8-0.1,1.3-0.1s1-0.2,1.3-0.3c0.5-0.2,1-0.5,1.3-0.7s0.6-0.6,0.9-1
						c1.5-2.2,3.1-4.7,4.9-7.5s3.4-5.2,4.7-7.4h1.7l9.8,15.4c0.2,0.3,0.4,0.6,0.7,0.8c0.3,0.2,0.6,0.4,1.1,0.6
						c0.3,0.1,0.7,0.2,1.2,0.3s0.9,0.1,1.3,0.1L408.2,203.5L408.2,203.5z M396.5,196.3l-4.4-6.9l-4.4,6.9H396.5z"/>
					<path d="M444.3,194.8c0,1.5-0.5,2.8-1.4,3.9s-2.2,2-3.7,2.7c-1.5,0.7-3.2,1.2-5.1,1.6c-1.9,0.4-3.8,0.5-5.8,0.5h-12.1v-0.9
						c0.4,0,0.9,0,1.6-0.1s1.1-0.1,1.3-0.2c0.4-0.1,0.7-0.3,0.9-0.5c0.2-0.2,0.3-0.5,0.3-0.8v-12.8c0-0.3-0.1-0.5-0.2-0.8
						c-0.2-0.2-0.5-0.4-0.9-0.5c-0.4-0.1-0.9-0.2-1.4-0.3s-0.9-0.1-1.3-0.1v-0.7h12.8c1.8,0,3.5,0.2,5.2,0.5
						c1.7,0.3,3.2,0.8,4.5,1.3c1.7,0.7,3.1,1.7,4,2.9C443.8,191.7,444.3,193.1,444.3,194.8z M439.2,194.8c0-1.2-0.3-2.3-0.8-3.2
						c-0.5-1-1.3-1.8-2.3-2.5c-0.9-0.7-2.1-1.2-3.5-1.6c-1.4-0.4-2.9-0.6-4.6-0.6c-0.6,0-1.2,0-1.9,0c-0.7,0-1.2,0-1.6,0v13.6
						c0,0.8,0.4,1.3,1.1,1.6s1.8,0.4,3.4,0.4c1.7,0,3.3-0.2,4.6-0.6c1.3-0.4,2.4-0.9,3.2-1.6c0.9-0.7,1.5-1.5,1.9-2.4
						C439,197,439.2,196,439.2,194.8z"/>
					<path d="M477.9,198l-1,5.5h-23.5v-0.4l18.4-16.3h-6.7c-0.8,0-1.4,0-2,0s-1,0-1.5,0.1c-0.9,0.1-1.9,0.6-3.1,1.4s-2,1.6-2.6,2.5
						h-1.4l0.9-5h21.9v0.4l-18.4,16.3h7c1.2,0,2.4,0,3.7-0.2c1.3-0.1,2.2-0.3,2.6-0.5c0.9-0.5,1.7-1.1,2.5-1.9
						c0.8-0.8,1.3-1.4,1.7-2L477.9,198L477.9,198z"/>
					<path d="M511,190.6h-1.4c-0.1-0.3-0.3-0.7-0.7-1.1c-0.4-0.4-0.7-0.8-1.1-1.2s-0.9-0.7-1.4-1s-1-0.5-1.4-0.5s-1-0.1-1.6-0.1
						s-1.2,0-1.8,0h-1.2v14.2c0,0.3,0.1,0.5,0.3,0.8c0.2,0.2,0.5,0.4,1,0.5c0.2,0.1,0.8,0.1,1.6,0.2c0.8,0.1,1.4,0.2,1.8,0.2v0.9
						h-13.8v-0.9c0.4,0,1,0,1.8-0.1s1.3-0.1,1.6-0.2c0.5-0.1,0.8-0.3,1-0.5s0.3-0.5,0.3-0.8v-14.2h-1.1c-0.4,0-1,0-1.6,0
						s-1.2,0-1.8,0.1c-0.5,0-0.9,0.2-1.4,0.5s-0.9,0.6-1.4,1c-0.5,0.4-0.8,0.8-1.1,1.2c-0.3,0.4-0.5,0.8-0.7,1h-1.4v-4.8H511V190.6z
						"/>
					<path d="M560.1,186.7c-0.3,0-0.7,0.1-1.2,0.1c-0.5,0.1-0.9,0.2-1.3,0.3c-0.5,0.2-0.9,0.4-1.2,0.6s-0.6,0.6-0.8,1
						c-1,1.9-2.1,4.2-3.4,6.7c-1.3,2.6-2.7,5.3-4.2,8.2h-1.9l-7.4-13.7l-7.7,13.7h-1.8c-1.4-2.9-2.8-5.9-4.2-9.1
						c-1.5-3.1-2.4-5.2-2.9-6.3c-0.1-0.3-0.3-0.5-0.5-0.7s-0.6-0.4-1-0.5c-0.3-0.1-0.7-0.2-1.2-0.3c-0.5-0.1-0.9-0.1-1.2-0.1v-0.8
						h11.9v0.9c-1,0-1.9,0.1-2.7,0.2c-0.8,0.1-1.1,0.2-1.1,0.5c0,0.1,0,0.2,0.1,0.3c0,0.1,0.1,0.2,0.1,0.3c0.3,0.7,0.9,1.9,1.7,3.6
						c0.8,1.7,2,4.2,3.6,7.6l7.3-13.2h2l7.4,13.5c1-2.1,1.8-3.9,2.6-5.4c0.7-1.5,1.3-2.9,1.8-4c0.3-0.8,0.5-1.3,0.6-1.6
						c0.1-0.3,0.1-0.5,0.1-0.7c0-0.3-0.3-0.5-1-0.7c-0.6-0.2-1.7-0.3-3.1-0.4v-0.9h10.6L560.1,186.7L560.1,186.7z"/>
					<path d="M592.2,187.9c1.3,0.8,2.3,1.8,3,3s1.1,2.4,1.1,3.8c0,1.4-0.4,2.7-1.1,3.8c-0.7,1.2-1.8,2.1-3.1,2.9s-2.8,1.4-4.5,1.9
						c-1.7,0.4-3.5,0.6-5.4,0.6c-2,0-3.9-0.2-5.6-0.7s-3.2-1.1-4.4-1.9c-1.2-0.8-2.2-1.8-2.9-2.9c-0.7-1.1-1.1-2.4-1.1-3.7
						c0-1.4,0.4-2.7,1.1-3.9c0.7-1.1,1.8-2.1,3.1-2.9c1.3-0.8,2.8-1.4,4.5-1.9c1.7-0.5,3.5-0.7,5.4-0.7c1.9,0,3.8,0.2,5.5,0.7
						C589.4,186.5,590.9,187.1,592.2,187.9z M589.1,200.5c0.8-0.8,1.3-1.6,1.7-2.6s0.5-2,0.5-3.2s-0.2-2.3-0.6-3.3
						c-0.4-1-1-1.9-1.7-2.6c-0.8-0.7-1.7-1.3-2.8-1.7c-1.1-0.4-2.4-0.6-3.9-0.6c-1.6,0-3.1,0.2-4.2,0.7c-1.2,0.5-2.1,1.1-2.8,1.8
						c-0.7,0.7-1.2,1.6-1.5,2.6s-0.5,2-0.5,3.1c0,1.2,0.2,2.3,0.5,3.3c0.4,1,0.9,1.8,1.7,2.6c0.7,0.7,1.7,1.3,2.8,1.7s2.5,0.6,4,0.6
						c1.5,0,2.8-0.2,4-0.6S588.3,201.2,589.1,200.5z"/>
					<path d="M636.9,203.5h-13.2v-0.9c0.4,0,0.9,0,1.6-0.1c0.7,0,1.2-0.1,1.5-0.1c0.5-0.1,0.8-0.3,1-0.4s0.3-0.4,0.3-0.8v-12.8
						c0-0.3-0.1-0.5-0.2-0.7c-0.2-0.2-0.5-0.4-1.1-0.5c-0.4-0.1-0.9-0.2-1.6-0.3c-0.6-0.1-1.1-0.1-1.5-0.2v-0.9h13.2v0.9
						c-0.4,0-0.9,0-1.5,0.1c-0.6,0.1-1.1,0.1-1.5,0.2c-0.5,0.1-0.9,0.3-1.1,0.5c-0.2,0.2-0.3,0.5-0.3,0.8v12.8
						c0,0.3,0.1,0.5,0.3,0.7s0.5,0.4,1,0.5c0.3,0.1,0.8,0.1,1.4,0.2s1.2,0.1,1.7,0.1L636.9,203.5L636.9,203.5z"/>
					<path d="M682.9,195.4c0.6,0.4,1.1,0.9,1.4,1.4c0.3,0.5,0.4,1.1,0.4,1.7c0,1.6-1,2.9-2.9,3.9s-4.3,1.5-7.1,1.5
						c-1.3,0-2.6-0.1-3.9-0.4c-1.3-0.2-2.4-0.5-3.4-0.9l-0.9,0.9h-1.6l-0.3-6.1h1.7c0.3,0.8,0.7,1.4,1.2,2c0.5,0.6,1.1,1.2,1.8,1.7
						s1.5,0.9,2.5,1.2s2.1,0.4,3.3,0.4c0.9,0,1.8-0.1,2.5-0.2s1.3-0.4,1.7-0.6c0.4-0.3,0.8-0.6,1-1s0.3-0.8,0.3-1.3
						c0-0.7-0.3-1.4-1-2c-0.7-0.6-1.6-1.1-2.9-1.4c-0.9-0.2-1.9-0.5-3.1-0.7c-1.2-0.3-2.2-0.5-3-0.7c-1.6-0.5-2.9-1-3.8-1.8
						c-0.9-0.7-1.4-1.7-1.4-2.9c0-0.7,0.2-1.3,0.7-1.9c0.5-0.6,1.1-1.1,1.9-1.6c0.8-0.4,1.7-0.8,2.8-1s2.2-0.4,3.4-0.4
						c1.3,0,2.6,0.1,3.6,0.4s2,0.5,2.9,0.9l0.8-0.9h1.7l0.2,5.9h-1.7c-0.3-0.7-0.6-1.3-1-1.9c-0.4-0.6-0.9-1.2-1.5-1.7
						c-0.6-0.5-1.3-0.9-2.2-1.2c-0.9-0.3-1.9-0.4-3.1-0.4c-1.3,0-2.4,0.3-3.3,0.8c-0.9,0.5-1.4,1.1-1.4,1.9s0.3,1.4,0.9,1.9
						c0.6,0.5,1.5,0.9,2.6,1.2c1,0.3,2,0.5,3,0.8c1,0.2,1.9,0.4,2.8,0.7c0.8,0.2,1.6,0.5,2.4,0.7C681.6,194.7,682.3,195,682.9,195.4
						z"/>
					<path d="M718.3,198l-1,5.5h-23.4v-0.4l18.4-16.3h-6.7c-0.8,0-1.4,0-2,0s-1,0-1.5,0.1c-0.9,0.1-1.9,0.6-3.1,1.4s-2,1.6-2.6,2.5
						H695l0.9-5h22v0.4l-18.4,16.3h7c1.2,0,2.4,0,3.7-0.2c1.3-0.1,2.2-0.3,2.6-0.5c0.9-0.5,1.7-1.1,2.5-1.9c0.8-0.8,1.3-1.4,1.7-2
						L718.3,198L718.3,198z"/>
					<path d="M756.1,203.5h-8.2c-1.6-1.5-3.3-3-5.3-4.4s-4-2.9-6.1-4.3H736v6.2c0,0.3,0.1,0.5,0.3,0.7s0.5,0.4,0.9,0.5
						c0.2,0.1,0.6,0.1,1.2,0.2c0.6,0.1,1.1,0.1,1.5,0.1v0.9h-12.1v-0.9c0.3,0,0.8,0,1.4-0.1c0.6,0,1-0.1,1.3-0.1
						c0.4-0.1,0.7-0.3,0.9-0.5s0.3-0.5,0.3-0.8v-12.8c0-0.3-0.1-0.5-0.2-0.7s-0.5-0.4-0.9-0.5c-0.4-0.1-0.8-0.2-1.3-0.3
						s-1-0.1-1.3-0.2v-0.7h11.9v0.9c-0.4,0-0.9,0-1.4,0.1c-0.6,0.1-1,0.1-1.3,0.2c-0.5,0.1-0.8,0.3-0.9,0.5
						c-0.2,0.2-0.2,0.5-0.2,0.8v6.1h0.4c1.2-0.6,2.5-1.3,3.7-2c1.2-0.7,2.3-1.4,3.3-2.1c1.1-0.8,1.9-1.4,2.4-1.8
						c0.5-0.5,0.8-0.9,0.8-1.2c0-0.1-0.1-0.2-0.4-0.3c-0.3-0.1-0.5-0.1-0.9-0.2c-0.4,0-0.7-0.1-1-0.1s-0.5,0-0.7,0v-0.9h11v0.9
						c0,0-0.1,0-0.3,0c-0.1,0-0.3,0-0.5,0s-0.4,0-0.6,0c-0.2,0-0.4,0.1-0.7,0.1c-0.5,0.1-1,0.2-1.5,0.3s-0.9,0.3-1.3,0.5
						c-1.4,1-2.9,2-4.4,3s-3.1,2-4.6,2.9c2.1,1.4,3.8,2.7,5.2,3.7s2.8,2.1,4.4,3.3c0.6,0.5,1.2,0.8,1.8,1.1s1.1,0.5,1.5,0.6
						s0.8,0.2,1.3,0.3s1,0.1,1.3,0.1v0.9L756.1,203.5L756.1,203.5z"/>
					<path d="M787.6,187.9c1.3,0.8,2.3,1.8,3,3s1.1,2.4,1.1,3.8c0,1.4-0.4,2.7-1.1,3.8c-0.7,1.2-1.8,2.1-3.1,2.9s-2.8,1.4-4.5,1.9
						c-1.7,0.4-3.5,0.6-5.4,0.6c-2,0-3.9-0.2-5.6-0.7s-3.2-1.1-4.4-1.9c-1.2-0.8-2.2-1.8-2.9-2.9s-1.1-2.4-1.1-3.7
						c0-1.4,0.4-2.7,1.1-3.9c0.7-1.1,1.8-2.1,3.1-2.9s2.8-1.4,4.5-1.9c1.7-0.5,3.5-0.7,5.4-0.7s3.8,0.2,5.5,0.7
						S786.4,187.1,787.6,187.9z M784.6,200.5c0.8-0.8,1.3-1.6,1.7-2.6s0.5-2,0.5-3.2s-0.2-2.3-0.6-3.3c-0.4-1-1-1.9-1.7-2.6
						c-0.8-0.7-1.7-1.3-2.8-1.7c-1.1-0.4-2.4-0.6-3.9-0.6c-1.6,0-3.1,0.2-4.2,0.7c-1.2,0.5-2.1,1.1-2.8,1.8s-1.2,1.6-1.5,2.6
						s-0.5,2-0.5,3.1c0,1.2,0.2,2.3,0.5,3.3c0.4,1,0.9,1.8,1.7,2.6c0.7,0.7,1.7,1.3,2.8,1.7c1.1,0.4,2.5,0.6,4,0.6s2.8-0.2,4-0.6
						S783.8,201.2,784.6,200.5z"/>
					<path d="M825.9,198.3l-0.6,5.3h-22.9v-0.9c0.3,0,0.8,0,1.4-0.1c0.6,0,1.1-0.1,1.3-0.2c0.4-0.1,0.7-0.3,0.9-0.5s0.3-0.5,0.3-0.8
						v-12.7c0-0.3-0.1-0.5-0.2-0.8c-0.2-0.2-0.5-0.4-0.9-0.5c-0.3-0.1-0.8-0.2-1.3-0.3c-0.6-0.1-1-0.2-1.4-0.2v-0.8h12.4v0.9
						c-0.4,0-0.9,0-1.5,0.1c-0.6,0.1-1.1,0.1-1.3,0.2c-0.5,0.1-0.8,0.3-1,0.5s-0.3,0.5-0.3,0.8v11.9c0,0.5,0,1,0.1,1.3
						s0.3,0.5,0.6,0.7s0.8,0.2,1.4,0.3s1.5,0.1,2.6,0.1c0.5,0,1,0,1.6,0s1.1,0,1.6-0.1s0.9-0.1,1.3-0.2c0.4-0.1,0.7-0.2,0.9-0.3
						c0.6-0.4,1.2-1,2-1.7c0.7-0.8,1.3-1.4,1.6-1.9L825.9,198.3L825.9,198.3z"/>
					<path d="M859.5,198.3l-0.6,5.2h-24.3v-0.9c0.4,0,1-0.1,1.6-0.1c0.7-0.1,1.1-0.1,1.3-0.2c0.4-0.1,0.7-0.3,0.9-0.5
						s0.3-0.5,0.3-0.8v-12.8c0-0.3-0.1-0.5-0.2-0.7c-0.2-0.2-0.5-0.4-0.9-0.5c-0.4-0.1-0.9-0.2-1.5-0.3s-1.1-0.1-1.5-0.2v-0.7h22.6
						v4.3h-1.5c-0.3-0.6-0.9-1.3-1.8-2c-0.9-0.7-1.8-1.1-2.6-1.2c-0.4,0-0.9-0.1-1.5-0.1s-1.3,0-2,0h-4.6v7h3.3
						c1.1,0,1.8-0.1,2.3-0.2c0.5-0.1,0.9-0.3,1.3-0.6c0.3-0.2,0.6-0.6,0.8-1s0.4-0.8,0.4-1.1h1.5v7h-1.5c-0.1-0.4-0.2-0.8-0.4-1.3
						c-0.2-0.4-0.5-0.8-0.8-1c-0.4-0.3-0.9-0.5-1.5-0.6c-0.5-0.1-1.3-0.1-2.2-0.1h-3.3v5.3c0,0.5,0.1,1,0.2,1.3
						c0.1,0.3,0.4,0.5,0.7,0.7s0.8,0.3,1.5,0.3c0.6,0,1.5,0.1,2.6,0.1c0.5,0,1.1,0,1.8,0s1.4,0,1.9,0s1.1-0.1,1.6-0.2
						c0.6-0.1,1-0.2,1.2-0.4c0.6-0.4,1.3-1,2-1.8s1.1-1.4,1.3-1.8h1.6L859.5,198.3L859.5,198.3z"/>
					<path d="M899.5,186.7c-0.4,0-1,0.1-1.8,0.2c-0.8,0.1-1.4,0.3-1.7,0.4c-0.5,0.2-0.8,0.6-1,1.2c-0.2,0.6-0.3,1.3-0.3,2.3v13h-1.8
						l-17.7-14.5v9.2c0,1,0.1,1.8,0.3,2.4s0.5,0.9,1,1.2c0.3,0.2,1,0.4,2,0.5c1,0.2,1.6,0.2,2,0.3v0.9h-12v-0.9c0.4,0,1-0.1,1.9-0.2
						c0.9-0.1,1.4-0.3,1.7-0.4c0.5-0.2,0.8-0.6,1-1.1s0.3-1.3,0.3-2.5V190c0-0.4-0.1-0.8-0.3-1.1c-0.2-0.4-0.5-0.7-0.9-0.9
						c-0.5-0.3-1.2-0.5-2-0.7s-1.5-0.3-2.1-0.3v-1.2h8.4l16.4,13.5v-8.4c0-1-0.1-1.8-0.3-2.4c-0.2-0.6-0.5-0.9-0.9-1.1
						s-1-0.3-1.9-0.5c-0.9-0.1-1.5-0.2-2-0.3v-0.8h11.9v0.9H899.5z"/>
					<path d="M921.6,203.5h-13.2v-0.9c0.4,0,0.9,0,1.6-0.1c0.7,0,1.2-0.1,1.5-0.1c0.5-0.1,0.8-0.3,1-0.4c0.2-0.2,0.3-0.4,0.3-0.8
						v-12.8c0-0.3-0.1-0.5-0.2-0.7c-0.2-0.2-0.5-0.4-1.1-0.5c-0.4-0.1-0.9-0.2-1.6-0.3c-0.6-0.1-1.1-0.1-1.5-0.2v-0.9h13.2v0.9
						c-0.4,0-0.9,0-1.5,0.1c-0.6,0.1-1.1,0.1-1.5,0.2c-0.5,0.1-0.9,0.3-1.1,0.5c-0.2,0.2-0.3,0.5-0.3,0.8v12.8
						c0,0.3,0.1,0.5,0.3,0.7s0.5,0.4,1,0.5c0.3,0.1,0.8,0.1,1.4,0.2c0.7,0.1,1.2,0.1,1.7,0.1L921.6,203.5L921.6,203.5z"/>
					<path d="M959.5,203.5h-12.2v-0.9c1.1,0,2-0.1,2.7-0.3s1.1-0.3,1.1-0.5c0-0.1,0-0.2,0-0.3s-0.1-0.2-0.1-0.3l-2.4-4h-10.3
						c-0.4,0.6-0.7,1.1-0.9,1.5c-0.2,0.4-0.5,0.8-0.7,1.2s-0.3,0.6-0.4,0.9c-0.1,0.2-0.1,0.4-0.1,0.5c0,0.3,0.4,0.6,1.3,0.8
						c0.9,0.2,1.8,0.3,2.9,0.3v0.9h-11v-0.9c0.4,0,0.8-0.1,1.3-0.1s1-0.2,1.3-0.3c0.5-0.2,1-0.5,1.3-0.7s0.6-0.6,0.9-1
						c1.5-2.2,3.1-4.7,4.9-7.5c1.8-2.8,3.4-5.2,4.7-7.4h1.7l9.8,15.3c0.2,0.3,0.4,0.6,0.7,0.8s0.6,0.4,1.1,0.6
						c0.3,0.1,0.7,0.2,1.2,0.3s0.9,0.1,1.3,0.1L959.5,203.5L959.5,203.5z M947.7,196.3l-4.4-6.9l-4.4,6.9H947.7z"/>
				</g>
				<rect x="267.3" y="168.2" class="st0" width="689" height="3.2"/>
			</g>
		</g>
	</g>
	<g>
		<g id="a">
			<g>
				<g>
					<path class="st3" d="M285.5,351.9c-5.7,4-11.5,7.7-17.5,10.5c-1.8-5.6-3.7-11.1-5.5-16.5c4.3-3.3,8.7-6.8,13.2-10.3
						c-0.1-0.1-0.2-0.2-0.2-0.3c-4.5,3.2-9.1,6.4-13.4,9.4c-3.4-5.1-6.7-9.9-10-14.7c-0.2-0.3-0.1-0.7-0.1-0.9
						c-0.4-0.2-0.9-0.4-1.2-0.7c-1.6-1.7-3-3.4-4.5-5.1c-0.1,0.1-0.1,0.1-0.2,0.2c1.4,2.2,2.8,4.5,4.3,6.9
						c-5.8,4.4-11.4,8.7-17.1,13c-0.5-0.3-0.8-0.5-1.3-0.9c0.2,0.6,0.4,0.9,0.5,1.4c-16.9,11.3-34.5,21-54,26.5
						c-0.2,0-0.3,0.1-0.5,0.1c-0.3,0.1-0.6,0.2-0.9,0.2c-0.5,0.1-1.1,0.3-1.6,0.4c-0.3,0.1-0.5,0.1-0.8,0.2
						c-0.7,0.2-1.5,0.4-2.2,0.5c-0.2,0.1-0.5,0.1-0.7,0.2c-0.5,0.1-1.1,0.3-1.6,0.4c-0.3,0.1-0.6,0.1-0.9,0.2
						c-0.5,0.1-1,0.2-1.5,0.4c-0.2,0.1-0.5,0.1-0.7,0.2c-0.7,0.2-1.4,0.3-2,0.5c-0.3,0.1-0.5,0.1-0.8,0.2c-0.5,0.1-0.9,0.2-1.4,0.3
						c-0.3,0.1-0.5,0.1-0.8,0.2c-0.5,0.1-1,0.2-1.6,0.3c-0.2,0-0.4,0.1-0.6,0.1c-0.6,0.1-1.2,0.2-1.8,0.4c-0.3,0-0.5,0.1-0.8,0.1
						c-0.4,0.1-0.8,0.2-1.3,0.3c-0.3,0-0.5,0.1-0.7,0.1c-0.6,0.1-1.2,0.2-1.8,0.3c-0.2,0-0.3,0.1-0.5,0.1c-0.5,0.1-0.9,0.2-1.4,0.2
						c-0.2,0-0.5,0.1-0.7,0.1c-0.4,0.1-0.8,0.1-1.2,0.2c-0.2,0-0.4,0.1-0.6,0.1c-0.6,0.1-1.2,0.2-1.7,0.3c-0.2,0-0.4,0.1-0.5,0.1
						c-0.4,0.1-0.8,0.1-1.2,0.2c-0.2,0-0.4,0.1-0.6,0.1c-0.4,0.1-0.8,0.1-1.3,0.2c-0.2,0-0.3,0-0.5,0.1c-0.5,0.1-1.1,0.1-1.6,0.2
						c-0.2,0-0.4,0-0.5,0.1c-0.4,0-0.8,0.1-1.2,0.1c-0.2,0-0.4,0-0.5,0c-0.5,0-1,0.1-1.5,0.1c-0.1,0-0.1,0-0.2,0
						c-0.5,0-1,0.1-1.5,0.1c-0.2,0-0.3,0-0.5,0c-0.4,0-0.7,0-1.1,0.1c-0.1,0-0.3,0-0.4,0c-0.5,0-1,0-1.5,0.1c-0.1,0-0.2,0-0.2,0
						c-0.4,0-0.8,0-1.2,0c-0.1,0-0.3,0-0.4,0c-0.4,0-0.7,0-1.1,0c-0.1,0-0.2,0-0.3,0c-0.5,0-0.9,0-1.4,0c-0.1,0-0.2,0-0.3,0
						c-0.4,0-0.7,0-1.1,0c-0.2,0-0.3,0-0.5,0c-0.3,0-0.6,0-0.9,0c-0.2,0-0.3,0-0.5,0c-0.3,0-0.6,0-0.9-0.1c-0.1,0-0.3,0-0.4,0
						c-0.8-0.1-1.6-0.1-2.5-0.2c-0.1,0-0.2,0-0.3,0c-0.3,0-0.6-0.1-0.8-0.1c-0.1,0-0.3,0-0.4-0.1c-0.3,0-0.5-0.1-0.8-0.1
						c-0.1,0-0.2,0-0.3,0c-0.3-0.1-0.7-0.1-1-0.2c0,0-0.1,0-0.1,0c-0.4-0.1-0.7-0.1-1.1-0.2c-0.1,0-0.1,0-0.2,0
						c-0.3-0.1-0.6-0.1-0.8-0.2c-0.1,0-0.2,0-0.3-0.1c-0.3-0.1-0.5-0.1-0.7-0.2c-0.1,0-0.2,0-0.3-0.1c-0.3-0.1-0.6-0.2-0.8-0.2
						c0,0-0.1,0-0.1,0c-0.6-0.2-1.3-0.4-1.8-0.6c-0.1,0-0.1,0-0.2-0.1c-0.3-0.1-0.5-0.2-0.7-0.3c-0.1,0-0.1,0-0.2-0.1
						c-0.3-0.1-0.5-0.2-0.7-0.3c0,0,0,0-0.1,0c-0.5-0.3-1.1-0.5-1.6-0.8c0,0,0,0-0.1,0c-0.2-0.1-0.5-0.3-0.7-0.4c0,0-0.1,0-0.1-0.1
						c-0.2-0.1-0.5-0.3-0.7-0.4c0,0,0,0,0,0c-0.7-0.5-1.4-0.9-2-1.4l0,0c-14.2-11.6-3-36,6.4-51.4l0-0.1c0.1-0.2,0.2-0.4,0.4-0.6
						l0-0.1c0.3-0.4,0.5-0.8,0.8-1.3l0,0c0.1-0.2,0.2-0.4,0.4-0.5c0,0,0.1-0.1,0.1-0.1c0.1-0.2,0.2-0.3,0.3-0.5
						c0-0.1,0.1-0.1,0.1-0.2c0.1-0.2,0.2-0.3,0.3-0.5c0,0,0-0.1,0.1-0.1c0.1-0.2,0.3-0.4,0.4-0.5c0,0,0,0,0-0.1
						c0.1-0.2,0.2-0.3,0.3-0.5c0-0.1,0.1-0.1,0.1-0.2c0.1-0.1,0.2-0.2,0.2-0.4c0-0.1,0.1-0.1,0.1-0.2c0.1-0.1,0.2-0.2,0.2-0.3
						c0-0.1,0.1-0.1,0.1-0.2c0.1-0.2,0.2-0.3,0.3-0.5l0,0h-1.3c-4.9,5.6-9,10.8-12.4,15.7c-0.3,0.4-0.5,0.8-0.8,1.2
						c-0.5,0.8-1.1,1.6-1.6,2.4c-0.3,0.4-0.5,0.8-0.7,1.2c-4.4,6.9-7.3,13.1-9,18.5c-0.2,0.6-0.4,1.2-0.5,1.8
						c-0.1,0.5-0.3,1-0.4,1.6c0,0.1-0.1,0.2-0.1,0.4c-0.2,1-0.4,2.1-0.5,3c-0.1,0.6-0.1,1.1-0.2,1.7c0,0.5-0.1,1-0.1,1.5
						c0,0.3,0,0.5,0,0.7c0,0.5,0,1,0.1,1.5c0,0.2,0,0.5,0.1,0.7c0.1,1.2,0.3,2.3,0.6,3.4c0.2,0.9,0.5,1.7,0.8,2.5
						c0.3,0.8,0.7,1.6,1.1,2.3c0.3,0.5,0.6,1.1,1,1.6c0.2,0.4,0.5,0.7,0.7,1c0.4,0.5,0.8,1,1.2,1.5c0.6,0.6,1.2,1.3,1.9,1.8
						c0.3,0.3,0.7,0.6,1,0.9c0.9,0.7,1.8,1.4,2.8,2c0.2,0.1,0.4,0.3,0.6,0.4c0.4,0.3,0.8,0.5,1.2,0.7c1.2,0.7,2.6,1.4,3.9,2
						s2.8,1.2,4.3,1.7c0.3,0.1,0.5,0.2,0.7,0.3c1,0.3,2,0.6,3,0.9c0.3,0.1,0.5,0.1,0.8,0.2c1.3,0.4,2.6,0.7,4,1
						c1.1,0.2,2.2,0.5,3.3,0.7c0.5,0.1,1.1,0.2,1.7,0.3c3.9,0.7,8,1.1,12.1,1.5l-1.4,25.1h17.8v-24.5c3.4,0,6.8-0.1,9.9-0.3
						c0.4,0,0.7,0,1,0c2.4-0.1,4.8-0.3,6.9-0.4c4.7-0.3,8.7-0.7,11.7-1.1V372c19.8-6.1,36.2-15.2,53.7-26.8c2.5,3.7,5,7.3,7.6,11.1
						c-4.4,2-8.6,3.9-12.7,5.8c-1.1,0.5-2.4,1.4-3.4,1.2c-1-0.2-1.7-1.6-2.6-2.5c-0.9-0.9-1.9-1.9-2.8-2.9l-0.2,0.2
						c1.5,1.9,3,3.8,4.7,5.9c-4.8,1.6-9.2,3.2-13.7,4.8c-1.6,0.6-2.8,0.9-3.9-0.7c0,0-0.1,0-0.3,0c0.4,0.5,0.7,1,1.3,1.7
						c-5.8,1.5-11.4,2.9-16.9,4.4c0.3,0,0.6,0.1,0.9,0c5.4-0.9,10.7-1.8,16.1-2.6c0.5-0.1,1.4-0.1,1.7,0.3c4.3,5.4,9.3,10.2,11.6,17
						c2.1-3.5,2-4.5-0.7-7.3c-2.3-2.3-4.6-4.6-7-6.9c-1.1-1.1-2.3-2.3-3.4-3.4c5-1.7,9.9-3.5,14.8-5.2c0.3-0.1,0.9-0.1,1,0.1
						c1.9,2.5,3.7,5.1,5.7,7.9c-4.3,0.7-8.4,1.4-12.4,2c3.8,0,7.7-0.3,11.5-0.7c1.1-0.1,1.9,0,2.4,1.1c0.6,1.1,1.4,2.1,1.9,3.3
						c1.3,2.6,2.6,5.1,3.8,7.6c1.9-4.9-0.7-8.7-3.4-12.4c5-1.1,9.8-2.2,14.9-3.3c1.6,3.4,3.2,7,4.8,10.4c1-4-0.5-7.7-1.9-11.4
						c3.6-1.5,7.1-2.9,10.7-4.4c0.6,3,1.3,5.8,1.9,9c0.3-0.7,0.5-1.1,0.7-1.6c1-2.7,1-5.4,0.8-8.2c-0.1-0.8,0.2-1.3,0.9-1.7
						c4.1-2.6,8.1-5.3,12.1-8.1c1.7-1.2,3.2-2.6,4.8-3.8C285.7,352.1,285.6,352,285.5,351.9L285.5,351.9z M234.8,345
						c5.2-4.7,10.5-9.3,15.8-14.1c0.6,1.2,1.4,2.4,2,3.8c1.8,3.8,3.4,7.7,5.2,11.5c0.4,0.8,0.2,1.1-0.5,1.5
						c-4.3,2.4-8.6,4.9-12.9,7.2c-0.3,0.2-1.1,0.2-1.3,0C240.4,351.5,237.6,348.2,234.8,345L234.8,345z M246.4,370.7
						c-3.6,0.9-7.1,1.8-10.7,2.7c-0.8,0.2-1.3,0-1.8-0.7c-2.1-2.5-4.3-4.8-6.4-7.2c5.1-2.5,10.1-4.9,15.3-7.3
						c2.2,3.8,4.5,7.6,6.9,11.5C248.4,370.1,247.4,370.4,246.4,370.7L246.4,370.7z M252.9,368.7c-2.7-4.1-5.3-8-7.9-11.9
						c4.5-2.8,9.1-5.6,13.9-8.5c1.7,5.3,3.4,10.6,5.1,16.1C260.1,365.9,256.4,367.3,252.9,368.7L252.9,368.7z"/>
					<path class="st3" d="M143.8,367.9c5.1,0,9.2-3.1,9.2-7c0-3.9-4.1-7-9.2-7c-5.1,0-9.2,3.1-9.2,7
						C134.6,364.8,138.7,367.9,143.8,367.9z"/>
					<path class="st3" d="M165.2,338.2c1.1,0.3,2.1,0.4,3.2,0.4c2.2,0,4.3-0.6,6.2-1.8c3-1.8,5.1-4.9,5.9-8.5v-0.1
						c0-0.6,0.1-1,0.2-1.4v0l0-1c-0.1-4.8-2.2-8.4-6-10.7c-0.1-0.1-0.2-0.1-0.3-0.2c-0.2-0.2-0.5-0.4-1.1-0.6c0,0-0.1,0-0.3-0.1
						c-0.3-0.1-0.7-0.3-0.7-0.3h0c0,0-0.1,0-0.1,0l-0.1,0c-3.7-1-7.4-0.4-10.5,1.7c-3,2.1-5,5.5-5.4,9.1
						C155.4,330.9,159.2,336.6,165.2,338.2L165.2,338.2z M167.4,337.3c-1-0.1-2-0.3-2.9-0.6c0,0,0,0,0.1,0c0.5-0.2,1-0.4,1.5-0.7
						c0.7-0.6,1.3-1.4,1.9-2c0.2-0.3,0.5-0.5,0.7-0.8c0.1-0.1,0.2-0.2,0.3-0.4l0.2,0.4c0.5,0.8,0.9,1.6,1.4,2.3c0,0,0,0.2,0,0.2
						C169.7,336.6,168.6,337.1,167.4,337.3L167.4,337.3z M171,337c-0.3,0.1-0.5,0.1-0.8,0.2c0.4-0.3,0.9-0.6,1.3-0.9
						c0.2-0.1,0.5-0.1,0.7-0.2h0c0.7-0.1,1.3-0.2,1.9-0.4C173.2,336.2,172.1,336.7,171,337L171,337z M171.9,335
						C171.8,335,171.8,335,171.9,335L171.9,335c-1.2-2.5-3.2-4.2-4.8-5.7c-1-0.9-2-1.7-3.1-2.5c-0.5-0.4-1.1-0.8-1.6-1.3
						c-0.1-0.1-0.2-0.2-0.2-0.2c0.2-1.4,0.4-2.7,1.1-4.2l12.6,12.3C174.8,334.4,173.4,334.9,171.9,335L171.9,335z M177.6,332
						L177.6,332L177.6,332c-0.4,0.3-0.6,0.5-0.8,0.5c-0.2,0-0.4-0.3-0.8-0.6c-2.9-2.7-5.8-5.6-8.6-8.2l-3-2.9
						c-0.1-0.1-0.3-0.3-0.4-0.4l-0.1-0.1c0.1-0.1,0.2-0.2,0.3-0.3c0.4-0.5,0.9-1.1,1.3-1.6c0.1,0,0.3,0,0.4,0
						c2.1,0.6,3.9,1.9,5.5,3.2c2.6,2,4.5,4,5.9,6.2c0.1,0.1,0.1,0.2,0.2,0.3l0,0C178.3,329.4,178.6,330.7,177.6,332L177.6,332z
						 M179.4,327.9c0,0.4-0.1,0.8-0.2,1.2c-0.5-1.9-1.6-3.3-2.7-4.6c-2.7-3.1-6-5.5-9.8-7.1c0.9-0.8,2.3-1.1,3.3-0.7
						c3.8,1.5,6.7,3.8,8.8,6.9C179.6,324.9,179.5,326.4,179.4,327.9z M178.2,320.5c0.3,0.5,0.5,1,0.7,1.6c-0.6-0.8-1.2-1.6-1.9-2.3
						c-2-2-4.5-3.5-7.7-4.5c-0.2-0.1-0.3-0.1-0.5-0.2c-0.1,0-0.1-0.1-0.2-0.1c-0.1,0-0.1-0.1-0.1-0.2c0,0,0-0.1-0.1-0.1
						C172.6,314.6,176.3,317,178.2,320.5z M163.7,316.3c0.4-0.5,0.8-1,1-1.2c0.7-0.2,1.4-0.4,2.1-0.5c0.1,0,0.1,0,0.2,0.1l0.1,0
						c0,0.2,0.3,0.5,0.6,0.7l0,0c-0.1,0-0.2,0.1-0.2,0.1c-0.5,0.2-0.9,0.5-1.3,0.7c-2.7,1.7-4.4,4.4-4.8,7.7c-0.2,1.5-1,2.4-2.3,3.3
						c-0.1-1.4,0.3-2.8,0.6-4c0.7-2.3,2-4.6,4-6.9L163.7,316.3L163.7,316.3z M157,327.6c-0.1-1-0.1-2,0-3.1c0.2-1.2,0.4-2.3,0.8-3.2
						c1.1-2.3,2.9-4.3,5.2-5.4c-0.4,0.4-0.7,0.7-0.9,0.9c-2.8,3.3-4.1,6.7-4.1,10.4c0,0.4-0.4,0.7-0.7,0.9c-0.1,0.1-0.2,0.1-0.2,0.2
						C157.1,328.1,157.1,327.9,157,327.6L157,327.6z M160,327.9c0.4-0.3,0.9-0.6,1.3-1c0.3-0.3,0.5-0.3,0.8-0.1
						c0.8,0.6,1.7,1.2,2.6,1.9l0.8,0.5c-1.6,1.5-3.2,2.7-4.9,3.5l0.2,0.6c2.1-0.6,3.8-1.9,5.5-3.3c0.1,0.1,0.2,0.2,0.3,0.3
						c0.5,0.5,0.9,0.9,1.4,1.4c0,0.1,0,0.2,0,0.2c-0.9,1.5-2.3,3.2-4.3,4.3l0,0c-3-1.4-5.4-4-6.3-7.3
						C158,328.9,159.6,328.2,160,327.9L160,327.9z"/>
					<path class="st3" d="M120.4,396.3c-2.5-0.5-5-1-7.5-1.7c-2.5-0.6-4.9-1.4-7.2-2.3c-2.4-0.9-4.7-1.8-7-3
						c-1.1-0.6-2.2-1.2-3.3-1.8c-1.1-0.6-2.1-1.3-3.1-2.1c-2-1.5-3.8-3.1-5.4-5c-1.6-1.9-2.9-3.9-3.8-6.2c-0.9-2.2-1.5-4.6-1.6-7
						c-0.1-1.2-0.1-2.4,0-3.7s0.2-2.4,0.5-3.6c0.5-2.4,1.4-4.8,2.3-7.1c1.9-4.7,4.3-9.2,6.9-13.5c1.3-2.2,2.6-4.4,4-6.5
						c1.4-2.2,2.8-4.3,4.2-6.4c1.4-2.1,2.9-4.2,4.5-6.2c0.8-1,1.6-2,2.4-3c0.8-1,1.6-2,2.5-2.9l-0.1-0.1c-1,0.9-1.8,1.8-2.7,2.7
						c-0.9,1-1.7,1.9-2.5,2.9c-1.6,2-3.2,4-4.7,6.1c-3,4.1-5.9,8.4-8.6,12.7c-2.7,4.4-5.2,8.9-7.2,13.6c-1,2.4-1.9,4.8-2.4,7.3
						c-0.3,1.3-0.5,2.6-0.5,3.8c-0.1,1.3-0.1,2.6,0,3.9c0.2,2.6,0.8,5.1,1.8,7.5s2.4,4.6,4.1,6.5c1.7,2,3.6,3.7,5.7,5.2
						c2.1,1.5,4.3,2.8,6.7,3.9s4.7,2.1,7.1,2.9s4.9,1.5,7.4,2.1c5,1.2,10.1,1.9,15.2,2.3v-0.2c-1.3-0.2-2.6-0.4-3.8-0.6
						C122.9,396.8,121.6,396.6,120.4,396.3L120.4,396.3z"/>
					<path class="st3" d="M95.5,393.9c-4.5-2.3-8.7-5.1-12.3-8.7c-1.8-1.7-3.3-3.7-4.6-5.8c-1.3-2.1-2.3-4.4-2.9-6.8
						c-0.6-2.4-0.9-4.9-0.8-7.3c0-0.6,0.1-1.2,0.1-1.8c0.1-0.6,0.2-1.2,0.3-1.8c0.2-1.2,0.5-2.4,0.9-3.6c1.5-4.8,3.8-9.3,6.2-13.8
						c2.5-4.4,5.2-8.7,8.1-12.9c1.5-2.1,3-4.1,4.5-6.1c0.8-1,1.6-2,2.4-2.9s1.7-1.9,2.6-2.8l-0.1-0.1c-0.9,0.8-1.8,1.8-2.7,2.7
						c-0.9,0.9-1.7,1.9-2.5,2.9c-1.6,2-3.2,4-4.7,6c-3,4.1-5.9,8.4-8.4,12.8c-1.3,2.2-2.5,4.5-3.6,6.8c-1.1,2.3-2.1,4.7-2.8,7.1
						c-1.6,4.9-1.9,10.2-0.6,15.1c0.6,2.5,1.7,4.9,3,7c1.3,2.2,3,4.2,4.8,6c3.7,3.6,8,6.4,12.5,8.7c4.6,2.3,9.4,4,14.3,5.3
						c4.9,1.3,10,2.2,15.1,2.6v-0.1c-5.1-0.6-10.1-1.5-14.9-2.9C104.8,398,100,396.2,95.5,393.9L95.5,393.9z"/>
				</g>
			</g>
		</g>
		<g>
			<path class="st4" d="M337.8,353.6h-17.2v-6.4l10-27.4h9.3l-10.9,26.5h8.7v-11.4h8.5v11.4h3.9v7.4h-3.9v6.7h-8.5L337.8,353.6
				L337.8,353.6z"/>
			<path class="st4" d="M383.1,360.9c-0.5,0.1-1.8,0.2-2.7,0.2c-13.2,0-17.3-7.1-17.3-21.4c0-14.3,4.2-21.9,17.3-21.9
				c13.2,0,17.3,7.7,17.3,21.9c0,9.1-1.8,15-6.4,18.4l5.1,8.2l-7.8,3.6L383.1,360.9L383.1,360.9z M389,339.7
				c0-9.7-1.7-14.5-8.6-14.5s-8.6,4.9-8.6,14.5c0,9.7,1.7,14,8.6,14C387.2,353.7,389,349.4,389,339.7z"/>
			<path class="st4" d="M417.6,353.7c5,0,7.4-2.4,7.4-7.3v-27.8h8.5v27.6c0,10.4-5.5,14.9-15.9,14.9s-15.9-4.4-15.9-14.9v-27.6h8.5
				v27.8C410.2,351.4,412.6,353.7,417.6,353.7L417.6,353.7z"/>
			<path class="st4" d="M445,318.6h16.1l9.4,41.8H462l-1.6-7.6h-14.6l-1.6,7.6h-8.5L445,318.6L445,318.6z M447.3,345.4h11.4
				l-4.2-19.9h-2.9L447.3,345.4L447.3,345.4z"/>
			<path class="st4" d="M473.2,360.4v-41.8h8.5v34.3h15.3v7.5H473.2z"/>
			<path class="st4" d="M499.3,318.6h8.5v41.8h-8.5V318.6z"/>
			<path class="st4" d="M510.3,318.6H541v7.5h-11.1v34.3h-8.5v-34.3h-11.2V318.6z"/>
			<path class="st4" d="M560.3,360.4h-8.5v-16.9l-12.9-24.9h9.4l7.7,16.7l7.7-16.7h9.4l-12.8,24.9L560.3,360.4L560.3,360.4z"/>
			<path class="st4" d="M593.9,348.2v12.2h-8.5v-41.8h15.4c9.8,0,14.9,4.8,14.9,14.5s-5,15.1-14.9,15.1L593.9,348.2L593.9,348.2z
				 M600.7,340.9c4.2,0,6.3-2.6,6.3-7.9s-2.1-7.2-6.3-7.2h-6.8V341L600.7,340.9L600.7,340.9z"/>
			<path class="st4" d="M627.2,346.3v14h-8.5v-41.8H635c9.5,0,14.7,4.2,14.7,13.8c0,5.8-2.3,9.7-6.1,12.1l6,16h-9.3l-4.9-14
				L627.2,346.3L627.2,346.3z M635,325.8h-7.7v13.3h7.9c4.2,0,6-2.9,6-6.6C641.1,328.4,639,325.8,635,325.8L635,325.8z"/>
			<path class="st4" d="M652.1,339.7c0-14.1,4.2-21.9,17.3-21.9c13.2,0,17.3,7.7,17.3,21.9c0,14.2-4.2,21.4-17.3,21.4
				S652.1,353.8,652.1,339.7z M678.1,339.7c0-9.7-1.7-14.5-8.6-14.5s-8.6,4.9-8.6,14.5c0,9.7,1.7,14,8.6,14
				C676.4,353.7,678.1,349.3,678.1,339.7z"/>
			<path class="st4" d="M691.2,318.6h26.7v7.4h-18.2v12.3h14.9v7.4h-14.9v14.7h-8.5V318.6z"/>
			<path class="st4" d="M720.9,318.6h27v7.4h-18.6v9.8h14.9v7.2h-14.9v10H748v7.4h-27L720.9,318.6L720.9,318.6z"/>
			<path class="st4" d="M777.2,326.2c0,0-8.7-1-12.2-1c-4.6,0-6.7,1.6-6.7,4.4c0,2.8,1.6,3.6,8.7,5.8c9.1,2.9,11.8,5.4,11.8,12.4
				c0,9.1-6.2,13.3-14.5,13.3c-5.7,0-13.9-1.9-13.9-1.9l0.9-6.6c0,0,8.2,1.1,12.6,1.1c4.4,0,6.5-2.2,6.5-5.4c0-2.6-1.5-3.8-7.5-5.5
				c-9.4-2.7-13-5.9-13-12.6c0-8.7,5.8-12.4,14.3-12.4c5.6,0,13.8,1.6,13.8,1.6L777.2,326.2L777.2,326.2z"/>
			<path class="st4" d="M807.7,326.2c0,0-8.7-1-12.2-1c-4.6,0-6.7,1.6-6.7,4.4c0,2.8,1.6,3.6,8.7,5.8c9.1,2.9,11.8,5.4,11.8,12.4
				c0,9.1-6.2,13.3-14.5,13.3c-5.7,0-13.9-1.9-13.9-1.9l0.9-6.6c0,0,8.2,1.1,12.6,1.1c4.4,0,6.5-2.2,6.5-5.4c0-2.6-1.5-3.8-7.5-5.5
				c-9.4-2.7-13-5.9-13-12.6c0-8.7,5.8-12.4,14.3-12.4c5.6,0,13.8,1.6,13.8,1.6L807.7,326.2L807.7,326.2z"/>
			<path class="st4" d="M813.2,318.6h8.5v41.8h-8.5V318.6z"/>
			<path class="st4" d="M826,339.7c0-14.1,4.2-21.9,17.3-21.9s17.3,7.7,17.3,21.9c0,14.2-4.2,21.4-17.3,21.4S826,353.8,826,339.7z
				 M852,339.7c0-9.7-1.7-14.5-8.6-14.5s-8.6,4.9-8.6,14.5c0,9.7,1.7,14,8.6,14S852,349.3,852,339.7z"/>
			<path class="st4" d="M865.1,318.6h14.3l10.1,34.4h0.6v-34.4h8.5v41.8h-13.9l-10.4-34.4h-0.6v34.4h-8.5L865.1,318.6L865.1,318.6z"
				/>
			<path class="st4" d="M910.7,318.6h16.1l9.4,41.8h-8.5l-1.6-7.6h-14.6l-1.6,7.6h-8.5L910.7,318.6z M913,345.4h11.4l-4.2-19.9h-2.9
				L913,345.4L913,345.4z"/>
			<path class="st4" d="M938.9,360.4v-41.8h8.5v34.3h15.3v7.5H938.9z"/>
			<polygon class="st5" points="389.3,400 386.5,400 379.7,400 376.9,400 370.1,400 367.4,400 360.6,400 357.8,400 351,400 
				348.2,400 338.6,400 338.6,402.3 348.2,402.3 351,402.3 357.8,402.3 360.6,402.3 367.4,402.3 370.1,402.3 376.9,402.3 
				379.7,402.3 386.5,402.3 389.3,402.3 398.8,402.3 398.8,400 			"/>
			<path class="st5" d="M425.8,384.1l-7.6,28.3h-6.1l-7.6-28.3h2.6l6.9,26.1h2.4l6.9-26.1H425.8L425.8,384.1z"/>
			<path class="st5" d="M432.5,398.4c0-9.3,2.3-14.7,11-14.7s11.1,5.3,11.1,14.7c0,9.3-2.3,14.4-11.1,14.4
				C434.8,412.8,432.5,407.8,432.5,398.4z M452,398.4c0-8-1.6-12.4-8.5-12.4s-8.4,4.4-8.4,12.4c0,8,1.4,12.1,8.4,12.1
				C450.6,410.5,452,406.7,452,398.4z"/>
			<path class="st5" d="M464.2,412.4v-28.3h2.5v26h12.9v2.3L464.2,412.4L464.2,412.4z"/>
			<path class="st5" d="M487.4,412.4v-28.3h2.5v26h12.9v2.3L487.4,412.4L487.4,412.4z"/>
			<path class="st5" d="M510.5,384.1h17v2.3h-14.5v10.5h12v2.2h-12v11h14.5v2.2h-17V384.1L510.5,384.1z"/>
			<path class="st5" d="M545.3,412.4h-2.5v-12l-9.1-16.3h2.8l7.5,13.7l7.5-13.7h2.8l-9.1,16.3L545.3,412.4L545.3,412.4z"/>
			<path class="st5" d="M572.1,384.1c5.5,0,8.3,2.2,8.3,7.1c0,3.8-1.5,5.6-3.8,6.6c2.5,0.8,4.7,2.5,4.7,6.7c0,6-3.4,7.9-8.7,7.9
				h-10.7v-28.3L572.1,384.1L572.1,384.1z M564.6,386.4v10.5h7.8c3.9,0,5.5-1.8,5.5-5.5c0-3.7-1.9-5-5.9-5H564.6L564.6,386.4z
				 M564.6,399.1v11.1h8.1c3.7,0,6.1-1.2,6.1-5.7c0-4.9-4.3-5.4-6.4-5.4H564.6z"/>
			<path class="st5" d="M596,384.1h5.9l8.1,28.3h-2.5l-2.3-7.8h-12.6l-2.2,7.8h-2.5L596,384.1z M593.3,402.4h11.4l-4.6-16h-2.2
				L593.3,402.4L593.3,402.4z"/>
			<path class="st5" d="M618.3,412.4v-28.3h2.5v26h12.9v2.3L618.3,412.4L618.3,412.4z"/>
			<path class="st5" d="M641.4,412.4v-28.3h2.5v26h12.9v2.3L641.4,412.4L641.4,412.4z"/>
			<path class="st5" d="M682.9,384.1h5.9l8.1,28.3h-2.5l-2.3-7.8h-12.6l-2.2,7.8h-2.5L682.9,384.1L682.9,384.1z M680.1,402.4h11.4
				l-4.6-16h-2.2L680.1,402.4L680.1,402.4z"/>
			<path class="st5" d="M721.4,412c-2,0.4-4.9,0.9-7.7,0.9c-8.4,0-10.3-5.2-10.3-14.5s1.7-14.6,10.3-14.6c2.8,0,5.8,0.5,7.7,0.9
				l-0.1,2.2c-1.8-0.3-5-0.8-7.3-0.8c-6.9,0-7.9,4.3-7.9,12.4s1.1,12.2,7.9,12.2c2.4,0,5.3-0.4,7.3-0.8L721.4,412L721.4,412z"/>
			<path class="st5" d="M735.9,384.1h5.9l8.1,28.3h-2.5l-2.3-7.8h-12.6l-2.2,7.8h-2.5L735.9,384.1z M733.2,402.4h11.4l-4.6-16h-2.2
				L733.2,402.4z"/>
			<path class="st5" d="M758.1,412.4v-28.3h10.3c7.8,0,10.1,6.1,10.1,13.7s-2.2,14.5-10.1,14.5L758.1,412.4L758.1,412.4z
				 M768.4,386.4h-7.8v23.8h7.8c5.9,0,7.4-6.1,7.4-12.3S774.4,386.4,768.4,386.4L768.4,386.4z"/>
			<path class="st5" d="M788.1,384.1h17v2.3h-14.5v10.5h12v2.2h-12v11h14.5v2.2h-17V384.1L788.1,384.1z"/>
			<path class="st5" d="M814.2,384.1h4.7l8.8,24.7l8.7-24.7h4.7v28.3h-2.5v-25.7H838l-8.9,24.7h-3l-8.9-24.7h-0.6v25.7h-2.5
				L814.2,384.1L814.2,384.1z"/>
			<path class="st5" d="M860.4,412.4h-2.5v-12l-9.1-16.3h2.8l7.5,13.7l7.5-13.7h2.8l-9.1,16.3L860.4,412.4L860.4,412.4z"/>
			<polygon class="st5" points="933.3,400 930.5,400 923.8,400 921,400 914.2,400 911.4,400 904.7,400 901.8,400 895.1,400 
				892.3,400 882.7,400 882.7,402.3 892.3,402.3 895.1,402.3 901.8,402.3 904.7,402.3 911.4,402.3 914.2,402.3 921,402.3 
				923.8,402.3 930.5,402.3 933.3,402.3 942.9,402.3 942.9,400 			"/>
		</g>
	</g>
</g>
</svg>
