<?xml version="1.0"?>
<svg xmlns="http://www.w3.org/2000/svg" xmlns:xlink="http://www.w3.org/1999/xlink" xmlns:svgjs="http://svgjs.com/svgjs" version="1.1" width="512" height="512" x="0" y="0" viewBox="0 0 8.4666667 8.4666667" style="enable-background:new 0 0 512 512" xml:space="preserve" class=""><g><g xmlns="http://www.w3.org/2000/svg" id="layer2"><path id="path824" d="m1.5869302 0c-.2883 0-.52861.240737-.52861.52916598v7.40885002c0 .2884048.24033.5286499.52861.5286499.025 0 3.9923569.0000011 5.2922768 0 .2882802 0 .5285801-.2402451.5286103-.5286499l.0005291-5.821866h-1.85039c-.1461802 0-.25996-.117432-.26611-.26355v-1.8526zm4.2340271 0v1.586983h1.5873698c-.002-.07121-.0276-.138906-.0796-.187585l-1.3036901-1.304314c-.0729501-.07295008-.1056308-.095084-.2040797-.095084zm-3.1747471 2.9098999h3.1731969c.3530999 0 .3530999.5296832 0 .5296832h-3.1731969c-.35292 0-.35292-.5296832 0-.5296832zm0 1.3224h3.1731969c.3529301 0 .3529301.5291661 0 .5291661h-3.1731969c-.35292 0-.35292-.5291661 0-.5291661zm0 1.3244671h3.1731969c.3529301 0 .3529301.5291659 0 .5291659h-3.1731969c-.35292 0-.35292-.5291659 0-.5291659z" font-variant-ligatures="normal" font-variant-position="normal" font-variant-caps="normal" font-variant-numeric="normal" font-variant-alternates="normal" font-feature-settings="normal" text-indent="0" text-align="start" text-decoration-line="none" text-decoration-style="solid" text-decoration-color="rgb(0,0,0)" text-transform="none" text-orientation="mixed" white-space="normal" shape-padding="0" isolation="auto" mix-blend-mode="normal" solid-color="rgb(0,0,0)" solid-opacity="1" vector-effect="none" fill="#d4d4d4" data-original="#000000" style="" class=""/></g></g></svg>
