<?xml version="1.0"?>
<svg xmlns="http://www.w3.org/2000/svg" xmlns:xlink="http://www.w3.org/1999/xlink" xmlns:svgjs="http://svgjs.com/svgjs" version="1.1" width="512" height="512" x="0" y="0" viewBox="0 0 512 512" style="enable-background:new 0 0 512 512" xml:space="preserve" class=""><g><g xmlns="http://www.w3.org/2000/svg" id="OUTLINE"><path d="M162.5293,84.92285l-5.0586-15.17871L137.5166,76.395A127.93438,127.93438,0,0,0,54.919,162.66211l-3.18262,11.14014,15.38476,4.3955,3.18262-11.14013a111.94237,111.94237,0,0,1,72.27246-75.48389Z" fill="#d4d4d4" data-original="#000000" style="" class=""/><path d="M441.69629,167.05762l3.18262,11.14013,15.38476-4.3955-3.18262-11.14014A127.93372,127.93372,0,0,0,374.48242,76.395L354.5293,69.74414l-5.0586,15.17871,19.95215,6.65088A111.94171,111.94171,0,0,1,441.69629,167.05762Z" fill="#d4d4d4" data-original="#000000" style="" class=""/><path d="M495.69238,189.80225l-14.61133-51.14014A127.93536,127.93536,0,0,0,398.4834,52.395L340.32129,33.00781,325.65723,18.34326a8.00026,8.00026,0,0,0-12.31348,1.21924l-14.25,21.37451a51.79235,51.79235,0,0,1-86.1875,0l-14.25-21.37451a8.00026,8.00026,0,0,0-12.31348-1.21924L171.67871,33.00781,113.5166,52.395A127.93536,127.93536,0,0,0,30.919,138.66211L16.30762,189.80225A8.00533,8.00533,0,0,0,16,192v32a7.99967,7.99967,0,0,0,4.42188,7.15527l64,32a8.00073,8.00073,0,0,0,10.93164-4.0039L104,238.97559V488a8.00008,8.00008,0,0,0,8,8H400a8.00008,8.00008,0,0,0,8-8V238.97559l8.64648,20.17578a8.00073,8.00073,0,0,0,10.93164,4.0039l64-32A7.99967,7.99967,0,0,0,496,224V192A8.00533,8.00533,0,0,0,495.69238,189.80225ZM181.65723,45.65674l9.09961-9.09961L199.59375,49.812a67.79153,67.79153,0,0,0,112.8125,0l8.83691-13.25488,9.09961,9.09961a8.0039,8.0039,0,0,0,3.127,1.93262l.97509.325L316.31934,68.62891a80.15025,80.15025,0,0,1-120.63868,0L177.55518,47.91437l.97509-.325A8.0039,8.0039,0,0,0,181.65723,45.65674Zm-97.668,199.39355L32,219.05566V204.94434l56.96973,28.4848Zm323.36426-48.20166A8.00026,8.00026,0,0,0,392,200V480H360V104H344V480H312V128H296V480H264V128H248V480H216V128H200V480H168V208H152V480H120V200a8.00026,8.00026,0,0,0-15.35352-3.15137L95.2832,218.6972,33.51611,187.81378l12.7876-44.75616a111.94171,111.94171,0,0,1,72.27344-75.48389L161.0957,53.40088,183.63965,79.165a96.14988,96.14988,0,0,0,144.7207,0L350.9043,53.40088l42.51855,14.17285a111.94171,111.94171,0,0,1,72.27344,75.48389l12.7876,44.75616L416.7168,218.6972Zm20.65722,48.20166-4.98047-11.62115L480,204.94434v14.11132Z" fill="#d4d4d4" data-original="#000000" style="" class=""/><path d="M181.02734,126.05957a7.99818,7.99818,0,0,0-5.23046-5.64893l-24-8a7.99625,7.99625,0,0,0-5.06055,0l-24,8a8,8,0,0,0-5.23145,5.64991l-1.77246,7.09619a39.7604,39.7604,0,0,0,20.916,45.47851l4.61816,2.30909V184a8,8,0,0,0,16,0v-3.05566l4.61914-2.30909a39.7604,39.7604,0,0,0,20.916-45.47851Zm-26.29687,38.26465-5.46387,2.73144-5.46191-2.73095a23.85657,23.85657,0,0,1-12.54981-27.28809l.708-2.83594,17.30371-5.76806,17.30371,5.76806.71,2.83692A23.85726,23.85726,0,0,1,154.73047,164.32422Z" fill="#d4d4d4" data-original="#000000" style="" class=""/></g></g></svg>
