<?xml version="1.0"?>
<svg xmlns="http://www.w3.org/2000/svg" xmlns:xlink="http://www.w3.org/1999/xlink" xmlns:svgjs="http://svgjs.com/svgjs" version="1.1" width="512" height="512" x="0" y="0" viewBox="0 0 512 512" style="enable-background:new 0 0 512 512" xml:space="preserve" class=""><g><g xmlns="http://www.w3.org/2000/svg"><path d="m344.177 456.919h-48.613v-112.742c0-10.353-6.724-19.16-16.032-22.299v-162.072c0-4.142-3.358-7.5-7.5-7.5s-7.5 3.358-7.5 7.5v160.838h-17.064v-186.584c2.716.764 5.575 1.182 8.532 1.182 14.812 0 27.265-10.263 30.64-24.049h161.747.01c12.971-.005 23.522-10.56 23.522-23.532 0-12.976-10.557-23.533-23.532-23.533-12.976 0-23.533 10.557-23.533 23.533 0 3.009.574 5.885 1.608 8.533h-139.822c-2.786-11.38-11.76-20.354-23.14-23.141v-27.221c9.308-3.139 16.032-11.946 16.032-22.299 0-12.976-10.556-23.533-23.532-23.533s-23.532 10.557-23.532 23.532c0 10.354 6.724 19.16 16.032 22.299v27.221c-11.381 2.787-20.354 11.76-23.141 23.141h-139.822c1.034-2.647 1.608-5.523 1.608-8.533 0-12.976-10.557-23.533-23.532-23.533-12.976 0-23.533 10.557-23.533 23.533 0 12.973 10.551 23.527 23.523 23.532h.01 161.747c1.246 5.088 3.726 9.694 7.108 13.483v197.201c-9.308 3.139-16.032 11.946-16.032 22.299v112.742h-16.548c-4.142 0-7.5 3.358-7.5 7.5s3.358 7.5 7.5 7.5h144.29c9.125 0 16.548 7.424 16.548 16.548v8.535h-209.452v-8.532c0-9.125 7.423-16.548 16.548-16.548 4.142 0 7.5-3.358 7.5-7.5s-3.358-7.5-7.5-7.5c-17.396 0-31.548 14.153-31.548 31.548v16.032c0 4.142 3.358 7.5 7.5 7.5h224.451c4.142 0 7.5-3.358 7.5-7.5v-16.032c.001-17.396-14.152-31.549-31.548-31.549zm104.21-377.791c4.705 0 8.532 3.828 8.532 8.533s-3.828 8.533-8.532 8.533c-4.705 0-8.533-3.828-8.533-8.533s3.828-8.533 8.533-8.533zm-192.387-64.128c4.705 0 8.532 3.828 8.532 8.532s-3.827 8.532-8.532 8.532-8.532-3.828-8.532-8.532 3.827-8.532 8.532-8.532zm0 72.145c9.125 0 16.548 7.424 16.548 16.549s-7.423 16.549-16.548 16.549c-9.123 0-16.546-7.421-16.549-16.544 0-.002 0-.003 0-.005s0-.003 0-.005c.003-9.123 7.426-16.544 16.549-16.544zm-192.387-8.017c4.705 0 8.532 3.828 8.532 8.533s-3.828 8.533-8.532 8.533c-4.705 0-8.533-3.828-8.533-8.533s3.828-8.533 8.533-8.533zm167.823 265.049c0-4.704 3.828-8.532 8.532-8.532h32.064c4.705 0 8.532 3.828 8.532 8.532v112.742h-49.129v-112.742z" fill="#ffffff" data-original="#000000" style="" class=""/><path d="m191.355 344.177c0-4.142-3.358-7.5-7.5-7.5h-10.691l-70.399-203.372c-1.045-3.021-3.891-5.047-7.087-5.047s-6.042 2.026-7.087 5.047l-70.4 203.372h-10.691c-4.142 0-7.5 3.358-7.5 7.5 0 17.644 10.406 33.981 29.3 46.005 17.843 11.355 41.416 17.608 66.377 17.608s48.535-6.253 66.377-17.608c18.895-12.024 29.301-28.362 29.301-46.005zm-95.678-185.491 61.613 177.991h-123.226zm0 234.104c-22.145 0-42.858-5.42-58.324-15.263-11.461-7.293-18.828-16.276-21.366-25.851h159.381c-2.538 9.574-9.905 18.557-21.366 25.851-15.467 9.843-36.18 15.263-58.325 15.263z" fill="#ffffff" data-original="#000000" style="" class=""/><path d="m504.5 336.677h-10.691l-70.399-203.372c-1.045-3.021-3.891-5.047-7.087-5.047s-6.042 2.026-7.087 5.047l-70.4 203.372h-10.691c-4.142 0-7.5 3.358-7.5 7.5 0 17.644 10.406 33.981 29.3 46.005 17.843 11.355 41.416 17.608 66.377 17.608s48.535-6.253 66.377-17.608c18.894-12.024 29.3-28.362 29.3-46.005.001-4.142-3.357-7.5-7.499-7.5zm-88.177-177.991 61.613 177.991h-123.227zm58.324 218.841c-15.466 9.842-36.18 15.263-58.324 15.263s-42.858-5.42-58.325-15.263c-11.461-7.293-18.828-16.276-21.366-25.851h159.381c-2.538 9.575-9.905 18.558-21.366 25.851z" fill="#ffffff" data-original="#000000" style="" class=""/></g></g></svg>
