<svg xmlns="http://www.w3.org/2000/svg" width="36.22" height="34.273" viewBox="0 0 36.22 34.273">
  <g id="scale" transform="translate(2 -13.469)">
    <g id="Path_547" data-name="Path 547" transform="translate(-19.557 0)" fill="none">
      <path d="M46.009,22.914a.951.951,0,0,0-.525-.464L38.5,19.907a2.833,2.833,0,0,0-5.065-1.844l-6.976-2.539h0a.952.952,0,0,0-1.165.463L20.87,24.766h2.114L26.138,18.5l3.193,6.265H31.45l-3.387-6.647,4.77,1.736a2.829,2.829,0,0,0,1.89,2.627V40.815a.944.944,0,1,0,1.888,0V22.481a2.813,2.813,0,0,0,1.2-.816l6.037,2.2-3.974,7.894h2.114l3.181-6.319,3.184,6.319h2.114Zm-9.673-2.437a.947.947,0,1,1,0-1.339A.948.948,0,0,1,36.336,20.478Z" stroke="none"/>
      <path d="M 26.13762283325195 15.46878051757812 C 25.76627349853516 15.46878051757812 25.43438339233398 15.69133758544922 25.29077529907227 15.98695755004883 L 20.87000274658203 24.76556777954102 L 22.98379516601562 24.76556777954102 L 26.13843536376953 18.50034713745117 L 29.33145523071289 24.76556777954102 L 31.45028305053711 24.76556777954102 L 28.06280517578125 18.11836624145508 L 32.83283615112305 19.85457611083984 C 32.8524055480957 21.06735610961914 33.62719345092773 22.09359741210938 34.72259521484375 22.48124694824219 L 34.72259521484375 40.81503677368164 C 34.72259521484375 41.33608627319336 35.14548492431641 41.75896453857422 35.66654586791992 41.75896453857422 C 36.18759536743164 41.75896453857422 36.6104736328125 41.33608627319336 36.6104736328125 40.81503677368164 L 36.6104736328125 22.48124694824219 C 37.07029342651367 22.31926727294922 37.48368453979492 22.04036712646484 37.8073844909668 21.66505813598633 L 43.84481430053711 23.8625373840332 L 39.87083435058594 31.75700759887695 L 41.98462677001953 31.75700759887695 L 45.16568374633789 25.43765640258789 L 48.34927368164062 31.75700759887695 L 50.46306610107422 31.75700759887695 L 46.00894165039062 22.9141960144043 C 45.88164520263672 22.69123840332031 45.72507476806641 22.53605651855469 45.48411560058594 22.45040512084961 L 38.49771499633789 19.90743637084961 C 38.52415466308594 19.14851760864258 38.24915313720703 18.38140487670898 37.67083358764648 17.80371475219727 C 36.48115921020508 16.61335754394531 34.49385833740234 16.7086296081543 33.43255615234375 18.06361770629883 L 26.45685577392578 15.52505493164062 C 26.45622253417969 15.5244255065918 26.45559310913086 15.5244255065918 26.45559310913086 15.5244255065918 C 26.34870147705078 15.48624038696289 26.24160003662109 15.46878051757812 26.13762283325195 15.46878051757812 M 35.66653442382812 20.7546272277832 C 35.42410278320312 20.7546272277832 35.18167114257812 20.66227722167969 34.99697494506836 20.47757720947266 C 34.6275749206543 20.10818481445312 34.6275749206543 19.50784683227539 34.99697494506836 19.13844680786133 C 35.36637115478516 18.76904296875 35.96670913696289 18.76905059814453 36.33610534667969 19.13844680786133 C 36.7060661315918 19.50840759277344 36.70669555664062 20.10698699951172 36.33610534667969 20.47757720947266 C 36.15140533447266 20.66227722167969 35.90896987915039 20.7546272277832 35.66653442382812 20.7546272277832 M 26.13762283325195 13.46878814697266 C 26.32911682128906 13.46878814697266 26.51926422119141 13.48743438720703 26.70634460449219 13.5244255065918 L 27.28402328491211 13.5244255065918 L 27.55697250366211 13.79708480834961 L 32.99543762207031 15.77622604370117 C 33.77626419067383 15.25738525390625 34.69866180419922 14.97450637817383 35.66637420654297 14.97450637817383 C 36.95919418334961 14.9745979309082 38.17333602905273 15.47726821899414 39.08545303344727 16.38991546630859 C 39.65790557861328 16.96174240112305 40.07257080078125 17.6685905456543 40.29959106445312 18.4349365234375 L 46.16196060180664 20.56877136230469 C 46.83854675292969 20.81133651733398 47.37136077880859 21.26675796508789 47.74578475952148 21.92253494262695 L 47.77166366577148 21.96786499023438 L 53.70985412597656 33.75700759887695 L 47.11738586425781 33.75700759887695 L 45.16639709472656 29.88434410095215 L 43.21695709228516 33.75700759887695 L 38.6104736328125 33.75700759887695 L 38.6104736328125 40.81503677368164 C 38.6104736328125 42.43832778930664 37.28983306884766 43.75896453857422 35.66654586791992 43.75896453857422 C 34.04324340820312 43.75896453857422 32.72259521484375 42.43832778930664 32.72259521484375 40.81503677368164 L 32.72259521484375 26.76556587219238 L 28.10598373413086 26.76556587219238 L 26.14921951293945 22.92609024047852 L 24.21598434448242 26.76556587219238 L 17.62355422973633 26.76556587219238 L 23.50039291381836 15.09553146362305 C 23.98920822143555 14.10667419433594 25.02215957641602 13.46878814697266 26.13762283325195 13.46878814697266 Z M 41.04694366455078 24.97253799438477 L 38.6104736328125 24.08572006225586 L 38.6104736328125 29.81267738342285 L 41.04694366455078 24.97253799438477 Z" stroke="none" fill="#fff"/>
    </g>
    <g id="Path_548" data-name="Path 548" transform="translate(-150.915 -364.309)" fill="none">
      <path d="M168.137,404.243h-2.223a4.869,4.869,0,0,0-4.864,4.864.944.944,0,0,0,.944.944h10.062a.944.944,0,0,0,.944-.944A4.869,4.869,0,0,0,168.137,404.243Z" stroke="none"/>
      <path d="M 165.9137268066406 404.2430114746094 C 163.2318725585938 404.2430114746094 161.0499877929688 406.4248046875 161.0499877929688 409.106689453125 C 161.0499877929688 409.6279602050781 161.4726257324219 410.0506286621094 161.9939270019531 410.0506286621094 L 172.0563049316406 410.0506286621094 C 172.5776062011719 410.0506286621094 173.000244140625 409.6279602050781 173.000244140625 409.106689453125 C 173.000244140625 406.4248046875 170.8184204101562 404.2430114746094 168.1365661621094 404.2430114746094 L 165.9137268066406 404.2430114746094 M 165.9137268066406 402.2430114746094 L 168.1365661621094 402.2430114746094 C 171.9212188720703 402.2430114746094 175.000244140625 405.3220520019531 175.000244140625 409.106689453125 C 175.000244140625 410.72998046875 173.6795959472656 412.0506286621094 172.0563049316406 412.0506286621094 L 161.9939270019531 412.0506286621094 C 160.3706359863281 412.0506286621094 159.0499877929688 410.72998046875 159.0499877929688 409.106689453125 C 159.0499877929688 405.3220520019531 162.1290435791016 402.2430114746094 165.9137268066406 402.2430114746094 Z" stroke="none" fill="#fff"/>
    </g>
    <g id="Path_549" data-name="Path 549" transform="translate(-282.949 -270.654)" fill="none">
      <path d="M314.224,304.3h-11.33a.944.944,0,0,0-.944.944,6.609,6.609,0,1,0,13.218,0A.944.944,0,0,0,314.224,304.3Z" stroke="none"/>
      <path d="M 302.8939514160156 304.2990112304688 C 302.3726501464844 304.2990112304688 301.9500122070312 304.7216186523438 301.9500122070312 305.242919921875 C 301.9500122070312 308.8872375488281 304.9148864746094 311.8520812988281 308.5591735839844 311.8520812988281 C 312.2034301757812 311.8520812988281 315.1683044433594 308.8872375488281 315.1683044433594 305.242919921875 C 315.1683044433594 304.7216186523438 314.7456665039062 304.2990112304688 314.224365234375 304.2990112304688 L 302.8939514160156 304.2990112304688 M 302.8939514160156 302.2990112304688 L 314.224365234375 302.2990112304688 C 315.84765625 302.2990112304688 317.1683044433594 303.61962890625 317.1683044433594 305.242919921875 C 317.1683044433594 309.9900207519531 313.3062744140625 313.8520812988281 308.5591735839844 313.8520812988281 C 303.8120727539062 313.8520812988281 299.9500122070312 309.9900207519531 299.9500122070312 305.242919921875 C 299.9500122070312 303.61962890625 301.2706604003906 302.2990112304688 302.8939514160156 302.2990112304688 Z" stroke="none" fill="#fff"/>
    </g>
    <g id="Path_550" data-name="Path 550" transform="translate(0 -166.551)" fill="none">
      <path d="M12.277,193.205H.944a.944.944,0,0,0-.944.944,6.611,6.611,0,0,0,13.221,0A.944.944,0,0,0,12.277,193.205Z" stroke="none"/>
      <path d="M 0.943939208984375 193.2050170898438 C 0.4226293563842773 193.2050170898438 -9.5367431640625e-07 193.6276550292969 -9.5367431640625e-07 194.1489562988281 C -9.5367431640625e-07 197.7941284179688 2.96553897857666 200.7596435546875 6.610709190368652 200.7596435546875 C 10.25587940216064 200.7596435546875 13.22141933441162 197.7941284179688 13.22141933441162 194.1489562988281 C 13.22141933441162 193.6276550292969 12.79878902435303 193.2050170898438 12.27747917175293 193.2050170898438 L 0.943939208984375 193.2050170898438 M 0.943939208984375 191.2050170898438 L 12.27747917175293 191.2050170898438 C 13.90076923370361 191.2050170898438 15.22141933441162 192.5256652832031 15.22141933441162 194.1489562988281 C 15.22141933441162 198.8969116210938 11.35866928100586 202.7596435546875 6.610709190368652 202.7596435546875 C 1.862749099731445 202.7596435546875 -2.000000953674316 198.8969116210938 -2.000000953674316 194.1489562988281 C -2.000000953674316 192.5256652832031 -0.6793508529663086 191.2050170898438 0.943939208984375 191.2050170898438 Z" stroke="none" fill="#fff"/>
    </g>
  </g>
</svg>
