<?xml version="1.0"?>
<svg xmlns="http://www.w3.org/2000/svg" xmlns:xlink="http://www.w3.org/1999/xlink" xmlns:svgjs="http://svgjs.com/svgjs" version="1.1" width="512" height="512" x="0" y="0" viewBox="0 0 512 512" style="enable-background:new 0 0 512 512" xml:space="preserve" class=""><g><g xmlns="http://www.w3.org/2000/svg"><path d="m120.993 145.229c-3.149-3.15-7.535-4.739-11.969-4.331-4.435.404-8.46 2.759-10.988 6.425-22.092 32.052-33.769 69.632-33.769 108.677 0 105.723 86.011 191.733 191.733 191.733 39.045 0 76.626-11.679 108.681-33.772 3.667-2.527 6.021-6.554 6.426-10.988.404-4.435-1.183-8.82-4.332-11.969zm135.007 272.504c-89.18 0-161.733-72.554-161.733-161.733 0-26.801 6.52-52.78 18.983-76.089l218.841 218.836c-23.309 12.466-49.29 18.986-76.091 18.986z" fill="#ffffff" data-original="#000000" data-darkreader-inline-fill="" style="--darkreader-inline-fill:#181a1b;" class=""/><path d="m437.019 74.98c-48.352-48.351-112.639-74.98-181.019-74.98s-132.667 26.629-181.02 74.98c-48.351 48.353-74.98 112.64-74.98 181.02s26.628 132.667 74.98 181.02c48.353 48.351 112.64 74.98 181.02 74.98s132.667-26.629 181.019-74.98c48.352-48.353 74.981-112.64 74.981-181.02s-26.629-132.667-74.981-181.02zm-181.019 407.02c-124.617 0-226-101.383-226-226s101.383-226 226-226 226 101.383 226 226-101.383 226-226 226z" fill="#ffffff" data-original="#000000" data-darkreader-inline-fill="" style="--darkreader-inline-fill:#181a1b;" class=""/><path d="m256 64.267c-39.043 0-76.625 11.679-108.681 33.772-3.667 2.527-6.021 6.553-6.425 10.988-.405 4.435 1.182 8.82 4.332 11.969l245.777 245.779c2.825 2.826 6.646 4.394 10.605 4.394.453 0 .908-.021 1.363-.063 4.435-.404 8.461-2.758 10.988-6.425 22.094-32.054 33.772-69.636 33.772-108.682.001-105.722-86.009-191.732-191.731-191.732zm142.746 267.826-218.837-218.84c23.312-12.467 49.29-18.986 76.091-18.986 89.18 0 161.732 72.554 161.732 161.733 0 26.804-6.518 52.782-18.986 76.093z" fill="#ffffff" data-original="#000000" data-darkreader-inline-fill="" style="--darkreader-inline-fill:#181a1b;" class=""/></g></g></svg>
