<svg xmlns="http://www.w3.org/2000/svg" width="112" height="112" viewBox="0 0 112 112"><defs><style>.a{fill:#fff;}.b{fill:#3d3d3d;}</style></defs><g transform="translate(-628 -636)"><circle class="a" cx="56" cy="56" r="56" transform="translate(628 636)"/><g transform="translate(651 660.64)"><path class="b" d="M44.3,35.154a10.8,10.8,0,1,1-10.8-10.8A10.816,10.816,0,0,1,44.3,35.154ZM66.991,19.812V50.5a7.408,7.408,0,0,1-7.408,7.408H7.408A7.408,7.408,0,0,1,0,50.5V19.812A7.408,7.408,0,0,1,7.408,12.4h9.111V9.842A6.481,6.481,0,0,1,23,3.36H43.99a6.481,6.481,0,0,1,6.482,6.482V12.4h9.111A7.411,7.411,0,0,1,66.991,19.812ZM49.856,35.154A16.359,16.359,0,1,0,33.5,51.514,16.379,16.379,0,0,0,49.856,35.154Z"/></g></g></svg>