<svg xmlns="http://www.w3.org/2000/svg" xmlns:xlink="http://www.w3.org/1999/xlink" width="215" height="214" viewBox="0 0 215 214">
  <defs>
    <linearGradient id="linear-gradient" y1="0.5" x2="1" y2="0.5" gradientUnits="objectBoundingBox">
      <stop offset="0" stop-color="#f3d48b"/>
      <stop offset="1" stop-color="#cb9150"/>
    </linearGradient>
  </defs>
  <g id="Group_195" data-name="Group 195" transform="translate(0.303)">
    <g id="Ellipse_28" data-name="Ellipse 28" transform="translate(-0.303)" fill="#fff" stroke="#707070" stroke-width="1">
      <ellipse cx="107.5" cy="107" rx="107.5" ry="107" stroke="none"/>
      <ellipse cx="107.5" cy="107" rx="107" ry="106.5" fill="none"/>
    </g>
    <g id="Warstwa_2" data-name="Warstwa 2" transform="translate(33.222 58.425)">
      <g id="Ńëîé_1" data-name="Ńëîé 1" transform="translate(0 0)">
        <path id="Path_585" data-name="Path 585" d="M133.136,43.483c1.67-23.846-24.476-40.841-45.594-29.279C73.444-10.233,34.9-1.283,33.106,26.9A31.414,31.414,0,0,0,.02,56.937,31.407,31.407,0,0,0,31.114,89.088l28.374-.041v-17.9H45.168l28.726-35.06,28.726,35.06H88.3V89.008l36.452-.044C150.1,88.964,156.873,52.545,133.136,43.483Z" transform="translate(-0.004 0.001)" fill="url(#linear-gradient)"/>
      </g>
    </g>
  </g>
</svg>
