<svg xmlns="http://www.w3.org/2000/svg" xmlns:xlink="http://www.w3.org/1999/xlink" width="214" height="214" viewBox="0 0 214 214">
  <defs>
    <linearGradient id="linear-gradient" x1="-0.286" y1="0.943" x2="1" y2="0.96" gradientUnits="objectBoundingBox">
      <stop offset="0" stop-color="#f3d48b"/>
      <stop offset="1" stop-color="#cb9150"/>
    </linearGradient>
  </defs>
  <g id="Group_197" data-name="Group 197" transform="translate(-0.226)">
    <g id="Ellipse_29" data-name="Ellipse 29" transform="translate(0.226)" fill="#fff" stroke="#707070" stroke-width="1">
      <circle cx="107" cy="107" r="107" stroke="none"/>
      <circle cx="107" cy="107" r="106.5" fill="none"/>
    </g>
    <g id="Warstwa_2" data-name="Warstwa 2" transform="translate(55.058 49.484)">
      <g id="Layer_1" data-name="Layer 1" transform="translate(0 0)">
        <path id="Path_586" data-name="Path 586" d="M248.775,80.784,240.3,84.87l3.375-8.782Zm60.131-55.173-43.374,47.1-15.567,7.5-5.815-5.356,6.2-16.13,43.374-47.1ZM307.457.715l11.205,10.317a2.711,2.711,0,0,1,.157,3.818l-8.577,9.313L295.057,10.184,303.638.866a2.711,2.711,0,0,1,3.818-.157Z" transform="translate(-213.352 0.003)" fill-rule="evenodd" fill="url(#linear-gradient)"/>
        <path id="Path_587" data-name="Path 587" d="M11.6,62.4H53.592V74H11.6v78.9H90.5V111.4h11.6v41.5a11.621,11.621,0,0,1-11.6,11.6H11.6A11.621,11.621,0,0,1,0,152.9V74A11.621,11.621,0,0,1,11.6,62.4" transform="translate(0 -55.402)" fill-rule="evenodd" fill="url(#linear-gradient)"/>
      </g>
    </g>
  </g>
</svg>
