<svg id="Component_1_1" data-name="Component 1 1" xmlns="http://www.w3.org/2000/svg" xmlns:xlink="http://www.w3.org/1999/xlink" viewBox="0 0 307 63"><defs><style>.cls-1{fill:url(#Gradient_bez_nazwy);}.cls-2{isolation:isolate;}</style><linearGradient id="Gradient_bez_nazwy" x1="-143.03" y1="446.72" x2="-143.03" y2="445.72" gradientTransform="matrix(307, 0, 0, -63, 44064, 28143.07)" gradientUnits="userSpaceOnUse"><stop offset="0" stop-color="#f3d48b"/><stop offset="1" stop-color="#cb9150"/></linearGradient></defs><rect id="Rectangle_190" data-name="Rectangle 190" class="cls-1" width="307" height="63" rx="3"/><g class="cls-2"><path d="M132,44c-2.12,0-3.2-1.08-3.2-3.2V17.36h2.56V41.44H136V17.36h2.56V44Z"/><path d="M144.68,34.88v6.56h4.6V34.8a3.36,3.36,0,0,0-.16-1.4,3.87,3.87,0,0,0-1.28-.64c-.12,0-.68-.28-1.76-.68a27.38,27.38,0,0,1-2.8-1.16,1.66,1.66,0,0,1-.72-.68,7.3,7.3,0,0,1-.44-3V20.56c0-2.12,1.08-3.2,3.2-3.2h3.32c2.12,0,3.2,1.08,3.2,3.2v6h-2.56V19.92h-4.6v7.4a2.8,2.8,0,0,0,.2,1.36,3.28,3.28,0,0,0,1.28.68l3.76,1.48A3.28,3.28,0,0,1,151.48,32a5.14,5.14,0,0,1,.36,2.28V40.8c0,2.12-1.08,3.2-3.2,3.2h-3.32c-2.12,0-3.2-1.08-3.2-3.2V34.88Z"/><path d="M158.64,44c-2.12,0-3.2-1.08-3.2-3.2V17.36H158V41.44h4.6V17.36h2.56V44Z"/><path d="M175.28,17.36c2.12,0,3.2,1.08,3.2,3.2V44h-2.56V19.92h-4.6V44h-2.56V17.36Zm-1.76-1.48h-1.6l1.44-4.64h2Z"/></g></svg>