<svg xmlns="http://www.w3.org/2000/svg" width="29.565" height="29.565" viewBox="0 0 29.565 29.565"><defs><style>.a{fill:#deb882;}</style></defs><path class="a" d="M27.933,0H1.631A1.632,1.632,0,0,0,0,1.632v26.3a1.632,1.632,0,0,0,1.632,1.631H15.793V18.132h-3.84V13.656h3.84V10.365c0-3.819,2.332-5.9,5.739-5.9a31.583,31.583,0,0,1,3.443.176v3.99H22.625c-1.854,0-2.213.881-2.213,2.173v2.85h4.432l-.577,4.475H20.412V29.565h7.521a1.631,1.631,0,0,0,1.632-1.631h0V1.631A1.632,1.632,0,0,0,27.933,0Z" transform="translate(0 0)"/></svg>