<?xml version="1.0"?>
<svg xmlns="http://www.w3.org/2000/svg" xmlns:xlink="http://www.w3.org/1999/xlink" xmlns:svgjs="http://svgjs.com/svgjs" version="1.1" width="512" height="512" x="0" y="0" viewBox="0 0 32 32" style="enable-background:new 0 0 512 512" xml:space="preserve" class=""><g><g xmlns="http://www.w3.org/2000/svg" fill="rgb(0,0,0)"><path d="m4 9h4c0 1.103.897 2 2 2h2c1.103 0 2-.897 2-2h14c.552 0 1-.447 1-1s-.448-1-1-1h-14c0-1.103-.897-2-2-2h-2c-1.103 0-2 .897-2 2h-4c-.552 0-1 .447-1 1s.448 1 1 1z" fill="#ffffff" data-original="#000000" style="" class=""/><path d="m28 15h-6c0-1.103-.897-2-2-2h-2c-1.103 0-2 .897-2 2h-12c-.552 0-1 .447-1 1s.448 1 1 1h12c0 1.103.897 2 2 2h2c1.103 0 2-.897 2-2h6c.552 0 1-.447 1-1s-.448-1-1-1z" fill="#ffffff" data-original="#000000" style="" class=""/><path d="m28 23h-14c0-1.103-.897-2-2-2h-2c-1.103 0-2 .897-2 2h-4c-.552 0-1 .447-1 1s.448 1 1 1h4c0 1.103.897 2 2 2h2c1.103 0 2-.897 2-2h14c.552 0 1-.447 1-1s-.448-1-1-1z" fill="#ffffff" data-original="#000000" style="" class=""/></g></g></svg>
