<svg xmlns="http://www.w3.org/2000/svg" width="32.755" height="24.532" viewBox="0 0 32.755 24.532"><defs><style>.a{fill:#fff;}</style></defs><g transform="translate(0 -64.267)"><path class="a" d="M29.74,64.267H3.014a3.015,3.015,0,0,0,0,6.031H29.74a3.015,3.015,0,0,0,0-6.031Z" transform="translate(0)"/><path class="a" d="M29.74,208.867H3.014a3.015,3.015,0,0,0,0,6.031H29.74a3.015,3.015,0,0,0,0-6.031Z" transform="translate(0 -135.349)"/><path class="a" d="M29.74,353.467H3.014a3.015,3.015,0,0,0,0,6.031H29.74a3.015,3.015,0,0,0,0-6.031Z" transform="translate(0 -270.699)"/></g></svg>