<svg xmlns="http://www.w3.org/2000/svg" width="18.097" height="14.072" viewBox="0 0 18.097 14.072">
  <path id="Icon_awesome-home" data-name="Icon awesome-home" d="M8.807,5.9l-5.792,4.77v5.149a.5.5,0,0,0,.5.5l3.52-.009a.5.5,0,0,0,.5-.5V12.807a.5.5,0,0,1,.5-.5h2.011a.5.5,0,0,1,.5.5v3a.5.5,0,0,0,.5.5l3.519.01a.5.5,0,0,0,.5-.5V10.671L9.288,5.9A.383.383,0,0,0,8.807,5.9Zm9.149,3.242L15.33,6.982V2.63a.377.377,0,0,0-.377-.377H13.194a.377.377,0,0,0-.377.377V4.912L10,2.6a1.508,1.508,0,0,0-1.916,0L.136,9.147a.377.377,0,0,0-.05.531l.8.974a.377.377,0,0,0,.531.051L8.807,4.616a.383.383,0,0,1,.481,0l7.39,6.086a.377.377,0,0,0,.531-.05l.8-.974a.377.377,0,0,0-.053-.532Z" transform="translate(0.001 -2.254)" fill="#d5a25f"/>
</svg>
