<svg xmlns="http://www.w3.org/2000/svg" width="33.516" height="33.515" viewBox="0 0 33.516 33.515"><defs><style>.a{fill:#deb882;}</style></defs><path class="a" d="M3421.511,1543.467a12.294,12.294,0,0,0-.779-4.068,8.57,8.57,0,0,0-4.9-4.9,12.3,12.3,0,0,0-4.068-.778c-1.787-.082-2.358-.1-6.909-.1s-5.122.019-6.909.1a12.3,12.3,0,0,0-4.068.779,8.573,8.573,0,0,0-4.9,4.9,12.312,12.312,0,0,0-.778,4.068c-.082,1.787-.1,2.358-.1,6.909s.02,5.122.1,6.909a12.3,12.3,0,0,0,.779,4.068,8.57,8.57,0,0,0,4.9,4.9,12.3,12.3,0,0,0,4.068.779c1.788.082,2.358.1,6.909.1s5.122-.019,6.909-.1a12.3,12.3,0,0,0,4.068-.779,8.567,8.567,0,0,0,4.9-4.9,12.291,12.291,0,0,0,.779-4.068c.082-1.787.1-2.358.1-6.909S3421.593,1545.254,3421.511,1543.467Zm-3.017,13.681a9.265,9.265,0,0,1-.577,3.112,5.548,5.548,0,0,1-3.18,3.18,9.269,9.269,0,0,1-3.112.577c-1.767.081-2.3.1-6.771.1s-5.005-.017-6.772-.1a9.27,9.27,0,0,1-3.112-.577,5.55,5.55,0,0,1-3.181-3.18,9.282,9.282,0,0,1-.577-3.112c-.08-1.767-.1-2.3-.1-6.771s.017-5,.1-6.772a9.288,9.288,0,0,1,.577-3.112,5.549,5.549,0,0,1,3.181-3.181,9.277,9.277,0,0,1,3.112-.577c1.767-.08,2.3-.1,6.772-.1h0c4.475,0,5,.017,6.772.1a9.277,9.277,0,0,1,3.112.577,5.55,5.55,0,0,1,3.18,3.181,9.257,9.257,0,0,1,.577,3.112c.081,1.767.1,2.3.1,6.772S3418.576,1555.38,3418.495,1557.148Z" transform="translate(-3388.097 -1533.618)"/><path class="a" d="M3521.241,1658.157a8.605,8.605,0,1,0,8.605,8.606A8.605,8.605,0,0,0,3521.241,1658.157Zm0,14.191a5.586,5.586,0,1,1,5.586-5.586A5.586,5.586,0,0,1,3521.241,1672.348Z" transform="translate(-3504.484 -1650.005)"/><path class="a" d="M3754.048,1624.254a2.011,2.011,0,1,1-2.011-2.011A2.011,2.011,0,0,1,3754.048,1624.254Z" transform="translate(-3726.334 -1616.442)"/></svg>