<svg xmlns="http://www.w3.org/2000/svg" xmlns:xlink="http://www.w3.org/1999/xlink" width="187" height="187" viewBox="0 0 187 187">
  <defs>
    <linearGradient id="linear-gradient" x1="-0.286" y1="0.943" x2="1" y2="0.96" gradientUnits="objectBoundingBox">
      <stop offset="0" stop-color="#f3d48b"/>
      <stop offset="1" stop-color="#cb9150"/>
    </linearGradient>
  </defs>
  <g id="Group_197" data-name="Group 197" transform="translate(-1224 -1644)">
    <g id="Ellipse_29" data-name="Ellipse 29" transform="translate(1224 1644)" fill="#fff" stroke="#707070" stroke-width="1">
      <circle cx="93.5" cy="93.5" r="93.5" stroke="none"/>
      <circle cx="93.5" cy="93.5" r="93" fill="none"/>
    </g>
    <g id="Warstwa_2" data-name="Warstwa 2" transform="translate(1272.061 1687.197)">
      <g id="Layer_1" data-name="Layer 1" transform="translate(0 -0.003)">
        <path id="Path_586" data-name="Path 586" d="M247.7,70.517l-7.4,3.566,2.946-7.666Zm52.489-48.161L262.325,63.469l-13.589,6.547-5.076-4.675,5.413-14.08,37.862-41.113ZM298.922.624,308.7,9.63a2.366,2.366,0,0,1,.137,3.333l-7.487,8.13L288.1,8.889l7.49-8.134a2.366,2.366,0,0,1,3.333-.137Z" transform="translate(-216.777 0.003)" fill="url(#linear-gradient)"/>
        <path id="Path_587" data-name="Path 587" d="M10.125,62.4H46.781V72.525H10.125V141.4H79V105.17H89.123V141.4A10.144,10.144,0,0,1,79,151.523H10.125A10.144,10.144,0,0,1,0,141.4V72.525A10.144,10.144,0,0,1,10.125,62.4" transform="translate(0 -56.291)" fill="url(#linear-gradient)"/>
      </g>
    </g>
  </g>
</svg>
