<svg xmlns="http://www.w3.org/2000/svg" xmlns:xlink="http://www.w3.org/1999/xlink" width="187" height="187" viewBox="0 0 187 187">
  <defs>
    <linearGradient id="linear-gradient" y1="0.5" x2="1" y2="0.5" gradientUnits="objectBoundingBox">
      <stop offset="0" stop-color="#f3d48b"/>
      <stop offset="1" stop-color="#cb9150"/>
    </linearGradient>
  </defs>
  <g id="Group_195" data-name="Group 195" transform="translate(-843 -1644)">
    <g id="Ellipse_28" data-name="Ellipse 28" transform="translate(843 1644)" fill="#fff" stroke="#707070" stroke-width="1">
      <circle cx="93.5" cy="93.5" r="93.5" stroke="none"/>
      <circle cx="93.5" cy="93.5" r="93" fill="none"/>
    </g>
    <g id="Warstwa_2" data-name="Warstwa 2" transform="translate(871.997 1695.001)">
      <g id="Ńëîé_1" data-name="Ńëîé 1" transform="translate(0.004 -0.001)">
        <path id="Path_585" data-name="Path 585" d="M116.216,37.956c1.458-20.815-21.365-35.65-39.8-25.558C64.111-8.933,30.462-1.12,28.9,23.477A27.421,27.421,0,0,0,.018,49.7,27.416,27.416,0,0,0,27.16,77.766l24.768-.036V62.105h-12.5L64.5,31.5l25.075,30.6H77.08V77.7l31.819-.039C131.026,77.658,136.936,45.867,116.216,37.956Z" transform="translate(-0.004 0.001)" fill="url(#linear-gradient)"/>
      </g>
    </g>
  </g>
</svg>
