<svg xmlns="http://www.w3.org/2000/svg" xmlns:xlink="http://www.w3.org/1999/xlink" width="187" height="187" viewBox="0 0 187 187">
  <defs>
    <linearGradient id="linear-gradient" y1="0.5" x2="1.04" y2="0.5" gradientUnits="objectBoundingBox">
      <stop offset="0" stop-color="#f3d48b"/>
      <stop offset="1" stop-color="#cb9150"/>
    </linearGradient>
    <linearGradient id="linear-gradient-2" y1="0.5" x2="3.881" y2="0.5" xlink:href="#linear-gradient"/>
    <linearGradient id="linear-gradient-3" y1="0.5" x2="1.704" y2="0.5" xlink:href="#linear-gradient"/>
    <linearGradient id="linear-gradient-4" x1="-0.87" y1="0.5" x2="1.72" y2="0.5" xlink:href="#linear-gradient"/>
    <linearGradient id="linear-gradient-5" x1="-0.369" y1="0.5" x2="2.062" y2="0.5" xlink:href="#linear-gradient"/>
  </defs>
  <g id="Group_196" data-name="Group 196" transform="translate(-465 -1644)">
    <g id="Ellipse_27" data-name="Ellipse 27" transform="translate(465 1644)" fill="#fff" stroke="#707070" stroke-width="1">
      <circle cx="93.5" cy="93.5" r="93.5" stroke="none"/>
      <circle cx="93.5" cy="93.5" r="93" fill="none"/>
    </g>
    <g id="Warstwa_2" data-name="Warstwa 2" transform="translate(517 1686)">
      <g id="Layer_2" data-name="Layer 2">
        <path id="Path_580" data-name="Path 580" d="M72.779,78.014,59.588,89.206a6.152,6.152,0,0,1-6.472.972,6.221,6.221,0,0,1-3.71-5.648L49.221,67.4a6.188,6.188,0,0,1,.577-2.638L76.261,6.679V2.061A2.067,2.067,0,0,0,74.2,0H24.734V22.674a2.068,2.068,0,0,1-2.06,2.06H0V101a2.067,2.067,0,0,0,2.061,2.061H74.2A2.068,2.068,0,0,0,76.263,101V71.6l-1.979,4.349A6.724,6.724,0,0,1,72.779,78.014ZM44.81,86.567H14.861a2.061,2.061,0,1,1,0-4.122H44.81a2.061,2.061,0,1,1,0,4.122ZM12.8,69.4a2.054,2.054,0,0,1,2.061-2.061H40.955a2.061,2.061,0,1,1,0,4.122H14.861A2.067,2.067,0,0,1,12.8,69.4ZM44.81,56.331H14.861a2.061,2.061,0,1,1,0-4.122H44.81a2.061,2.061,0,1,1,0,4.122Zm0-15.108H14.861a2.061,2.061,0,1,1,0-4.122H44.81a2.061,2.061,0,1,1,0,4.122Z" fill="url(#linear-gradient)"/>
        <path id="Path_581" data-name="Path 581" d="M54.106,34.71,34.69,54.126H54.106Z" transform="translate(-33.495 -33.514)" fill="url(#linear-gradient-2)"/>
        <path id="Path_582" data-name="Path 582" d="M1563.9,726.624a44.014,44.014,0,0,1,16.931,7.912l19.278-42.273L1583.1,684.51Z" transform="translate(-1510.011 -660.923)" fill="url(#linear-gradient-3)"/>
        <path id="Path_583" data-name="Path 583" d="M2193.444,75.6a9.206,9.206,0,0,0-4.864-5.235,9.358,9.358,0,0,0-7.153-.247,9.207,9.207,0,0,0-5.235,4.864l-5.462,11.98,17.01,7.753,5.456-11.963A9.266,9.266,0,0,0,2193.444,75.6Z" transform="translate(-2095.93 -67.132)" fill="url(#linear-gradient-4)"/>
        <path id="Path_584" data-name="Path 584" d="M1550.193,2042.146a2.191,2.191,0,0,0,.866.185,2.075,2.075,0,0,0,1.34-.495l11.091-9.428a39.946,39.946,0,0,0-14.65-6.848l.159,14.731A2.044,2.044,0,0,0,1550.193,2042.146Z" transform="translate(-1495.47 -1955.763)" fill="url(#linear-gradient-5)"/>
      </g>
    </g>
  </g>
</svg>
