<svg xmlns="http://www.w3.org/2000/svg" width="374" height="374" viewBox="0 0 374 374"><defs><style>.a{fill:#ececec;}.b{fill:none;}.c{fill:#fff;}.d,.e{isolation:isolate;}.e{fill:#c5824d;font-size:56px;font-family:Oxanium-Bold, Oxanium;font-weight:700;letter-spacing:0.01em;}.f{fill:#ac0000;}</style></defs><g transform="translate(-1186 -2698)"><g transform="translate(-427.559 2412.24)"><g transform="translate(1613.559 285.76)"><path class="a" d="M1987.559,472.76c0,103.284-83.726,187-187,187s-187-83.716-187-187a187,187,0,0,1,374,0Z" transform="translate(-1613.559 -285.76)"/><circle class="b" cx="186.534" cy="186.534" r="186.534" transform="translate(0.468 0.47)"/></g><path class="a" d="M1987.559,472.76c0,103.284-83.726,187-187,187s-187-83.716-187-187a186.8,186.8,0,0,1,187-187v187L1920.025,329.5l.3-.354A186.6,186.6,0,0,1,1987.559,472.76Z" transform="translate(0)"/><g transform="translate(1646.711 318.912)"><circle class="c" cx="154" cy="154" r="154" transform="translate(-0.152 -0.152)"/><circle class="b" cx="152.885" cy="152.885" r="152.885" transform="translate(0.963 0.967)"/></g><g class="d" transform="translate(1748.453 506.922)"><text class="e" transform="translate(0 44)"><tspan x="0" y="0">DNI</tspan></text></g></g><path class="f" d="M119.875,68.5h-5.708V45.667a45.667,45.667,0,0,0-91.333,0V68.5H17.125A17.146,17.146,0,0,0,0,85.625v79.917a17.146,17.146,0,0,0,17.125,17.125h102.75A17.146,17.146,0,0,0,137,165.542V85.625A17.146,17.146,0,0,0,119.875,68.5ZM38.056,45.667a30.444,30.444,0,0,1,60.888,0V68.5H38.056Zm0,0" transform="translate(1304.5 2781.667)"/></g></svg>