<svg xmlns="http://www.w3.org/2000/svg" xmlns:xlink="http://www.w3.org/1999/xlink" width="742.421" height="695.774" viewBox="0 0 742.421 695.774">
  <defs>
    <filter id="Path_523" x="0" y="0" width="742.421" height="695.774" filterUnits="userSpaceOnUse">
      <feOffset dy="3" input="SourceAlpha"/>
      <feGaussianBlur stdDeviation="3" result="blur"/>
      <feFlood flood-opacity="0.251"/>
      <feComposite operator="in" in2="blur"/>
      <feComposite in="SourceGraphic"/>
    </filter>
  </defs>
  <g transform="matrix(1, 0, 0, 1, 0, 0)" filter="url(#Path_523)">
    <path id="Path_523-2" data-name="Path 523" d="M1316.991,2517.489,1428.4,2486.8s14.116-3.682,17.8,5.832,11.663,48.8,18.721,49.1,65.063-9.105,103.937-10.332,206.647,10.339,206.647,10.339,12.889-.315,17.186,16.872,41.124,148.54,41.124,148.54,7.366,13.5,0,23.324-40.511,43.58-40.511,43.58-17.8,11.663.614,14.732,27.008,1.842,27.008,15.959-2.456,43.579-2.456,43.579l41.739,112.326s8.594,12.276-5.524,30.69-80.408,108.03-80.408,108.03-9.822,5.524-7.98,19.641-.614,22.71-.614,22.71,4.911,22.1-9.207,12.891-34.373-25.779-52.787-25.779-61.38-4.3-61.38-4.3-22.1-7.978-44.807,1.229-45.422,23.324-54.016,9.207-20.868-34.988-38.055-25.167-25.167,10.434-28.85-2.456-39.9-36.827-75.5-60.764-52.787-34.374-52.787-34.374-7.98-14.732-17.8.613-33.146,23.939-38.056,3.069-8.592-39.9-41.738-57.7-48.491-19.028-54.629-47.263-14.731-156.52-31.3-176.775-25.458-31.917-14.878-46.649,17.947-21.483,17.947-47.877V2588.69s-6.751-8.594,34.373-20.255,78.568-19.029,85.933-22.712S1307.171,2524.24,1316.991,2517.489Z" transform="translate(-1132.88 -2476.59)" fill="#474747" stroke="#8b8b8b" stroke-width="7"/>
  </g>
</svg>
