<svg xmlns="http://www.w3.org/2000/svg" xmlns:xlink="http://www.w3.org/1999/xlink" width="494.848" height="703.132" viewBox="0 0 494.848 703.132">
  <defs>
    <filter id="Path_588" x="95.605" y="33.375" width="399.243" height="669.757" filterUnits="userSpaceOnUse">
      <feOffset dy="3" input="SourceAlpha"/>
      <feGaussianBlur stdDeviation="3" result="blur"/>
      <feFlood flood-opacity="0.161"/>
      <feComposite operator="in" in2="blur"/>
      <feComposite in="SourceGraphic"/>
    </filter>
    <filter id="Path_589" x="0" y="280.652" width="150.928" height="122.474" filterUnits="userSpaceOnUse">
      <feOffset dy="3" input="SourceAlpha"/>
      <feGaussianBlur stdDeviation="3" result="blur-2"/>
      <feFlood flood-opacity="0.161"/>
      <feComposite operator="in" in2="blur-2"/>
      <feComposite in="SourceGraphic"/>
    </filter>
    <filter id="Path_590" x="57.828" y="44.312" width="71.637" height="81.318" filterUnits="userSpaceOnUse">
      <feOffset dy="3" input="SourceAlpha"/>
      <feGaussianBlur stdDeviation="3" result="blur-3"/>
      <feFlood flood-opacity="0.161"/>
      <feComposite operator="in" in2="blur-3"/>
      <feComposite in="SourceGraphic"/>
    </filter>
    <filter id="Path_591" x="47.058" y="99.938" width="46.514" height="59.673" filterUnits="userSpaceOnUse">
      <feOffset dy="3" input="SourceAlpha"/>
      <feGaussianBlur stdDeviation="3" result="blur-4"/>
      <feFlood flood-opacity="0.161"/>
      <feComposite operator="in" in2="blur-4"/>
      <feComposite in="SourceGraphic"/>
    </filter>
    <filter id="Path_592" x="49.53" y="124.579" width="34.808" height="46.369" filterUnits="userSpaceOnUse">
      <feOffset dy="3" input="SourceAlpha"/>
      <feGaussianBlur stdDeviation="3" result="blur-5"/>
      <feFlood flood-opacity="0.161"/>
      <feComposite operator="in" in2="blur-5"/>
      <feComposite in="SourceGraphic"/>
    </filter>
    <filter id="Path_593" x="73.06" y="101.595" width="73.964" height="73.88" filterUnits="userSpaceOnUse">
      <feOffset dy="3" input="SourceAlpha"/>
      <feGaussianBlur stdDeviation="3" result="blur-6"/>
      <feFlood flood-opacity="0.161"/>
      <feComposite operator="in" in2="blur-6"/>
      <feComposite in="SourceGraphic"/>
    </filter>
    <filter id="Path_594" x="220.124" y="0" width="54.818" height="48.244" filterUnits="userSpaceOnUse">
      <feOffset dy="3" input="SourceAlpha"/>
      <feGaussianBlur stdDeviation="3" result="blur-7"/>
      <feFlood flood-opacity="0.161"/>
      <feComposite operator="in" in2="blur-7"/>
      <feComposite in="SourceGraphic"/>
    </filter>
  </defs>
  <g id="Warstwa_2" data-name="Warstwa 2" transform="translate(12.5 9.872)" style="mix-blend-mode: normal;isolation: isolate">
    <g id="Warstwa_1" data-name="Warstwa 1">
      <g transform="matrix(1, 0, 0, 1, -12.5, -9.87)" filter="url(#Path_588)">
        <path id="Path_588-2" data-name="Path 588" d="M222.237,708.583s5.284,0,7.251-3.444,3.192-2.7,7.493-.736,9.217,9.832,9.217,9.832l6.883-5.746-4.194-4.087s16.1-19.05,36.007-18.435,33.8,10.326,36.6,10.326-2.456-6.789,4.3-10.34,2.213-5.517,4.194-11.538,2.46-9.217,7.13-9.32,6.743-6.165,17.088-7.516,17.572,3.071,23.84,6.757,19.05,5.126,29.558-2.088-7.74-7.19,18.8-11.612,27.1,1.1,61.389-3.318,38.714-9.958,51.986-15.485,14.38-9.4,21.016-12.721S574.068,604.2,574.068,604.2s-17.144-9.958-23.225-8.3-26.459-5.527-26.459-5.527,22.032-2.213,22.032-8.854v-6.654l-4.422-6.636L561.9,561.6l-2.213-4.977s21.571-11.612,21.016-35.946-2.209-25.993-16.035-34.842-48.118-6.086-48.118-6.086l-4.422,16.594-18.8-9.4s27.652-11.612,16.589-29.865-28.756-31.524-39.819-30.415-4.241-.555-4.241-.555l25.378-1.23-29.986-50.755s-34.287-9.4-42.032-30.415-11.049-47.563-12.167-50.327-9.954-6.086-18.8-17.144-13.271-9.958-20.462-12.167-6.081-11.617-12.167-5.531,4.427,13.826-17.144,10.508-31.524-11.226-31.524-12.526,22.12,8.9,27.1,4.227,28.262-17.47,28.262-17.47-10.2-3.01-10.937-5.96a36.184,36.184,0,0,1-.932-5.345l-19.725,6.99,17.708-10.14h8.667s21.566-21.566,24.7-42.582,7.372-23.411,11.244-28.388-5.163-15.671-9.953-16.594-23.6.368-31.524,0-9.786,0-12.535.932-15.844-.555-24.334,3.872S293.119,158.4,293.119,158.4l6.268-12.349-3.318-1.864,14.567-13.225-13.84,2.577s12.353-17.33,21.939-24.888,18.64-15.671,19.539-17.144-3.868-6.454-3.868-6.454L339.4,72.718,323.725,71.6l1.864,5.718s-26.361,1.473-34.66,4.054-24.353-.732-27.684-3.131-7.726,8.458-7.726,8.458l6.449,1.291s-10.876,4.059-8.476,7.922,1.659,5.35-3.5,5.9-2.675,6.454-3,7.377-4.93,2.763-4.93,2.763,11.612,11.244,11.8,11.985-9.786-3.5-11.063,3.318-6.454-.932-6.454-.932l-9.954.932,4.059,16.589-2.95,5.9,8.108,3.318-10.69,1.864,3.318,12.535,4.054-1.864-2.95,5.163,7.377,4.422-8.854,11.431,2.582,6.636-8.206,2.6v8.113s3.071,4.422,1.594,3.686-16.221.736-16.221.736,2.213,6.99,3.686,6.636,16.571-1.109,16.571-1.109l-9.585,7.526s2.558,8.318,4.79,8.318,11.063-.736,17.33-6.636,9.954-7.74,9.954-7.74l-16.221,31.687s-1.477,30.97-2.213,39.451-6.636,28.048-6.636,28.048l11.058.736s2.95-23.966,8.113-32.81,2.535-22.125,2.535-22.125l9.632,21.752s6.636-18.062,14.012-18.434-4.8,2.213-6.268,9.958,1.841,16.957,5.527,18.435,8.481,5.9,5.163,11.058-16.589,25.075-17.33,29.129-8.854,4.79-4.054,10.322,26.179,15.844,32.079,17.708,4.422-14.38,3.318-16.221,4.79,9.954,13.639,8.854,15.117-7.377,18.435-11.431,21.016-4.427,23.6-4.427-28.388,25.075-29.5,35.415,29.5,37.237,29.5,37.237,6.268-5.531,8.113-6.268-1.109,11.431-4.059,16.226-3.686,16.589-2.582,22.833-1.473,21.752-1.473,21.752-33.919,4.077-40.923,6.631-21.384,18.416-29.856,27.652-4.059,10.694,14.749.741,9.217-2.213,9.954,5.159,4.422,18.435.736,25.075-3.686,16.957-22.489,24.334S238.472,555.329,247,571.918s4.842,22.125,15.163,16.594,26.179-14.749,28.756-10.322,2.95,15.485,3.691,16.957,18.062-4.422,26.175,4.427,17.708,9.953,23.966,4.79,22.861-16.589,28.388-18.8-18.8,21.016-18.434,26.561,14.012,3.318-1.473,7.372-20.648,0-47.2,2.582-26.925,10.294-32.451,21.011-6.636,25.806-18.8,37.605-28.761,18.779-28.761,18.779S217.666,702.93,222.237,708.583Z" transform="translate(-98.37 -28.36)" fill="#e9e9e9" stroke="#fff" stroke-width="7"/>
      </g>
      <g transform="matrix(1, 0, 0, 1, -12.5, -9.87)" filter="url(#Path_589)">
        <path id="Path_589-2" data-name="Path 589" d="M0,664.573c5.163,9.585,21.384,23.1,27.284,26.053s15.979,5.9,18.434-6.883,4.916-17.19,4.916-17.19a184.6,184.6,0,0,1,16,21.859c8.355,13.276,14.5,4.865,17.451,4.767s13.514,7.279,16.221,5.8-1.477-9.32,5.405-15.238,14.749,6.636,16.715-6.636,7.377-15-.983-21.384-12.535-5.163-16.221-3.933.247-4.66,2.7-9.585,2.46-5.9-3.933-14.012-9.1-12.535-9.32-16.468S89.47,597.47,75.457,603.37s-24.334,7.125-24.087,12.041-16.957-1.98-21.384,5.652,4.66,17.708-5.9,20.4-16.957,2.213-13.024,4.66,19.907,2.95,11.058,6.757-19.907,8.248-20.4,9.478S0,665.8,0,665.8Z" transform="translate(12.5 -311.38)" fill="#e9e9e9" stroke="#fff" stroke-width="7"/>
      </g>
      <g transform="matrix(1, 0, 0, 1, -12.5, -9.87)" filter="url(#Path_590)">
        <path id="Path_590-2" data-name="Path 590" d="M169.241,102.209c0,5.163-13.276,28.761-13.276,35.028s-8.854,2.213-16.957,9.954-17.708,0-17.708,0,6.636,4.059,13.271-4.422,1.109-14.259-3.686-16.347-.368-17.2,1.864-15.732,25.806-10.322,30.97-15.117S169.241,102.209,169.241,102.209Z" transform="translate(-52.28 -40.54)" fill="#e9e9e9" stroke="#fff" stroke-width="7"/>
      </g>
      <g transform="matrix(1, 0, 0, 1, -12.5, -9.87)" filter="url(#Path_591)">
        <path id="Path_591-2" data-name="Path 591" d="M108.688,217.872c-1.473,0-8.854.741-7.372,5.9s2.754,7.745,3.588,11.063,3.784,6.99,3.784,6.99-.368-6.268,4.8-9.954,8.481-10.326,8.481-10.326l-4.991-6.524Z" transform="translate(-41.5 -104.95)" fill="#e9e9e9" stroke="#fff" stroke-width="7"/>
      </g>
      <g transform="matrix(1, 0, 0, 1, -12.5, -9.87)" filter="url(#Path_592)">
        <path id="Path_592-2" data-name="Path 592" d="M106.658,269.393c-.368,2.95-.368,16.594-.368,16.594s5.527,4.422,6.99,0,1.1-7.377,2.582-13.276-6.319-6.09-6.319-6.09Z" transform="translate(-44.26 -132.51)" fill="#e9e9e9" stroke="#fff" stroke-width="7"/>
      </g>
      <g transform="matrix(1, 0, 0, 1, -12.5, -9.87)" filter="url(#Path_593)">
        <path id="Path_593-2" data-name="Path 593" d="M204.73,253.881s-12.9,11.058-14.012,12.167-10.69-3.02-16.957-14.968-9.954-4.59-14.012-10.666-4.776-4.483,2.213-10.625,6.636,1.23,11.063,3.076,2.95-1.729,2.95-5.475,1.361-7.428,4.734-9.273,5.592.466,5.592,11.65-5.9,13.765,1.864,17.824,10.666,1.855,10.666,1.855,1.864-4.054,3.318-.736a53.2,53.2,0,0,0,2.582,5.172Z" transform="translate(-71.18 -106.3)" fill="#e9e9e9" stroke="#fff" stroke-width="7"/>
      </g>
      <g transform="matrix(1, 0, 0, 1, -12.5, -9.87)" filter="url(#Path_594)">
        <path id="Path_594-2" data-name="Path 594" d="M484.292,16.589C465.857,7.745,474.338,0,474.338,0s37.605,9.954,25.438,16.589-16.589,6.268-16.589,6.268Z" transform="translate(-239.76 9.87)" fill="#e9e9e9" stroke="#fff" stroke-width="7"/>
      </g>
    </g>
  </g>
</svg>
