<?xml version="1.0" encoding="utf-8"?>
<!-- Generator: Adobe Illustrator 26.1.0, SVG Export Plug-In . SVG Version: 6.00 Build 0)  -->
<svg version="1.1" id="Layer_1" xmlns="http://www.w3.org/2000/svg" xmlns:xlink="http://www.w3.org/1999/xlink" x="0px" y="0px"
	 viewBox="0 0 960 960" style="enable-background:new 0 0 960 960;" xml:space="preserve">
<style type="text/css">
	.st0{fill-rule:evenodd;clip-rule:evenodd;fill:#FFFFFF;}
	.st1{fill-rule:evenodd;clip-rule:evenodd;fill:#DADADC;}
</style>
<g>
	<rect x="1.3" y="1.7" class="st0" width="960.3" height="961.1"/>
	<path class="st1" d="M28,163.2c-0.8,0.2-1.8,0.7-1.8,1.4c0,0.6,1,1.3,1.4,2c0.4,0.7,0.2,1.3,0,1.8c-0.1,0.5-0.2,1,0.4,1.3
		c0.6,0.3,1.9,0.5,2.6,0.9c0.7,0.5,0.7,1.2,0.7,2c0,0.7,0.1,1.5,0.5,2c0.4,0.5,1,0.6,1.6,1.8c0.6,1.2,1.1,3.5,1.4,4.3
		c0.4,0.9,0.6,0.2,0.9-0.7c0.3-0.9,0.5-2.1,1-2.5c0.4-0.4,1,0,1.5-0.3c0.5-0.3,0.7-1.4,0.9-2.6c0.2-1.2,0.2-2.4,0.6-3
		c0.4-0.6,1-0.5,1.6-0.2c0.6,0.3,1.1,1,1.8,1.5c0.7,0.5,1.6,0.9,2.5,0.8c0.9-0.1,1.8-0.7,2.3-1.4c0.5-0.7,0.7-1.4,0.9-2.1
		c0.2-0.7,0.5-1.2,0.8-1.2s0.6,0.5,0.8-0.1c0.2-0.6,0.3-2.4,0.3-4.3c0-1.9-0.2-3.9-0.1-4.9c0.1-1,0.4-0.9,1.2,0
		c0.8,0.9,1.9,2.7,3.2,4c1.2,1.2,2.5,2,3.3,2.3c0.8,0.4,1.1,0.5,1.5,0.9c0.4,0.5,1,1.4,1.5,1.7c0.5,0.3,0.7,0,0.9-0.7
		c0.2-0.7,0.2-1.8,0.5-2.5c0.3-0.7,0.8-1,1.2-1.6c0.4-0.7,0.6-1.7,1-2.3c0.5-0.6,1.2-0.8,1.9-1c0.7-0.1,1.5-0.2,2-0.9
		c0.5-0.7,0.8-1.9,1.3-2.8c0.5-0.8,1.3-1.2,2.2-0.6c0.9,0.7,2,2.4,3.1,4.4c1.1,2,2.4,4.3,3.3,5.9c1,1.6,1.7,2.6,2.1,2.6
		c0.4-0.1,0.5-1.1,0.6-3c0.1-1.9,0.1-4.6,0-6.4c-0.1-1.8-0.3-2.7,0.1-2.8c0.4-0.1,1.3,0.7,2.2,1.3c0.8,0.7,1.5,1.2,2.1,1.6
		c0.6,0.4,1.1,0.6,1.5,1.1c0.4,0.5,0.7,1.2,1.2,1.9c0.6,0.7,1.4,1.2,1.9,0.9c0.5-0.3,0.7-1.5,0.9-2.3c0.2-0.8,0.5-1.2,0.9-1.5
		c0.4-0.2,0.9-0.3,1.2-0.8c0.3-0.4,0.4-1.3,1.1-2c0.7-0.7,1.9-1.4,2.8-1.1c0.9,0.2,1.4,1.3,2,2.1c0.6,0.8,1.3,1.2,2.2,1.4
		c0.9,0.3,2,0.3,2.7-0.1c0.7-0.4,1.1-1.3,1.5-2.1c0.4-0.8,0.7-1.5,1-2.7c0.3-1.2,0.6-3.1,1.1-4.1c0.5-1.1,1.2-1.4,2-1.4
		c0.8,0,1.6,0.3,2.5,0.6c0.9,0.3,1.9,0.8,2.4,1.6c0.5,0.8,0.6,2.1,0.8,3.2c0.3,1.2,0.7,2.2,1.9,2.6c1.2,0.5,3.2,0.3,4.5,0.1
		c1.4-0.2,2.1-0.5,2.5-0.1c0.4,0.3,0.5,1.3,0.8,1.8c0.3,0.5,0.6,0.6,1,0.7c0.4,0.1,0.9,0.1,1.1,0.5c0.3,0.3,0.3,0.9-0.1,1.5
		c-0.4,0.6-1.3,1.3-1.5,2.6c-0.2,1.3,0.3,3.1,1,3.7c0.7,0.6,1.5-0.1,2.6-0.6c1-0.5,2.3-0.7,2.7-0.5c0.4,0.2,0,0.8-0.6,1.5
		c-0.6,0.7-1.4,1.3-1.6,2c-0.1,0.6,0.5,1.2,1.3,1.1c0.9-0.1,1.9-0.8,2.9-1.4c0.9-0.7,1.8-1.3,2.6-1.3c0.8,0,1.5,0.6,1.9,1.6
		c0.4,1,0.5,2.3-0.1,3.6c-0.6,1.3-1.8,2.6-2.2,3.9c-0.4,1.3,0.1,2.6-0.3,3.3c-0.4,0.6-1.6,0.6-2.4,0.8c-0.8,0.2-1.1,0.7-0.6,1.2
		c0.5,0.5,1.8,1.1,2.1,1.9c0.3,0.8-0.5,1.9-1.8,2.2c-1.2,0.3-3-0.2-4-0.5c-1-0.3-1.4-0.6-1.3-0.3c0.1,0.3,0.7,1.2,0.6,1.9
		c-0.1,0.7-0.8,1.4-1.4,1.7c-0.6,0.4-1,0.5-1.1,1c-0.1,0.5,0.3,1.2,0.6,2.2c0.3,1,0.6,2.2,0.3,2.6c-0.3,0.4-1.4-0.1-2.4-0.4
		c-1-0.3-2-0.5-2.6-0.6c-0.6-0.1-0.7-0.2-0.7,0.2c0,0.3,0.2,1.1-0.5,1.6c-0.7,0.5-2.4,0.6-4,0.7c-1.5,0.1-3,0-4,0.3
		c-1,0.3-1.7,0.9-2.9,1.6c-1.2,0.7-2.9,1.3-4.8,1.9c-1.9,0.6-4,1.1-5.4,1.9c-1.4,0.9-2.2,2-3.3,2.9c-1.1,0.9-2.5,1.6-3.7,1.6
		c-1.2,0.1-2.2-0.3-2.9-0.7s-1.1-0.5-1.9,0.2c-0.8,0.7-2.1,2.3-3.6,2.7c-1.5,0.4-3.3-0.2-4.6-0.3c-1.2-0.1-1.8,0.3-2.3,0.8
		c-0.5,0.5-1,1-1.8,1.1c-0.8,0.1-1.8-0.2-2.1,0.3c-0.3,0.4,0.2,1.5,0.1,2.6c-0.1,1-0.7,2.1-1.7,2.8c-1,0.7-2.5,0.9-3.5,1.2
		c-1,0.2-1.7,0.3-2.2,0.4c-0.5,0.1-1,0.2-1.4,0c-0.4-0.2-0.7-0.7-1.3-0.7c-0.7,0-1.7,0.4-2.7,0.4c-1,0-2-0.3-2.9-0.6
		c-0.9-0.3-1.6-0.6-2.4-0.6c-0.7,0.1-1.4,0.4-2.7,0.2c-1.2-0.2-2.9-1-4.3-1.5c-1.3-0.5-2.3-0.6-3.1-0.5c-0.9,0.1-1.6,0.3-2.1,0.5
		c-0.6,0.1-1,0.2-1.3-0.5c-0.3-0.7-0.4-2.2-0.7-3.5c-0.3-1.3-1-2.4-1.7-2.8c-0.7-0.5-1.5-0.3-2.4-0.2c-0.8,0.1-1.7,0-2.5-0.3
		c-0.8-0.3-1.4-1-2.4-1.6c-0.9-0.5-2.2-0.9-3.1-1c-1-0.2-1.8-0.2-2.5,0.1c-0.7,0.3-1.1,0.9-1.7,1.4c-0.6,0.5-1.2,0.8-2.1,0.9
		c-0.8,0.1-1.8-0.1-2.8-0.2c-1-0.2-1.9-0.3-2.7-0.5c-0.9-0.2-1.6-0.5-1.5-0.8c0.1-0.3,1.2-0.7,1.9-0.9c0.7-0.2,1.2-0.2,1.3-0.5
		c0.1-0.3-0.3-0.9-0.1-1.2c0.1-0.3,0.7-0.4,1.3-0.5c0.6-0.1,1.4-0.1,1.8-0.2c0.5-0.1,0.6-0.3,0.5-0.8c0-0.5-0.3-1.2,0.1-1.6
		c0.4-0.4,1.5-0.5,2.4-0.5c0.9,0,1.7,0,2.2-0.3c0.5-0.3,0.9-0.9,1-1.5c0.2-0.7,0.2-1.4-0.3-1.9c-0.5-0.4-1.4-0.5-2.3-0.7
		c-0.9-0.2-1.6-0.4-1.6-0.9c0.1-0.5,0.9-1.3,1.7-2c0.8-0.7,1.4-1.4,1.2-2c-0.2-0.6-1.3-1-2.4-1c-1.1,0-2.3,0.5-3.5,1.2
		c-1.2,0.7-2.5,1.5-3.2,1.6c-0.7,0.1-0.8-0.5-0.4-1.4c0.4-0.9,1.2-2.2,1.5-2.8c0.3-0.7-0.1-0.7-1.2-0.7c-1.1-0.1-2.9-0.1-4.5-0.6
		c-1.6-0.5-2.9-1.3-3.1-1.9c-0.2-0.6,0.8-0.9,2.1-1.3c1.3-0.4,3-0.8,4.2-1.1c1.2-0.3,1.9-0.5,3-0.4c1,0.1,2.5,0.6,3.5,0.5
		c1-0.2,1.6-1,2.1-1.5c0.5-0.6,0.9-0.9,1.1-1.3c0.2-0.4,0.1-0.9-1.1-1.1c-1.2-0.3-3.6-0.5-4.5-0.8c-0.9-0.4-0.2-1,0.4-1.6
		c0.7-0.6,1.3-1.2,2.2-1.7c0.9-0.5,1.9-0.9,2.8-1.3c0.8-0.4,1.4-0.9,1.6-1.4c0.2-0.4-0.1-0.8-0.6-1.2c-0.6-0.4-1.5-0.7-2.3-1.1
		c-0.8-0.4-1.5-0.8-2.3-0.9c-0.8-0.1-1.6,0.3-2.5,0.3c-0.9,0.1-1.9-0.1-2.6-0.4c-0.7-0.3-1-0.9-2.2-1c-1.2-0.1-3.1,0.3-4.6,0.5
		c-1.4,0.3-2.4,0.5-3,0.3c-0.7-0.2-1-0.8-1.1-1.8c0-1,0.4-2.4,0.5-3.8c0.1-1.4-0.1-2.8-0.1-4c0-1.3,0.2-2.5,0.6-3.4
		c0.4-0.9,1.1-1.4,1.6-1.2c0.5,0.2,0.7,1.1,1,2.1c0.3,1.1,0.6,2.3,1.1,3.1c0.5,0.8,1.2,1.1,2,1.3c0.8,0.2,1.7,0.3,2.6,0.8
		c0.8,0.5,1.6,1.4,2.2,1.7c0.7,0.3,1.3-0.1,1.7-0.7c0.5-0.6,0.7-1.4,0.8-2.2c0.1-0.8,0-1.6-0.5-2.2c-0.5-0.7-1.4-1.2-1.8-2
		c-0.4-0.9-0.3-2,0.4-2.5c0.7-0.4,2.1-0.1,2.7-0.3c0.7-0.2,0.6-0.9,0.2-1.6c-0.4-0.7-1.1-1.4-0.9-1.7c0.3-0.3,1.5-0.1,2.4,0.5
		c0.9,0.5,1.3,1.4,1.8,2c0.6,0.6,1.3,0.9,2.1,1c0.8,0.1,1.6,0.1,2.1,0.6c0.5,0.5,0.7,1.3,0.6,2.1c-0.1,0.8-0.4,1.5-0.3,2
		c0.1,0.6,0.5,1,1.1,1.5c0.6,0.5,1.3,1.1,1.8,1.9c0.5,0.8,0.8,1.9,0.8,2.3c-0.1,0.4-0.5,0.3-1-0.1c-0.5-0.4-1-1-1.6-1.4
		C29.3,163.2,28.8,163,28,163.2L28,163.2z"/>
	<path class="st1" d="M247.3,344c1-0.3,2.3-0.5,3.2-1.4s1.3-2.6,2.1-3.7c0.8-1.1,1.9-1.6,3.1-1.6c1.2,0,2.4,0.4,3.3,0.5
		c0.9,0.1,1.4-0.1,1.8-0.5c0.5-0.4,0.9-0.9,1.9-1.2c1-0.3,2.7-0.3,4.6-0.3c1.9,0,4,0,6-0.2c1.9-0.2,3.7-0.6,4.7-1
		c1-0.4,1.3-0.7,0.9,0c-0.5,0.7-1.6,2.4-2.9,4.1c-1.3,1.7-2.6,3.5-4.3,4.7c-1.7,1.2-3.7,2-5.6,2.8c-1.9,0.9-3.7,1.7-5.4,2.3
		c-1.7,0.6-3.3,0.9-4.2,1.4c-0.9,0.5-1,1.2-0.5,1.6c0.4,0.5,1.4,0.8,2.4,1c0.9,0.2,1.8,0.3,1.8,0.8c-0.1,0.5-1.2,1.3-1.8,2.1
		c-0.7,0.8-0.9,1.4-0.9,2.2c0,0.7,0.2,1.5,0.6,2c0.4,0.6,0.9,0.9,1.4,1.3c0.5,0.4,1,0.9,1.6,0.9c0.7,0.1,1.5-0.4,2-0.9
		c0.6-0.5,0.9-1.2,1.6-1.6c0.8-0.4,2.1-0.7,3.2-0.9c1.1-0.2,2.1-0.3,2.7-0.5c0.7-0.3,1-0.7,1.7-1c0.7-0.2,1.8-0.1,2.7,0.2
		c0.9,0.3,1.6,1,3.9,1c2.2,0.1,6-0.3,9-0.5c3-0.2,5.2-0.2,6.4,0.5c1.1,0.7,1.1,2.2,0.5,3.6c-0.7,1.4-2,2.7-2.7,4.2
		c-0.7,1.5-0.6,3.1-1.5,5.3c-0.9,2.2-2.7,4.9-4.4,6.7c-1.7,1.8-3.2,2.8-5,3.9c-1.8,1.1-4,2.4-5.7,3.6c-1.7,1.1-3.1,2-3.6,2.8
		c-0.5,0.8-0.2,1.4,1.2,1.2c1.4-0.3,3.7-1.4,4.5-1.3c0.9,0,0.2,1.2-1.2,2.3c-1.4,1.1-3.5,2.2-5.6,2.9c-2,0.7-3.9,1.1-5.1,1.2
		c-1.2,0.1-1.6-0.1-1,0.5c0.6,0.6,2.1,2.1,3.8,2.7c1.7,0.6,3.6,0.4,4.9,0.7c1.3,0.3,2.1,1.2,3,1.2c0.9,0,1.9-0.7,3.3-1.1
		c1.5-0.3,3.4-0.3,5.4,0.6c2,0.9,4.2,2.5,6.2,4.4c2,1.9,3.8,3.9,4.9,7.2c1.1,3.3,1.5,7.8,2.2,10.7c0.8,2.9,1.9,4.1,2.6,5.6
		c0.7,1.5,1,3.3,2,4.1c1,0.8,2.8,0.6,4.5,1c1.7,0.4,3.3,1.4,4.8,2.8c1.5,1.4,3,3.4,4,5.1c1.1,1.7,1.7,3.1,1.6,3.9
		c-0.2,0.9-1.2,1.3-1.2,2c0,0.6,0.9,1.4,1.8,2.4c0.9,1,1.8,2.1,1.4,2.5c-0.4,0.4-2.1,0.1-4.2,0.1c-2.2-0.1-4.8,0.1-5.9,0.7
		c-1.1,0.7-0.7,1.8,0.4,2.5c1.1,0.7,3,0.9,4.6,1.3c1.6,0.4,2.9,1,3.8,2c1,1,1.6,2.3,2.3,3.5c0.8,1.2,1.6,2.4,1.7,3.7
		c0.1,1.3-0.7,2.8-1.4,3.9c-0.7,1.1-1.2,2-1.3,2.8c-0.2,0.9,0,1.8,0.5,2.2c0.5,0.5,1.4,0.6,2.3,0.9c0.9,0.4,1.9,1.1,2.9,1.1
		c1,0,1.9-0.8,2.5-1.6c0.6-0.8,0.8-1.6,1.9-2.1c1.1-0.5,3.1-0.6,5.4-0.3c2.2,0.3,4.6,1.2,6.5,2.2c1.8,1,3.1,2.3,3.5,4
		c0.4,1.8-0.2,4.1-1,6.4c-0.9,2.3-2,4.6-3.5,6c-1.4,1.4-3.1,2-4.3,2.7c-1.1,0.7-1.8,1.6-2.2,2.3c-0.4,0.6-0.6,1,0.1,1.4
		c0.6,0.4,2,0.9,1.3,1.3c-0.7,0.4-3.5,0.8-5.3,1.1c-1.8,0.4-2.8,0.8-2.5,1.4c0.3,0.6,1.6,1.4,1.2,2.2c-0.4,0.9-2.7,2-3.9,2.8
		c-1.2,0.8-1.3,1.4-0.8,2c0.5,0.6,1.7,1.1,2.8,1.8c1,0.7,1.9,1.5,3.3,2.1c1.4,0.5,3.2,0.8,4.9,1c1.6,0.2,3.1,0.3,2.2,1.5
		c-0.9,1.3-4.1,3.8-6.2,5c-2.1,1.2-3.1,1.2-4.5,1.4c-1.4,0.1-3.1,0.4-4.6,0.8c-1.5,0.3-2.8,0.7-4,0.5c-1.2-0.3-2.4-1.4-3.5-1.4
		c-1.2-0.1-2.3,0.9-4,1.5c-1.7,0.6-3.9,0.7-5.4,0.3c-1.5-0.3-2.2-1.2-3.6-1.5c-1.4-0.4-3.5-0.2-4.7,0.2c-1.3,0.5-1.8,1.2-2.3,2
		c-0.5,0.8-1,1.5-2,1.9c-0.9,0.3-2.4,0.3-3.9,0.3c-1.6,0-3.3,0.2-4.7,0.5c-1.4,0.4-2.5,1-3.7,1.1c-1.3,0.1-2.8-0.4-4.2-0.8
		c-1.4-0.4-2.7-0.7-4.8-0.7c-2.1-0.1-5,0.1-6.9,0.3c-1.9,0.3-2.9,0.6-3.3,1.8c-0.4,1.2-0.1,3.2-0.4,5c-0.2,1.8-1,3.4-2,4.1
		c-1,0.7-2.5,0.6-3.9-0.5c-1.5-1.1-3.1-3.1-4-3.9c-1-0.8-1.3-0.4-1.8,0.4c-0.5,0.8-1.1,1.9-2.1,2.3c-1,0.5-2.3,0.3-4.1,0.6
		c-1.8,0.3-3.9,1.1-6,2.6c-2,1.4-3.9,3.5-4.7,4.2c-0.9,0.7-0.7,0,3.1-4.3c3.8-4.3,11.3-12.1,15.5-16.6c4.3-4.5,5.3-5.8,6.6-6.2
		c1.3-0.4,2.9,0,5,0.2c2.1,0.2,4.7,0.2,6.4-0.1c1.7-0.3,2.4-0.9,3.8-2.3c1.4-1.4,3.5-3.5,5.4-5.9c1.9-2.4,3.7-4.9,3.8-6
		c0.1-1.1-1.4-0.7-4.2,0.6c-2.8,1.4-6.7,3.7-9.2,5.2c-2.6,1.5-3.8,2.1-5.1,1.5c-1.2-0.7-2.6-2.6-4.1-4.2c-1.5-1.6-3.3-2.8-5-3.3
		c-1.7-0.4-3.3,0-4.3-0.1c-1-0.1-1.3-0.7-2-1c-0.7-0.3-1.8-0.2-2.9-0.1c-1.2,0.1-2.5,0.3-3.9,0.4c-1.4,0.2-2.9,0.4-3.5-0.2
		c-0.6-0.6-0.3-2,1.4-3c1.7-1,4.7-1.6,7.3-2.8c2.6-1.2,4.6-2.9,6.4-5.1c1.8-2.2,3.4-4.9,4-7.3c0.7-2.4,0.4-4.5-0.4-6.3
		c-0.7-1.8-1.9-3.4-3-4.3c-1.1-0.9-2.1-1.2-1.5-2c0.6-0.8,2.8-2.1,4.9-2.9c2.1-0.8,4.2-1.1,5.6-1.2c1.4-0.1,2.1-0.1,2.8-0.4
		c0.6-0.3,1.1-0.8,2-0.6c0.9,0.2,2.2,1.2,3.4,1.7c1.2,0.6,2.3,0.7,3.1,0.6c0.8-0.1,1.3-0.6,2.6-0.9c1.3-0.3,3.4-0.5,4.3-1.4
		c0.8-0.8,0.3-2.3-0.8-3.5c-1-1.2-2.7-2.1-3.8-2.8c-1.1-0.7-1.7-1.2-1.3-2c0.3-0.8,1.6-2,2.4-2.9c0.8-0.9,1.1-1.5,0.5-2
		c-0.6-0.5-2.1-0.9-2.4-1.5c-0.3-0.6,0.7-1.4,1.3-1.9c0.7-0.5,1.1-0.8,1.2-1.8c0.1-1,0-2.8-0.2-3.9c-0.3-1.1-0.7-1.5-2-1.7
		c-1.4-0.2-3.7-0.2-5.1-1.2c-1.4-1-1.8-3-1.9-5.1c0-2,0.4-4.1,1.3-5.5c1-1.4,2.6-2,3.7-2.7c1.1-0.7,1.7-1.6,1.7-2.3
		c0-0.7-0.5-1.3-1.9-1.7c-1.4-0.4-3.6-0.5-5.4-0.7c-1.7-0.2-2.9-0.4-4.3,0.1c-1.4,0.5-2.9,1.8-4.4,2.4c-1.5,0.6-3,0.6-4.2,0.3
		c-1.2-0.4-2.1-1.1-2.6-1.1c-0.5,0-0.7,0.6-0.9,1.2c-0.2,0.6-0.3,1.2-1.3,1.2c-0.9-0.1-2.7-0.8-3.7-1.8c-1-1-1.3-2.2-0.5-3.7
		c0.9-1.6,2.8-3.6,4-5.6c1.2-2,1.6-4.1,1.5-5.8c-0.1-1.6-0.7-2.8-1.4-4c-0.6-1.2-1.2-2.4-0.8-3.2c0.4-0.8,1.8-1.2,2.7-1.6
		c0.9-0.4,1.3-0.7,1-1.2c-0.3-0.5-1.2-1.1-1.6-2c-0.5-0.9-0.5-2.2-1.1-3.1c-0.6-0.9-1.7-1.6-2.7-2.1c-1-0.5-1.9-1-2.7-0.9
		c-0.8,0.1-1.4,0.9-2.2,1.4c-0.7,0.5-1.5,0.8-2.2,1.2c-0.7,0.4-1.2,1-1.3,0.5c-0.1-0.5,0.3-1.9,0.9-3.1c0.5-1.2,1.2-2.1,1.8-2.5
		c0.6-0.4,1.2-0.3,1.6-0.8c0.5-0.5,0.8-1.4,1-2.2c0.2-0.8,0.2-1.3,0.6-1.9c0.5-0.6,1.4-1.2,1.7-1.9c0.3-0.7,0.1-1.6-0.3-2.4
		c-0.5-0.9-1.1-1.8-2.1-1.8c-1,0-2.2,0.9-3.3,1.9c-1.1,1-2.2,2.1-3,2.1c-0.8,0-1.4-1.1-1.6-2.6c-0.2-1.5,0-3.5,0.8-4.8
		c0.8-1.3,2.2-2,3.1-2.9c0.9-0.9,1.2-2.1,1.1-3.2c-0.1-1-0.7-2-1.2-2.9c-0.6-0.9-1.1-1.6-1.7-2c-0.6-0.4-1.2-0.4-1.1-0.7
		c0.1-0.3,0.9-1,1.3-1.9c0.3-0.9,0.2-2,0.1-2.9c0-0.9,0.1-1.5,0.7-1.9c0.6-0.4,1.6-0.5,2.2-1c0.6-0.5,0.6-1.2,1.1-1
		c0.5,0.2,1.5,1.3,2.1,1.6c0.6,0.3,0.8-0.3,1.1-0.7c0.3-0.4,0.7-0.7,1.1-1.3c0.3-0.6,0.7-1.5,0.4-2.4c-0.3-0.9-1.2-1.8-1.8-2.6
		c-0.5-0.8-0.7-1.4-0.3-1.9C245.6,344.6,246.3,344.3,247.3,344L247.3,344z"/>
	<path class="st1" d="M197.1,418.9c-1.4,0-3.3-0.1-4.3,0.7c-1,0.7-1.1,2.3-1.4,3.5c-0.3,1.2-0.9,2.2-1.4,2.8
		c-0.6,0.6-1.1,0.8-1.1,1.5c0.1,0.7,0.7,1.8,1.6,2.2c0.9,0.5,1.9,0.2,2.6,0.6c0.7,0.4,1,1.3,1.5,1.6c0.4,0.3,0.9,0,1.2-1.1
		c0.3-1,0.3-2.8,0.9-3.5c0.6-0.8,1.7-0.7,2.7-0.9c1-0.2,1.9-0.8,2.1-1.7c0.2-0.9-0.3-2.2-0.7-3.3c-0.3-1-0.5-1.8-1-2.1
		C199.3,418.8,198.5,418.9,197.1,418.9L197.1,418.9z"/>
	<path class="st1" d="M210.3,422.4c1.4-1,3.1-2.3,4.9-3c1.7-0.7,3.3-0.7,4.5-0.9c1.1-0.3,1.7-0.8,2.6-0.9c0.9,0,2.1,0.5,2.9,1.4
		c0.8,0.9,1.3,2.3,1.8,3.2c0.6,0.9,1.2,1.4,1.8,2.1c0.5,0.7,1,1.5,0.6,2.4c-0.4,0.9-1.6,2-2.2,2.9c-0.6,0.9-0.5,1.8-0.1,2.3
		c0.5,0.5,1.4,0.7,2.2,1c0.9,0.3,1.6,0.5,2.1,0.9c0.5,0.4,0.7,0.9,0.4,1.7c-0.3,0.8-1.2,1.9-2.1,2.7c-0.9,0.8-1.8,1.3-2.3,2
		c-0.5,0.8-0.5,1.8-1.1,1.9c-0.6,0.1-1.8-0.7-2.8-0.9c-1-0.1-1.8,0.4-2.6,0.7c-0.8,0.3-1.6,0.4-2.4-0.5c-0.7-0.9-1.3-2.9-2.7-4.2
		c-1.3-1.4-3.4-2.1-5.1-2.2c-1.7-0.1-3.1,0.4-3.9,1.4c-0.8,0.9-1,2.3-1,3.2c0,0.9,0.1,1.5-0.4,1.6c-0.6,0.1-1.8-0.1-3.4-0.8
		c-1.6-0.7-3.4-1.8-4.4-2.6c-1-0.8-1.2-1.4-0.7-2c0.5-0.7,1.7-1.4,2.6-2.2c1-0.8,1.8-1.6,2.6-2.8c0.8-1.1,1.6-2.6,2.4-3.6
		c0.8-1,1.7-1.7,2.6-2.3C208,424.1,209,423.4,210.3,422.4L210.3,422.4z"/>
	<path class="st1" d="M190.7,438.2c1.8,1.2,4.6,3.3,6.9,4.7c2.3,1.4,4.2,2.2,5.8,2.4c1.6,0.1,3-0.4,4.1-1.5c1.1-1.1,1.8-2.8,2.5-3.2
		c0.7-0.5,1.4,0.2,2.7,1.2c1.2,1,2.9,2.2,4.1,3.1c1.2,0.9,1.8,1.3,2.4,3.2c0.7,1.8,1.3,4.9,1.6,7.2c0.3,2.3,0.1,3.7,0.1,5.5
		c0,1.8,0.2,3.9,0.6,5.8c0.4,1.9,1,3.5,0.9,5.3c-0.2,1.8-1.1,3.8-1.8,5.8c-0.6,2-0.9,4-1.7,5.3c-0.8,1.3-2.1,1.8-2.8,2.6
		c-0.7,0.8-0.8,1.8-0.9,2.7c-0.1,0.9-0.2,1.5-1,1.7c-0.8,0.3-2.2,0.2-3.5-0.7c-1.3-0.9-2.3-2.5-3.6-3c-1.2-0.5-2.7,0.2-2.9,0.8
		c-0.2,0.6,0.8,1.1,1.3,1.6c0.5,0.6,0.5,1.2-0.7,1.7c-1.2,0.6-3.6,1-5.3,1.5c-1.7,0.5-2.6,1-3.1,1.5c-0.5,0.5-0.4,1.1-0.8,1.6
		c-0.4,0.6-1.3,1.2-2.5,1.7c-1.1,0.5-2.6,0.9-3.7,1c-1.1,0.1-2-0.1-2.8-0.2c-0.8-0.1-1.6,0-2.2,0.6c-0.6,0.6-0.9,1.8-1.7,2.9
		c-0.8,1.1-2.1,2-3.6,2.7c-1.5,0.6-3.2,0.9-5,1.2c-1.8,0.3-3.9,0.5-5,0.2c-1.1-0.3-1.4-1.2-1.6-1.8c-0.3-0.6-0.5-0.9-1.3-1.2
		c-0.8-0.4-2.1-0.9-2.5-1.7s-0.1-1.9-0.8-2.3c-0.8-0.4-2.8-0.1-4.3,0.4c-1.5,0.6-2.6,1.4-3.3,1.4c-0.7,0-1-0.8-0.5-1.8
		c0.5-0.9,1.9-2,3.3-2.9c1.3-0.9,2.6-1.8,3.4-2.9c0.8-1.2,1-2.6,1.5-3.9c0.5-1.3,1.2-2.5,2.7-3.4c1.5-0.9,3.7-1.4,6.3-2.2
		c2.5-0.7,5.3-1.6,6.4-2.6c1.1-0.9,0.5-1.9-0.2-3c-0.7-1.2-1.4-2.5-2.4-2.2c-1,0.2-2.3,2-3.2,2.6c-0.9,0.6-1.3-0.1-1.2-1.4
		c0.1-1.3,0.6-3.2,1.5-4.6c0.9-1.4,2.1-2.4,3.7-3.1c1.5-0.7,3.3-1.2,4.1-2c0.8-0.8,0.5-1.9-0.5-2.4c-0.9-0.5-2.6-0.5-4.5-0.5
		c-1.9,0-4.2-0.1-5.6-0.5c-1.5-0.5-2.1-1.3-3.1-2c-1-0.8-2.4-1.5-3.2-1.9c-0.8-0.4-1.2-0.6-0.6-0.9c0.6-0.3,2.1-0.7,2.8-1.4
		c0.8-0.7,0.8-1.7,1-2.3c0.2-0.6,0.6-0.8,1.2-1c0.6-0.2,1.5-0.3,2-1c0.5-0.7,0.7-2,0.7-2.8c-0.1-0.8-0.4-1.1-1.2-1.3
		c-0.9-0.2-2.2-0.3-3.1-0.9c-0.9-0.6-1.2-1.8-1.1-3.1c0.2-1.3,0.9-2.8,2.4-3.5c1.5-0.8,3.7-0.9,5.1-0.9c1.4,0,2,0.1,2.2,0.6
		c0.2,0.6,0,1.6,0.5,2.3c0.5,0.7,1.5,1,2.1,0.9c0.6-0.2,0.8-0.9,1.3-1.3c0.5-0.4,1.4-0.5,2.6-0.5c1.2,0,2.7,0.1,4,0
		c1.2-0.1,2.3-0.6,2.5-1.7c0.2-1.1-0.3-2.9-0.2-3.6C188,436.5,188.9,437,190.7,438.2L190.7,438.2z"/>
	<path class="st1" d="M364.3,741c0.2-1.2,0.2-3,0.4-4.6c0.2-1.6,0.7-3.1,0.6-3.9c-0.1-0.8-0.7-0.9-1.6-0.6c-1,0.3-2.2,1-3.6,1.6
		c-1.4,0.6-2.8,1.2-3.5,1.2c-0.7,0-0.7-0.5-1.2-0.8c-0.6-0.3-1.9-0.2-3.3,0.1c-1.3,0.3-2.8,0.7-4,1c-1.3,0.3-2.4,0.5-3.2,0.1
		c-0.8-0.5-1.2-1.6-2.3-2c-1-0.5-2.6-0.2-4-0.2c-1.4,0-2.5-0.2-3.1-1.2c-0.7-1-0.9-2.8-1.6-3.9c-0.7-1.1-1.7-1.5-2.9-2
		c-1.2-0.5-2.5-1.1-3.8-1.2c-1.2-0.1-2.4,0.3-3,0.9c-0.5,0.6-0.5,1.4-1.3,2.2c-0.8,0.7-2.5,1.4-3.4,1.4c-0.9,0.1-1-0.3-1.4-0.7
		c-0.4-0.4-1.1-0.9-2.1-1.1c-1-0.3-2.2-0.4-3.4-0.5c-1.2-0.1-2.4,0-3.2-0.3c-0.8-0.3-1.2-1-2-1.2c-0.9-0.2-2.2,0.2-3.2,0.1
		c-0.9,0-1.5-0.5-2.3-1.2c-0.8-0.7-1.8-1.8-3.1-2.6c-1.3-0.9-2.9-1.6-4.4-1.8c-1.6-0.3-3.1-0.1-4-0.4c-0.9-0.3-1.3-1-1.9-2.1
		c-0.5-1.1-1.2-2.6-2.4-3.8c-1.1-1.2-2.8-2-4.9-2.2c-2.2-0.2-4.8,0.2-6.8,0.4c-1.9,0.2-3.1,0.1-4.5-0.2c-1.4-0.3-3.1-0.9-4.2-0.9
		c-1,0-1.5,0.5-1.9,0.9s-0.7,0.8-1.7,0.7c-1-0.1-2.6-0.7-3.9-1.3c-1.3-0.6-2.2-1.3-3.4-1.7c-1.2-0.4-2.7-0.6-3.9-0.3
		c-1.2,0.2-2.1,0.9-3.5,1.4c-1.4,0.5-3.3,0.9-4.9,1.2c-1.6,0.3-2.8,0.5-4.1,0.5c-1.3,0-2.7-0.1-5.1-0.7c-2.3-0.5-5.6-1.5-9.2-2.3
		c-3.6-0.7-7.5-1.3-11.3-1.4c-3.7-0.1-7.3,0.3-9.5,0.5c-2.2,0.2-3.1,0.3-4.3,0.5c-1.2,0.2-2.6,0.6-3.8,0.9c-1.1,0.4-1.9,0.8-2.7,0.5
		c-0.7-0.3-1.5-1.2-2.9-2.2c-1.5-0.9-3.7-1.7-5.6-1.9c-1.9-0.2-3.6,0.3-5,0.7c-1.4,0.3-2.6,0.6-2.8,0.9c-0.3,0.4,0.4,0.9,0.8,1.6
		c0.4,0.6,0.5,1.3,0,2c-0.5,0.7-1.7,1.4-2.8,1.9c-1.1,0.5-2,0.7-3.4,1c-1.4,0.3-3.3,0.7-4.7,1.2c-1.5,0.5-2.6,1.1-3.9,2
		c-1.4,0.9-2.9,2-3.6,3.2c-0.6,1.2-0.3,2.5,0.3,3.2c0.7,0.7,1.8,0.7,2.8,0.9c1.1,0.2,2.1,0.7,3,1.3c0.8,0.5,1.4,1.2,1.8,1.9
		c0.3,0.7,0.3,1.6,0.2,2.4c-0.1,0.8-0.3,1.6-0.8,2.2c-0.5,0.7-1.3,1.3-1.3,2c0.1,0.7,1,1.4,1.8,1.9c0.9,0.5,1.6,0.9,1.3,2
		c-0.3,1.1-1.6,3-2.7,4.5c-1.2,1.4-2.2,2.5-1.5,2.8c0.7,0.3,3.1-0.1,5.1-1c2-0.9,3.5-2.2,4.9-2.4c1.4-0.3,2.8,0.5,3.7,1.2
		c0.9,0.7,1.4,1.3,1,1.8c-0.5,0.5-1.9,0.8-2.4,1.5c-0.5,0.7,0,1.6,1,2c1,0.4,2.6,0.2,4.1,0.1c1.4-0.1,2.7,0,3.8,0
		c1.1,0,2.1,0,2.8-0.3c0.7-0.3,1.1-0.8,2.9-1.3c1.8-0.5,4.8-0.8,6.9-0.9c2.1-0.1,3.2-0.1,4,0.3c0.8,0.4,1.2,1.2,1.4,2
		c0.2,0.9,0.2,1.8,0.9,2.6c0.7,0.8,2.1,1.4,3.1,2.1c1,0.7,1.6,1.4,1.7,2.7c0.1,1.2-0.3,2.9-1.4,4.7c-1.1,1.8-2.8,3.7-4.3,5.4
		c-1.5,1.6-2.9,2.9-3.9,3.9c-1,1-1.7,1.7-1.9,3.3c-0.2,1.7,0.2,4.3,0.3,6.7c0.1,2.4,0.1,4.5,0,6.4c-0.1,1.8-0.3,3.4-0.8,4.2
		c-0.6,0.8-1.5,1-1.8,1.6c-0.3,0.7,0,1.8,0.4,2.9c0.4,1,0.8,1.9,0.7,3.2c-0.1,1.2-0.7,2.8-1.3,4c-0.7,1.2-1.4,1.9-2,2.8
		c-0.6,0.9-1,1.7-1.6,2.2c-0.6,0.4-1.4,0.3-2.4,0.1c-1-0.3-2.2-0.7-2.2,0.4c0,1.2,1.2,4,2.5,6.3c1.3,2.2,2.7,3.9,3.5,5.1
		c0.9,1.2,1.2,2,1,2.7c-0.2,0.7-0.9,1.3-1.8,2.8c-0.9,1.5-2,3.7-2.9,5.6c-0.9,1.9-1.6,3.3-1.6,4.6c-0.1,1.3,0.5,2.4,1.3,3.2
		c0.8,0.8,1.8,1.4,2.8,1.7c1,0.3,2,0.5,1.9,2.1c-0.1,1.6-1.2,4.7-2.4,6c-1.1,1.3-2.1,0.9-2.9,1c-0.9,0.1-1.6,0.6-2,1.3
		c-0.3,0.7-0.3,1.4-0.6,2.2c-0.2,0.8-0.7,1.5-1,2.1c-0.3,0.5-0.4,0.9-0.7,1.6c-0.3,0.7-0.8,1.6-1.1,2.6c-0.3,1-0.3,2-0.2,3
		c0.1,0.9,0.4,1.8,0.8,2.2c0.4,0.4,0.9,0.5,1.9,0.1c1-0.4,2.4-1.2,3.7-1.5c1.3-0.3,2.5,0,3.5,0.5c0.9,0.5,1.7,1.3,2.4,2.5
		c0.7,1.2,1.5,2.8,2.5,4c1,1.2,2.2,2.2,3.7,3.1c1.4,1,3,2,3.4,2.6c0.5,0.6-0.2,0.7-1,0.8c-0.9,0-1.8,0-2.2,0.8
		c-0.4,0.8-0.1,2.6,0.5,3.8c0.5,1.2,1.4,2,2.1,2.5c0.7,0.5,1.3,0.6,1.5,0.9c0.2,0.3-0.1,0.8,0.3,1.8c0.4,1,1.4,2.4,2.4,4.1
		c1,1.7,1.9,3.6,2.7,4.6c0.8,1,1.4,1,2,0.5c0.6-0.5,1-1.6,1.5-2.8c0.4-1.2,0.8-2.6,2.5-4.3c1.7-1.6,4.9-3.6,7-4.6
		c2.1-1,3.2-1.2,4.3-1.6c1.2-0.5,2.4-1.2,3.3-2c0.9-0.7,1.6-1.4,2.8-2c1.2-0.6,2.8-1.2,5.4-1.4c2.6-0.3,6.1-0.3,9.3-0.3
		c3.2,0,6.1,0,8,0c1.9,0,2.8,0,3.7,0.1c0.8,0.1,1.6,0.3,2.2,0.2c0.6-0.1,0.9-0.4,1-1c0.2-0.5,0.2-1.3,1.9-1.7
		c1.7-0.4,5.1-0.4,7.2-0.8c2.1-0.5,2.9-1.4,3.2-2.9c0.3-1.5,0.2-3.8,0.3-5.3c0.1-1.5,0.3-2.4,1.2-3.4c0.9-0.9,2.6-1.9,3.9-2.9
		c1.3-1,2.4-2,3.2-2.8c0.8-0.9,1.3-1.6,2.2-1.8c0.9-0.2,2.3,0.1,3.7,0.3c1.4,0.1,2.8-0.1,3.7-0.4c0.9-0.3,1.1-0.9,1.2-2
		c0.1-1.1-0.1-2.7,1.4-6.2c1.5-3.6,4.6-9.1,7.1-12.5c2.5-3.3,4.3-4.5,5.4-5.7c1.1-1.1,1.4-2.2,1.1-3c-0.3-0.7-1.4-1.1-2.1-2.3
		c-0.8-1.2-1.3-3.3-2-5.6c-0.7-2.4-1.7-5-1.6-8.4c0.1-3.3,1.2-7.4,4.3-12.7c3.1-5.3,8.1-11.8,11.1-15.3c3-3.5,3.9-4,4.2-4.5
		c0.3-0.5-0.1-1-0.6-1.3c-0.6-0.3-1.3-0.6-0.8-1.7c0.6-1.1,2.6-3.2,4.9-5.2c2.4-1.9,5.2-3.7,7.5-4.9c2.3-1.2,4.2-1.7,5.6-2.2
		c1.5-0.5,2.5-0.8,4.2-1.7c1.7-0.9,4.1-2.5,5.8-3.9c1.7-1.4,2.9-2.6,4.5-3.8c1.6-1.1,3.7-2.2,5.2-2.9c1.4-0.8,2.2-1.2,2.6-1.8
		c0.5-0.5,0.6-1.2,0.9-1.8C363.8,742.9,364.2,742.2,364.3,741L364.3,741z"/>
	<path class="st1" d="M163.2,757.2c0.5-0.9,1.1-1.8,1.2-2.6c0.2-0.7-0.1-1.2-0.3-1.6c-0.2-0.3-0.2-0.5,0.6-1.3
		c0.8-0.8,2.5-2.1,4.1-3.2c1.6-1.1,3.1-2.1,3.7-1.9c0.6,0.2,0.3,1.6,0.2,2.8c-0.1,1.2,0.1,2.2,0.5,2.9c0.5,0.6,1.2,0.9,2.2,0.6
		c1-0.3,2.3-0.9,3.5-1.2c1.2-0.3,2.4-0.1,4,0.4c1.6,0.5,3.5,1.4,5.2,1.6c1.7,0.3,3-0.2,4.3-0.9c1.3-0.7,2.5-1.7,3.6-2.2
		c1.1-0.5,2.1-0.6,2.6-0.4c0.5,0.2,0.5,0.7,0.7,1.6c0.2,0.9,0.7,2.2,1.3,3.1c0.6,0.9,1.4,1.4,1.7,2.1c0.3,0.7,0.1,1.6-0.9,2.6
		c-1,1-2.7,2.1-4.3,3.5c-1.6,1.4-3.1,3-4,4.5c-0.9,1.6-1.1,3.1-1.2,4.2c-0.1,1.1-0.2,1.8-0.1,2.7c0.1,0.9,0.2,1.9,0.5,3.4
		c0.2,1.5,0.5,3.4,0.4,4.9c-0.1,1.4-0.5,2.3-0.5,3.3c0,1,0.4,2.1,0.2,2.7c-0.2,0.6-1,0.6-1.4,1.2c-0.5,0.7-0.5,2.1-0.4,3.2
		c0.2,1.1,0.7,2,0.9,3c0.2,1,0,2-0.4,2.9c-0.4,0.9-1.1,1.6-2.7,2.1c-1.6,0.5-4,0.9-5.7,1.2c-1.7,0.4-2.6,0.7-2.6,1.9
		c0,1.2,0.9,3.2,2,5.3c1.1,2.2,2.5,4.4,3.6,6.5c1.1,2.1,2,3.9,2.1,5.2c0.1,1.3-0.7,2.1-1.5,3.2c-0.8,1.1-1.8,2.5-2.4,4.5
		c-0.6,2-1,4.7-0.5,6.8c0.5,2,1.8,3.3,2.6,4.2c0.8,0.9,1,1.3,0.9,1.9c-0.1,0.6-0.6,1.3-1.7,2.6c-1.1,1.2-2.7,3-3.9,4.7
		c-1.2,1.8-2,3.6-2.4,5.3c-0.5,1.8-0.6,3.5-0.4,4.7c0.2,1.2,0.6,1.9,0.5,3c-0.1,1.1-0.9,2.6-1.9,3.7c-1,1.1-2.2,1.8-4,2.1
		c-1.8,0.3-4.1,0.1-6.3-0.1c-2.2-0.2-4.2-0.6-5.7-0.7c-1.5-0.1-2.4,0-2.8-0.7c-0.3-0.7-0.1-2.3,0.3-3.8c0.3-1.5,0.8-2.9,1.1-4.3
		c0.3-1.4,0.5-2.9,0.2-4.4c-0.3-1.5-1-3.1-1.2-4.6c-0.2-1.5,0.1-2.9,0.6-4.1c0.5-1.2,1-2.4,1.3-4c0.3-1.6,0.3-3.8,0.3-5.4
		c0-1.7,0.1-2.8-0.5-3.2c-0.7-0.3-2.2,0.2-3.1,0.2c-0.9-0.1-1.2-0.8-0.9-2c0.2-1.2,0.9-2.9,1.3-4.2c0.4-1.3,0.4-2.1-0.2-2.6
		c-0.6-0.5-1.7-0.5-2.7,0.2c-1,0.7-1.8,2.3-2.6,3.2c-0.8,1-1.6,1.4-2.1,0.7c-0.5-0.7-0.6-2.6,0.1-5.7c0.8-3.1,2.5-7.4,4-10.7
		c1.5-3.3,2.8-5.6,3.5-7.7c0.7-2.2,0.9-4.3,1.4-5.6c0.5-1.4,1.3-2.1,1.8-2.8c0.5-0.7,0.7-1.3,0.7-3c0-1.8-0.1-4.7,0.2-6.5
		c0.3-1.8,1.2-2.6,1.9-3.4c0.7-0.8,1.4-1.6,1.7-3.8c0.3-2.2,0.4-5.7,0.3-8.6c-0.1-2.9-0.3-5.1-0.9-6.8c-0.6-1.7-1.6-2.9-1.9-3.8
		C162.5,758.9,162.8,758.1,163.2,757.2L163.2,757.2z"/>
	<path class="st1" d="M463.8,723.6c-1.3,0.7-3.3,1.9-4.6,2.9c-1.2,1-1.6,1.9-1.5,3c0.2,1.1,0.9,2.4,1.1,3.7c0.2,1.3-0.1,2.6,0.3,4.1
		c0.4,1.5,1.5,3.3,2.1,4.8c0.5,1.4,0.5,2.5,0.5,3.5c-0.1,1-0.3,2-0.2,2.9c0.1,0.9,0.5,1.7,1.1,2.1c0.7,0.4,1.6,0.3,2.2-0.5
		c0.7-0.8,1-2.2,1.2-3.9c0.3-1.7,0.5-3.6,0.9-5.1c0.3-1.5,0.9-2.5,1.5-3.3c0.6-0.8,1.2-1.4,1.8-1.9c0.6-0.6,1.1-1.1,1.4-2.2
		c0.2-1.1,0.1-2.8-0.1-4c-0.3-1.2-0.7-2.1-1-3.1c-0.3-1-0.3-2.2-0.6-3.1c-0.3-0.9-0.6-1.4-1.3-1.6c-0.7-0.1-1.6,0.1-2.3,0.4
		C465.6,722.6,465.1,722.9,463.8,723.6L463.8,723.6z"/>
	<path class="st1" d="M361,796.2c0.8,0.2,1.8,1.2,3.2,1.9c1.3,0.7,2.9,1.2,3.7,2c0.8,0.7,0.7,1.7,0.1,2.6c-0.7,0.9-2,1.6-3,2.5
		c-1,0.9-1.9,1.9-2.8,2.2c-0.9,0.2-1.8-0.4-3-1.5c-1.2-1.1-2.8-2.7-3.8-3.6c-1-0.9-1.4-1.1-0.7-1.8c0.7-0.7,2.6-1.9,3.7-2.8
		C359.7,796.6,360.2,796,361,796.2L361,796.2z"/>
	<path class="st1" d="M464.1,760.6c-1.6,2-4.3,5.2-6.6,6.9c-2.3,1.8-4,2.1-5.4,2.4c-1.4,0.2-2.4,0.4-2.2,1.4c0.2,1,1.7,2.8,2.6,4.2
		c0.9,1.5,1.4,2.6,1.6,3.5c0.2,1,0.2,1.8,0.6,2.4c0.4,0.6,1.2,0.8,1.5,1.6c0.3,0.7,0.2,1.9,0.6,2.7c0.4,0.8,1.3,1.1,1.5,1.5
		c0.2,0.4-0.3,0.8-0.6,1.8c-0.3,1-0.3,2.6-0.3,4.4c0,1.8,0.1,3.8-0.3,5.4c-0.5,1.6-1.5,2.7-2.2,4c-0.8,1.3-1.3,2.9-1,4.9
		c0.2,1.9,1.2,4.1,2.2,5.4c1,1.3,2,1.6,2.9,1.7c0.9,0,1.8-0.3,2.2-1.5c0.5-1.3,0.5-3.6,1.1-4.9c0.7-1.4,1.9-1.8,3.5-1.6
		c1.6,0.1,3.5,0.9,4.5,0.7c1-0.1,0.9-1.1,1-3c0.1-1.9,0.4-4.7,0.6-6.8c0.3-2.1,0.5-3.7,0.9-5.2c0.5-1.5,1.1-3,1.4-4.2
		c0.3-1.2,0.1-2-0.4-3.2c-0.4-1.2-1.2-2.9-1.2-4.2c0-1.3,0.7-2.3,1.1-3.8c0.5-1.5,0.8-3.5,0.1-6c-0.7-2.5-2.4-5.4-3.6-8
		c-1.2-2.5-1.9-4.6-2.6-5.4c-0.6-0.9-1.1-0.5-1.5,0C466,757.9,465.7,758.6,464.1,760.6L464.1,760.6z"/>
	<path class="st1" d="M523,838.9c0.6-1.2,1.2-2.2,2.1-2.4c0.9-0.2,2.1,0.3,3.2,0.8c1,0.5,2,1,2.7,0.5c0.8-0.5,1.5-2.1,2.4-3
		c1-0.8,2.3-0.9,3.6-0.2c1.3,0.7,2.7,2,4.1,2.8c1.3,0.8,2.6,1,4.2,0.8c1.7-0.2,3.8-0.8,5.6-1.1c1.9-0.3,3.4-0.2,4.8-0.5
		c1.4-0.3,2.7-1,3.9-1.7c1.1-0.7,2.2-1.3,2.8-1.4c0.7-0.1,0.9,0.3,1.3,0.5c0.4,0.2,0.9,0.2,1.3-0.2c0.5-0.4,0.9-1.2,1.6-1.6
		c0.7-0.3,1.8-0.1,2.4,0.1c0.6,0.2,0.8,0.3,0.1,1.4c-0.7,1.1-2.3,3.2-3.1,4.8c-0.9,1.6-1,2.7-0.9,3.8c0.1,1.1,0.4,2.2-0.1,3.3
		c-0.5,1.1-1.8,2.1-1.8,3.5c0,1.4,1.3,3.1,2.1,5c0.8,1.9,1.1,4,0.7,5.9c-0.4,1.9-1.4,3.6-2.9,4.5c-1.4,0.9-3.3,0.9-5-0.2
		c-1.6-1.1-3.1-3.2-4.1-4.8c-1-1.6-1.6-2.6-3.1-3.1c-1.6-0.5-4.1-0.4-6-1.1c-1.9-0.7-3.2-2.3-5.4-3.9c-2.2-1.7-5.2-3.6-7.5-4.7
		c-2.4-1.1-4.1-1.4-5.8-1.6c-1.6-0.1-3.2-0.1-4.1-0.5c-0.9-0.4-1-1.2-0.8-2.3C521.7,841.3,522.4,840.1,523,838.9L523,838.9z"/>
	<path class="st1" d="M673.3,830.1c1.1-0.9,2.2-1.8,3.4-2.4c1.2-0.6,2.5-1,3.8-0.5c1.3,0.4,2.6,1.7,4.4,2.8c1.9,1.1,4.3,2.1,6.5,3.5
		c2.2,1.4,4.3,3.3,5.3,4.9c1,1.7,1,3.1-0.3,3.6c-1.3,0.5-3.9-0.1-5.1,0.8c-1.2,0.9-1,3.3-0.1,5.8c0.8,2.6,2.3,5.3,2.9,7.8
		c0.6,2.4,0.4,4.6-0.1,5.2c-0.5,0.6-1.2-0.4-2.1-0.8c-0.9-0.4-1.9-0.3-2.6,0c-0.7,0.3-1.1,0.7-1.8-0.1c-0.7-0.7-1.8-2.7-2.7-3.9
		c-0.9-1.2-1.6-1.7-2.8-1.6c-1.2,0.1-2.8,0.7-3.7,1.6c-0.9,0.9-1.1,2-1.6,1.7c-0.4-0.3-1-2-1.5-3.7c-0.5-1.8-0.7-3.7-0.5-5.2
		c0.2-1.4,0.9-2.3,0.5-3.5c-0.4-1.2-1.8-2.6-3.5-4.4c-1.6-1.7-3.5-3.7-3.8-5.3c-0.3-1.5,0.9-2.6,2-3.5
		C671,831.9,672.1,831,673.3,830.1L673.3,830.1z"/>
	<path class="st1" d="M357.8,518.9c-1,0.1-2.8,0.4-4.3,0.6c-1.4,0.3-2.6,0.5-3.8,1.1c-1.2,0.6-2.4,1.6-3.3,2.7
		c-0.9,1.2-1.4,2.5-1.4,4.1c-0.1,1.6,0.3,3.4,0.5,4.9c0.3,1.4,0.4,2.5,0.7,3.3c0.3,0.8,0.8,1.4,1.2,1.9c0.5,0.4,1,0.6,0.6,0.9
		c-0.4,0.3-1.6,0.8-2.6,1.4c-1,0.6-1.8,1.4-2.4,2.2c-0.5,0.8-0.8,1.6-1.5,2.4c-0.6,0.7-1.6,1.2-2.7,1.7c-1,0.5-2.1,0.9-3.6,1.2
		c-1.4,0.3-3.2,0.6-5.5,1.7c-2.3,1-5.2,2.9-6.8,4.2c-1.6,1.3-2,2-1.4,2.6c0.6,0.5,2.2,0.9,3.1,1.1c0.9,0.3,1.2,0.4,0.6,1
		c-0.5,0.6-1.9,1.6-3.2,2.5c-1.3,0.9-2.6,1.7-4,2.1c-1.4,0.4-2.8,0.4-5.8,0.1c-3-0.2-7.6-0.6-10.4-0.9c-2.8-0.2-3.8-0.3-4.6-0.8
		c-0.7-0.5-1.2-1.4-1.4-2.4c-0.2-1-0.2-2-0.2-3.1c0-1.1-0.1-2.4-0.5-2.8c-0.4-0.3-1.2,0.3-2.3,0.6c-1.2,0.3-2.7,0.3-3.5,0.6
		c-0.7,0.4-0.6,1.1-0.1,2.6c0.5,1.4,1.4,3.5,2,4.3c0.6,0.9,1,0.5,1.3,0.4c0.3,0,0.6,0.3,0.5,1.3c0,1-0.3,2.7-0.5,4.4
		c-0.2,1.6-0.3,3.2-0.1,4.7c0.3,1.4,0.9,2.8,1.7,3.5c0.9,0.7,1.9,0.6,2,1c0.1,0.4-0.9,1.2-1.6,1.9c-0.7,0.8-1.2,1.4-2.4,1.9
		c-1.2,0.4-3.1,0.5-4.6,1.1c-1.5,0.6-2.5,1.6-3.2,2.3c-0.7,0.7-1.2,1.2-1.7,0.8c-0.5-0.4-1.1-1.8-2.1-2.5c-1-0.7-2.3-0.9-3.5-0.7
		c-1.2,0.2-2.1,0.8-3.4,1c-1.2,0.3-2.7,0.3-3.7-0.3c-1-0.6-1.6-1.8-2.5-3.1c-0.9-1.4-2-3-3.4-3.3c-1.4-0.3-3,0.7-4.3,1.4
		c-1.3,0.7-2.2,1.1-3.4,1.4c-1.2,0.3-2.7,0.4-5.4,0.9c-2.7,0.5-6.4,1.4-7.9,2.3c-1.4,0.9-0.5,1.6,0.9,2.4c1.4,0.7,3.1,1.5,4,2.4
		c0.9,0.9,0.9,2.1,0.2,3.7c-0.7,1.6-2.2,3.7-2.4,5c-0.2,1.3,0.7,1.8,2,1.8c1.3,0,3-0.5,3.7-0.3c0.8,0.2,0.7,1.1,1.9,1.7
		c1.2,0.7,3.8,1.1,5.7,0.9c1.9-0.1,3-0.8,3.7-0.6c0.7,0.2,1,1.3,2.2,2.3c1.2,1,3.2,2,5.2,2.4c2,0.3,3.8,0,4.8,0.3
		c1,0.3,1,1.2,1.6,1.6c0.6,0.3,1.6,0.1,2,0.7c0.4,0.5,0.3,1.9,0.3,2.9c0.1,1,0.4,1.7,1.2,1.8c0.8,0.1,2.1-0.3,3.3-0.3s2.4,0.4,3,1.3
		c0.6,0.9,0.8,2.2,0.4,2.7c-0.4,0.5-1.4-0.1-2.4,0.1c-1,0.2-2,1-2,1.8c0,0.8,0.9,1.6,1,2.3c0.1,0.7-0.6,1.4-0.8,2.8
		c-0.2,1.3,0.1,3.3,1.7,5.1c1.5,1.8,4.3,3.4,5.3,4.5c1.1,1.1,0.6,1.7,0.7,2c0.1,0.3,0.9,0.4,1.6,0.5c0.8,0.1,1.6,0.2,2.5,0.2
		c0.9,0,2-0.2,2.9-0.1c0.9,0.1,1.7,0.6,1.8,1.5c0.1,0.8-0.3,2-0.6,3.5c-0.3,1.4-0.4,3.1-0.2,5.6c0.2,2.6,0.7,6.1,1.4,8.1
		c0.7,2,1.5,2.6,2.1,3.7c0.7,1,1.1,2.5,1.6,4.6c0.5,2.1,1,4.8,1.3,6.6c0.3,1.8,0.3,2.9,0.2,3.9c-0.1,0.9-0.2,1.7-0.7,1.2
		c-0.5-0.5-1.2-2.2-2.1-4.1c-0.9-2-1.8-4.3-2.6-6.1c-0.8-1.8-1.4-3.1-2-2.5c-0.6,0.6-1.2,3.2-1.6,5.8c-0.4,2.7-0.7,5.6-0.4,6.8
		c0.2,1.2,1,0.9,1.4,1.4c0.4,0.6,0.5,2,0.3,3.7c-0.2,1.6-0.7,3.3-1.4,4c-0.7,0.6-1.6,0.1-2.1,1.3c-0.5,1.2-0.8,3.9-1.1,6.7
		c-0.3,2.8-0.5,5.4-0.9,7.2c-0.4,1.8-0.8,2.7-1.3,3.3c-0.5,0.7-1,1-1.2,1.8c-0.2,0.8-0.1,1.9-0.3,3c-0.2,1-0.8,1.9-0.9,3
		c-0.1,1.1,0.3,2.4,0.9,3.4c0.6,1.1,1.5,1.9,2.4,2.6c0.9,0.7,2,1.2,3.3,1.6c1.3,0.4,3,0.7,4.2,1.2c1.2,0.5,2,1.3,3,2
		c1,0.7,2.3,1.3,3.6,1.5c1.3,0.1,2.6-0.2,3.8,0.1c1.2,0.2,2.3,1,3.3,1.6c1,0.6,1.9,1,3,1.2c1,0.2,2.3,0.1,4.1-0.6
		c1.8-0.7,4.3-2.2,5.8-3c1.5-0.8,2-0.9,3.7-0.1c1.6,0.7,4.4,2.2,6.2,3.3c1.8,1.1,2.7,1.7,3.4,2.5c0.7,0.8,1.1,1.7,2.2,2.2
		c1.1,0.5,2.8,0.5,4,1c1.2,0.4,1.8,1.2,3.9,1.6c2,0.4,5.4,0.2,7.8-0.3c2.4-0.5,3.7-1.2,4.4-2.1c0.7-0.8,0.9-1.7,0.7-2.8
		c-0.2-1.1-0.6-2.6-0.5-4.3c0.1-1.7,0.9-3.8,2.2-5.5c1.2-1.7,3-3.2,5.5-4.9c2.6-1.7,5.9-3.6,8-5.3c2-1.8,2.8-3.4,3.4-3.7
		c0.7-0.3,1.3,0.7,3.4,1.6c2.1,0.8,5.7,1.4,8.2,1.3c2.5-0.1,3.9-1,4.9-1.7c1-0.6,1.7-1,2.7-0.3c1,0.8,2.4,2.7,4.6,4.3
		c2.2,1.6,5.2,3,8.3,3.8c3,0.8,6.1,1,9.4-1.5c3.3-2.5,6.9-7.7,9.2-10.9c2.3-3.2,3.4-4.4,4.1-5.4c0.7-1.1,1.1-2,0.8-2.6
		c-0.3-0.5-1.4-0.6-2.8-1.2c-1.4-0.6-3.1-1.6-4.3-2.6c-1.2-0.9-2-1.7-2.6-2.9c-0.6-1.2-1-2.8-0.7-4.5c0.3-1.8,1.2-3.8,1.6-5.2
		c0.4-1.4,0.2-2.2-0.7-3.4c-0.9-1.2-2.6-2.9-3.1-4.7c-0.6-1.7-0.1-3.5,1.1-4.8c1.2-1.2,3.1-1.9,4.2-2.7c1.1-0.8,1.3-1.8,0.3-3.6
		c-1-1.8-3.4-4.3-4.8-5.9c-1.4-1.6-1.8-2.2-1.4-2.8c0.3-0.6,1.5-1.2,2.4-1.7c1-0.5,1.8-0.7,1.7-1.4c-0.1-0.7-1.2-1.8-1.8-3.2
		c-0.6-1.4-0.7-3-0.9-4.2c-0.2-1.2-0.4-2-1.1-2.2c-0.7-0.2-1.9,0.2-2.9,1c-0.9,0.9-1.6,2.3-2.3,3.3c-0.7,1-1.3,1.6-2.5,1.8
		c-1.2,0.1-3-0.2-3.4-1c-0.5-0.8,0.4-2.2,0.8-3.2c0.4-1.1,0.4-1.8,0-2.5c-0.4-0.7-1.2-1.2-0.4-2.8c0.8-1.6,3.2-4.4,5.1-7.3
		c1.9-2.9,3.4-6,4.6-7.8c1.2-1.8,2-2.5,2.8-3.3c0.7-0.8,1.2-1.6,1.6-3.2c0.4-1.5,0.7-3.7,1.2-5c0.5-1.2,1.4-1.4,2.5-1.1
		c1.1,0.3,2.6,1.2,3.7,1.5c1.1,0.3,1.9,0.1,2.4-0.8c0.4-0.9,0.4-2.3,0.3-3.3c-0.1-1.1-0.3-1.7-0.2-2.4c0.1-0.7,0.6-1.5,0.7-2.8
		c0.1-1.4-0.1-3.4,0.7-6.7c0.8-3.3,2.5-7.9,3.5-10.5c1.1-2.6,1.5-3.2,2.1-4.1c0.6-0.9,1.5-2,1.7-2.8c0.2-0.8-0.2-1.2-1.5-1.4
		c-1.3-0.2-3.4-0.1-4.6-0.4c-1.2-0.3-1.4-0.8-1.9-1.3c-0.6-0.4-1.5-0.7-3.1-0.8c-1.6-0.1-3.8,0-5.4-0.1c-1.6-0.1-2.6-0.5-3.4-1.4
		c-0.8-0.9-1.3-2.5-2.8-4c-1.5-1.5-4-2.9-6-3.2c-2.1-0.3-3.7,0.6-5,0.8c-1.3,0.2-2.2-0.4-3.3-0.8c-1.1-0.5-2.3-0.8-3.6-1.5
		c-1.3-0.7-2.6-1.8-3.5-2.8c-0.9-1-1.3-1.8-2-2.4c-0.7-0.6-1.6-0.9-2.4-1.3c-0.9-0.4-1.8-0.8-2.2-1.4c-0.5-0.7-0.5-1.6-1.3-2
		c-0.9-0.4-2.6-0.3-4.2-0.2c-1.6,0.1-3,0.2-4-0.3c-1-0.5-1.5-1.6-1.8-3.4c-0.3-1.8-0.3-4.1-1-5.2c-0.7-1.1-2.2-0.9-3.4-0.7
		c-1.2,0.1-2.4,0.3-3.1-0.3c-0.7-0.5-1-1.6-1.9-2.3c-0.8-0.7-2.2-0.9-2.9-1.7c-0.8-0.8-1.1-2.2-1.8-3c-0.7-0.7-1.9-0.8-3-0.8
		c-1.2,0-2.3,0.1-2.8-0.1c-0.4-0.2-0.1-0.7-0.4-1.1c-0.2-0.4-1-0.6-1.8-1.1c-0.9-0.5-1.8-1.3-2.1-2.3c-0.3-1,0-2.2,0-2.8
		C359.3,518.9,358.9,518.8,357.8,518.9L357.8,518.9z"/>
	<path class="st1" d="M365.8,513.7c1.2-0.5,3-1.3,4.4-1.7c1.4-0.4,2.4-0.3,3,0c0.6,0.3,0.9,0.9,1.6,1.1c0.8,0.3,2.1,0.2,2.8,0.3
		c0.7,0.1,0.9,0.4,1.3,0.7c0.5,0.3,1.2,0.8,2.1,0.6c0.9-0.1,1.8-0.9,2.9-1.4c1-0.5,2.2-0.7,3.2-1.2c1-0.5,1.9-1.5,3.1-2.1
		c1.2-0.6,2.9-0.8,4.7-0.7c1.8,0.1,3.7,0.5,4.9,1c1.2,0.5,1.6,0.9,2.2,1.6c0.6,0.6,1.4,1.4,2.5,1.8s2.7,0.6,3.5,1
		c0.8,0.5,0.8,1.2,0.6,1.9c-0.2,0.7-0.6,1.4-0.8,2.5c-0.3,1.1-0.4,2.7,0.3,3.8c0.7,1.1,2.3,1.8,3.8,2.5c1.5,0.6,2.9,1.2,3.9,2.4
		c1,1.2,1.5,2.8,1.4,4.3c-0.1,1.4-0.9,2.6-1.9,3.4c-1.1,0.8-2.5,1.2-3.4,2.1c-1,0.9-1.4,2.3-2,3.5c-0.5,1.2-1.1,2.2-1.4,3.3
		c-0.3,1.1-0.3,2.4,0.2,3.4c0.5,0.9,1.5,1.6,1.5,2.2c0,0.7-0.9,1.4-1.8,1.5c-1,0.2-1.9-0.2-2.8-1c-0.9-0.8-1.8-2-3-3
		c-1.3-1-3-1.8-4-3.2c-1-1.4-1.4-3.4-1.8-4.8c-0.4-1.4-0.9-2.1-1.9-1.7c-1,0.4-2.6,2-3.9,2.8c-1.4,0.8-2.5,0.9-3.2-0.4
		c-0.7-1.2-1-3.7-1.6-5.2c-0.6-1.5-1.5-2-2.6-2.2c-1.1-0.2-2.4-0.2-3.3-0.6c-0.8-0.4-1.2-1.2-1.6-1.8c-0.5-0.6-1.1-1-2.1-1.5
		c-1-0.5-2.3-0.9-3.2-2c-0.9-1-1.3-2.7-2.5-3.7c-1.2-1-3.1-1.5-4.7-2.3c-1.7-0.8-3.1-1.8-3.5-2.9c-0.4-1.1,0.4-2.3,1-3
		C364.1,514.3,364.6,514.2,365.8,513.7L365.8,513.7z"/>
	<path class="st1" d="M415,541.3c0.6,1.1,1.7,3,2.8,4.2c1.1,1.2,2.2,1.8,2.6,2.6c0.4,0.8,0.2,1.8-0.5,2.5c-0.6,0.7-1.6,1.1-2.3,1.4
		c-0.7,0.3-1,0.4-1.4,0.6c-0.4,0.2-0.9,0.5-1.3,0.3c-0.4-0.2-0.7-0.9-0.9-2.1c-0.2-1.1-0.2-2.6-0.5-4.1c-0.3-1.4-0.8-2.8-1-4.1
		c-0.2-1.2,0-2.4,0.3-2.9c0.3-0.5,0.7-0.5,1-0.3C414.2,539.7,414.3,540.2,415,541.3L415,541.3z"/>
	<path class="st1" d="M405.4,467.9c0.7-0.5,1.6-1.4,2.1-2.4c0.5-1,0.6-1.9,1.1-2.6c0.6-0.7,1.6-1,3.2-1c1.5,0,3.5,0.3,5.2,0.5
		c1.7,0.1,3,0.1,3.7-0.3c0.8-0.4,1-1.2,1.4-1.8c0.4-0.7,1-1.2,1.9-1.1c0.9,0.1,2.1,0.9,3.3,1.5c1.1,0.6,2.2,1,3,1.3
		c0.8,0.3,1.4,0.4,1.7,1.4c0.4,1,0.5,3,0.2,4.5c-0.3,1.5-1,2.5-1.4,3.6c-0.3,1.1-0.3,2.3-0.6,3c-0.3,0.8-1.2,1.2-2.3,1.4
		c-1.2,0.3-2.7,0.5-3.4,1.3c-0.6,0.9-0.3,2.4,0.4,3.5c0.7,1.1,2,1.8,3,2.5c1,0.7,1.9,1.4,2.2,2.4c0.2,0.9-0.2,2.2-1.2,2.9
		c-1,0.8-2.6,1.1-3.3,1.8c-0.7,0.6-0.6,1.6-1,2.4c-0.4,0.9-1.3,1.6-2.2,1.9c-0.9,0.4-1.7,0.4-2.7,0.1c-1-0.2-2.3-0.7-3.5-0.4
		c-1.2,0.3-2.4,1.4-2.9,2.6c-0.5,1.2-0.3,2.4,0.4,3.5c0.7,1,1.9,1.9,2.3,3.4c0.4,1.4,0,3.5-0.7,5.4c-0.7,2-1.8,3.8-2.8,4
		c-1,0.1-2-1.4-3.3-2.2c-1.3-0.7-2.9-0.7-4.2-0.9c-1.3-0.2-2.4-0.7-3.1-1.5c-0.7-0.8-1-1.8-2.5-2.3c-1.4-0.5-4-0.6-5.9-0.9
		c-1.9-0.3-3-0.9-2.4-1.3c0.6-0.4,3-0.5,4.3-1.3c1.3-0.8,1.6-2.1,1.6-3.1c0-1-0.3-1.5-1.8-1.7c-1.4-0.2-4-0.1-5.9-0.3
		c-1.9-0.2-3-0.7-3-1.7c0.1-1,1.3-2.6,2.6-4.6c1.3-2,2.7-4.3,3.5-6.5c0.8-2.2,1-4.1,1.4-6.1c0.4-2,1.1-4.1,1.7-5.3
		c0.6-1.2,1.3-1.4,2.5-1.7c1.2-0.4,3-0.9,4-1.6c1-0.6,1.2-1.3,1.6-1.6C404.2,468.3,404.7,468.3,405.4,467.9L405.4,467.9z"/>
	<path class="st1" d="M404.8,479.1c1.2-0.9,2.8-1.4,3.9-1.1c1.2,0.3,2,1.3,2.9,1.8c0.9,0.5,2,0.6,2.3,0.9c0.3,0.4-0.2,1.1-1.1,2.1
		c-0.9,1-2.2,2.2-2.9,3.5c-0.8,1.3-0.9,2.7-1.9,3.3c-0.9,0.6-2.6,0.3-3.8,0c-1.2-0.3-1.9-0.7-3.1-0.6c-1.1,0.1-2.7,0.7-2.7-0.3
		c0-1,1.6-3.6,2.9-5.6C402.6,481.2,403.6,480,404.8,479.1L404.8,479.1z"/>
	<path class="st1" d="M478.4,407.6c1,0.1,2.6,0.5,3.5,1c0.9,0.5,1.2,1.1,2,1.6c0.8,0.5,2.1,0.8,2.8,1.4c0.7,0.7,0.9,1.7,0.6,2.6
		c-0.4,0.9-1.2,1.5-2.4,1.7c-1.2,0.2-2.7-0.1-3.8-0.3c-1.1-0.2-1.8-0.4-2.4-0.8c-0.7-0.4-1.2-1-1.9-2c-0.7-1-1.4-2.4-1.4-3.3
		c-0.1-0.9,0.6-1.4,1.1-1.7C477,407.7,477.4,407.5,478.4,407.6L478.4,407.6z"/>
	<path class="st1" d="M464.3,421.2c1.2,0.1,2.7,0.1,3.1-0.6c0.5-0.7-0.1-2,0-3.1c0.1-1.1,0.8-1.9,1.5-2.6c0.7-0.7,1.3-1.3,1.2-2.1
		c-0.1-0.8-0.9-1.8-1-2.9c-0.1-1.1,0.4-2.2,0.8-3c0.4-0.9,0.7-1.4,0.4-2c-0.3-0.5-1.2-1-1.4-1.5c-0.2-0.5,0.4-1,1.3-1.4
		c0.9-0.3,2.3-0.5,3-0.8c0.7-0.3,0.8-0.7,0.5-1.3c-0.3-0.6-1.1-1.4-0.3-1.9c0.8-0.5,3.2-0.7,4.7-1.1c1.4-0.4,1.9-0.9,1.9-1.9
		c0-1-0.3-2.6-0.3-3.6c0.1-1,0.6-1.3,1.1-1.7c0.5-0.4,0.8-0.9,1.8-1.2c1-0.3,2.6-0.5,3.7-0.9c1.1-0.3,1.7-0.8,1.5-1.3
		c-0.2-0.5-1.2-1-2.1-1.4c-0.9-0.5-1.7-1-2.9-1c-1.2-0.1-2.9,0.3-3.9,0.3c-0.9-0.1-1.1-0.7-1.9-1.1c-0.8-0.5-2.2-0.9-2.8-1.5
		c-0.6-0.6-0.3-1.4,0.2-2.3c0.5-0.8,1.1-1.6,1.9-2.4c0.8-0.7,1.7-1.3,1.5-2.2c-0.2-0.8-1.4-1.9-2.5-2.1c-1.1-0.3-2.2,0.2-3.4,0.5
		c-1.2,0.3-2.6,0.6-3.5,0.4c-0.9-0.1-1.4-0.6-2-0.4c-0.6,0.2-1.4,1.2-1.2,2.3c0.2,1.1,1.3,2.5,1.9,3.7c0.5,1.2,0.5,2.1,0.1,2.9
		c-0.3,0.9-0.9,1.6-1.4,1.6c-0.5,0.1-0.7-0.5-1.4-0.9c-0.7-0.4-1.7-0.6-2.8-0.6c-1.1,0-2.2,0.2-2.7,0.8c-0.5,0.6-0.4,1.6-1,2.2
		c-0.6,0.6-1.9,0.8-3,0.5c-1-0.3-1.8-1-2.6-1.4c-0.8-0.5-1.6-0.7-2.5-1.3c-0.9-0.6-1.9-1.6-2-0.9c-0.1,0.7,0.8,3.1,1.1,5.1
		c0.3,1.9,0.2,3.3,0.7,4.5c0.5,1.2,1.6,2.3,2.4,3.1c0.8,0.9,1.4,1.5,1.4,2.5c0,1.1-0.6,2.5-1.5,3.7c-0.9,1.2-2.2,2.2-1.9,3.2
		c0.3,1,2,2,3.7,3.1c1.6,1.1,3.2,2.4,3.7,3.9c0.5,1.5,0,3.4-0.1,4.8c-0.1,1.4,0.2,2.5,0.9,3.2c0.8,0.7,2,1.1,3,1.4
		C462.2,420.9,463.1,421.1,464.3,421.2L464.3,421.2z"/>
	<path class="st1" d="M471,367.1c0.5-1.2,1.5-2.4,2.4-3.6c1-1.2,2-2.2,2.8-3.1c0.9-0.9,1.6-1.5,2.8-1.8c1.1-0.3,2.6-0.3,3.3,0.1
		c0.7,0.4,0.8,1.2,0.7,2.6c-0.1,1.3-0.3,3.2-0.4,4.8c-0.1,1.6-0.1,3-0.9,3.3c-0.9,0.4-2.6-0.3-3.9-0.7c-1.2-0.4-2-0.7-3.1-0.3
		c-1.2,0.4-2.8,1.3-3.5,1.2C470.4,369.5,470.4,368.3,471,367.1L471,367.1z"/>
	<path class="st1" d="M507.4,403.9c0.7-0.7,1.5-1.7,1.8-3.1c0.3-1.4,0.1-3.1,0.3-4.4c0.1-1.2,0.6-1.9,1.5-1.7
		c0.9,0.2,2.2,1.2,2.8,2.6c0.6,1.4,0.6,3.1-0.2,4.2c-0.8,1.1-2.4,1.5-3.2,2.2c-0.8,0.7-0.9,1.6-0.7,2.7c0.2,1.1,0.6,2.4,1.1,3.3
		c0.5,1,1,1.6,0.6,2.3c-0.5,0.7-2,1.4-3.1,2.3c-1.1,0.9-1.9,2-2.5,2.3c-0.7,0.3-1.1-0.2-1.4-0.8c-0.3-0.6-0.5-1.2-1.6-1.6
		c-1.1-0.4-3.2-0.5-4.6-1.2c-1.3-0.7-1.9-2.2-2.5-3.8c-0.6-1.6-1.1-3.4-1.5-4.6c-0.4-1.2-0.6-1.8,0.1-2c0.6-0.2,2.1,0,3.2-0.7
		c1.1-0.6,2-2.1,2.5-2.3c0.5-0.2,0.8,1,1.1,1.8c0.2,0.8,0.3,1.3,1,1.9c0.7,0.5,1.9,1.1,2.9,1.3C505.9,404.9,506.7,404.6,507.4,403.9
		L507.4,403.9z"/>
	<path class="st1" d="M420.3,625.2c1.4-1.9,4.1-5.6,5.8-7.9c1.8-2.3,2.7-3.2,3.5-4.3c0.8-1.1,1.4-2.4,2-3.5c0.5-1.1,1-2,1.9-2.4
		c0.9-0.3,2.3,0,3.5-0.3c1.2-0.3,2.2-1.2,2.9-1.6c0.7-0.5,1.1-0.7,1.7-0.6c0.5,0,1.2,0.2,1.9-0.1c0.7-0.3,1.4-1.1,2.1-1.2
		c0.7-0.2,1.4,0.3,2.3,0.2c0.9-0.1,2-0.8,2.9-0.9c0.9,0,1.6,0.6,2.8,1c1.2,0.5,2.9,0.7,3.7,0.1c0.9-0.6,1-2,2.5-2.2
		c1.5-0.3,4.3,0.6,6.2,1.2c2,0.5,3.1,0.8,3.2,1.9c0.2,1.1-0.6,3.1-1,4.9c-0.4,1.8-0.5,3.3,0.1,4.6c0.6,1.3,2,2.2,3.3,2.7
		c1.4,0.5,2.8,0.5,4.1,1.1c1.3,0.6,2.6,1.9,2.9,3.7c0.3,1.8-0.4,4.1-0.8,5.6c-0.4,1.5-0.5,2.2-1.1,2.5c-0.7,0.3-1.9,0.2-2.9,0.1
		c-1-0.1-1.7-0.3-2-0.7c-0.3-0.4-0.2-1-0.7-1.7c-0.5-0.6-1.5-1.2-2.3-1.8c-0.8-0.7-1.3-1.4-2.1-1c-0.8,0.3-1.9,1.7-2.2,3.2
		c-0.3,1.4,0.1,3,0,4.3c-0.2,1.3-1,2.3-1.9,3.2c-0.9,0.9-2,1.6-3,1.4c-1-0.2-2.1-1.2-2.8-2.8c-0.8-1.6-1.3-3.7-2.3-5
		c-1-1.2-2.4-1.6-4.1-0.7c-1.7,0.9-3.6,3-4.6,4.9c-0.9,2-0.9,3.9-1.5,4.9c-0.6,1-1.9,1.3-3.4,1.5c-1.6,0.1-3.4,0.1-5.3,0.1
		c-2-0.1-4.1-0.2-5.2-1.3c-1.1-1.1-1.3-3.2-1.4-5.1c-0.1-2-0.3-3.8-1.4-4.7c-1.2-0.9-3.3-0.7-5.2-0.3c-1.8,0.4-3.4,1-4,1
		c-0.6-0.1-0.3-0.9,0-1.3C418.5,627.3,418.8,627.2,420.3,625.2L420.3,625.2z"/>
	<path class="st1" d="M520,533.3c1.9-0.6,3.8-0.6,5-1c1.3-0.4,2-1.3,2.6-2.2c0.6-0.8,1.2-1.6,1.8-1.8c0.6-0.2,1.3,0.1,2.1,0
		c0.7-0.1,1.6-0.7,2.4-1.4c0.8-0.8,1.5-1.8,2.2-2.5c0.7-0.7,1.5-0.9,2.3-1c0.9-0.1,1.9,0,2.9-0.1c1-0.1,2.1-0.2,2.9-0.9
		c0.8-0.7,1.4-1.9,2-2.9c0.7-1,1.4-1.7,1.9-1.6c0.5,0.1,0.6,0.9,1,1.7c0.4,0.9,1,1.7,2,2c0.9,0.3,2,0.2,2.9-0.1
		c0.9-0.3,1.6-0.8,2.4-0.9c0.7-0.1,1.5,0.1,1.9-0.3c0.4-0.4,0.4-1.4,0.7-1.2c0.3,0.1,0.9,1.4,1.8,2.2c0.8,0.7,1.9,1,3.4,1.4
		c1.5,0.4,3.6,1,5.2,1.6c1.6,0.7,2.8,1.5,3.7,2.1c1,0.5,1.7,0.8,1.9,1.4c0.2,0.5-0.1,1.4,0.2,2.4c0.3,1.1,1.4,2.3,2.4,3.6
		c1,1.4,2.1,2.8,3.3,3.9c1.1,1,2.4,1.6,3.3,1.5c1-0.2,1.7-1.1,2.9-2.3c1.2-1.2,2.8-2.5,4.3-2.8c1.5-0.4,2.8,0.3,4.2,1.2
		c1.4,0.9,2.7,2.2,4.1,3.2c1.5,1,3,1.9,4.5,2.4c1.4,0.6,2.6,0.9,3.9,1.5c1.3,0.7,2.7,1.7,3.3,3c0.6,1.3,0.4,2.9-0.7,4.4
		c-1.1,1.4-3,2.8-4.2,4.1c-1.2,1.3-1.8,2.6-2.1,3.8c-0.3,1.1-0.3,2.1-1.2,3.4c-1,1.3-2.9,3-5.4,4c-2.4,1-5.3,1.5-7.1,2
		c-1.8,0.6-2.4,1.2-3.2,1.7c-0.8,0.5-1.9,0.7-3.3,0.3c-1.4-0.3-3-1.2-4.1-1.5c-1-0.3-1.4,0.2-2.2,0.6c-0.8,0.4-2,0.9-3.2,0.5
		c-1.2-0.4-2.2-1.6-3.6-2.3c-1.4-0.7-3.1-1-4.6-1.4c-1.6-0.3-3-0.8-4.1-1.3c-1.1-0.6-1.8-1.2-2.6-1.7c-0.7-0.5-1.4-0.7-2.2-0.3
		c-0.7,0.3-1.4,1.2-2,2.5c-0.7,1.3-1.4,3-2.5,4.6c-1.1,1.7-2.7,3.3-4.2,3.9c-1.5,0.6-2.9,0.2-5.2-1.3c-2.3-1.5-5.5-4.1-7.8-5.9
		c-2.4-1.9-3.9-3.1-5.4-4.6c-1.5-1.5-3.1-3.4-5-5.5c-1.9-2.1-4.2-4.5-5.5-6.6c-1.3-2.1-1.6-4-1.8-5.6c-0.2-1.6-0.3-3-0.9-4.1
		c-0.6-1.1-1.7-1.9-1.4-3C516.3,535.2,518.1,533.9,520,533.3L520,533.3z"/>
	<path class="st1" d="M476.6,604.4c0.6,0.7,1.5,1.6,2.1,2.6c0.6,1,1,2.2,2.2,2.5c1.1,0.3,3-0.2,4.3-1.4c1.3-1.2,2.2-3.1,3.4-4
		c1.2-0.8,2.9-0.5,4.4,0.2c1.6,0.7,3.1,1.6,4.8,1.5c1.7-0.1,3.7-1.4,5.5-2.4c1.9-1,3.7-1.6,5.4-1.8c1.7-0.2,3.2-0.1,4.6-0.4
		c1.4-0.3,2.5-1.2,3.9-1.4c1.4-0.2,3,0.4,5,1.2c2,0.8,4.4,1.7,5.7,1.7c1.3,0,1.4-0.9,1.3-2.7c-0.1-1.8-0.5-4.4-1-6.5
		c-0.5-2.1-1.2-3.8-1.5-5.2c-0.2-1.3,0.1-2.4,0.8-3.1c0.8-0.7,2-1.3,3.3-2c1.3-0.7,2.6-1.7,3.5-2.7c0.8-1.1,1.2-2.1,1.8-2.5
		c0.7-0.3,1.7,0.1,2.8-0.4c1.1-0.5,2.3-1.8,3.6-2c1.2-0.3,2.6,0.6,4.3,1.1c1.7,0.5,3.7,0.6,5.1,0.5c1.4-0.1,2-0.4,2.9-0.8
		c0.9-0.4,2-1,2.9-2.4c0.9-1.4,1.5-3.6,2.5-4.8c1-1.2,2.2-1.4,3.4-1c1.3,0.4,2.6,1.3,4,1.6c1.4,0.3,2.8,0.1,4.1,0.4
		c1.3,0.4,2.6,1.4,4,1.7c1.4,0.3,2.9-0.1,4.5-0.3c1.6-0.1,3.3,0,4.2,0.8c1,0.7,1.2,2.1,1.3,3.5c0,1.4-0.2,2.8,0.4,4.8
		c0.6,2.1,2,4.9,2.5,7c0.6,2.1,0.3,3.5-0.5,4.4c-0.8,0.9-2.2,1.3-3.7,1.9c-1.6,0.6-3.3,1.3-3.9,2.4s0,2.4,0.6,3.3
		c0.6,0.9,1.3,1.4,1.1,2.5c-0.2,1.1-1.4,2.8-1.9,4.3c-0.6,1.4-0.5,2.7-1.1,3.8c-0.7,1.1-2,2.2-3.1,3.4c-1.1,1.2-2,2.6-3,3.7
		c-1,1.1-2,1.9-3.1,2.4c-1.2,0.5-2.4,0.7-4.1,0.7c-1.7,0.1-3.8,0.1-5.3,0.2c-1.5,0.1-2.5,0.2-3.3,0.5c-0.8,0.4-1.5,1-2.2,1.6
		c-0.7,0.7-1.5,1.3-3.1,1.7c-1.6,0.3-4,0.3-6.6-0.2c-2.6-0.5-5.3-1.4-7.4-1.7c-2-0.3-3.3-0.1-4.9-0.1c-1.5,0-3.3-0.1-5-0.4
		c-1.7-0.2-3.3-0.6-4.8-1.1c-1.4-0.5-2.8-1.3-4-2c-1.3-0.8-2.5-1.5-3-2.4c-0.4-0.9-0.1-1.9-0.1-2.9c0-1-0.3-1.9-1.6-2
		c-1.3-0.2-3.7,0.4-5.9,0.6c-2.2,0.2-4.3,0.2-6,0.3c-1.7,0.1-3,0.3-4.1,0.9c-1,0.5-1.7,1.3-2.9,2c-1.2,0.6-2.8,1.1-4.3,1
		c-1.5,0-2.8-0.6-4-1.3c-1.2-0.6-2.3-1.3-3.3-1.4c-0.9,0-1.6,0.6-2.5,0.8c-0.9,0.2-1.8,0.1-2.9-0.8c-1.1-0.9-2.2-2.4-3.2-3.4
		c-0.9-1-1.7-1.3-2-2c-0.3-0.6,0-1.5,0.4-2.5c0.4-1,1-2.2,1.4-2.5C475.7,603.2,476,603.7,476.6,604.4L476.6,604.4z"/>
	<path class="st1" d="M616.3,553.1c0.6,0.3,1.3,0.8,2.2,1.2c0.9,0.3,2.1,0.5,3.3,0.3c1.2-0.3,2.4-1,3.4-1.5c1-0.5,1.9-0.6,2.8,0
		c0.9,0.6,1.9,1.9,2.6,3.1c0.7,1.2,1.2,2.2,1.8,3.1c0.6,0.9,1.3,1.6,2,1.8c0.7,0.2,1.4,0,2.1-0.7c0.7-0.7,1.4-1.7,2.4-2.7
		c1.1-1,2.6-1.9,3.9-2.2c1.3-0.3,2.4,0,3.3,0.5c0.9,0.6,1.6,1.4,2.5,1.7c0.8,0.3,1.8,0.2,2.6-0.2c0.8-0.4,1.6-1,2.6-1.5
		c1-0.5,2.4-0.9,3.9-1c1.6-0.1,3.3,0,4.7,0.4c1.3,0.5,2.2,1.2,3.6,2.4c1.4,1.2,3.2,3,4.3,3.8c1.1,0.9,1.6,0.9,1.2,2.4
		c-0.4,1.4-1.7,4.3-2.5,6.6c-0.9,2.3-1.4,4-2.2,4.8c-0.9,0.8-2.2,0.7-3.9-0.3c-1.7-1-3.9-2.8-5.4-3.1c-1.5-0.3-2.4,0.9-4,1
		c-1.6,0.1-3.7-0.9-5.7-1c-1.9-0.1-3.6,0.7-5.5,2.5c-1.9,1.8-4.1,4.7-6.2,5.7c-2.2,0.9-4.4-0.2-5.8-0.2c-1.4,0-1.9,1-3.1,1.8
		c-1.2,0.8-3.2,1.4-5.1,2.1c-2,0.7-3.9,1.4-4.9,2.5c-1,1.2-1,2.8-2,3.9c-1,1.1-3,1.9-5.6,2.1c-2.7,0.2-6-0.1-8-0.7
		c-2-0.7-2.5-1.7-3.2-2.6c-0.7-0.9-1.5-1.5-2.6-2c-1.1-0.5-2.6-1-3.7-2.7c-1.2-1.7-2.1-4.6-2.5-6.9c-0.4-2.3-0.2-4,0.5-5.1
		c0.6-1.2,1.6-1.8,2.6-1.8c1,0,1.9,0.6,3.4,0.3c1.4-0.3,3.5-1.5,5-2.6c1.6-1.2,2.8-2.3,3.6-2.8c0.8-0.6,1.3-0.6,1.7-1.4
		c0.4-0.8,0.7-2.5,1.2-3.6c0.5-1.1,1.3-1.7,2.2-2.3c0.9-0.6,1.9-1.2,2.8-2.2c0.9-1,1.6-2.3,2.1-2.9
		C615.3,552.6,615.7,552.8,616.3,553.1L616.3,553.1z"/>
	<path class="st1" d="M537.2,630.1c0.9-0.7,2.2-1.4,3.5-1.6c1.3-0.2,2.6,0.2,4.3,0.5c1.7,0.3,3.7,0.7,5.5,0.4c1.8-0.2,3.4-1,4.9-1.9
		c1.5-0.9,3-1.9,4.3-2.4c1.3-0.5,2.6-0.5,4.4-0.6c1.8-0.1,4.2-0.2,6.4-0.9c2.1-0.7,3.9-2,5.2-2.9c1.2-0.9,1.9-1.4,2.1-0.8
		c0.2,0.6-0.1,2.4-0.9,4.1c-0.8,1.7-2.2,3.5-3.7,4.6c-1.6,1.1-3.4,1.5-4.4,2.9c-1,1.3-1.1,3.5-0.9,5c0.1,1.5,0.5,2.2,0.5,3
		c-0.1,0.9-0.5,1.8-2,2.6c-1.4,0.7-3.9,1.1-4.9,2c-1,0.8-0.7,2-0.3,3.1c0.3,1.1,0.7,2.1-0.3,2.4c-0.9,0.3-3-0.3-4.6-1.2
		c-1.6-0.9-2.7-2.2-3.9-2.3c-1.2-0.1-2.4,0.9-3.8,1.6c-1.4,0.7-2.9,1.2-4.1,0.7c-1.2-0.5-2.1-2.1-3-3.2c-0.9-1.1-1.9-1.8-2.4-3.3
		c-0.5-1.4-0.4-3.5-0.3-4.9c0.1-1.3,0.4-1.9,0.7-2.6c0.3-0.7,0.6-1.5-0.2-1.9c-0.7-0.4-2.4-0.4-3-0.7
		C535.9,631.4,536.3,630.8,537.2,630.1L537.2,630.1z"/>
	<path class="st1" d="M539.5,655.1c1-0.5,2.2-1.1,3.1-1.3c0.9-0.3,1.5-0.2,2.1-0.5c0.6-0.3,1.1-0.8,1.5-0.8c0.4,0,0.5,0.7-0.1,1.9
		c-0.5,1.3-1.8,3.2-2.6,5.1c-0.9,1.9-1.4,3.8-1.8,4.4c-0.5,0.6-0.9,0-1.2-1c-0.2-1-0.3-2.5-0.8-3.6c-0.5-1.1-1.6-1.8-1.8-2.4
		C537.8,656.2,538.5,655.6,539.5,655.1L539.5,655.1z"/>
	<path class="st1" d="M645.9,788.2c-0.4-1.5-1.1-3.7-1.8-5.3c-0.8-1.6-1.6-2.6-2.5-3.2c-0.9-0.6-2-0.8-2.8-1.1
		c-0.8-0.3-1.4-0.8-1.6-1.7c-0.2-0.9-0.1-2.2-0.2-3.5c-0.1-1.2-0.5-2.4-1-3.6c-0.6-1.1-1.3-2.2-1.4-3.4c-0.1-1.2,0.6-2.4,1.2-3.5
		c0.7-1.1,1.3-2.1,1.6-3.1c0.3-1,0.2-1.9-0.2-2.8c-0.4-0.9-1.1-1.7-1.4-2.9c-0.2-1.1,0.1-2.6,0.1-3.9c0-1.3-0.2-2.4-0.1-3.6
		c0.1-1.2,0.6-2.4,0.9-3.7c0.3-1.3,0.6-2.6,0.2-3.9c-0.3-1.2-1.2-2.4-1.7-4.3c-0.5-1.9-0.6-4.4-0.3-6.2c0.4-1.8,1.2-2.7,1.9-3.6
		c0.7-0.9,1.3-1.6,1.9-1.4c0.6,0.2,1.1,1.5,1.8,1.9c0.8,0.5,1.8,0.1,2.5,0.2c0.8,0.1,1.3,0.6,2,1.4c0.8,0.8,1.8,1.9,2.9,2.6
		c1.1,0.7,2.1,1.1,2.5,2.7c0.3,1.6-0.1,4.5-0.3,6.8c-0.3,2.3-0.4,4.1-0.4,5.8c-0.1,1.7-0.1,3.2-0.1,4.5c-0.1,1.4-0.2,2.5-0.1,3.7
		c0.1,1.2,0.3,2.4,1.1,3.7c0.8,1.3,2.3,2.8,3.7,4.1c1.4,1.3,2.9,2.6,3.7,3.7c0.9,1.1,1.1,2,0.6,3c-0.5,1.1-1.6,2.3-2.7,3.9
		c-1.1,1.5-2.2,3.3-2.8,5.1c-0.6,1.7-0.7,3.4-1,4.9c-0.4,1.4-1.1,2.7-1.6,3.7c-0.6,1-1.1,1.8-1.7,2.9c-0.6,1.1-1.2,2.6-1.7,3.2
		c-0.5,0.6-0.7,0.3-0.9-0.2C646.3,790.5,646.3,789.8,645.9,788.2L645.9,788.2z"/>
	<path class="st1" d="M618.8,717.9c0.2-1.1,0.3-2.5,0.2-3.6c-0.1-1-0.4-1.6-0.2-2.1c0.2-0.5,0.8-0.9,1.3-1.5
		c0.5-0.7,0.9-1.7,1.3-2.9c0.4-1.2,0.8-2.5,1.8-2.8c0.9-0.3,2.2,0.4,3.1,0.2c0.9-0.2,1.4-1.3,1.6-2.3c0.3-1,0.3-1.9,0.9-1.5
		c0.6,0.4,1.6,2,3.3,3.5c1.7,1.4,4.1,2.6,6,3.4c1.9,0.8,3.5,1.2,4.6,2c1.2,0.8,2,2,1.8,2.8c-0.2,0.9-1.5,1.3-2.5,1.8
		c-1,0.5-1.8,1-2.9,1.2c-1,0.3-2.3,0.3-3.1,0.4c-0.8,0.1-1.1,0.1-1.6,0.9c-0.5,0.7-1.1,2.1-1.5,3.4c-0.4,1.3-0.6,2.6-1.1,3.5
		c-0.5,0.9-1.4,1.6-1.6,3.4c-0.2,1.8,0.2,4.9,0.1,6c-0.2,1.1-1,0.3-1.8-0.8c-0.9-1.1-1.8-2.4-2.6-3.5c-0.9-1.1-1.8-1.9-2.2-2.9
		c-0.4-1-0.3-2.1-1-2.9c-0.7-0.8-2.1-1.3-3-1.8c-0.9-0.5-1.2-1-1.2-1.6C618.3,719.7,618.6,719,618.8,717.9L618.8,717.9z"/>
	<path class="st1" d="M635.3,634.9c-0.6,0.3-1.2,0.6-1.9,0.9c-0.6,0.3-1.2,0.4-1.6,0.7c-0.5,0.3-0.8,0.8-1.4,1.2
		c-0.6,0.4-1.4,0.6-2.2,0.7c-0.8,0.1-1.6,0.2-2.3,0.3c-0.7,0.1-1.2,0.2-1.5,0.6c-0.4,0.4-0.6,1.1-0.7,1.8c-0.1,0.7-0.2,1.3-0.3,1.8
		c0,0.5,0,0.9,0.1,1.3c0.1,0.4,0.3,0.8,0.8,1.1c0.6,0.3,1.5,0.4,2.1,0.8c0.6,0.4,0.7,1,0.5,1.6c-0.2,0.6-0.7,1.2-1,1.9
		c-0.4,0.6-0.5,1.2-0.5,1.7c0.1,0.5,0.3,0.8,0.9,1.2c0.6,0.4,1.4,0.9,2.2,1.4c0.7,0.5,1.3,0.9,1.6,1.6c0.3,0.7,0.2,1.5-0.2,2.3
		c-0.4,0.7-1.2,1.4-1.4,2.2c-0.2,0.9,0.1,1.9,0.6,3.5c0.5,1.6,1.2,3.7,1.2,5.3c0,1.6-0.7,2.8-1.1,3.7c-0.5,1-0.7,1.8-0.6,2.8
		c0.1,0.9,0.6,1.9,1.3,2.7c0.7,0.8,1.8,1.5,2.7,2.1c0.9,0.7,1.8,1.4,2.3,2.4c0.5,1,0.6,2.5,0.3,3.5c-0.3,1-1.2,1.4-1.3,2.6
		c-0.1,1.1,0.4,2.9,0.7,4.1c0.3,1.3,0.4,2.2,0,2.7c-0.4,0.5-1.3,0.8-1.9,1.2c-0.6,0.5-0.9,1.3-0.3,2.4c0.7,1.1,2.4,2.6,3.7,3.6
		c1.3,1,2.3,1.7,3.2,2.1c0.9,0.4,1.6,0.5,2.3,0.8c0.7,0.3,1.3,0.9,2.3,1.4c1,0.5,2.2,1.1,2.9,2.4c0.7,1.2,0.8,3,0.7,4.3
		c-0.1,1.2-0.4,1.9-0.9,2.4c-0.5,0.5-1.2,0.9-1.8,1.4c-0.6,0.5-1.2,1-0.9,1.7c0.3,0.7,1.4,1.6,2.5,2.4c1,0.9,2,1.7,2.9,2.7
		c0.9,1,1.5,2.2,2.2,3c0.7,0.8,1.2,1.4,1.9,2c0.6,0.7,1.2,1.5,1.8,1.7c0.6,0.2,1.2-0.3,1.8-0.9c0.7-0.5,1.3-1.1,2-1.5
		c0.7-0.4,1.3-0.7,2.2-0.9c0.8-0.1,1.8-0.1,2.8-0.3c1-0.3,1.9-0.9,2.6-1.8c0.7-0.9,1.2-2.2,2.4-2.5c1.1-0.3,2.9,0.3,4.3,0.6
		c1.4,0.3,2.6,0.2,3.7-0.1c1.2-0.2,2.3-0.6,3-0.9c0.7-0.3,0.8-0.6,0.8-1.2c-0.1-0.6-0.5-1.5-0.7-2.6c-0.3-1.1-0.5-2.6-0.2-3.7
		c0.2-1.2,0.8-2.1,2-3.1c1.1-1,2.6-2.1,3.7-3c1-0.9,1.5-1.5,1.8-2.4c0.3-0.9,0.3-2-1.2-3.8c-1.5-1.8-4.4-4.4-6.2-6.5
		c-1.8-2.1-2.5-3.8-2.6-5.2s0.2-2.6,0.8-4.1c0.6-1.5,1.6-3.4,2.2-4.6c0.7-1.2,1.2-1.9,1.4-2.5c0.2-0.6,0.2-1.2-0.1-1.8
		c-0.3-0.6-0.9-1.3-1.4-2c-0.5-0.7-1-1.4-1.3-2c-0.3-0.5-0.5-0.9-1.1-0.9c-0.6-0.1-1.7,0.2-2.8,0.1c-1.1,0-2.3-0.3-3.5-0.8
		c-1.2-0.6-2.5-1.4-3.6-2.2c-1.1-0.8-1.9-1.5-2.7-2.2c-0.8-0.8-1.4-1.6-2-2.7c-0.6-1.2-1.1-2.7-1.4-3.9c-0.3-1.3-0.5-2.3-1.1-3.3
		c-0.6-1-1.6-1.9-2.9-2.8c-1.3-0.9-2.9-1.8-4.2-3c-1.3-1.1-2.3-2.5-2.7-3.8c-0.4-1.3-0.2-2.7-0.2-3.7c0-1-0.3-1.8-0.8-2.4
		c-0.6-0.6-1.5-1.1-2.3-1.6c-0.8-0.5-1.6-1-2.2-1.7c-0.6-0.7-1.2-1.4-1.6-2.1c-0.5-0.7-0.8-1.3-1.2-1.7c-0.4-0.5-0.7-0.7-1.3-0.9
		c-0.6-0.2-1.3-0.3-2-0.4c-0.7-0.1-1.3-0.1-1.8,0C636.4,634.5,635.9,634.7,635.3,634.9L635.3,634.9z"/>
	<path class="st1" d="M670.9,729.4c-0.7,0.3-2,0.2-2.9,0.2c-0.9,0.1-1.5,0.3-2,0.8c-0.5,0.4-1,1-1.6,1.3c-0.6,0.3-1.1,0.2-1.9,0.2
		c-0.8-0.1-1.7-0.1-2.5,0.2c-0.8,0.2-1.5,0.6-2,1.2c-0.6,0.6-1,1.4-1.3,2.2c-0.3,0.8-0.4,1.6-0.5,2.2c0,0.7,0,1.2-0.2,1.7
		c-0.2,0.5-0.7,1-1.2,1.6c-0.5,0.7-1.1,1.5-1.4,2.8c-0.3,1.3-0.5,3.1-0.5,4.9c0,1.8,0.2,3.7,1,5.2c0.8,1.5,2.2,2.6,3.6,3.8
		c1.4,1.2,2.6,2.5,3.7,3.2c1,0.7,1.9,0.9,2.6,0.6c0.7-0.2,1.3-0.9,2-1.3c0.7-0.5,1.5-0.9,2.3-0.8c0.8,0,1.7,0.4,2.5,0.4
		c0.8,0,1.4-0.3,2-1.1c0.6-0.8,1.1-2.2,1.7-3.1c0.6-0.9,1.4-1.4,2.6-1.6c1.2-0.2,2.9-0.1,4.5-0.1c1.5,0.1,2.9,0.1,3.8-0.4
		c0.9-0.5,1.3-1.4,1.8-2.1c0.5-0.7,1.1-1.3,1.7-2c0.6-0.6,1.3-1.3,1.6-2.2c0.4-0.9,0.4-2.1,0.4-3.6c0-1.5-0.1-3.4-0.8-5
		c-0.7-1.6-2.1-2.9-3.5-4.2c-1.4-1.3-2.9-2.6-4.1-3.8c-1.3-1.1-2.4-2.1-3.6-2.6c-1.2-0.5-2.6-0.7-3.7-0.6c-1.2,0.1-2.2,0.3-2.7,0.7
		C671.7,728.4,671.6,729.1,670.9,729.4L670.9,729.4z"/>
	<path class="st1" d="M662.4,764.9c-0.2,0.8-0.1,2.3-0.3,3.6c-0.2,1.3-0.6,2.4-1.2,3.3c-0.7,0.9-1.6,1.5-2.3,2.5
		c-0.7,1-1.1,2.5-1.5,3.8c-0.4,1.3-0.6,2.4-1.1,3.3c-0.5,0.8-1.1,1.4-1.7,1.9c-0.6,0.5-1,1.1-1.1,1.9c-0.1,0.9,0.3,2.1,0.3,3.1
		c0,1-0.3,1.7-0.9,2.4c-0.6,0.7-1.5,1.3-2.1,2.3c-0.7,1-1,2.3-0.7,3.6c0.3,1.3,1.4,2.5,2.6,3.5c1.2,1,2.6,1.7,3.5,2.4
		c0.9,0.7,1.4,1.2,2,1.7c0.7,0.5,1.4,1,2.6,1.3c1.2,0.3,2.7,0.5,3.9,1c1.2,0.4,2.2,1,2.4,1.6c0.2,0.6-0.3,1.2-1.6,1.5
		c-1.3,0.4-3.4,0.5-4.5,0.5c-1.2,0.1-1.4,0.1-1.1,1.1c0.3,1.1,1.2,3.3,2.5,4.8c1.3,1.5,3.1,2.4,4.5,2.7c1.4,0.3,2.5-0.1,3.3,0.1
		c0.7,0.1,1.2,0.7,1.7,1.6c0.6,0.8,1.2,1.8,1.9,2.1c0.7,0.3,1.2-0.1,2-0.6c0.7-0.5,1.6-1.2,2.3-1.3c0.7-0.1,1.3,0.3,2,0.7
		c0.8,0.4,1.7,0.8,2.7,0.5c1-0.3,2-1.2,2.8-1.8c0.8-0.5,1.4-0.6,2.4,0c1.1,0.6,2.7,1.7,4.2,2.8c1.5,1.1,2.9,2,4.4,2.6
		c1.5,0.5,3.1,0.7,4.6,1.4c1.5,0.7,3,2,3,2.6c0.1,0.6-1.3,0.5-0.8,0.7c0.5,0.2,2.8,0.7,4.6,1.2c1.8,0.5,3,1.1,3.8,1.4
		c0.8,0.3,1.2,0.3,1.2-0.5c-0.1-0.8-0.6-2.5-1.6-4c-1-1.5-2.4-2.8-4-3.9c-1.6-1-3.3-1.8-4.7-2.5c-1.4-0.7-2.6-1.3-3.7-2.2
		c-1.1-0.9-2.1-2-3.3-3c-1.2-1-2.8-1.9-4-3c-1.2-1.1-2.1-2.5-2.4-3.6c-0.3-1,0.1-1.7,0.7-1.9c0.7-0.2,1.7,0.1,2.6,0.1
		c0.8,0,1.4-0.3,1.2-1c-0.3-0.7-1.5-1.9-2.4-3c-0.8-1.1-1.4-2.2-1.2-2.9c0.2-0.7,1.1-0.9,1.6-1.5c0.5-0.6,0.7-1.6,1.5-1.8
		c0.8-0.3,2.1,0.2,2.7,0c0.6-0.2,0.5-1-0.9-3.1c-1.4-2.1-4.2-5.6-6-8.3c-1.8-2.8-2.8-4.9-3.1-6.4c-0.3-1.5,0.1-2.5,0.4-3.7
		c0.3-1.2,0.5-2.7,0.8-4c0.2-1.2,0.4-2.3,1.3-3.1c0.8-0.9,2.3-1.6,3.5-2.5c1.2-0.9,2.2-2.2,2.6-1.9c0.4,0.3,0.3,2,0.2,3.6
		c-0.1,1.6-0.2,2.9,1,3.9c1.2,1.1,3.7,1.8,5.5,2.1c1.8,0.3,3,0,3.9-0.7c0.9-0.7,1.6-1.7,1.8-2.8c0.2-1.1,0-2.2-0.8-3
		c-0.8-0.8-2.2-1.2-2.6-2.3c-0.3-1.1,0.4-2.8,1.2-3.9c0.9-1,2-1.2,3-1c1,0.3,1.8,1.1,2.8,1.1c1,0,2.2-0.8,3.2-1.5
		c1-0.7,1.8-1.3,2.5-1.8c0.7-0.5,1.4-1,2-1c0.6,0,1.2,0.4,1.8,0.9c0.6,0.5,1.1,0.9,1.8,0.7c0.7-0.2,1.3-1,1.9-1.7
		c0.6-0.7,1-1.3,1.9-1.5c0.9-0.2,2.2,0,3.3,0.5c1.1,0.5,2,1.1,2.2,1.3c0.2,0.1-0.3-0.3-0.1-0.3c0.2,0,1.1,0.4,1.9,0.9
		c0.7,0.5,1.2,1.1,2.6,1.4c1.4,0.3,3.6,0.3,5.5,0.1c1.9-0.2,3.5-0.7,4.5-1.3c1-0.6,1.2-1.2,1.2-2.3c0-1.1-0.4-2.7-0.1-4.2
		c0.3-1.5,1.1-2.9,1.6-4.2c0.5-1.3,0.6-2.5,0.1-3.3c-0.5-0.9-1.6-1.4-2.2-1c-0.6,0.4-0.5,1.8-0.8,3c-0.2,1.2-0.8,2.1-1.9,2.9
		c-1.1,0.8-2.8,1.5-5.1,1.9c-2.4,0.4-5.4,0.5-7.5,0.2c-2.2-0.3-3.5-0.9-4.6-1.3c-1.1-0.4-2-0.7-3.1-0.7c-1,0-2.2,0.1-3.3-0.5
		c-1.1-0.7-2.1-2.2-3.6-2.7c-1.4-0.5-3.3-0.1-4.9,0.5c-1.5,0.6-2.6,1.3-3.9,1.8c-1.3,0.5-2.8,0.8-4.3,1c-1.4,0.2-2.8,0.3-4,0.7
		c-1.2,0.4-2.2,1-3.2,1.3c-1,0.3-1.9,0.2-2.6,0c-0.7-0.2-1.2-0.5-1.8,0.1c-0.7,0.6-1.6,2.1-2.6,3.1c-1,1-2,1.4-3.7,1.6
		c-1.6,0.3-3.7,0.3-5.6,0.5c-1.8,0.2-3.3,0.6-4.1,1.6c-0.9,1-1.2,2.6-1.8,3.4c-0.5,0.8-1.3,0.8-2.6,0.9c-1.2,0.1-3,0.1-4.3,0.4
		c-1.2,0.3-2.1,0.8-2.8,1C663.2,764.1,662.7,764.1,662.4,764.9L662.4,764.9z"/>
	<path class="st1" d="M745.7,764.6c1-1.9,2.1-4.4,2.8-6.6c0.7-2.2,1-4.1,1.5-5.4c0.5-1.4,1.1-2.2,1.7-3.1c0.6-0.9,1.1-1.8,1.1-3
		c0-1.2-0.4-2.8-1-4.3c-0.6-1.5-1.4-2.8-1-3.8c0.4-1,2-1.8,3.3-2.2c1.4-0.4,2.6-0.4,3.7-1c1.1-0.7,2.2-2,3.1-2.2
		c0.9-0.2,1.6,0.8,2.8,1.4c1.2,0.6,2.9,0.9,4.2,0.9c1.3,0,2.3-0.3,2.8,0.3c0.5,0.5,0.7,1.9,1.2,3.5c0.5,1.6,1.2,3.4,2.2,4.6
		c1,1.2,2.2,1.7,3.5,2.4c1.4,0.7,2.9,1.4,4.8,2.2c1.9,0.8,4.1,1.7,5.5,2.6c1.4,0.9,2.2,1.8,2,2.4c-0.2,0.6-1.3,0.9-3.8,0.8
		c-2.5,0-6.3-0.4-8.7-0.6c-2.4-0.2-3.4-0.4-4.5-0.1c-1,0.3-2,1-3.3,1.5c-1.3,0.5-3,0.9-4.4,2.1c-1.4,1.2-2.5,3.4-3.7,5.3
		c-1.2,1.9-2.5,3.6-3.5,4.3c-1,0.7-1.8,0.5-2.9,0c-1-0.5-2.3-1.4-3.6-1.4c-1.3-0.1-2.6,0.6-4,1.3c-1.5,0.7-3.1,1.5-3.5,1.2
		C743.8,767.7,744.7,766.5,745.7,764.6L745.7,764.6z"/>
	<path class="st1" d="M551.8,653.8c1.4,1.4,3.6,3.5,4.9,4.9c1.2,1.4,1.6,2.2,1.7,3.5c0.2,1.2,0.3,3,0.9,4.7c0.6,1.7,1.8,3.4,3.5,5.2
		c1.6,1.9,3.7,3.9,5.1,5.3c1.4,1.4,2,2.3,1.3,2.7c-0.7,0.5-2.6,0.5-2.1,2.3c0.5,1.8,3.3,5.3,5.5,7.4c2.2,2.1,3.8,2.8,4.5,3.6
		c0.7,0.9,0.6,1.8,0.8,2.5c0.2,0.7,0.7,1,1.5,1c0.8-0.1,1.9-0.5,3.2-0.5c1.3,0,2.7,0.5,4,1.3c1.3,0.8,2.4,1.9,3.5,3
		c1.2,1.1,2.4,2.3,3.8,3.3c1.4,1.1,2.9,2.1,3.4,1.9c0.5-0.2-0.2-1.6-1.9-3.9c-1.7-2.2-4.4-5.3-6.3-7.3c-1.8-2-2.8-3-4-4.2
		c-1.2-1.2-2.8-2.6-3.9-3.8c-1.2-1.2-1.9-2.1-2.5-3.3c-0.6-1.2-1-2.7-1.6-4.7c-0.7-2.1-1.6-4.9-2.6-6.5c-1.1-1.6-2.3-2.2-3.2-3.1
		c-0.9-0.9-1.6-2.1-1.6-3.9c0-1.8,0.7-4.2,1.4-5.9c0.7-1.7,1.4-2.8,2.2-3.4c0.8-0.6,1.8-0.7,2.9-0.1c1.1,0.5,2.2,1.6,3.5,1.9
		c1.2,0.3,2.5-0.3,3.9-0.9c1.4-0.5,3.1-1,5-1.2c1.9-0.1,4.1,0.1,6.1,0.5c2,0.4,3.9,0.9,5.6,1.2c1.8,0.3,3.4,0.4,4.8,0.3
		c1.4-0.1,2.7-0.4,4.4-0.3c1.8,0,4,0.4,6.5,1.3c2.4,0.9,5.1,2.4,6.8,3.4c1.6,1,2.3,1.7,2.4,1.4c0.1-0.3-0.3-1.6-0.5-3
		c-0.2-1.4-0.3-2.9-0.8-4.5c-0.6-1.6-1.7-3.4-2.3-5.4c-0.6-1.9-0.7-3.9-0.8-5.4c0-1.5,0-2.5,0-3.2c-0.1-0.7-0.3-1-1.6-0.5
		c-1.3,0.5-3.7,1.8-7.1,2.3c-3.3,0.5-7.6,0.2-10.6-0.4c-3-0.6-4.8-1.4-6.3-2.7c-1.5-1.2-2.7-2.9-3.6-4.3c-0.9-1.4-1.4-2.7-2.2-3.3
		c-0.8-0.7-1.8-0.7-2.6-1.3c-0.8-0.7-1.3-1.9-2.1-2.8c-0.8-0.9-1.8-1.3-2.5-1.1c-0.7,0.1-1.2,0.9-2.1,1.4c-0.9,0.5-2.2,0.8-3.1,1.1
		c-1,0.3-1.6,0.5-1.9,1c-0.3,0.5-0.4,1.3-0.8,1.8c-0.4,0.5-1,0.8-1.5,1c-0.5,0.3-1,0.5-1.3,1.1c-0.3,0.6-0.6,1.6-0.7,2.8
		c-0.1,1.2-0.1,2.8-0.3,3.9c-0.2,1.1-0.6,1.9-1.4,2.4c-0.8,0.5-2,0.7-2.7,1.5c-0.7,0.8-1,2.3-1.3,3.8c-0.3,1.4-0.6,2.9-1.2,3.6
		c-0.5,0.7-1.3,0.6-2.9,0c-1.6-0.6-4.1-1.7-6.2-2.2c-2.2-0.5-4.1-0.4-4.7,0.1C549.7,651.5,550.3,652.3,551.8,653.8L551.8,653.8z"/>
	<path class="st1" d="M575.9,660c1.2,0.9,3.2,2.5,4.5,3.1c1.3,0.6,1.9,0.1,2.5-0.9c0.5-1,0.9-2.4,2.9-2.8c2-0.4,5.7,0.3,8.9,1
		c3.2,0.7,5.9,1.3,7.9,1.7c2,0.3,3.3,0.3,4.5,0.1c1.1-0.3,2-0.9,3.4-1c1.4-0.2,3.4,0.1,5,0.7c1.5,0.6,2.6,1.5,3.6,2.5
		c1,1,1.8,2,2.8,2.6c1,0.6,2.4,0.7,3.2,0.6c0.9-0.1,1.2-0.3,1.2,0.3c-0.1,0.6-0.6,2.1-0.9,3.3c-0.3,1.2-0.4,1.9-0.5,2.9
		c-0.2,1-0.4,2.2-0.2,3.3c0.2,1.1,0.8,2.1,1.6,2.9c0.9,0.8,1.8,1.5,2,2.4c0.1,0.9-0.6,2-1.1,2.6c-0.5,0.6-0.9,0.7-0.6,1.4
		c0.4,0.7,1.4,2.1,2.2,3.4c0.9,1.3,1.4,2.5,1.4,3.6c-0.1,1.1-0.8,2-1.8,2.6c-1,0.5-2.4,0.7-3.4,1c-1,0.4-1.8,1-2.6,2
		c-0.7,1-1.4,2.5-2.4,4.1c-1,1.6-2.4,3.3-3.3,4.4c-0.9,1.2-1.3,1.7-1.6,2.5c-0.2,0.8-0.3,1.7,0,2.7c0.3,1,0.9,2,1,2.9
		c0.1,1-0.1,1.9-0.6,2.2c-0.5,0.3-1.1,0.1-2.5-1.2c-1.4-1.3-3.7-3.7-5.8-5.7c-2-2-3.8-3.7-5-5c-1.2-1.3-1.7-2.2-2.1-3.4
		c-0.5-1.1-0.9-2.5-2.6-4.4c-1.7-1.9-4.6-4.5-6.6-6.6c-2-2.2-3-4-4.1-5.4c-1-1.3-2.2-2.2-3-3c-0.9-0.9-1.5-1.8-1.8-3
		c-0.3-1.1-0.3-2.4-0.8-3.3c-0.5-1-1.5-1.6-2-2.6c-0.5-1-0.7-2.6-1.3-3.8c-0.6-1.2-1.8-2.1-2.7-2.9c-0.9-0.8-1.7-1.5-1.9-3
		c-0.2-1.4,0.1-3.7,0.5-4.8C574.2,658.8,574.7,659.1,575.9,660L575.9,660z"/>
	<path class="st1" d="M784.4,620.3c1.2,0.1,3,0.4,4.5,0.7c1.6,0.4,2.8,0.9,3.7,1c0.9,0.1,1.5-0.3,1.5-1.4c0-1.1-0.6-3-1-4.4
		c-0.5-1.4-0.8-2.3-1.8-3.3c-0.9-1-2.5-2-3.5-3c-1-1-1.5-1.8-1.6-2.8c-0.1-1,0.2-2.1-0.2-2.9c-0.4-0.9-1.5-1.5-2.7-2.5
		c-1.2-1-2.5-2.3-3.3-3.4c-0.8-1.1-1-2-1-3.4c0.1-1.4,0.6-3.3,0.2-4.7c-0.4-1.4-1.6-2.3-2.8-3.3c-1.2-1-2.4-2-3.3-2.5
		c-0.9-0.5-1.6-0.4-2.2,0c-0.5,0.4-1,1.1-1.8,1c-0.8-0.1-2.1-1.1-3.5-2.1c-1.4-1-2.9-2.2-4.6-3.3c-1.6-1.1-3.4-2.2-5-2.6
		c-1.7-0.3-3.3,0.1-4.9,0.5c-1.6,0.3-3.3,0.7-4.4,1c-1.1,0.3-1.7,0.6-1.1,1.6c0.6,1,2.4,2.6,3.6,4.1c1.3,1.5,2.1,3,2.6,4.4
		c0.5,1.5,0.8,3,1.8,4.6c1,1.6,2.6,3.4,4.3,5.2c1.7,1.8,3.6,3.8,4.9,5.8c1.4,2,2.2,4.1,3.4,6c1.1,1.8,2.5,3.4,3.3,5.1
		c0.8,1.7,0.9,3.5,0.8,5.2c-0.1,1.8-0.4,3.5-0.6,5.1c-0.2,1.7-0.3,3.3-0.4,5.3c-0.1,2-0.1,4.2,0,6.2c0.1,2,0.3,3.9,0.5,5.3
		c0.3,1.4,0.5,2.3,1.1,1.6c0.6-0.7,1.4-3.1,2.5-4.9c1.1-1.7,2.4-2.8,3.5-4c1.2-1.2,2.2-2.6,2.7-3.9c0.5-1.3,0.3-2.4,0.2-4
		c-0.1-1.6-0.3-3.5,0.1-4.8c0.4-1.3,1.3-2,2-2.3C782.7,620.2,783.2,620.2,784.4,620.3L784.4,620.3z"/>
	<path class="st1" d="M784.1,625.1c0.9,0.3,2.2,0.7,3.7,0.9c1.5,0.2,3.3,0.3,4.8,0.8c1.5,0.5,2.8,1.4,4.1,2.2
		c1.2,0.7,2.4,1.2,3.5,1.8c1,0.6,2,1.3,2,2.4c0.1,1.1-0.8,2.6-2.2,3.4c-1.4,0.8-3.3,0.9-4.5,1.3c-1.2,0.3-1.9,0.9-2.4,1.4
		c-0.6,0.4-1.1,0.7-1.4,1.6c-0.4,0.8-0.6,2.2-1,3.4c-0.3,1.2-0.8,2.2-1.6,2.6c-0.8,0.4-2,0.3-3.1,0.6c-1.1,0.3-2.1,1-3.5,1.5
		c-1.4,0.5-3.1,0.9-4.5,1c-1.4,0.2-2.4,0.2-2.8-0.3c-0.3-0.5,0-1.4,0.6-2.4c0.6-1,1.4-1.9,1.9-3.1c0.4-1.2,0.5-2.7,1.3-4.3
		c0.9-1.6,2.6-3.3,3.4-4.8c0.9-1.5,0.9-2.8,0.7-4.5c-0.2-1.7-0.5-3.9-0.4-4.9C782.7,624.7,783.2,624.9,784.1,625.1L784.1,625.1z"/>
	<path class="st1" d="M685.3,684.3c0.8,0.4,0.5,2.6,1.1,4.1c0.6,1.4,2.1,2.2,3.6,2.5c1.5,0.3,2.9,0.2,4.3,0.1
		c1.4-0.1,2.6-0.3,4.2,0.1c1.6,0.3,3.7,1.1,5.3,1.7c1.6,0.6,2.9,1.1,4.3,1.3c1.5,0.2,3.1,0,4.5-0.3c1.4-0.3,2.5-0.8,3.9-0.8
		c1.4,0,3.2,0.4,4.8,0.8c1.7,0.4,3.3,0.8,4.7,0.9c1.4,0.1,2.6-0.1,3.9-0.1c1.3,0,2.8,0.1,4.2-0.8c1.4-0.9,2.7-2.8,4.4-4.7
		c1.7-1.9,3.7-3.7,5.3-4.5c1.6-0.8,2.8-0.6,4-0.9c1.2-0.2,2.5-0.9,4-1.2c1.5-0.3,3.2,0,4.8,0.4c1.5,0.4,2.8,1,4.3,1.6
		c1.5,0.6,3.2,1.1,4.6,1.4c1.3,0.3,2.3,0.4,2.8,0.9c0.5,0.5,0.6,1.4,1.5,2.3c0.9,0.9,2.6,1.9,4,2.6c1.4,0.7,2.7,1,3.1,1.7
		c0.4,0.7-0.1,1.7-1.2,2.5c-1.2,0.7-3.1,1.1-4.7,2.2c-1.6,1-2.8,2.6-3.3,5.1c-0.5,2.5-0.3,5.8-0.6,8.2c-0.3,2.4-1.2,3.9-2.4,5
		c-1.2,1.1-2.7,1.7-3.4,2.7c-0.7,1-0.5,2.3,0.3,3.1c0.8,0.9,2.3,1.3,3.1,1.8c0.9,0.6,1.2,1.2,1.7,1.9c0.6,0.7,1.4,1.4,2.1,2.3
		c0.7,0.9,1.2,1.9,0.2,2.4c-1,0.5-3.4,0.4-5.3-0.2c-1.9-0.6-3.2-1.8-4.7-2c-1.5-0.2-3.3,0.5-4.6,1.2c-1.4,0.7-2.3,1.3-3.4,1.7
		c-1,0.4-2.2,0.5-3.5,1.3c-1.3,0.9-2.6,2.4-3.8,3.3c-1.2,1-2.2,1.4-2.7,2.6c-0.5,1.1-0.4,3-0.4,4.6c0,1.6-0.1,2.8-1.3,3.5
		c-1.2,0.7-3.5,0.9-5.9,1.1c-2.4,0.1-4.8,0.2-6.6-0.1c-1.8-0.3-3-1.1-4.1-1.5c-1.2-0.4-2.3-0.4-3.1-1c-0.8-0.6-1.3-1.9-2.6-2.3
		c-1.3-0.4-3.4-0.1-5.6,0.5c-2.1,0.6-4.3,1.4-6.2,2.2c-1.9,0.8-3.7,1.7-5.3,2c-1.6,0.3-3.2,0.2-4.3,0c-1-0.2-1.6-0.5-1.7-2
		c-0.1-1.4,0-4.1-0.4-6.4c-0.4-2.3-1.4-4.3-2.9-6.2c-1.4-1.8-3.3-3.5-4.7-4.6c-1.4-1.1-2.4-1.6-2.4-2.4c0-0.8,1-1.9,1.3-3.5
		c0.3-1.6-0.1-3.6-0.3-5.1c-0.3-1.5-0.4-2.5,0.4-3.3c0.8-0.8,2.6-1.5,3.9-2.7c1.3-1.2,2.3-2.8,2.5-4.7c0.2-1.9-0.5-4-1.6-5.8
		c-1.1-1.9-2.7-3.5-4.2-5.4c-1.6-1.9-3.1-4.1-3.9-5.5c-0.8-1.5-0.7-2.3,0.2-3.5C682.7,685.4,684.5,684,685.3,684.3L685.3,684.3z"/>
	<path class="st1" d="M656.2,357.8c1.3-0.6,2.7-0.8,3.8-1c1.1-0.2,1.9-0.4,3.1,0.5c1.2,0.9,3,2.8,4.6,4.7c1.6,1.9,3.1,3.7,4.5,5.4
		c1.5,1.7,3,3.4,5.2,4.6c2.2,1.2,5.2,1.9,7.7,1.1c2.5-0.8,4.4-3,5.5-5c1.1-2,1.3-3.9,1.1-6.4c-0.2-2.4-0.9-5.5-0.6-7.7
		c0.2-2.2,1.4-3.6,3.3-4.5c1.9-0.9,4.5-1.2,7.8-0.7c3.2,0.6,7,2,10,3.7c3,1.7,5.3,3.6,7.3,5c2,1.4,3.7,2.2,5.9,2.4
		c2.1,0.2,4.6-0.2,6.8-0.1c2.2,0.2,4,0.9,5.2,2.2c1.2,1.2,1.8,3,1.8,4.6c-0.1,1.6-0.8,3.1-1.1,4.4c-0.4,1.2-0.4,2.2,0.4,3.4
		c0.7,1.2,2.2,2.7,3.7,4.5c1.5,1.8,3.1,3.8,3.7,5.6c0.6,1.8,0.3,3.2-0.7,4.5c-0.9,1.3-2.4,2.5-3.5,3.9c-1,1.4-1.6,3.1-2.6,3.8
		c-1.1,0.7-2.6,0.4-4.1,0.4c-1.4,0-2.8,0.3-3.9,0.8c-1.1,0.6-1.9,1.4-3,1.9c-1,0.5-2.4,0.7-4.1-0.2c-1.7-0.9-3.8-2.9-6.3-5
		c-2.4-2.1-5.2-4.2-7.6-5.4c-2.4-1.1-4.4-1.3-5.6-1.9c-1.3-0.7-1.8-1.8-2.3-2.8c-0.6-1-1.2-1.7-2.5-1.7c-1.3,0.1-3.3,0.9-5.9,1.2
		c-2.6,0.3-6,0.2-9.4,0c-3.4-0.3-6.7-0.6-11.3-0.7c-4.6-0.1-10.3,0.1-15.4,0.7c-5,0.7-9.4,1.9-11.7,3.4c-2.4,1.4-2.9,3.1-3.1,2.4
		c-0.2-0.7-0.2-3.9-0.1-6.8c0.1-2.9,0.2-5.6,0.7-7.3c0.5-1.7,1.4-2.5,2.7-3.3c1.3-0.8,3.1-1.6,3.4-2.4c0.3-0.8-0.8-1.6-1.2-2.6
		c-0.3-1.1,0.1-2.5,0.9-3.7c0.8-1.3,2-2.5,3.2-3.5C653.7,359.2,654.9,358.3,656.2,357.8L656.2,357.8z"/>
	<path class="st1" d="M648.5,414.5c2,0.9,4.7,2.7,7,3.6c2.4,1,4.5,1.1,6.3,1c1.8-0.1,3.1-0.5,4.3-0.1c1.2,0.4,2.1,1.5,2.3,3
		c0.2,1.5-0.4,3.4-0.4,5c0,1.6,0.6,2.9,0.4,3.8c-0.1,0.9-1,1.5-6.9,1.7c-5.9,0.3-16.8,0.2-23,0.1c-6.2-0.1-7.6-0.3-7.2-0.9
		c0.4-0.6,2.5-1.7,3.5-2.9c1.1-1.1,1-2.3,0-3c-1-0.6-2.9-0.7-4.4-0.7c-1.5,0-2.6,0.1-2.9-0.6c-0.3-0.7,0.3-2.2,2.4-3
		c2.1-0.9,5.5-1,7.7-0.7c2.2,0.4,3,1.2,4.3,1.5c1.4,0.3,3.2-0.1,4.1-0.9c0.9-0.9,0.8-2.2,0.2-3.6c-0.6-1.4-1.6-2.8-1.5-3.5
		C645.1,413.7,646.5,413.6,648.5,414.5L648.5,414.5z"/>
	<path class="st1" d="M645.7,393.1c2.2-1.3,5.3-3.2,9-4.2c3.7-1,7.9-1,13.2-0.7c5.3,0.3,11.7,0.9,16.2,1.4c4.5,0.4,7.1,0.6,9,0.4
		c1.8-0.2,2.9-0.9,3.7-1.5c0.8-0.6,1.3-1.1,1.8-0.6c0.6,0.4,1.2,1.8,2.6,2.7c1.4,0.9,3.7,1.3,5.9,1.9c2.2,0.6,4.5,1.5,6.4,2.8
		c1.9,1.3,3.5,3.1,4.9,4.5c1.4,1.4,2.5,2.5,3.6,2.9c1.1,0.4,2.2,0.3,2.3,1c0,0.7-1,2.1-1.3,3.5c-0.3,1.4,0.3,2.7,0.8,3.8
		c0.5,1.1,1,2,0.4,2.7c-0.6,0.7-2.1,1.1-3,1.6c-0.9,0.5-1.1,1.2-2.1,1.7c-1,0.5-2.7,0.7-3.9,1.7c-1.2,1-1.8,2.8-2.2,5.2
		c-0.4,2.4-0.7,5.2-1.7,7.1c-1,1.9-2.9,2.7-4.5,3.9c-1.6,1.2-2.9,2.8-4,4c-1.1,1.2-2.2,2-3.4,2.6c-1.3,0.6-2.9,0.9-4.8,0.7
		c-1.9-0.1-4.1-0.6-6-0.9c-1.9-0.3-3.5-0.4-4.8-1.5c-1.4-1.1-2.5-3.3-4.3-4.8c-1.8-1.4-4.4-2.1-6.1-2.8c-1.6-0.7-2.3-1.3-2.3-2.7
		c0-1.4,0.6-3.5,0.9-5.5c0.3-2,0.3-3.7-0.7-5.2c-1-1.5-2.9-2.8-5.8-3.6c-2.8-0.9-6.5-1.5-9.6-2.6c-3.1-1.2-5.6-3-7.6-5.3
		c-2-2.4-3.3-5.3-4.5-7.3c-1.1-2-1.9-3.2-1.7-4.1C642.4,395,643.6,394.4,645.7,393.1L645.7,393.1z"/>
	<path class="st1" d="M595.5,591.8c1.6,1,4,2.5,6.6,3.5c2.6,1.1,5.4,1.8,8.5,1.8c3.1,0,6.3-0.6,8-1.3c1.6-0.7,1.7-1.5,1.7-2.5
		c0-1.1,0-2.5,0.3-3.4c0.3-0.9,0.8-1.3,1.9-1.4c1-0.1,2.6,0.1,4.4,0.1c1.7,0,3.6-0.1,4.4-0.5c0.7-0.4,0.3-1.1,1.4-1.5
		c1.2-0.4,4-0.5,6.1-1c2.1-0.6,3.4-1.7,4.6-3.2c1.2-1.5,2.2-3.3,3.3-4.5c1.2-1.2,2.4-1.6,4-1.5c1.6,0,3.4,0.5,4.7,0.8
		c1.3,0.2,2,0.2,2.6,0c0.6-0.3,1-0.7,1.8-0.3c0.8,0.4,1.8,1.7,3.3,2.4c1.5,0.7,3.4,0.7,4.8,0.7c1.4,0.1,2.3,0.1,3.1,0.5
		c0.9,0.3,1.6,1,2.6,1.6c1,0.6,2.1,1.2,2.8,1.9c0.8,0.7,1.2,1.3,1.8,2c0.7,0.7,1.6,1.3,2.3,1.7c0.7,0.4,1.3,0.5-0.4,1.3
		c-1.6,0.8-5.5,2.2-8.1,4.1c-2.6,1.9-3.8,4.3-4.8,7c-1,2.6-2,5.5-3.2,8c-1.2,2.5-2.8,4.7-3.6,6.6c-0.8,1.8-0.9,3.3-1.3,4.7
		c-0.5,1.5-1.4,2.9-2.1,3.7c-0.7,0.9-1.2,1.1-1.4,1.8c-0.2,0.8-0.2,2.1-0.8,2.9c-0.6,0.9-1.9,1.2-3.2,1.3s-2.7,0.1-3.7,0.5
		c-1,0.5-1.8,1.4-3.2,1.7c-1.4,0.3-3.6,0-6-0.1c-2.3-0.1-4.8,0.1-6.5,0.9c-1.8,0.7-2.8,2-5.2,2.8c-2.3,0.9-5.9,1.4-8.5,2.1
		c-2.6,0.8-4.2,1.8-6.5,2.4c-2.3,0.6-5.5,0.7-8.7-0.8c-3.2-1.5-6.6-4.6-9.4-7.2c-2.8-2.6-5-4.7-6.9-6.7c-1.8-2-3.2-3.9-4-5.5
		c-0.8-1.5-1-2.6-0.7-3.9c0.3-1.3,1.3-2.7,1.7-4.4c0.4-1.7,0.2-3.6,0.5-5.2c0.2-1.6,0.9-3,1.6-4.1c0.7-1.1,1.4-2,2.5-2.6
		c1-0.6,2.5-0.8,3.2-1.7c0.8-0.9,0.9-2.6,0.8-4c-0.1-1.4-0.4-2.6,0-2.9C592.9,590.1,593.9,590.7,595.5,591.8L595.5,591.8z"/>
	<path class="st1" d="M864.1,634.4c-1.2,0.2-2.5,0.4-3.6,0.5c-1,0.1-1.8,0-2.4,0.2c-0.7,0.2-1.1,0.7-1.6,1.3
		c-0.5,0.6-1.1,1.2-1.9,1.6c-0.8,0.4-1.9,0.5-2.8,0.9c-1,0.4-1.8,1.1-2.6,1.6c-0.7,0.5-1.4,0.9-2.2,1.2c-0.8,0.3-1.8,0.5-3,1
		c-1.2,0.5-2.5,1.3-2.5,2.4c0.1,1,1.5,2.3,2.8,3.2c1.3,0.9,2.5,1.5,4,2.3c1.5,0.8,3.3,2,4.7,2.5c1.5,0.5,2.6,0.5,3.4,1.6
		c0.8,1.1,1.3,3.4,1.3,5.4c0,2-0.5,3.6-0.6,5.1c-0.1,1.4,0.3,2.6,1.4,3.5c1.1,0.9,2.9,1.4,4.2,1.5c1.3,0,2.2-0.5,3.4-2
		c1.2-1.6,2.9-4.3,4.4-5.7c1.5-1.5,2.9-1.8,4.5-2.1c1.6-0.3,3.3-0.6,4.7-1.3c1.3-0.7,2.2-1.9,3.1-2.8c1-1,2-1.8,3.3-2.1
		c1.2-0.3,2.7,0.1,4.1,0.4c1.4,0.3,2.6,0.6,3.7,0.2c1.1-0.4,2.1-1.3,2.8-2.4c0.7-1.1,1-2.2,1.2-3.1c0.3-0.9,0.5-1.3-0.4-1.4
		c-0.9,0-3.1,0.4-4.8,0.7c-1.8,0.4-3.1,0.7-4.1,1.2c-1,0.5-1.5,1.3-2.6,1.8c-1,0.5-2.5,0.7-3.6,0.5c-1-0.2-1.7-0.7-2.6-1
		c-0.8-0.3-2-0.4-2.6-0.7c-0.7-0.3-1-0.9-1.3-2c-0.3-1.2-0.5-2.9-1.1-4.3c-0.6-1.4-1.7-2.5-2.8-3.3c-1.1-0.8-2.3-1.3-3.5-0.9
		c-1.2,0.4-2.5,1.7-2.9,1.7c-0.5,0-0.2-1.4,0.2-2.8c0.4-1.4,1-2.9,0.7-3.6C866.4,634.2,865.3,634.2,864.1,634.4L864.1,634.4z"/>
	<path class="st1" d="M741.7,583.5c-1.4-0.4-2.8,0.1-3.9,1c-1.1,0.9-2,2.2-3.1,3.1c-1.1,0.9-2.4,1.3-3.8,1.4
		c-1.3,0.2-2.7,0.1-4.1,0.5c-1.5,0.4-3,1.3-4.3,1.8c-1.3,0.5-2.3,0.6-3.3,1.1c-1,0.6-1.9,1.7-3.1,2.4c-1.2,0.7-2.8,1.1-3.9,0.5
		c-1.1-0.5-1.8-2-3.1-3c-1.4-1-3.5-1.7-5.3-1.8c-1.8-0.2-3.2,0.1-4.6-0.1c-1.4-0.2-3-0.8-4.6-1.2c-1.6-0.5-3.3-0.7-4.6-1
		c-1.2-0.3-2-0.7-2.6-0.8c-0.7-0.1-1.3,0-2.1,0.8c-0.8,0.8-1.7,2.2-2.9,3.3c-1.1,1.1-2.5,1.9-4,2.6c-1.5,0.7-3.3,1.2-4.3,1.7
		c-1,0.6-1.4,1.2-1.9,2.3c-0.4,1-0.9,2.6-1.3,3.8c-0.4,1.2-0.8,2.2-1.4,3c-0.6,0.8-1.3,1.3-1.7,2.4c-0.4,1.1-0.5,2.7-0.7,3.9
		c-0.1,1.2-0.2,1.9-0.5,2.5c-0.3,0.6-0.6,1-1,1.6c-0.4,0.6-0.9,1.4-1.3,2.1c-0.4,0.7-0.9,1.4-1.2,2.4c-0.3,0.9-0.4,2.1-0.6,2.6
		c-0.2,0.5-0.6,0.4-0.9,1.2c-0.3,0.8-0.7,2.5-1.2,3.7c-0.5,1.2-1.1,1.9-1.4,2.5c-0.3,0.6-0.2,1.1-0.5,1.5c-0.2,0.5-0.7,0.9-1.4,0.8
		c-0.6,0-1.3-0.5-2.3-0.1c-0.9,0.5-2,1.8-2.9,2.4c-0.9,0.6-1.5,0.4-2.2,0.3c-0.8-0.1-1.7,0-1.8,0.6c-0.2,0.6,0.4,1.7,1.1,2.5
		c0.7,0.9,1.4,1.4,2.1,1.9c0.7,0.5,1.2,0.9,1.4,1.4c0.2,0.6,0.2,1.2,0.1,2c-0.1,0.7-0.2,1.5-0.1,2.2c0.2,0.7,0.8,1.3,1.9,2.2
		c1.1,0.8,2.8,1.8,4.2,2.6c1.4,0.7,2.4,1.1,3.5,2c1,0.9,2,2.3,2.6,3.9c0.6,1.6,0.8,3.5,0.9,4.9c0.1,1.4,0.2,2.4,0.4,3.3
		c0.2,0.9,0.7,1.7,1.6,2c0.9,0.3,2.2,0.1,2.9,0.2c0.7,0.1,0.7,0.4,1,0.9c0.3,0.4,0.9,0.9,1.6,1.2c0.7,0.3,1.4,0.4,2.2,0.4
		c0.8,0,1.8-0.2,2.8-0.8c1-0.5,2-1.3,3.1-1.4c1.1-0.1,2.4,0.5,3.1,1.4c0.8,0.8,1.2,1.9,1.2,2.8c0,1-0.4,1.9-0.7,2.9
		c-0.3,1-0.6,2.1,0.1,3c0.7,0.9,2.3,1.6,3.6,2.4c1.3,0.8,2.2,1.8,2.3,3c0.2,1.2-0.4,2.8-0.5,3.6c-0.1,0.9,0.1,1,1.3,1
		c1.2,0,3.3-0.3,5.3-0.2c1.9,0.1,3.7,0.5,4.9,0.9c1.3,0.4,2.1,0.9,3.3,1.3c1.1,0.5,2.6,1,4.1,1.1c1.5,0,3-0.5,4.8-0.6
		c1.8-0.1,4,0.1,6,0.5c2,0.4,3.6,0.9,5.4,1.2c1.8,0.3,3.7,0.4,5.4-0.3c1.7-0.7,3.1-2,4.8-3.6c1.6-1.6,3.5-3.3,5.4-4.3
		c2-1,4-1.3,5.8-1.7c1.8-0.5,3.2-1.1,4.9-1.4c1.7-0.3,3.7-0.3,5.5,0c1.8,0.3,3.6,0.9,5.2,1.5c1.6,0.6,3.1,1,4.2,1.1
		c1.1,0.1,1.8-0.2,2.7,0.7c0.9,0.9,2.1,3,3.3,4.1c1.2,1.2,2.4,1.4,3.3,1.2c0.8-0.1,1.2-0.6,1.6-1.4c0.4-0.8,0.7-1.8,1.1-2.6
		c0.4-0.8,0.8-1.4,0.8-2c0-0.6-0.5-1-0.8-2c-0.3-0.9-0.4-2.3-0.4-3.3c0-1,0.2-1.6,0.3-2.2c0.1-0.6,0-1,0.4-1.6
		c0.4-0.6,1.2-1.2,1.6-2.1c0.4-0.9,0.3-2.2,0.1-3.2c-0.2-1.1-0.5-2-0.3-3.2c0.1-1.2,0.7-2.6,0.9-3.8c0.2-1.2,0-2,0.5-2.6
		c0.5-0.6,1.5-0.9,2.2-0.9c0.7,0.1,1.1,0.5,1.5,1.4c0.3,0.9,0.6,2.1,1.7,2c1.1-0.1,3-1.6,3.9-3.2c1-1.7,1-3.5,0.4-5
		c-0.5-1.4-1.6-2.4-3.3-2.3c-1.6,0.1-3.9,1.2-5.6,2.1c-1.7,0.9-2.9,1.6-4.6,1.6c-1.7,0-4-0.6-6-1.6c-2-1.1-3.7-2.6-4.8-4.3
		c-1.1-1.7-1.6-3.7-1.4-5.2c0.2-1.5,1-2.6,1.2-4.1c0.1-1.4-0.4-3.2-0.8-4.9c-0.4-1.7-0.6-3.3-0.5-5.2c0.1-1.8,0.5-3.7,0.5-6
		c0.1-2.2-0.2-4.8-1.8-7.7c-1.5-2.9-4.3-6.2-6.8-9.6c-2.5-3.4-4.7-6.9-6.2-9.3c-1.6-2.4-2.4-3.5-3.3-5c-0.9-1.4-1.6-3.2-2.7-4.7
		C744.3,585.2,743,583.9,741.7,583.5L741.7,583.5z"/>
	<path class="st1" d="M483,691.4c-0.3-1.6-1-3.7-2-4.8c-1-1.1-2.4-1.1-3.6-1.4c-1.2-0.3-2.4-0.8-3.6-1.6c-1.2-0.9-2.4-2.1-3.6-3.2
		c-1.2-1-2.5-1.9-3.9-2.4c-1.3-0.6-2.8-0.8-4.3-1c-1.6-0.1-3.4-0.1-5.2,0.4c-1.8,0.6-3.5,1.7-5,3.1c-1.5,1.4-2.8,3.2-3.9,4.9
		c-1,1.7-1.9,3.5-3,4.5c-1.1,1-2.4,1.4-2.9,0.8c-0.4-0.5,0.1-2,0.2-3.2c0.1-1.1-0.2-2-0.7-2.6c-0.6-0.6-1.4-1-2.7-1.2
		c-1.2-0.2-2.9-0.1-4.5-1c-1.6-0.9-3-2.8-3.8-4.3c-0.8-1.5-0.9-2.6-0.5-3.6c0.4-1,1.3-2,1.4-3.2c0.1-1.2-0.7-2.6-1.5-3.9
		c-0.8-1.4-1.8-2.7-1.7-3.6c0.1-0.9,1.1-1.4,2.3-2.4c1.2-1,2.5-2.6,3.1-4.5c0.6-1.8,0.5-3.9-0.1-5.9c-0.6-2-1.6-3.9-1.6-5.1
		c0-1.2,1.1-1.6,2.7-1.7c1.6-0.1,3.7,0.2,6.4-0.3c2.7-0.5,6.1-1.8,8.2-3.8c2.1-2,3-4.7,3.5-5.9c0.5-1.1,0.6-0.7,1.9,1
		c1.3,1.7,3.9,4.8,5.6,6.4c1.7,1.6,2.6,1.9,3.2,1c0.6-0.9,0.9-3.1,1.8-4.5c0.9-1.4,2.4-2.2,3.2-3.5c0.9-1.4,1.2-3.3,2-3.4
		c0.8-0.1,2.2,1.5,3.8,2c1.6,0.5,3.4-0.1,4.6,0c1.1,0.1,1.6,1,2.2,0.7c0.6-0.4,1.2-2,2.3-3.7c1-1.7,2.5-3.3,3.2-3.9
		c0.7-0.6,0.7,0,0.7-0.9c0-0.9,0.1-3.1,0.5-4.3c0.4-1.1,1-1,2.3-0.6c1.3,0.5,3.4,1.3,5.1,0.9c1.7-0.4,3-2,4.3-3
		c1.2-1.1,2.3-1.6,4-1.8c1.8-0.2,4.2,0,5.6-0.1c1.4-0.2,1.8-0.7,2.7,0c0.9,0.7,2.3,2.8,4.5,4.7c2.2,1.9,5.1,3.7,7.8,4.6
		c2.8,0.9,5.3,0.9,6.7,1c1.4,0.1,1.7,0.4,1.4,1.3c-0.3,0.9-1.1,2.3-0.9,3.7c0.2,1.4,1.5,2.8,1.9,4c0.4,1.2,0,2.2,0.1,3.2
		c0.1,1,0.9,2,0.7,2.8c-0.1,0.8-1.2,1.3-2.3,1.6c-1.1,0.3-2.2,0.3-3.3,0.6c-1.1,0.3-2.1,1-2.9,1.9c-0.9,0.8-1.6,1.8-2.8,2.4
		c-1.2,0.6-2.9,0.9-4.4,1.4c-1.4,0.5-2.6,1.2-3.5,1.8c-0.9,0.7-1.5,1.3-1.8,2.6c-0.3,1.3-0.2,3.4,0.4,4.9c0.6,1.4,1.7,2.3,2.1,3.9
		c0.4,1.6,0,3.9-0.2,5.6c-0.2,1.6-0.2,2.5-0.2,4.5c0,2,0,5.1,1.4,8.4c1.4,3.3,4.3,6.8,7.7,9.4c3.4,2.6,7.3,4.4,9.6,6.1
		c2.2,1.6,2.8,3.1,4.6,7.8c1.8,4.7,4.8,12.8,8.1,18.4c3.3,5.7,6.9,9,9.9,11.6c3,2.5,5.4,4.3,8.9,4.9c3.5,0.6,8,0.1,10.6-0.1
		c2.6-0.2,3.2-0.2,3.2,0.3c0,0.6-0.7,1.8-1.4,2.8c-0.7,1-1.3,2-1.6,3c-0.3,1-0.3,2.1,1.7,4.2c2,2.1,5.9,5.1,10.1,7.5
		c4.1,2.4,8.5,4,11.6,5.7c3,1.6,4.8,3.3,6.4,4.8c1.6,1.4,3.1,2.7,5.1,4.6c2.1,1.9,4.8,4.4,6.3,6.2c1.6,1.8,2,2.9,2,3.6
		c-0.1,0.7-0.6,1.1-1,1.3c-0.4,0.3-0.7,0.5-1,1c-0.3,0.5-0.7,1.3-1.1,1.7c-0.4,0.4-1,0.3-1.6-0.9c-0.6-1.1-1.2-3.3-1.9-5
		c-0.7-1.6-1.6-2.8-2.5-3.5c-1-0.7-2-1-3-0.8c-0.9,0.1-1.8,0.7-2.5,0.5c-0.7-0.3-1.2-1.3-2.5-2.6c-1.4-1.3-3.5-3-5.4-2
		c-1.8,1-3.3,4.6-5.2,7.2c-1.9,2.6-4.2,4.3-5.5,6.4c-1.4,2.2-1.8,4.8-0.9,6.4c0.9,1.6,3.2,2.1,5.4,3.3c2.2,1.2,4.3,3.1,5.5,5.5
		c1.2,2.4,1.5,5.4,1.5,7.6c0,2.2-0.4,3.5-1.2,4s-2.3,0-3.7-0.1c-1.4-0.1-2.9,0.2-3.7,1c-0.8,0.8-1,2.2-0.7,3.6
		c0.3,1.4,0.9,2.8,1.2,4c0.3,1.2,0.3,2.4-0.6,3.4c-0.8,1-2.5,1.9-3.9,3.2c-1.4,1.2-2.6,2.8-3.7,4.3c-1.2,1.4-2.4,2.7-3.1,3
		c-0.8,0.3-1.1-0.2-1.2-1.6c-0.1-1.4,0.1-3.7,0.7-5.6c0.7-1.8,1.8-3.2,2.5-4.5c0.7-1.3,1.1-2.5,1.4-3.5c0.3-1,0.7-1.8,1.1-2.8
		c0.4-1,0.8-2.1,0.6-3.8c-0.2-1.7-1.1-4.1-1.5-6.3c-0.4-2.2-0.4-4.4-1-6.3c-0.6-1.9-1.7-3.6-2.5-5.4c-0.8-1.8-1.2-3.8-1.6-5.6
		c-0.3-1.8-0.6-3.3-1.4-4.5c-0.8-1.2-2.2-2-3.3-2.2c-1.1-0.2-1.9,0.2-2.9,0.2s-2.2-0.4-3.3-2c-1.1-1.6-2.2-4.5-3.4-6.8
		c-1.2-2.3-2.6-4-3.9-4.9c-1.4-0.9-2.8-1-3.7-1.4c-0.8-0.4-1.2-1-1.8-1.7c-0.6-0.6-1.4-1.2-2.8-1.9c-1.3-0.7-3.2-1.6-4.3-3
		c-1.1-1.4-1.4-3.2-1.7-4.7c-0.3-1.4-0.5-2.5-2.5-3c-2-0.5-5.6-0.5-8-0.9c-2.4-0.4-3.5-1.2-4-2.1c-0.5-0.9-0.5-1.8-1.3-2.2
		c-0.8-0.5-2.4-0.5-3.9-1.1c-1.6-0.6-3.1-1.9-6-4.8c-2.8-2.9-6.8-7.4-9.6-10.4c-2.7-3-4.1-4.4-5.6-5.6c-1.5-1.1-3.1-2-4.6-3.4
		c-1.4-1.4-2.7-3.5-4-5.1c-1.3-1.5-2.7-2.5-3.9-3.6c-1.1-1.1-2-2.2-2.5-4.2c-0.5-1.9-0.7-4.6-1.3-6.3c-0.6-1.7-1.5-2.4-2.3-3.7
		c-0.8-1.3-1.3-3.2-1.5-4.7C483.1,694.2,483.3,693.1,483,691.4L483,691.4z"/>
	<path class="st1" d="M929.4,754.5c-2.9-0.9-6.8-2.2-10-3.9c-3.3-1.7-5.8-3.9-7.3-4.3c-1.5-0.4-2,1-3.2,1.2
		c-1.2,0.2-3.2-0.8-4.9-2.9c-1.6-2.2-2.8-5.5-4.2-6.7c-1.3-1.2-2.8-0.4-4.9-0.2c-2.1,0.2-4.9-0.2-7-1.5c-2.1-1.3-3.4-3.5-5.5-4.1
		c-2.1-0.6-5,0.5-8.6,1c-3.5,0.4-7.7,0.1-11.7,0.2c-4,0.1-7.8,0.5-11,1.5c-3.2,1-5.8,2.7-8.8,4.9c-3.1,2.1-6.7,4.8-9.8,7.2
		c-3.1,2.4-5.8,4.6-8.6,6.1c-2.8,1.4-5.7,2.1-8.4,2.2c-2.6,0.1-5-0.5-8.3-1.3c-3.3-0.8-7.7-1.9-10.7-2c-3-0.1-4.7,0.8-3.8,2
		c1,1.2,4.5,2.6,7.5,3.9c2.9,1.3,5.2,2.4,5.6,3.1c0.4,0.8-1.1,1.2-3.4,1.8c-2.4,0.6-5.6,1.5-7.1,2.8c-1.5,1.3-1.3,3.1-1,4.4
		c0.3,1.3,0.6,2.2-2.4,2.3c-3,0.1-9.2-0.4-14.2-0.3c-4.9,0.1-8.5,1-11.8,1.3c-3.2,0.4-6.2,0.2-9.4,2.2c-3.2,1.9-6.7,6-8.5,9.2
		c-1.8,3.3-2.1,5.7-1.3,6.6c0.8,0.9,2.6,0.2,5.1,0.2c2.5,0,5.8,0.7,6.9,1.6c1.1,0.9,0.1,2-0.5,3.2c-0.7,1.2-1,2.6-0.6,4.2
		c0.4,1.5,1.5,3.2,2.1,4.4c0.6,1.2,0.6,1.9,1.4,3c0.9,1.2,2.7,2.8,2.8,3.9c0.1,1-1.4,1.4-2,2.1c-0.5,0.7,0.1,1.7,0.7,2.7
		c0.7,1,1.4,2.1,0.2,3.1c-1.3,1-4.7,1.8-4.6,3.5c0.1,1.6,3.5,4.1,5.8,5.7c2.3,1.5,3.4,2.1,2.8,3.2c-0.7,1.1-3.1,2.8-4,4.7
		c-0.9,1.9-0.2,3.9,1.2,5.1c1.4,1.2,3.5,1.5,5.3,1.7c1.7,0.3,3.1,0.6,3.9,1.8c0.9,1.2,1.2,3.5,2,4.6c0.8,1.1,2,1.1,3.4,1.2
		c1.3,0.1,2.8,0.2,3.3,0.9c0.6,0.7,0.2,2,0.8,2.8c0.6,0.9,2.2,1.5,3.9,1.7c1.7,0.3,3.5,0.3,5,0.6c1.5,0.3,2.8,0.8,4,2.6
		c1.2,1.7,2.5,4.7,4.1,6.4c1.7,1.7,3.8,2.3,6.3,2.7c2.5,0.4,5.2,0.7,7.5,0.4c2.2-0.3,3.9-1.1,4.9-2.9c1-1.8,1.4-4.6,2.1-6.7
		c0.7-2.1,1.8-3.7,4-4.3c2.2-0.6,5.4-0.3,8.7,0.3c3.2,0.7,6.5,1.8,9.4,3.1c2.8,1.2,5.3,2.6,7.1,4.3c1.9,1.7,3.1,3.8,4.9,5.3
		c1.8,1.5,4.1,2.5,7,2.8c2.9,0.3,6.2-0.1,8.9-0.7c2.7-0.6,4.7-1.2,6.9-3.1c2.2-1.9,4.7-4.9,6.9-7.5c2.2-2.6,4.1-4.9,5.9-5.4
		c1.8-0.5,3.5,0.6,6.6-0.2c3.1-0.8,7.7-3.4,10.7-4.9c3-1.5,4.5-2,5.3-1.1c0.9,0.8,1.1,2.9,0.7,4.9c-0.4,2-1.4,3.9-2.9,5.5
		c-1.5,1.6-3.5,2.8-3.6,4.8c-0.1,1.9,1.8,4.6,3.7,5.4c1.9,0.8,3.7-0.1,4.9-2.8c1.2-2.7,1.9-7.1,2.6-10c0.7-2.8,1.4-4.1,3.1-4.3
		c1.8-0.2,4.7,0.6,7.1,1.2c2.4,0.6,4.3,1,6.8,0.1c2.5-0.9,5.6-3.1,8.2-4.1c2.5-1,4.4-0.7,6.5-0.3c2.1,0.4,4.5,1,7.5,1.2
		c0.8,0.1,1.7,0.1,2.7,0.1V755c-3.1-0.1-5.4-1.1-7.5-1.4c-2.8-0.4-5.4,0.4-8.1,1.1c-2.8,0.7-5.7,1.2-8,1.2
		C934.1,756,932.3,755.4,929.4,754.5L929.4,754.5z"/>
	<path class="st1" d="M691,502.6c-0.1,0.9,0.8,3,1.8,5c1.1,2.1,2.4,4.2,3.5,6.2c1.1,2,2.1,3.7,2.4,5c0.4,1.3,0.1,2.2,0.2,3.7
		c0,1.5,0.3,3.5-0.2,5.2c-0.5,1.6-1.9,2.8-4.3,4.6c-2.4,1.8-5.8,4.3-8.4,7.3c-2.6,2.9-4.2,6.2-5.2,8.4c-1,2.2-1.4,3.1-1.2,4.6
		c0.2,1.5,0.9,3.5,1.3,5.4c0.4,1.9,0.4,3.7-0.1,4.9c-0.5,1.1-1.6,1.6-2.4,1.9c-0.8,0.3-1.4,0.3-2.1,1.3c-0.8,1-1.7,2.8-2.6,4.5
		c-0.9,1.6-1.7,3.1-1.7,4.4c0.1,1.3,1.1,2.4,2.9,3.6c1.8,1.2,4.5,2.6,6.4,3.7c1.9,1,2.9,1.7,4.9,2.2c2,0.5,5.1,0.7,8.5,0.9
		c3.4,0.2,7.2,0.4,10.2,0.7c3,0.3,5.2,0.5,7,1.2c1.8,0.7,3.1,1.9,4.3,2c1.1,0.1,2.1-0.8,3.5-1.4c1.4-0.7,3.2-1.1,5.1-1.3
		c2-0.2,4.1-0.2,6-0.9c1.9-0.6,3.7-1.8,4.8-3.3c1.2-1.4,1.9-3,3.4-4.5c1.5-1.4,3.9-2.8,6.5-3.5c2.6-0.7,5.6-0.8,8.3-0.6
		c2.8,0.2,5.5,0.6,7.8,1.5c2.3,0.9,4.2,2.3,6.2,3c2,0.8,4.1,0.9,6.6,1.8s5.1,2.7,6.7,4.8c1.7,2.1,2.3,4.7,3.1,7.2
		c0.9,2.5,2,5,3.3,7.3c1.3,2.3,2.8,4.4,3.7,6.1c0.9,1.8,1.3,3.2,2.3,4.8c0.9,1.6,2.5,3.2,3.3,4.9c0.9,1.6,1.2,3.2,1.2,4.3
		c0.1,1.1-0.1,1.7,0.3,2.1c0.4,0.4,1.4,0.5,2.5,1.3c1,0.9,2.2,2.4,2.9,3.2c0.8,0.8,1.2,1,1.9-0.1c0.7-1,1.7-3.3,2.9-4.8
		c1.2-1.5,2.7-2.4,4.7-3.5c2.1-1.1,4.8-2.5,6.5-3.7c1.7-1.1,2.4-2,3.3-2.9c0.8-0.9,1.8-1.7,2.7-2.1c0.9-0.4,1.6-0.4,2.3,0.6
		c0.6,1,1.1,3,1.8,4.7c0.7,1.7,1.5,3,3.1,3.5c1.7,0.5,4.1,0.1,5.6-0.1c1.4-0.2,1.8-0.3,1.2,0.5c-0.6,0.8-2.3,2.4-4.3,3.3
		c-2,0.9-4.4,1.2-5.3,2c-1,0.8-0.5,2.1,1.2,3c1.7,0.9,4.7,1.4,6.7,1.6c2,0.2,3.1,0,4.1,0.2c1,0.1,2.1,0.5,3,0.5
		c0.9,0,1.8-0.5,2.8-0.9c1-0.4,2.1-0.6,3.8-0.7c1.7-0.1,4-0.1,5.5-0.6c1.5-0.5,2.2-1.6,3.2-1.7c1-0.2,2.3,0.5,3.4,1.2
		c1.1,0.6,1.9,1.2,2.6,0.5c0.6-0.7,1.1-2.6,2.1-3c1-0.4,2.7,0.9,4.1,1.4c1.4,0.6,2.6,0.4,3.5-0.7c0.9-1.1,1.5-3.1,2.6-3.9
		c1.1-0.8,2.8-0.5,4.4-1.4c1.7-1,3.3-3.3,4.8-4.4c1.5-1.2,2.7-1.2,4.1-1.2c1.4-0.1,3-0.2,4.3-0.9c1.3-0.7,2.3-1.8,3.3-2.3
		c1-0.5,2.1-0.3,3-1c0.9-0.7,1.5-2.3,2.9-2.9c1.4-0.6,3.4-0.3,5-0.3c1.6,0,2.8-0.2,3.5-0.6c0.7-0.4,0.9-0.8,2.2-0.8
		c1.2,0,3.5,0.4,4.5-0.3c1-0.7,0.9-2.5,0.9-4.7c-0.1-2.3-0.1-5,0.4-6.7c0.5-1.8,1.4-2.6,2.4-3.5c1-0.9,2-2,3-2.9c1-1,2-1.9,3.5-2
		c1.5-0.1,3.5,0.6,5.3,0.9c1.8,0.3,3.3,0.2,4.2-0.6c0.9-0.8,1.2-2.3,1.4-4.3c0.1-2,0.2-4.5-0.4-6.5c-0.7-2-2-3.5-2.3-5.2
		c-0.3-1.7,0.5-3.6,0.7-5c0.2-1.4-0.3-2.5-0.5-3.7c-0.2-1.2-0.2-2.7,0.7-4.7c0.9-2,2.7-4.7,2.7-6.2c0-1.5-1.7-1.9-3.3-2.6
		c-1.6-0.7-3.1-1.6-4.5-2.2c-1.3-0.7-2.4-1.1-4.7-1.4c-2.2-0.3-5.6-0.5-7.9-1.4c-2.3-0.8-3.5-2.3-4.7-2.7c-1.2-0.4-2.3,0.2-4.1,0.1
		c-1.8-0.1-4.2-0.9-6.1-2.8c-1.9-2-3.4-5.2-4.7-6.4c-1.4-1.2-2.6-0.5-4.1-0.2c-1.5,0.3-3.2,0.2-4.5,0.4c-1.3,0.2-2.2,0.6-3.2,1
		c-1,0.4-2.1,0.8-3,0.6c-0.9-0.2-1.6-1.1-2.7-1.3c-1.1-0.2-2.7,0.1-4.1,0.1c-1.4,0-2.6-0.5-4.1-1.1c-1.4-0.7-3.1-1.7-4.5-3.7
		c-1.3-2-2.3-5.2-3.8-7.8c-1.6-2.6-3.7-4.8-6.5-6.2c-2.8-1.5-6.4-2.2-8.8-2.7c-2.5-0.5-3.9-0.7-4.5-2.1c-0.6-1.4-0.4-3.9-0.7-5.4
		c-0.3-1.5-1-1.9-1.5-2.8c-0.5-0.9-0.7-2.2-0.3-3c0.3-0.8,1.3-1,1.8-1.6c0.5-0.6,0.5-1.6-0.1-2.7c-0.6-1.1-1.8-2.5-2.8-3.9
		c-1-1.4-1.9-3-3.1-3.7c-1.2-0.7-2.6-0.4-3.8-0.3c-1.2,0-2.2-0.2-3.1-0.3c-1-0.1-2.1-0.1-3.2,0.3c-1.1,0.4-2.3,1.1-3.5,1.5
		c-1.2,0.3-2.4,0.3-3.4-0.1c-1-0.3-1.7-0.9-2.5-0.3c-0.8,0.6-1.6,2.2-2.7,3.4c-1,1.2-2.3,2-3.4,2c-1.2,0.1-2.2-0.5-3.9-0.7
		c-1.8-0.1-4.2,0.2-6.3,0.3c-2.1,0.1-4,0.1-5.4,0.7c-1.4,0.6-2.4,2-3.2,3.3c-0.8,1.4-1.2,2.8-1.4,4.6c-0.1,1.9,0.1,4.2-0.2,6
		c-0.3,1.8-1,3.2-1.9,3.5c-0.9,0.4-2-0.2-2.9-1.1c-0.9-0.9-1.6-2.2-2.9-2.5c-1.3-0.3-3.1,0.5-4.6,1.1c-1.5,0.6-2.7,1-3.9,1.1
		c-1.2,0.1-2.4-0.2-3.5-0.8c-1-0.6-1.9-1.5-2.9-2.1c-1-0.6-2.3-0.9-3.2-0.4c-0.9,0.5-1.4,1.6-2.1,2.4c-0.7,0.7-1.4,1-2.2,0.5
		c-0.9-0.5-1.8-1.6-3.1-2.5c-1.3-0.8-3-1.3-4.5-1.4c-1.4-0.1-2.7,0.1-3.7,0.3c-1.1,0.2-2,0.4-2.7,0.4c-0.7,0-1.2-0.2-2-0.6
		c-0.8-0.4-1.8-0.9-2.7-1.1c-0.9-0.1-1.8,0.1-2.7-0.1c-0.8-0.2-1.5-0.9-2.2-1.4c-0.6-0.5-1.2-0.8-2.6-1.2c-1.4-0.4-3.7-1-5.8-1.6
		c-2-0.7-3.8-1.4-5.6-2c-1.8-0.6-3.7-1-6.2-1.2c-2.5-0.3-5.6-0.3-8.5-0.3c-2.9,0-5.6,0.1-7.9,0.7c-2.3,0.6-4.3,1.8-5.8,3.1
		c-1.5,1.2-2.5,2.6-3.6,3.3c-1.1,0.8-2.4,1.1-3.5,1.2C692.1,501.8,691,501.6,691,502.6L691,502.6z"/>
	<path class="st1" d="M720.4,313.7c-2-0.6-5.1-1.5-7.8-1.9c-2.8-0.4-5.2-0.3-7.4,0c-2.2,0.3-4.1,0.7-6.1,1.1c-2,0.4-4.2,0.9-6.6,1.2
		c-2.5,0.4-5.4,0.7-7.2,1.6c-1.8,0.9-2.7,2.2-3.8,3.1c-1.1,0.8-2.4,1-3.4,1.3c-1,0.3-1.7,0.7-1.6,1.4c0.1,0.6,0.8,1.4,1,2.2
		c0.1,0.8-0.4,1.6-0.4,2.2c0,0.7,0.5,1.3,1.2,1.7c0.7,0.3,1.7,0.4,2,1c0.3,0.6,0,1.7-0.5,2.5c-0.4,0.8-0.9,1.2-1.4,1.3
		c-0.5,0.1-0.9,0-0.9,0.5c0,0.5,0.5,1.5,1.4,2.7c0.8,1.2,1.9,2.6,3,3.3c1.1,0.7,2.2,0.8,3,0.2c0.8-0.6,1.4-2,2.7-2.4
		c1.2-0.4,3.1,0.1,4,1.2c0.9,1.1,0.9,2.8,0.8,4.5c-0.1,1.7-0.2,3.3,0.3,3.7c0.4,0.4,1.4-0.5,3.2-1.1c1.8-0.6,4.3-0.9,7-0.5
		c2.7,0.4,5.6,1.5,8.6,3.2c2.9,1.7,5.9,3.9,8.2,5.1c2.3,1.2,3.9,1.3,5.3,1.1c1.4-0.2,2.6-0.8,3.8-0.7c1.2,0.1,2.4,0.9,3.2,0.6
		c0.9-0.2,1.4-1.5,2.2-2.5c0.8-1,1.8-1.8,2-2.7c0.3-0.9-0.3-2-1-3.1c-0.8-1-1.9-2-2.5-3.2c-0.6-1.1-0.7-2.4-0.5-3.5
		c0.1-1.1,0.5-2,0.5-3.1c0-1.1-0.4-2.3-0.7-4.2c-0.3-1.9-0.5-4.3,0-5.9c0.5-1.5,1.6-2.1,2.3-3.1c0.7-1,1-2.4,1.2-3.7
		c0.2-1.3,0.4-2.6-0.2-3.2c-0.6-0.6-1.8-0.5-3.8-0.6c-1.9,0-4.5-0.2-6.2-0.4C723.2,314.7,722.3,314.4,720.4,313.7L720.4,313.7z"/>
	<path class="st1" d="M655.1,337.1c1.2-0.8,3.2-1.9,5.2-2.3c2-0.4,4-0.1,5.6,0.1c1.6,0.3,2.8,0.5,2.6,1c-0.2,0.6-1.8,1.6-3.7,2.5
		c-1.9,0.9-4.1,1.7-6.2,2.4c-2,0.7-3.9,1.1-4.8,0.8c-0.9-0.4-0.9-1.6-0.7-2.5C653.4,338.3,653.9,337.9,655.1,337.1L655.1,337.1z"/>
	<path class="st1" d="M605.5,352.6c-1.1,0.7-3.8,4.1-5,6.7c-1.2,2.6-1,4.6,0.3,5.8c1.3,1.2,3.6,1.6,4.5-0.1c0.9-1.7,0.5-5.5,0.6-8.3
		C606,353.7,606.6,351.8,605.5,352.6L605.5,352.6z"/>
	<path class="st1" d="M660.2,323.5c1.2,0.7,2.7,2.5,2.5,3.6c-0.2,1.1-2,1.5-3.3,0.9c-1.2-0.7-1.9-2.4-1.7-3.5
		C657.8,323.3,658.9,322.8,660.2,323.5L660.2,323.5z"/>
	<path class="st1" d="M670.1,436c-4-0.1-9.9,0.3-15.5,0.5c-5.6,0.2-10.8,0.2-14.2-0.1c-3.4-0.3-4.9-0.8-7.2-0.9
		c-2.2-0.1-5.1,0.3-7.3,0.8c-2.2,0.5-3.7,1-5.3,1.3s-3.2,0.2-4.4-0.1c-1.2-0.3-2.1-0.8-3.3-1.1c-1.2-0.3-2.7-0.5-3.9-1.3
		c-1.2-0.7-2.2-2-3-3.7c-0.9-1.8-1.7-4-2.7-5.2c-1-1.3-2.2-1.6-4.5-1.2c-2.3,0.5-5.7,1.7-8.7,2.8c-3.1,1.1-5.8,2-8,2.5
		c-2.2,0.6-3.7,0.8-4.9,1.5c-1.2,0.7-2,1.9-2.9,3.1c-1,1.2-2.2,2.6-3.7,3.4c-1.6,0.9-3.6,1.3-5.7,1.7c-2.1,0.4-4.4,0.7-6.1,1.3
		c-1.7,0.6-2.9,1.3-4.3,1.8c-1.4,0.5-2.9,0.7-4.3,1.1c-1.3,0.4-2.5,1-2.9,1.8c-0.4,0.7-0.1,1.6,0.3,2.2c0.4,0.7,0.9,1.2,0.7,2
		c-0.3,0.7-1.2,1.5-2,2.5c-0.8,1-1.3,2.1-1,2.9c0.2,0.8,1.2,1.4,1.9,2.6c0.8,1.2,1.3,3.1,1.1,4.5c-0.3,1.4-1.3,2.5-2.4,3.9
		c-1,1.4-2.1,3.1-1.9,4.5c0.3,1.3,1.8,2.2,3.3,3.5c1.5,1.4,2.9,3.2,3.3,4.2c0.5,1-0.1,1.3-0.1,2.1c-0.1,0.8,0.3,2.1,0.8,3.5
		c0.5,1.3,1,2.7,1,4.3c0,1.6-0.6,3.5-1,5c-0.3,1.5-0.4,2.6,0.2,3.5c0.6,0.9,1.8,1.5,2.6,2.4c0.8,0.9,1,2,1.5,3c0.4,1,1,1.8,1.4,2.8
		c0.5,1,0.8,2.3,0.8,3.6c0.1,1.3-0.2,2.6-0.1,3.7c0.1,1.1,0.4,2,1,2.5c0.7,0.5,1.6,0.5,2.4,0.9c0.8,0.4,1.4,1.2,2.2,2
		c0.8,0.7,1.8,1.4,3.7,2.2c1.8,0.8,4.5,1.9,6.9,2.5c2.4,0.6,4.5,0.8,5.3,1.7c0.9,0.8,0.6,2.3,0.6,3.7c0,1.4,0.3,2.8,0.8,3.9
		c0.5,1,1.4,1.7,2.1,1.1c0.7-0.6,1.3-2.5,1.8-3.6c0.5-1.2,0.9-1.7,2.9-1.4c2,0.3,5.6,1.4,8.3,2.1c2.7,0.7,4.6,1,5.3,1.9
		c0.7,1,0.3,2.6,0.9,3.5c0.6,0.9,2.1,0.9,3.9,1.4c1.8,0.5,3.8,1.4,5.5,2.5c1.7,1.1,3.2,2.3,4.4,3.9c1.2,1.6,2.2,3.5,3.1,4.8
		c1,1.2,2,1.8,2.6,1.7c0.6-0.1,0.9-0.9,2.1-1.2c1.2-0.4,3.3-0.4,4.7,0.1c1.3,0.5,1.9,1.6,2.8,2.4c0.9,0.9,2.2,1.5,2.9,2.2
		c0.7,0.7,1,1.4,1.5,1.8c0.5,0.3,1.4,0.2,2-0.4c0.6-0.6,1-1.5,2.5-2.2c1.5-0.7,4.1-1.1,6.1-1c1.9,0.1,3.2,0.7,4.3,0.7
		c1.1,0,2.2-0.6,4.3-1c2.1-0.3,5.2-0.4,8.4,0.8c3.2,1.2,6.6,3.6,8.5,5.9c1.9,2.3,2.4,4.4,2.9,3.9c0.5-0.5,0.9-3.6,1-6.3
		c0.2-2.8,0.1-5.1,0.9-7.7c0.7-2.6,2.3-5.4,4.8-8.5c2.5-3,5.9-6.2,8.6-8.5c2.6-2.3,4.6-3.8,5.3-5.1c0.7-1.3,0.3-2.4-0.3-3.7
		c-0.5-1.4-1.1-3-1.7-4.5c-0.6-1.6-1.1-3.2-2.3-5.7c-1.2-2.5-3.1-5.9-4.1-8.9c-1-3-1-5.6-0.9-7.9c0.2-2.2,0.7-4-0.4-5.5
		c-1-1.4-3.6-2.6-5.1-4.1c-1.5-1.5-2-3.3-0.8-5.5c1.3-2.1,4.3-4.5,6.4-6.3c2.1-1.8,3.2-3,3.3-4.9c0.1-1.8-0.9-4.1-2.2-7
		c-1.4-2.8-3.2-6.2-4.2-9.1c-1-3-1.2-5.6-1.9-8.1c-0.6-2.4-1.6-4.7-3.1-6.2C676.2,436.8,674.1,436.1,670.1,436L670.1,436z"/>
	<path class="st1" d="M446.9,457.5c-0.8-1-1-2.4-2.2-3.2c-1.2-0.8-3.4-1-5.5-1c-2.1,0-4.1,0.2-5.3,0.9c-1.1,0.7-1.4,2-1.6,3
		c-0.1,1-0.1,1.8,0.5,2.1c0.6,0.3,1.8,0.2,2.5,0.6c0.7,0.4,0.8,1.4,0.7,2.7c-0.1,1.3-0.4,2.9-0.9,4.4c-0.4,1.6-0.9,3.1-1.3,4.5
		s-0.7,2.8-0.9,4c-0.2,1.2-0.3,2-0.7,2.7s-1.1,1-1.6,1.3c-0.5,0.3-0.9,0.7-0.4,1.2c0.5,0.5,1.9,1.2,2.6,2.4c0.7,1.2,0.8,2.8,0.4,4
		c-0.4,1.2-1.2,1.9-2,2.6c-0.7,0.8-1.3,1.6-1.7,2.7c-0.4,1.1-0.5,2.4-1.2,3.3c-0.7,0.9-2,1.5-3.1,2.3c-1.1,0.7-2,1.7-3.3,2.1
		c-1.3,0.4-2.9,0.3-3.5,1.1c-0.6,0.8,0,2.5,0.3,4.1c0.3,1.6,0.2,3.1-0.1,4.2c-0.3,1.2-0.9,2.1-1.4,3.2c-0.6,1.1-1.1,2.4-1.1,3.7
		c0.1,1.3,0.7,2.6,1.6,4.5c0.9,1.8,2.1,4.1,3,5.8c0.9,1.7,1.4,2.9,1.8,4.1c0.3,1.1,0.5,2.2,0.4,3.2c-0.1,1-0.4,1.8-0.9,2.2
		c-0.5,0.5-1.3,0.5-1.9,1.1c-0.5,0.6-0.8,1.6-0.5,2.8c0.3,1.2,1.2,2.6,2,3.7c0.7,1.1,1.4,2,1.6,3.1c0.2,1.1,0.1,2.3-0.1,3.6
		c-0.1,1.2-0.3,2.5,0.2,3.6c0.5,1.1,1.4,2.2,2.6,3.2c1.1,1,2.4,2.1,4.3,2.7c1.9,0.6,4.6,0.9,6.6,1c2,0.1,3.5,0.2,4.7,0.5
		c1.2,0.3,2.1,1,3.3,1.4c1.2,0.5,2.7,0.7,3.9,1.3c1.2,0.6,2,1.5,2.4,2.7c0.4,1.2,0.3,2.7-0.4,4.1c-0.7,1.3-2.1,2.5-3.2,3.8
		c-1.1,1.3-1.9,2.7-2.4,4c-0.5,1.3-0.8,2.7-1.2,3.7c-0.5,1-1.1,1.8-1.5,2.8c-0.5,0.9-0.8,2-0.9,3c-0.1,1,0.1,1.9,0.1,3
		c0,1.1-0.1,2.4-0.3,3.5c-0.2,1.1-0.6,1.9-0.2,2.4c0.4,0.5,1.4,0.7,3,0.8c1.6,0.1,3.6,0.1,5-0.1c1.4-0.2,2.1-0.6,2.7-1.2
		c0.6-0.6,1-1.4,2.1-1.7c1.1-0.4,3-0.4,4.5-0.3c1.4,0.1,2.4,0.3,3.5,0.6c1.1,0.2,2.3,0.5,3.6,0.7c1.3,0.2,2.6,0.4,3.4,0.9
		c0.8,0.5,1.1,1.3,2.4,1.8c1.2,0.5,3.3,0.6,4.8,0.8c1.5,0.2,2.5,0.5,3.4,1.2c0.9,0.8,1.8,2,2.5,2.2c0.7,0.2,1.2-0.7,2.4-1.8
		c1.2-1.1,3.1-2.4,5.2-2.5c2-0.1,4.2,1,6.2,1.8c2,0.8,3.9,1.2,5.6,0.7c1.7-0.5,3.3-1.9,5.2-2.9c2-1,4.3-1.7,7-2.2
		c2.7-0.4,5.6-0.6,7.4-0.9c1.8-0.4,2.3-1,2.2-2c-0.2-1-1-2.3-1.3-3.7c-0.3-1.5,0.1-3.1,1-4.7c1-1.6,2.7-3.2,4.1-4.1
		c1.4-0.9,2.5-1,3.2-1.9c0.7-0.9,1-2.7,1.8-3.8c0.8-1.1,2.2-1.6,3-2.4c0.7-0.8,0.8-1.9-0.4-3.1c-1.2-1.2-3.7-2.5-6.3-4.7
		c-2.7-2.2-5.5-5.1-7.7-7.7c-2.2-2.6-3.8-4.7-4.7-6.7c-0.9-2-1-3.8-1-5.1c0-1.3,0.3-2-0.4-3.3c-0.6-1.2-2.1-2.9-3.2-4.9
		c-1.1-2-2-4.3-1.2-5.4c0.8-1.1,3.3-1.1,5.3-1.4c2.1-0.3,3.8-0.9,5.1-1.6c1.4-0.7,2.4-1.4,3.5-2.1c1.1-0.7,2.4-1.2,3.9-2
		c1.4-0.8,3.1-1.9,4.9-2.8c1.8-0.9,3.7-1.5,5.3-2.2c1.6-0.7,2.7-1.6,3.4-2.5c0.7-0.9,1.1-2,1.8-2.7c0.8-0.8,2-1.2,3.3-1.4
		c1.3-0.1,2.6,0.2,3.6,0.8c1,0.6,1.6,1.6,2,1.2c0.5-0.3,0.7-2,0.6-4.1c-0.1-2-0.6-4.5-1.2-6c-0.5-1.5-1.1-2-1.4-2.9
		c-0.3-0.8-0.5-1.9-1.2-2.7c-0.7-0.8-2.1-1.3-2.5-2.2c-0.5-0.9,0-2.1,0.5-2.8c0.5-0.7,1-0.9,1.2-2c0.2-1.1-0.1-3.1-0.7-4.7
		c-0.6-1.6-1.5-2.7-1.7-4c-0.2-1.3,0.5-2.9,0.1-4.2c-0.3-1.2-1.5-2.2-2.7-3.3c-1.1-1.2-2.2-2.5-2.9-4.2c-0.6-1.7-0.9-3.7-0.2-5.5
		c0.6-1.8,2.1-3.3,2.6-4.7c0.6-1.5,0.3-2.8-0.4-4.3c-0.8-1.5-2-3.1-3.5-4.4c-1.5-1.4-3.2-2.5-4.3-3.6c-1.1-1.1-1.5-2.3-1.7-3.6
		c-0.2-1.3-0.1-2.8-0.6-3.5c-0.6-0.7-1.8-0.7-2.9-1c-1.1-0.3-2.1-0.8-3.2-1.9c-1.1-1-2.3-2.6-3.7-3.5c-1.4-0.9-3.2-1.3-4.8-0.8
		c-1.6,0.5-3.2,1.8-4.6,3c-1.4,1.2-2.7,2.4-3.9,2.9c-1.2,0.5-2.3,0.3-3.4,0.5c-1.1,0.3-2.2,1.1-3.2,1.9c-0.9,0.9-1.7,1.8-2.9,2.5
		c-1.1,0.7-2.6,1-3.6,0.9c-1.1-0.1-1.7-0.7-2.6-0.5c-0.8,0.1-1.9,1-2.7,1c-0.8,0-1.3-0.7-1.3-2c0-1.3,0.5-3.2,1-4.7
		c0.5-1.5,0.9-2.6,0.3-3.2c-0.6-0.6-2.4-0.8-3.8-1c-1.4-0.2-2.6-0.5-3.5-0.7c-1-0.2-1.8-0.2-2.4,0.1c-0.7,0.3-1.2,0.9-1.7,0.9
		c-0.5,0-1.1-0.7-1.7-1.1c-0.7-0.4-1.4-0.6-2-0.8c-0.6-0.3-1-0.6-1-1.4c0-0.8,0.5-2,0.7-3.2c0.3-1.2,0.3-2.3,0.1-3.2
		c-0.3-0.9-0.8-1.7-2.2-2c-1.4-0.3-3.5-0.3-5.2-0.3c-1.6,0-2.8,0-4.1-0.2c-1.3-0.2-2.9-0.6-4.1-1c-1.2-0.4-2-0.9-2.3-0.5
		c-0.3,0.4,0.1,1.6,1.1,2.9c1,1.3,2.7,2.8,3.2,4.4c0.5,1.6-0.1,3.4-0.4,5.3c-0.3,1.8-0.4,3.7-0.3,5.1c0.1,1.5,0.2,2.5,1.2,3
		c0.9,0.5,2.6,0.5,4.3,1.5c1.7,1,3.5,3,5.1,4.9c1.6,1.9,2.9,3.6,3.2,4.7c0.3,1.1-0.5,1.6-1.5,1.6c-1,0-2.2-0.5-3.6-1.7
		c-1.4-1.2-2.9-3-4.8-3.9c-1.9-0.9-4.2-0.8-6-0.7c-1.8,0.1-3,0.3-3.4,1.4c-0.4,1.1,0.1,3.2,0.1,4.6c0.1,1.4-0.3,2.2-0.8,2.8
		c-0.5,0.6-1.2,1.1-2,1.2c-0.8,0.1-1.5-0.2-2.6-0.6C449,459.1,447.7,458.5,446.9,457.5L446.9,457.5z"/>
	<path class="st1" d="M858.6,897c1.6-0.6,3.2-1.3,4.1-2.4c1-1,1.3-2.4,1.9-3.2c0.6-0.7,1.5-0.9,2.7-0.6c1.2,0.3,2.7,0.9,4.3,0.9
		c1.6-0.1,3.3-0.9,4-0.8c0.7,0,0.5,0.9,0.3,1.7c-0.1,0.8-0.1,1.6-0.2,2.5c-0.1,0.9-0.4,1.9-1.1,2.6c-0.7,0.7-1.9,1.1-2.9,2
		c-1,0.9-1.7,2.1-3,3c-1.2,1-3,1.6-5,1.9c-2.1,0.3-4.5,0.2-6.6-0.1c-2.1-0.3-4-1-4.5-2c-0.5-1,0.3-2.4,1.5-3.3
		C855.3,898.1,857,897.6,858.6,897L858.6,897z"/>
	<path class="st1" d="M713.6,893.1c0.7,0.2,1.9,0.6,3,1.1c1.1,0.5,2.1,1.1,3.7,1.5c1.5,0.4,3.6,0.5,5.8,0.7c2.2,0.2,4.7,0.4,6.9,0.6
		c2.3,0.1,4.4,0.3,5.9,0.4c1.5,0.2,2.4,0.4,2.4,0.9c0,0.5-1,1.4-2.8,2.4c-1.8,0.9-4.3,1.9-6.3,2.4c-1.9,0.5-3.2,0.4-3.9-0.2
		c-0.7-0.5-0.7-1.6-1.9-2.1c-1.2-0.5-3.6-0.6-5.8-1c-2.3-0.5-4.4-1.3-6.1-1.8c-1.7-0.6-3-0.9-4.1-1.2c-1.1-0.3-2-0.6-1.7-1.2
		c0.3-0.6,2-1.5,2.9-2C712.6,893.1,712.9,893,713.6,893.1L713.6,893.1z"/>
	<path class="st1" d="M780,872.5c-1-0.6-3,0-3.7,1.1c-0.7,1.1-0.2,2.6,0.8,3.2c1.1,0.6,2.6,0.3,3.3-0.8
		C781.1,874.9,781,873.1,780,872.5L780,872.5z"/>
	<path class="st1" d="M699.3,808.3c0.5,0.4,1.5,1.2,1.9,2c0.4,0.7,0.1,1.2-0.4,1.3c-0.5,0.1-1.4-0.3-2-1c-0.7-0.7-1.1-1.9-1-2.3
		c0.1-0.5,0.7-0.3,0.9-0.2C698.9,808,698.8,807.9,699.3,808.3L699.3,808.3z"/>
	<path class="st1" d="M707.5,814.7c1,0.7,2.3,1.7,3.5,2.6c1.2,0.9,2.2,1.8,2,2.2c-0.2,0.5-1.6,0.7-3,0.2c-1.4-0.5-2.9-1.6-3.7-2.8
		c-0.8-1.2-1.1-2.5-1.2-3.1c-0.1-0.6,0.1-0.6,0.4-0.4C705.8,813.6,706.5,814,707.5,814.7L707.5,814.7z"/>
	<path class="st1" d="M496.5,332.3c-0.6-0.3-0.7-2.8-0.1-3.7c0.5-0.9,1.8-0.2,2.9,0.1c1.2,0.3,2.3,0.1,2.9-2c0.6-2.1,0.7-6.1,0.7-9
		c-0.1-2.9-0.3-4.7-0.1-6.2c0.2-1.4,0.7-2.6,1.4-3.7c0.7-1.2,1.6-2.4,2.5-3.1c0.9-0.7,1.8-0.8,3-1.3c1.2-0.5,2.8-1.3,3.6-2.6
		c0.9-1.2,1-2.9,1.1-4.7c0.2-1.8,0.4-3.7,0.2-5.3c-0.2-1.6-0.7-2.8-1.6-5.1c-0.9-2.3-2.1-5.6-2.1-7.6c0-2,1.2-2.7,2.5-3.1
		c1.3-0.4,2.6-0.5,3.4-2c0.7-1.4,0.8-4.2,0.1-6.3c-0.7-2.1-2.3-3.5-3.7-4.6c-1.4-1.1-2.6-1.9-2.8-4c-0.1-2.1,0.9-5.4,0.8-8.1
		c-0.1-2.6-1.2-4.6-2.2-6.4c-1-1.9-1.9-3.7-2-5.7c-0.1-2.1,0.6-4.5,1-6.7c0.5-2.2,0.7-4.3,0.5-6.1c-0.2-1.8-0.9-3.3,0.3-5.9
		c1.2-2.6,4.4-6.2,6.8-8.6c2.5-2.4,4.3-3.7,6-4c1.8-0.4,3.4,0.2,5.7,0c2.2-0.2,5-1.2,6.5-2.4c1.5-1.2,1.7-2.8,1.1-4.7
		c-0.7-1.9-2.2-4.3-2.7-6.1c-0.5-1.8,0.2-3,1.8-5.3c1.6-2.3,4-5.6,5.5-8.8c1.4-3.2,1.9-6.2,2.1-8.7c0.2-2.5,0.1-4.5-0.1-5.8
		c-0.2-1.4-0.4-2.2,0.5-3.2c1-1,3.1-2.1,5-2.8c1.9-0.8,3.6-1.2,4.5-2.4c0.9-1.2,1-3.1,1.6-5.2c0.6-2.1,1.7-4.3,3.4-6.9
		c1.7-2.6,3.9-5.7,4.9-8c1-2.4,0.8-4,0.4-5.4c-0.4-1.4-1-2.5,0.1-3.9c1-1.4,3.7-3.3,5.5-4.9c1.8-1.7,2.7-3.2,3.5-4.1
		c0.8-0.9,1.4-1.2,2.5-1.2c1-0.1,2.4,0.1,4.5,0.3c2.2,0.3,5.2,0.7,6.9-0.1c1.7-0.8,2-2.9,2.3-5.2c0.3-2.3,0.5-4.8,2.1-5.8
		c1.6-1,4.7-0.4,7.3,0c2.7,0.4,5,0.7,7.4,1.1c2.4,0.4,4.7,1,6.5,0.8c1.8-0.1,3.2-1,4-3c0.8-2,1.2-5.2,2-6.9c0.8-1.6,2.2-1.8,5.9-0.1
		c3.7,1.7,9.8,5.3,14.3,7.5s7.5,3,10.5,4.7c3,1.6,5.9,4.1,7.3,7.1c1.4,3,1.4,6.4,2,8.5c0.5,2,1.5,2.6,2.2,3.3
		c0.7,0.8,1.2,1.7,1.2,2.9c0,1.2-0.4,2.6,0,3.9c0.4,1.4,1.6,2.8,2.7,4.3c1.1,1.5,2,3.2,1.9,4.7c-0.1,1.5-1.2,2.9-1.6,4.9
		c-0.4,2-0.1,4.6,0.9,6.9c0.9,2.3,2.5,4.2,2.9,5.3c0.4,1.1-0.4,1.4-2.1,1.6c-1.7,0.2-4.3,0.3-6.7,0.4c-2.4,0.1-4.7,0.1-6.7,0.2
		c-2,0.1-3.8,0.4-5.1,1.2c-1.3,0.8-2.1,2-2.9,3.3c-0.9,1.2-1.7,2.5-2.8,3.5c-1,1-2.1,1.7-3,2c-0.9,0.3-1.6,0.1-2.2,0.6
		c-0.6,0.5-1.2,1.6-1.2,2.6c0,1,0.6,2-0.2,3.7c-0.7,1.7-2.8,4.2-3.8,6c-1.1,1.8-1.2,2.9-0.4,4.3c0.8,1.5,2.5,3.3,3.6,4.6
		c1.2,1.3,1.8,2.1,1.2,3.2c-0.7,1.1-2.7,2.5-4,3.7c-1.3,1.2-1.8,2.4-2.5,3.7c-0.7,1.3-1.5,2.8-2.9,3.7c-1.4,0.9-3.4,1.2-5.3,1.5
		c-1.8,0.3-3.5,0.8-5.5,1.7c-2,1-4.2,2.5-5.8,3.1c-1.6,0.6-2.5,0.3-3.2,1c-0.7,0.6-1.3,2.2-2.3,3.3c-1,1.1-2.5,1.8-4.1,2.4
		c-1.6,0.6-3.2,1.2-4.4,2.3c-1.1,1.1-1.7,2.8-2.1,3.9c-0.5,1.2-0.8,1.9-1.6,1.7c-0.9-0.1-2.2-1.1-3.5-2.2c-1.3-1-2.5-2.1-2.8-1.6
		c-0.3,0.6,0.2,2.8,0.8,4.8c0.6,2,1.1,3.8,1.1,5.1c-0.1,1.2-0.7,1.9-1.5,2.4c-0.8,0.4-1.7,0.5-2.3,0.6c-0.7,0.1-1.1,0.1-1.5,1
		c-0.4,0.9-0.7,2.7-0.5,4.4c0.3,1.7,1.2,3.2,0.8,4.9c-0.3,1.6-1.9,3.5-3.1,5.2c-1.2,1.7-2.1,3.4-2.1,5.1c0,1.7,0.9,3.5,1.2,6
		c0.3,2.5-0.1,5.7-0.3,8.7c-0.3,3-0.5,5.8,0.1,7.5c0.6,1.7,2.1,2.4,4.2,3.2c2.1,0.8,4.9,1.6,6.8,2.2c1.9,0.5,2.9,0.8,3.9,2
		c1,1.2,2,3.2,3.3,4.9c1.2,1.6,2.7,2.7,4,3.4c1.4,0.7,2.6,1,3.2,2.2c0.6,1.2,0.6,3.5-0.7,4.9c-1.3,1.4-4,2.1-5.9,3
		c-1.9,0.8-2.9,1.8-2.5,3.5c0.3,1.6,2,4,2.5,6c0.4,2-0.3,3.7-1.5,4.7c-1.1,1-2.6,1.2-3.9,0.9c-1.3-0.3-2.4-1.3-3-1
		c-0.6,0.3-0.7,1.8-1.4,3c-0.7,1.2-2.1,2.2-3.4,2.8c-1.3,0.6-2.5,0.9-3.7,1c-1.2,0.1-2.3-0.1-3.9,0.2c-1.6,0.3-3.6,1-4.7,1.7
		c-1.1,0.8-1.2,1.6-0.5,2.7c0.7,1.1,2.1,2.5,3.3,5.2c1.2,2.7,2.1,6.7,1.4,8.7c-0.6,2-2.8,2-3.1,3.2c-0.3,1.2,1.1,3.5,1.6,5.8
		c0.5,2.3,0.1,4.5-0.4,6.9c-0.5,2.4-0.9,4.9-1.4,6.8c-0.4,1.9-0.9,3.3-1.6,4.9c-0.7,1.6-1.7,3.4-2.8,5.5c-1,2.1-2.2,4.4-3.6,5.8
		c-1.4,1.4-3.1,1.8-5.4,2c-2.4,0.2-5.4,0.2-8,1c-2.6,0.8-4.9,2.3-6.8,4.1c-2,1.8-3.7,3.9-4.4,6c-0.8,2.1-0.7,4.2-0.1,5.7
		c0.6,1.5,1.6,2.5,0.3,3c-1.2,0.5-4.7,0.5-8.3,0.5c-3.5,0-7.1,0-9-0.4c-1.9-0.4-2.1-1.2-1.6-2.4c0.5-1.2,1.7-2.7,1.7-4.7
		c-0.1-2-1.4-4.5-2.3-6.2c-0.9-1.6-1.3-2.5-0.8-3.3c0.5-0.8,2-1.7,2.5-2.8c0.5-1.2,0.2-2.7,0.3-4.3c0.1-1.6,0.7-3.3,0.1-5.1
		c-0.5-1.9-2.2-3.9-5.5-8.7c-3.3-4.8-8.1-12.3-10.5-17.1c-2.5-4.9-2.6-7.1-2.1-9.4c0.5-2.4,1.5-4.9,0.8-7.5
		c-0.7-2.7-3.1-5.6-4.8-6.1C498.3,330.6,497.2,332.6,496.5,332.3L496.5,332.3z"/>
	<path class="st1" d="M625.5,94.2c1.3,1.8,4.5,4.1,8.2,6.2c3.7,2,8,3.7,11.1,4.8c3.2,1.1,5.3,1.8,7.7,3.1c2.4,1.3,5.1,3.3,6.6,5.1
		c1.4,1.8,1.7,3.4,1.7,5c0,1.6-0.1,3.3,0.4,5c0.6,1.6,1.8,3.3,2.7,4.7c0.8,1.4,1.1,2.6,1,4.2c-0.1,1.6-0.7,3.6-0.2,5.4
		c0.5,1.9,2,3.6,2.6,5.2c0.7,1.6,0.4,3.1,0,4.7c-0.4,1.5-0.9,3-0.5,4.7c0.4,1.7,1.8,3.6,3,5.5c1.2,2,2.3,4.1,3.3,5.4
		c1,1.3,1.9,1.9,2.8,1.6c0.9-0.3,1.9-1.3,2.6-0.9c0.8,0.4,1.3,2.3,2.6,3.6c1.3,1.3,3.4,2.1,4.9,3.3c1.5,1.2,2.5,2.8,2.6,4
		c0.1,1.2-0.5,2.2-0.2,3.6c0.3,1.5,1.7,3.5,2.1,5c0.4,1.6-0.1,2.7-0.8,3.3c-0.7,0.7-1.6,0.9-3.2,1.1c-1.6,0.2-4,0.5-6.2,2.4
		c-2.3,1.9-4.5,5.4-7.3,9.4c-2.9,4-6.4,8.4-8.8,10.8c-2.4,2.4-3.7,2.8-4.8,3.3c-1.1,0.5-2,0.9-2.6,1.7c-0.6,0.8-0.8,1.8-1.4,2
		c-0.7,0.3-1.7-0.3-2.6,0.5c-0.8,0.8-1.5,3-2.2,4.4c-0.7,1.4-1.5,2.2-2.6,2.8c-1.2,0.5-2.7,0.8-3.9,1.4c-1.2,0.6-2.2,1.6-2.5,2.5
		c-0.3,0.9-0.1,1.8-0.6,2.4c-0.5,0.6-1.8,1-2.8,2.3c-0.9,1.4-1.6,3.7-1.2,5.8c0.3,2,1.5,3.8,2.4,5c0.8,1.2,1.2,2,1.1,3.5
		c-0.1,1.4-0.7,3.6-0.5,5.2c0.2,1.6,1.2,2.6,2.3,4.3c1.1,1.6,2.3,3.9,2.4,5.3c0.1,1.5-0.8,2.2-1.4,3.2c-0.5,1-0.7,2.1-0.5,3
		c0.2,0.9,0.6,1.5,0.3,2.7c-0.3,1.2-1.4,2.9-1.7,4.5c-0.3,1.6,0.4,3.1,1.5,4.5c1.2,1.3,2.8,2.5,4.7,3.8c1.8,1.3,3.9,2.8,6,3.5
		c2.2,0.7,4.4,0.6,5.9,0.6c1.5-0.1,2.3-0.1,2.9,0.5c0.5,0.7,0.9,2.2,1.8,2.5c0.9,0.3,2.4-0.5,3-0.1c0.7,0.4,0.6,2.1,1.3,3.7
		c0.7,1.6,2.3,3,4.1,3.7c1.8,0.7,3.7,0.6,5.5,0.1c1.7-0.5,3.2-1.4,5-1.6c1.8-0.3,3.9,0.2,5.3-0.3c1.4-0.5,2.2-2,3.3-2.9
		c1-0.9,2.4-1.1,4.1-1.4c1.7-0.3,3.7-0.5,4.9-1.2c1.2-0.6,1.7-1.6,2.7-2.4c1-0.8,2.6-1.3,4.1-1.3c1.5,0,2.9,0.7,4.4,0.6
		c1.5-0.1,3.2-0.8,5.2-1.9c2.1-1,4.5-2.4,6.5-2.8c2-0.3,3.6,0.5,5.5,0.8c1.9,0.4,4,0.4,6.5-1.7c2.6-2.1,5.5-6.3,10.6-12.1
		c5.1-5.8,12.3-13.3,17.3-18.4c5-5.1,7.7-8,9.8-10.9c2.1-2.9,3.7-5.9,3.5-8.8c-0.1-2.9-2-5.6-5.8-8.3c-3.9-2.6-9.7-5.1-13.1-7.3
		c-3.5-2.1-4.5-3.9-3.9-5.6c0.7-1.6,3.1-3.1,4.6-4.7c1.5-1.6,2-3.4,0.8-5c-1.2-1.6-4.2-3-5.7-4.6c-1.5-1.6-1.5-3.4-2.2-4.5
		c-0.7-1.2-2.2-1.6-3.3-2.7c-1.2-1-2.1-2.6-2.3-4.4c-0.2-1.8,0.3-3.7,0.5-5.1c0.1-1.3-0.1-2.1-0.4-3.3c-0.3-1.2-0.7-2.8-0.6-4
		c0.1-1.2,0.7-2,1-3c0.3-1,0.4-2.1,1-3c0.5-0.9,1.5-1.7,1.5-2.8c0-1.1-1-2.6-3.9-6.6c-2.9-4.1-7.5-10.8-9.6-15.2
		c-2-4.4-1.2-6.5,0.6-9.1c1.8-2.6,4.7-5.7,5.8-7.7c1-2,0.1-2.8-1.8-4.5c-1.9-1.6-4.7-4.1-7-5.7c-2.3-1.6-4.1-2.3-6-3.4
		c-1.9-1.1-3.9-2.5-5-4.3c-1-1.7-1.2-3.7-0.6-5.6c0.6-1.9,1.9-3.7,1.8-4.7c-0.1-1-1.6-1.2-2.4-1.7c-0.7-0.5-0.7-1.3-0.1-1.9
		c0.6-0.5,1.6-0.7,2.3-1.2c0.7-0.5,1-1.3,1.2-2.5c0.3-1.1,0.7-2.6,1.2-3.5c0.6-0.9,1.3-1.4,1.9-2.4c0.5-1,0.8-2.7,0.4-3.8
		c-0.4-1.1-1.5-1.6-3.1-2.3c-1.6-0.7-3.6-1.4-6.2-2.9c-2.6-1.4-5.7-3.6-8.1-4.1c-2.4-0.6-4,0.5-6.5,1.4c-2.5,1-5.8,1.9-8.1,2.6
		c-2.4,0.7-3.8,1.2-4.7,2.2c-0.8,1-1,2.4-1.4,3.5c-0.5,1.1-1.3,1.8-1.8,2.7c-0.5,0.9-0.6,2.1-0.7,3.5c0,1.4,0.1,3,0,4.7
		c-0.1,1.8-0.3,3.7-0.9,4.7c-0.6,1-1.5,1-2.5,1.1c-0.9,0.1-1.9,0.3-2.9,1.2c-0.9,0.9-1.9,2.6-2.8,3.8c-1,1.2-1.9,1.9-2.9,2
		c-1,0.1-2.2-0.4-3.6-1c-1.5-0.7-3.3-1.5-4.9-2.3c-1.6-0.8-3.1-1.6-4.4-1.6c-1.3-0.1-2.4,0.5-3.9,1.2c-1.4,0.6-3.1,1.2-5.3,1.4
		s-4.7-0.1-7.4-0.9c-2.7-0.8-5.5-2-8.5-4.3c-3-2.3-6.1-5.7-8.2-7.2c-2.1-1.5-3.1-1-3.8-0.1C624.6,91.1,624.2,92.4,625.5,94.2
		L625.5,94.2z"/>
	<path class="st1" d="M487.4,220.9c-1,0.3-2.7,0.3-3.8,0.2c-1.1-0.1-1.5-0.4-2.1-0.2c-0.6,0.2-1.3,0.8-2,1.4
		c-0.7,0.6-1.4,1.2-2.5,1.5c-1.1,0.3-2.8,0.1-3.9-0.2c-1.1-0.3-1.7-0.7-1.5-1.6c0.2-0.9,1.2-2.2,0.9-2.9c-0.2-0.7-1.8-0.8-2.9-0.6
		c-1.1,0.2-1.8,0.7-2.4,1.6c-0.5,0.9-0.9,2.2-1.6,2.8c-0.7,0.6-1.8,0.4-2.4,0.8c-0.7,0.3-0.9,1.2-1.5,1.7c-0.5,0.5-1.3,0.8-2.4,0.8
		c-1,0-2.3-0.3-2.8,0.5c-0.5,0.9-0.2,2.8-0.1,4.3c0.1,1.5,0.1,2.6-0.3,3.4c-0.4,0.8-1.2,1.3-1.8,1.9c-0.5,0.6-0.9,1.4-1.6,1.4
		c-0.7,0.1-1.7-0.5-2.9-0.5c-1.2,0.1-2.6,0.8-3.7,1.3c-1.1,0.5-2,0.7-2.4,1.2c-0.4,0.5-0.4,1.4-1,1.8c-0.6,0.4-1.8,0.5-2.8,0.5
		c-1-0.1-1.9-0.2-2.5-0.6c-0.6-0.5-0.8-1.2-1.8-1.6c-1.1-0.3-3-0.3-4.3-0.6c-1.3-0.3-2-0.9-1.7-0.5c0.3,0.4,1.4,1.8,2.2,2.8
		c0.8,1,1.1,1.6,1.8,2.1c0.6,0.5,1.6,0.7,2.4,0.9c0.9,0.2,1.6,0.3,1.8,1.1c0.2,0.7-0.1,2-0.8,3.4c-0.6,1.4-1.5,2.8-2.5,3.3
		c-1,0.6-2,0.4-3-0.1c-1-0.5-1.9-1.4-2.2-2.5c-0.3-1.2,0.1-2.6-0.1-3.7c-0.1-1.1-0.7-2-1.3-1.4c-0.5,0.5-1,2.5-1.6,3.2
		c-0.7,0.7-1.5,0.1-2.5-0.3c-1-0.5-2.2-0.9-2.3-0.4c-0.1,0.5,0.8,2,1.1,2.8c0.4,0.8,0.2,0.8-0.8,1c-1,0.2-2.9,0.5-4,0.9
		c-1.1,0.5-1.4,1.1,0.2,1.4c1.6,0.3,5.2,0.4,7.6,0.7c2.4,0.3,3.5,0.7,4,1.5c0.4,0.9,0.1,2.2-1.3,2.7c-1.4,0.5-3.9,0.1-5.6,0.5
		c-1.6,0.4-2.3,1.6-3.9,1.4c-1.7-0.2-4.4-1.8-6.5-2.3c-2.2-0.5-3.8,0.1-3.8,1c0,0.8,1.5,1.9,3.1,2.9c1.6,1,3.2,2,3.7,2.7
		c0.4,0.7-0.3,1.2-1.2,2c-0.9,0.9-2.1,2-3,3c-0.9,1-1.4,1.8-1.6,2.4c-0.1,0.5,0.1,0.7,1.4,0.3c1.2-0.4,3.4-1.6,4.9-1.8
		c1.6-0.3,2.4,0.3,3.5,0.5c1,0.3,2.1,0.2,3.2-0.7c1.1-0.8,2.1-2.4,3.4-3c1.3-0.6,2.9-0.1,3.6,0.8c0.8,0.9,0.7,2.1,0.9,2.6
		c0.2,0.5,0.7,0.3,1.3-0.1c0.7-0.4,1.5-1,2.4-1.4c0.9-0.3,1.9-0.3,2.7-1.2c0.9-0.9,1.6-2.6,2.9-3.3c1.2-0.7,2.8-0.3,3.2,0.4
		c0.4,0.7-0.5,1.8-0.9,2.7c-0.5,0.9-0.6,1.5-0.4,2c0.2,0.5,0.7,1,0,1.9c-0.7,0.8-2.6,2-3.8,2.9c-1.2,0.9-1.7,1.4-1.8,2.4
		c-0.1,0.9,0.1,2.2-0.6,2.8c-0.8,0.6-2.6,0.5-3.8-0.6c-1.2-1-1.6-2.9-2.3-3.7c-0.7-0.8-1.6-0.6-3.1-0.3c-1.5,0.3-3.7,0.6-6.7,0.9
		c-3,0.3-6.9,0.4-9.2,0.7c-2.3,0.3-2.9,0.7-2.2,1.5c0.8,0.7,3,1.9,4.7,3c1.7,1.2,2.8,2.4,2.9,3.7c0.1,1.3-0.8,2.7-1.5,4.2
		c-0.7,1.5-1.2,3.2-1.2,4.1c0,1,0.5,1.2,1.7,0.4c1.2-0.8,3.1-2.8,4.5-4c1.4-1.2,2.3-1.7,3.4-1.7c1.2,0,2.6,0.5,3.8,0.2
		c1.2-0.2,2.3-1.2,3.7-1.6c1.4-0.4,3.1-0.2,3.7,0.7c0.7,0.9,0.3,2.5-0.6,3.4c-0.9,0.9-2.3,1.1-3.5,2c-1.2,0.9-2.2,2.5-2.9,3.6
		c-0.7,1.2-1.2,1.8-1.5,1.5c-0.3-0.3-0.5-1.6-1.2-2.2c-0.7-0.6-1.7-0.6-1.7,0c0,0.5,1,1.6,1.3,2.4c0.3,0.8-0.3,1.4-1.3,1.6
		c-1,0.3-2.5,0.3-3.7,1.1c-1.2,0.9-2.1,2.5-1.7,3.1c0.4,0.6,2,0.2,2.9,0.8c0.9,0.6,1,2.1,1.9,3.1c0.9,1,2.7,1.4,2.8,2.1
		c0.1,0.7-1.2,1.8-2.1,2.4c-0.8,0.7-1,0.9-0.1,1.5c0.9,0.6,3.1,1.5,3.6,2.3c0.5,0.7-0.6,1.4-2.2,1.8c-1.5,0.4-3.5,0.6-3.8,1.4
		c-0.3,0.8,1,2.1,2.3,3.1c1.2,1,2.4,1.7,2.3,2.4c0,0.7-1.2,1.3-1.9,1.8c-0.7,0.5-0.8,0.8-0.9,1.2c-0.1,0.4,0,0.8-0.7,0.6
		c-0.7-0.2-2.2-0.9-3.9-1.3c-1.7-0.4-3.5-0.5-4.2,0.4c-0.7,0.9-0.3,2.7,1.4,5c1.7,2.3,4.7,5.2,7.4,6.7c2.7,1.6,5.1,1.8,6.7,1.9
		c1.6,0.1,2.4-0.1,2.7,0.5c0.3,0.6,0.1,1.9,0.6,2.8c0.6,0.9,1.9,1.3,3.5,1.4c1.6,0.1,3.4-0.1,5.1-0.3c1.7-0.2,3.2-0.3,5.8-1.7
		c2.7-1.3,6.5-3.9,9.4-6.7c2.9-2.8,5-5.8,6.4-7.7c1.4-2,2.2-2.8,3.4-3.6c1.2-0.8,2.8-1.4,3.4-1.9c0.6-0.5,0.2-0.9,0.4-1.9
		c0.2-0.9,0.9-2.4,1.8-2.7c0.9-0.3,1.9,0.6,3.2,1.1c1.3,0.5,2.8,0.7,3.6,0c0.7-0.6,0.6-2,1-3c0.4-1,1.3-1.5,1.2-2.7
		c-0.1-1.1-1-2.9-1.2-4.1c-0.2-1.2,0.4-1.9,1.4-2.9c1-1,2.2-2.2,3.2-3.6c0.9-1.4,1.6-3,2.4-3.5c0.8-0.5,1.7,0,2.3,1.4
		c0.6,1.3,0.8,3.4,1,5.6c0.2,2.2,0.3,4.7,1.4,6.5c1.1,1.8,3.3,3.1,5.2,4.5c1.8,1.5,3.4,3.1,4.1,2.5c0.8-0.6,0.9-3.4,0.6-5.7
		c-0.2-2.2-0.7-3.9-0.7-5.1c0.1-1.2,0.7-1.9,1.1-3c0.5-1.2,0.7-2.8,1.4-4.1c0.7-1.4,1.9-2.5,3.3-3.2c1.3-0.8,2.9-1.2,3.9-2
		c1-0.9,1.6-2.2,1.8-4.1c0.2-2,0-4.5-0.4-6.7c-0.5-2.2-1.3-4-1.7-6.1c-0.4-2.1-0.4-4.5,0.1-6c0.5-1.5,1.6-2,2.8-2.9
		c1.2-0.9,2.6-2,2.6-3.3c0-1.3-1.4-2.8-3.1-4.3c-1.7-1.5-3.9-3-4.6-4.9c-0.7-1.9-0.1-4.2,0-6.5c0.1-2.3-0.2-4.6-0.8-7.4
		c-0.7-2.8-1.6-6-1.6-8.7c0.1-2.7,1.1-4.7,1.5-6.6c0.3-1.8-0.1-3.4-0.3-5.9c-0.3-2.5-0.4-5.9,0.8-9.1c1.2-3.3,3.6-6.4,5.5-8.5
		c1.9-2.2,3.4-3.3,5.6-3.9c2.2-0.5,5.2-0.4,7.8-0.4c2.6,0,4.6-0.1,5.7-1c1-0.9,1.1-2.4,0.1-4c-1-1.5-3.1-3-3.6-4.6
		c-0.5-1.6,0.6-3.3,2.1-6.6c1.6-3.2,3.6-7.9,4.9-10c1.3-2.1,2-1.6,2.4-2.1c0.3-0.5,0.3-2.1,0.4-4.5c0-2.5,0.1-5.8,0.7-8.3
		c0.5-2.4,1.6-3.9,3.4-5.1c1.8-1.2,4.4-2.3,5.9-3.2c1.5-0.9,2-1.6,2.3-2.7c0.3-1.1,0.6-2.5,2.3-5.3c1.7-2.8,4.9-7.2,6.2-10.2
		c1.2-3.1,0.5-5.1,0-6c-0.5-1-0.8-1-1.7,0.3c-0.9,1.3-2.4,3.9-3.3,5.3c-0.9,1.4-1.2,1.8-1.8,2c-0.5,0.2-1.2,0.3-2.1,0.1
		c-0.9-0.2-2-0.7-3.1-0.9c-1.1-0.2-2.2-0.2-3.2-0.7c-1-0.5-1.8-1.4-2.5-1.2c-0.7,0.1-1.2,1.2-1.4,2.2c-0.3,1-0.3,1.8-1.1,2.3
		c-0.9,0.5-2.7,0.6-4.5,0.8c-1.8,0.2-3.6,0.4-4.4,0.8c-0.8,0.4-0.6,1-0.2,1.7c0.4,0.6,0.8,1.2,0.8,1.7c-0.1,0.5-0.7,0.8-0.9,1.4
		c-0.2,0.6,0.2,1.5,0.2,2.4c0,0.9-0.3,1.6-1.2,2c-0.8,0.5-2.1,0.6-3.1,1.1c-1,0.5-1.7,1.3-1.1,1.9c0.6,0.6,2.4,0.8,4.3,0.9
		c1.9,0.1,3.9-0.1,4.5,0.4c0.6,0.5-0.2,1.6-1.6,2.6c-1.4,1-3.5,2-4.9,2.4c-1.4,0.4-2,0.2-3.2-0.1c-1.1-0.2-2.7-0.4-3.4,0.1
		c-0.7,0.4-0.5,1.6,0,2.8c0.5,1.3,1.3,2.7,1.2,3.3c-0.1,0.6-1.2,0.4-2.5,0.3c-1.3-0.2-2.9-0.3-3.7,0.1c-0.7,0.4-0.6,1.5-0.3,2.2
		c0.3,0.7,0.8,1.1,0.6,1.4c-0.1,0.3-0.9,0.7-1.1,1.4c-0.2,0.7,0.1,1.6,0.5,2.1c0.5,0.5,1.1,0.5,0.7,1c-0.3,0.5-1.6,1.4-2.6,2.1
		c-0.9,0.6-1.5,0.9-1.2,1.2c0.2,0.3,1.3,0.8,2.5,1.2c1.2,0.4,2.6,0.8,2.9,1.6c0.4,0.8-0.3,1.9-1.2,2.3c-1,0.4-2.4,0.1-3.1,1.4
		c-0.7,1.2-0.8,4-1.3,5.1c-0.5,1.1-1.5,0.5-2.6-0.1c-1.2-0.6-2.5-1.1-3.8-0.6c-1.3,0.4-2.6,1.7-3.9,2.7c-1.3,0.9-2.6,1.5-2.5,2.1
		c0.1,0.6,1.6,1.3,2.1,2.3c0.5,1,0.1,2.2-0.7,3c-0.9,0.8-2.1,1.2-3.4,1.1c-1.2-0.1-2.5-0.7-3.1-1.2c-0.7-0.5-0.8-0.9-2.8,0.6
		c-2,1.5-5.8,4.9-8.3,7.4c-2.5,2.6-3.7,4.3-4,5.4c-0.3,1.1,0.3,1.5-0.1,2.2c-0.4,0.7-1.7,1.6-1.7,1.8c0,0.3,1.3-0.1,2.9-0.7
		c1.6-0.7,3.3-1.6,4.7-2.7c1.3-1.1,2.2-2.2,3.1-2.8c0.9-0.6,1.9-0.6,2.8-0.9c0.9-0.3,1.7-1.1,2-1.7c0.3-0.7,0.2-1.3,1.6-1.6
		c1.4-0.3,4.4-0.4,5.8,0.1c1.4,0.5,1.1,1.5,0.5,2.3c-0.7,0.7-1.8,1.1-2.6,1.4c-0.8,0.3-1.2,0.3-1.3,0.9c-0.1,0.6,0.2,1.7,0.4,2.8
		c0.2,1,0.2,2-0.5,2.5c-0.7,0.5-2.1,0.5-3.1,0.6c-1.1,0.1-1.8,0.4-2.3,1.2c-0.5,0.9-0.7,2.2-0.9,3.2
		C488.6,220,488.4,220.6,487.4,220.9L487.4,220.9z"/>
	<path class="st1" d="M555.5,130.8c0-1.8,0.3-3.8,0.4-5.3c0.1-1.5,0-2.6-0.3-3.4c-0.3-0.9-0.8-1.5-0.3-2.2c0.5-0.8,1.9-1.7,3.1-1.6
		c1.1,0,2,1,2.8,1.4c0.9,0.4,1.8,0.3,2.8-0.9c1-1.2,2.1-3.4,2.7-4.8c0.6-1.5,0.7-2.2,0.5-3.2c-0.1-1-0.5-2.4,0.4-2.7
		c0.9-0.3,2.9,0.6,4.5,1.1c1.6,0.5,2.6,0.6,3.7,0.7c1,0.1,2.1,0.1,3.1-0.1c1-0.2,1.9-0.5,2.2-1.2c0.3-0.7,0.1-1.7-0.5-2.7
		c-0.6-0.9-1.6-1.8-2-2.8c-0.5-1-0.5-2.3-0.1-3.2c0.3-0.9,1-1.5,1.2-2.4c0.3-0.9,0.1-2.2,0-3.1c-0.1-0.9,0-1.4,0.7-1.8
		c0.7-0.4,2-0.5,2.9-1c1-0.5,1.6-1.4,1.7-2.6c0.1-1.2-0.5-2.7-0.1-3.2c0.4-0.5,1.6,0.1,2.3,1c0.7,1,0.7,2.4,1.2,3
		c0.5,0.6,1.6,0.5,2.6-0.1c1-0.6,2.1-1.6,3-1.7c0.9-0.1,1.7,0.8,2.7,1c0.9,0.2,2.1-0.4,2.9-0.3c0.9,0.1,1.4,0.7,1.8,0.5
		c0.3-0.3,0.4-1.5,0.1-2.8c-0.3-1.3-1.1-2.6-1.6-4.1c-0.5-1.5-0.6-3.1,0-3.9s1.9-0.5,2.6,0.3c0.7,0.7,0.8,2.1,0.7,3
		c-0.1,0.9-0.4,1.5-0.4,2.1c0,0.6,0.3,1.3,0.7,1.7c0.4,0.4,1,0.6,1.5,0.2c0.5-0.4,0.7-1.3,1.6-1.9c0.9-0.6,2.4-1,3-1.9
		c0.6-1,0.2-2.6,0.5-2.8c0.4-0.3,1.5,0.9,1.8,1.9c0.3,1-0.2,1.9-1.2,2.8c-0.9,0.9-2.4,1.7-2.8,2.7c-0.5,1,0.1,2.1,1.1,2.1
		c1.1,0,2.8-1,3.8-2.1c1-1.1,1.4-2.3,2.2-2.7c0.9-0.4,2.4,0.1,3.3-0.1c1-0.1,1.4-0.8,1.1-2c-0.3-1.1-1.5-2.6-1.5-3.4s1.1-0.8,2.4-1
		c1.2-0.2,2.6-0.6,3.5-1.5c0.9-0.9,1.5-2.2,2.5-2.4c1-0.2,2.4,0.7,4.2,1.7c1.8,1,4,2.2,5.1,2.2c1.2,0,1.3-1.3,0.7-3
		c-0.6-1.6-1.8-3.7-2.1-5c-0.3-1.3,0.3-1.8,1.2-1.5c0.9,0.3,2.2,1.3,3.9,2c1.7,0.7,3.8,1.1,5.5,1.8c1.7,0.6,3,1.4,4.3,2.1
		c1.4,0.6,2.8,1.1,3.9,0.7c1.2-0.3,2.1-1.4,2-2.2c-0.1-0.9-1.3-1.6-1.6-2.7c-0.2-1.1,0.4-2.6,2.2-3.9c1.7-1.2,4.5-2.1,6.1-2.6
		c1.6-0.5,2.2-0.5,2.5-0.9c0.3-0.4,0.4-1.2,0.5-2c0.1-0.7,0.3-1.4,1.1-1.7c0.8-0.3,2-0.3,2.7-0.9c0.7-0.6,0.7-1.7,0.8-2.5
		c0.1-0.9,0.1-1.4,0.6-1.6c0.5-0.2,1.4,0,2.3,0.4c1,0.4,2,0.9,3.5,0.6c1.5-0.4,3.4-1.7,4.6-2.5c1.1-0.8,1.5-1.2,1-0.3
		c-0.5,0.9-1.8,3-3.3,4.3c-1.6,1.3-3.3,1.9-4.3,2.5c-1,0.7-1.2,1.4-1.3,2.3c-0.1,0.9,0.1,1.9,0.1,3.1c0.1,1.2,0.1,2.5,0.5,3.6
		c0.3,1.1,0.9,2,2,2.4c1,0.3,2.5,0.1,3.7-1.2c1.2-1.4,2.2-3.9,4.5-6.8c2.3-2.9,6-6,8.1-7.4c2.1-1.4,2.5-1.2,2.1-0.3
		c-0.5,0.9-1.8,2.3-2,3.4c-0.2,1.1,0.7,1.9,0.7,2.7c0,0.9-1,1.8-0.8,2.7c0.2,0.8,1.5,1.5,2.5,1.6c1,0,1.6-0.6,2-1
		c0.4-0.4,0.5-0.6,1-0.7c0.5-0.1,1.5-0.1,2.3-0.2c0.9-0.1,1.6-0.2,2.4-1.5c0.9-1.3,1.8-3.7,2.5-5.7c0.7-2,1.2-3.6,2.7-4.2
		c1.4-0.6,3.8-0.2,5.3,0.1c1.5,0.3,2.2,0.4,1.7,0.7c-0.5,0.3-2.1,0.7-3.2,1.2c-1.1,0.5-1.6,1.1-2.2,2.1c-0.5,0.9-0.9,2.2-1.3,3.5
		c-0.4,1.3-0.7,2.6-0.3,3.5c0.4,0.9,1.4,1.4,2.7,1.6c1.2,0.2,2.7,0,3.6,0.5c0.9,0.5,1.3,1.6,1.8,2.1c0.5,0.5,1,0.3,1.5-0.3
		c0.6-0.7,1.2-1.8,1.8-2.5c0.6-0.6,1.2-0.7,1.6-1.6c0.5-1,1-2.8,1.2-4.1c0.2-1.2,0.1-1.9,0.9-2.1c0.8-0.2,2.3,0,3.5,0.1
		c1.1,0.1,1.8,0.2,2,1c0.2,0.8,0,2.2,0.3,3.1c0.3,0.9,1,1.2,2.6,0.9c1.6-0.3,4-1.2,6.1-1.2c2.1,0,4,0.9,5.6,1.7
		c1.6,0.8,3.1,1.6,3.9,2.2c0.9,0.6,1,1.1,0.7,1.7c-0.4,0.6-1.4,1.4-2.8,2.2c-1.4,0.8-3.3,1.7-5.8,2.2c-2.5,0.5-5.8,0.5-8.5,0.3
		c-2.7-0.1-4.8-0.4-6.4-0.2c-1.6,0.2-2.8,0.9-2.3,1.3c0.4,0.4,2.4,0.5,4.1,0.8c1.7,0.3,3.2,0.9,4.2,1.8c1.1,1,1.8,2.4,2.7,3
		c0.9,0.6,2.1,0.5,2.7,0.9c0.6,0.5,0.7,1.5,1.1,2c0.5,0.5,1.4,0.5,2.4,0.6c1.1,0.1,2.3,0.2,2.7,1.1c0.4,0.9,0,2.4-0.8,3.3
		c-0.9,0.9-2.3,1-3.3,1.2c-1,0.2-1.6,0.6-2.3,0.5c-0.7,0-1.3-0.4-1.9-1.6c-0.6-1.2-1.1-3.2-2.2-4.7c-1.1-1.4-2.7-2.4-4.8-3.5
		c-2.1-1.2-4.6-2.6-6.9-3.9c-2.4-1.2-4.5-2.2-6.6-2.6c-2.1-0.4-4-0.3-6-0.1c-1.9,0.3-3.7,0.6-5.7,0.9c-1.9,0.3-3.9,0.5-5.8,1.3
		c-1.9,0.8-3.6,2.2-4.6,3.4c-1,1.2-1.2,2.2-1.9,3c-0.7,0.8-1.8,1.2-2.5,2.4c-0.8,1.1-1.2,2.8-1.3,4.3c-0.2,1.4-0.1,2.6-0.3,4
		c-0.2,1.3-0.6,2.9-1.4,3.9c-0.8,1-1.8,1.5-2.6,2.2c-0.8,0.7-1.4,1.5-1.9,2.3c-0.5,0.8-1,1.6-1.7,2c-0.8,0.3-1.9,0.2-3.1-0.1
		c-1.2-0.2-2.4-0.6-3.9-1.1c-1.5-0.5-3.3-1.2-5.1-1.4c-1.8-0.2-3.5,0.2-5.1,0.6c-1.6,0.5-3.1,1-4.9,1.3c-1.7,0.3-3.7,0.3-5.9-0.4
		c-2.2-0.7-4.8-2-7.4-3.8c-2.7-1.8-5.4-4.2-7.9-6c-2.4-1.8-4.5-3.1-6.2-3.3c-1.7-0.1-3,0.9-4.8,1.7c-1.8,0.8-4,1.4-5.9,2
		c-1.9,0.6-3.5,1.1-4.3,1.8c-0.8,0.7-0.7,1.5-0.4,2.6c0.3,1,0.7,2.3,0.5,3.7c-0.1,1.4-0.8,2.9-2,4c-1.2,1.1-2.9,1.7-5.6,1.8
		c-2.7,0.1-6.3-0.4-9.7-0.6c-3.4-0.2-6.6-0.1-8.4,1c-1.8,1.1-2.1,3.3-2.5,5.1c-0.4,1.9-0.8,3.5-2.3,4.3c-1.4,0.8-3.9,0.9-5.7,1
		c-1.8,0.1-3,0.1-4.7,1.3c-1.6,1.1-3.8,3.4-5.5,5c-1.7,1.6-3.1,2.7-4.2,4c-1.2,1.4-2.2,3.1-2.6,4.5c-0.4,1.3-0.1,2.4-0.5,3.5
		c-0.3,1.1-1.2,2.4-1.8,2.2C555.6,134.2,555.4,132.6,555.5,130.8L555.5,130.8z"/>
	<rect x="955.9" y="0.2" class="st0" width="4.2" height="961.1"/>
</g>
</svg>
