<svg xmlns="http://www.w3.org/2000/svg" viewBox="0 0 294.29 163.23"><defs><style>.cls-1{fill:#1d1d1b;}.cls-2{fill:#c57c3d;}</style></defs><g id="Warstwa_2" data-name="Warstwa 2"><g id="Warstwa_1-2" data-name="Warstwa 1"><path class="cls-1" d="M47.1,20.8c6-.85,8.52,1.73,7.59,7.85L45.13,91.1,37.2,92.22,46.92,28.7,36.25,30.21,26.53,93.73,18.6,94.86l9.72-63.53L17.65,32.85,7.93,96.37,0,97.5,11,25.92Z"/><path class="cls-1" d="M61.51,88.77,53.58,89.9l11-71.57,7.92-1.13Z"/><path class="cls-1" d="M97.89,74.69c-.93,6.12-4.35,9.54-10.38,10.4L79,86.3c-6,.86-8.53-1.73-7.59-7.85l8.16-53.33c.94-6.11,4.36-9.54,10.38-10.39l8.56-1.21c6-.86,8.53,1.73,7.59,7.84l-2.74,17.92-7.93,1.13,2.91-19L87.61,22.93,79.12,78.4,89.8,76.89l2.94-19.21,7.93-1.12Z"/><path class="cls-1" d="M123.83,9.92l-4.71,30.8,10.67-1.52,4.72-30.79,7.92-1.13-11,71.57L123.55,80l5-32.73-10.67,1.51-5,32.73L105,82.61,115.9,11Z"/><path class="cls-1" d="M158.54,75l5-32.73L152.87,43.8l-5,32.73-7.93,1.12,9.56-62.45c.94-6.11,4.36-9.53,10.38-10.39l8.56-1.21c6-.86,8.53,1.73,7.59,7.84l-9.56,62.45Zm-1-62L154.1,35.76l10.67-1.52,3.49-22.75Z"/><path class="cls-1" d="M193.79,0l-4.71,30.8,2-1.33,2.73,5.8-6,4-3.71,24.25,13.21-1.87-1.23,8.05-21.14,3L179.15,45l-2.06,1.34-2.63-5.82,6-4,5.42-35.41Z"/><path class="cls-2" d="M92.43,103c4.24-.6,6.08,1.2,5.44,5.43l-7.63,49.86-4.41.63,7.92-51.81L83,108.65l-7.92,51.81-4.42.62,7.93-51.8L67.86,110.8l-7.92,51.81-4.42.62,8.6-56.2Z"/><path class="cls-2" d="M113.63,155l4.08-26.7-10.65,1.51L103,156.5l-4.41.63,7.63-49.86c.65-4.23,3.13-6.65,7.38-7.25l6.83-1c4.24-.6,6,1.22,5.35,5.44l-7.63,49.87ZM110.9,104.7l-3.17,20.7,10.74-1.52,3.17-20.7Z"/><path class="cls-2" d="M135.05,97l4.41-.63-3.84,25.1,10.65-1.51,3.84-25.1,4.5-.64L151.12,117a8.67,8.67,0,0,1-.78,2.92,7.38,7.38,0,0,1-2,1.94,3.07,3.07,0,0,1,1.5,1.36,7.11,7.11,0,0,1-.11,2.82L146,150.4l-4.5.64,4.09-26.71-10.66,1.51-4.08,26.71-4.41.63Z"/><path class="cls-2" d="M160.66,148.32q-6.24.88-5.27-5.45l6.66-43.52q1-6.34,7.21-7.23l7.08-1q6.24-.89,5.27,5.45L175,140.1q-1,6.33-7.21,7.22Zm-1.16-4.13,10.74-1.52,7.25-47.41-10.73,1.52Z"/><path class="cls-2" d="M188.71,144.35c-4.24.6-6.08-1.21-5.44-5.43l7.63-49.86,4.41-.63-7.92,51.81,10.73-1.53,7.93-51.8,4.41-.63-7.92,51.81,10.73-1.52,7.93-51.81,4.41-.63-8.6,56.2Z"/><path class="cls-2" d="M232.68,119.92l-2.17,14.2,10.65-1.51,2.3-15a12,12,0,0,0,.25-3.18,2.62,2.62,0,0,0-1.64-1L232.91,111a2.81,2.81,0,0,1-2.22-2,15.62,15.62,0,0,1,.18-5.4l2.18-14.28q1-6.33,7.22-7.22l7-1c4.24-.61,6,1.21,5.36,5.44l-1.91,12.42-4.49.64,2.2-14.37-10.66,1.51-2.52,16.48c-.25,1.61-.23,2.6,0,3s1,.85,2.34,1.24l7.72,2.21c1.49.37,2.38,1,2.73,1.85a9.14,9.14,0,0,1,.05,4.46L246,130c-.65,4.23-3.06,6.63-7.3,7.24l-7,1c-4.17.59-5.92-1.23-5.28-5.46l1.88-12.25Z"/><path class="cls-2" d="M261.91,79l4.41-.63-3.84,25.1L273.13,102,277,76.85l4.49-.64L278,99a9,9,0,0,1-.77,2.92,7.31,7.31,0,0,1-2,1.94,3.07,3.07,0,0,1,1.5,1.36,7,7,0,0,1-.1,2.82l-3.73,24.34-4.49.64,4.08-26.7-10.65,1.51-4.09,26.7-4.41.63Z"/><path class="cls-2" d="M285.69,130.6l-4.41.62,8.6-56.2,4.41-.62Z"/></g></g></svg>