<svg xmlns="http://www.w3.org/2000/svg" width="127.485" height="43" viewBox="0 0 127.485 43"><defs><style>.a{fill:#d13239;}.b{fill:#b3b2b1;}</style></defs><g transform="translate(131.9 -174.963)"><path class="a" d="M-15.829,291.521l10.541-.021-.383,2.4L-14.49,302.3h7.4l-.425,2.571H-18.4l.446-2.656,8.437-8.1h-6.737Z" transform="translate(-89.38 -91.772)"/><path class="a" d="M-116.705,268.284a2.8,2.8,0,0,0-.914-.574,7.505,7.505,0,0,0-1.233-.34c-.531-.085-1.041-.127-1.4-.149-.34-.021-.553-.021-.553-.021h-8.033l-3.06,18.531h2.869l1.126-6.864,5.568.021a8.565,8.565,0,0,0,3.7-.723,4.389,4.389,0,0,0,1.955-2.656s.17-.68.319-1.53c.149-.914.319-2.019.383-2.614.043-.255.064-.425.064-.425a2.482,2.482,0,0,0,.042-.489,3.455,3.455,0,0,0-.383-1.615A5.638,5.638,0,0,0-116.705,268.284Zm-2.21,3.273c0,.042-.255,1.53-.6,3.294a1.466,1.466,0,0,1-1.233,1.169,9.319,9.319,0,0,1-2.04.17l-4.654-.021,1.02-6.163,4.208.021h.68a13.37,13.37,0,0,1,1.551.085,1.708,1.708,0,0,1,.871.276,1.079,1.079,0,0,1,.213.616A2.9,2.9,0,0,1-118.916,271.556Z" transform="translate(0 -72.635)"/><path class="a" d="M98.981,267.2h2.763l-3.081,18.531H95.9Z" transform="translate(-179.39 -72.636)"/><path class="a" d="M179.7,291.521l2.656-.021.935,9.414,4.059-9.414h3.273l.956,9.457,4.059-9.457H198.4l-5.844,13.367h-3.251l-.935-9.35-4.123,9.35H181.06Z" transform="translate(-245.382 -91.772)"/><g transform="translate(-95.765 199.558)"><path class="a" d="M48.414,291a12.276,12.276,0,0,0-3.251-.3,11.3,11.3,0,0,0-2.019.149,5.307,5.307,0,0,0-3.06,1.658c-1.105,1.381-1.445,4.378-1.445,4.378a20.84,20.84,0,0,0-.468,4.42,2.955,2.955,0,0,0,1.785,2.614,6.692,6.692,0,0,0,2.316.468,15.787,15.787,0,0,0,3.91-.212,4.745,4.745,0,0,0,2.571-1.573,6.026,6.026,0,0,0,.68-1.126,6.579,6.579,0,0,0,.383-1.084l.17-.723H47.118s-.149,1.891-1.7,2.061a13.88,13.88,0,0,1-2.678.085c-.3-.021-1.955.064-1.828-1.318v-.085a6.3,6.3,0,0,1,.255-1.976l8.989-.021.383-2.231C51.028,293.654,50.709,291.741,48.414,291Zm-.616,4.867H41.635l.234-.978a2.4,2.4,0,0,1,.638-1.084,2.815,2.815,0,0,1,1.488-.425,11.35,11.35,0,0,1,3,.085.976.976,0,0,1,.808.6A4.31,4.31,0,0,1,47.8,295.864Z" transform="translate(-38.136 -290.7)"/><path class="a" d="M51.465,336.5v.064C51.444,336.67,51.465,336.5,51.465,336.5Z" transform="translate(-48.625 -326.767)"/></g><g transform="translate(-78.828 199.558)"><path class="a" d="M131.2,336.593v0Z" transform="translate(-128.36 -326.839)"/><path class="a" d="M128.114,291a12.276,12.276,0,0,0-3.251-.3,11.3,11.3,0,0,0-2.019.149,5.307,5.307,0,0,0-3.06,1.658c-1.105,1.381-1.445,4.378-1.445,4.378a20.841,20.841,0,0,0-.468,4.42,2.955,2.955,0,0,0,1.785,2.614,6.692,6.692,0,0,0,2.316.468,15.787,15.787,0,0,0,3.91-.212,4.885,4.885,0,0,0,2.571-1.573,6.026,6.026,0,0,0,.68-1.126,6.579,6.579,0,0,0,.383-1.084l.17-.723h-2.869s-.149,1.891-1.7,2.061a17.432,17.432,0,0,1-2.678.106c-.3-.021-1.955.064-1.828-1.318v-.085a6.305,6.305,0,0,1,.255-1.976l8.989-.021.383-2.231C130.728,293.675,130.43,291.741,128.114,291Zm-.616,4.867h-6.163l.234-.978a2.4,2.4,0,0,1,.638-1.084,2.815,2.815,0,0,1,1.488-.425,11.35,11.35,0,0,1,3,.085.976.976,0,0,1,.808.6A4.31,4.31,0,0,1,127.5,295.864Z" transform="translate(-117.836 -290.7)"/></g><path class="a" d="M268.031,291.443l1.764,9.776,4.994-9.776,2.805.021-7.2,13.962a14.568,14.568,0,0,1-2.1,3.166,3.645,3.645,0,0,1-1.955,1,4.749,4.749,0,0,1-1.551,0l-.68-.128.425-2.486a3.935,3.935,0,0,0,1.785-.064c.659-.255,1.19-1.4,1.19-1.4l.34-.574L265.226,291.4l2.805.043Z" transform="translate(-311.846 -91.693)"/><path class="b" d="M325.019,272.818h2.89l.17-1.126s.319-2.04,1-2.423a3.444,3.444,0,0,1,1-.319,14.072,14.072,0,0,1,2.508-.127c1.211.042,1.658.064,2.89.191a1.009,1.009,0,0,1,.914,1.318l-.234,1.764a4.332,4.332,0,0,1-.383,1.275,2.506,2.506,0,0,1-1.339.871c-.956.319-4.229,1.148-4.229,1.148l-2.571.744a6.4,6.4,0,0,0-2.465,1.424,5.835,5.835,0,0,0-1.36,2.678c-.128.574-.808,4.59-.808,4.59h13.877l.467-2.763-10.966.021.191-1.126s.127-1.169.6-1.551a2.336,2.336,0,0,1,1.105-.6c.531-.191,2.316-.659,2.316-.659l4.144-1.126a6.5,6.5,0,0,0,3.145-1.828,10.025,10.025,0,0,0,1.233-3.591,15.91,15.91,0,0,0,.064-3.018,3.336,3.336,0,0,0-1.679-1.955c-.829-.361-1.679-.6-4.186-.553a14.4,14.4,0,0,0-4.994.616,4.011,4.011,0,0,0-2.465,2.508,16.753,16.753,0,0,0-.829,3.613Z" transform="translate(-358.229 -71.751)"/><path class="b" d="M408.308,278.946l1.955-11.646h-3.443l-10.732,11.518-.489,2.911h9.372l-.68,4.1h2.89l.68-4.1h2.656l.468-2.784Zm-2.848,0H399.4l7.374-7.863Z" transform="translate(-415.4 -72.714)"/><path class="b" d="M-31.8,246.129h8.84s1.976-1.594,3.379-2.635c1.4-1.02,3.974-2.656,3.974-2.656L-20.6,238.5s-4.229,2.614-6.014,3.846c-1.743,1.148-5.185,3.783-5.185,3.783Z" transform="translate(-78.828 -50.035)"/><path class="b" d="M42.3,206.127l-4.1-2.763a77.515,77.515,0,0,1,8.649-4.08c4.93-1.955,7.565-2.784,7.565-2.784l.829,3.91S50.5,202,47.784,203.279a50.435,50.435,0,0,0-5.483,2.848Z" transform="translate(-133.952 -16.96)"/><path class="b" d="M130.023,183.18l-.723-4s5.058-1.339,9.69-2.21,10.774-1.275,10.774-1.275l-2.04,6.184a44.169,44.169,0,0,0-10.477-.042,58.808,58.808,0,0,0-7.225,1.339Z" transform="translate(-205.692 -0.58)"/><path class="b" d="M231.2,181.835l3.421-6.864a94.682,94.682,0,0,1,13.941.85,97.661,97.661,0,0,1,12.241,2.593l-16.385,8.564a40.65,40.65,0,0,0-8.585-3.91c-2.678-.786-4.633-1.233-4.633-1.233Z" transform="translate(-285.937 0)"/><path class="b" d="M307.3,211.084l3.591,2.741h29.582a5.94,5.94,0,0,0-.85-2.316,14.791,14.791,0,0,0-2.316-2.678,24.162,24.162,0,0,0-2.72-2.061,41.524,41.524,0,0,0-6.779-3.57L307.3,211.084Z" transform="translate(-345.865 -22.236)"/><path class="a" d="M-53.2,291.5a6.544,6.544,0,0,0-3.06.935l.149-.935h-2.933L-61.4,304.8h2.954l1.3-7.374a3.766,3.766,0,0,1,3.57-3.336h1.53l.468-2.593Z" transform="translate(-55.518 -91.771)"/></g></svg>