<svg xmlns="http://www.w3.org/2000/svg" width="17.862" height="21.984" viewBox="0 0 17.862 21.984"><defs><style>.a{fill:#3d3d3d;}</style></defs><g transform="translate(-48)"><path class="a" d="M64.144,2.748H60.366V2.061A2.061,2.061,0,0,0,58.3,0H55.557A2.061,2.061,0,0,0,53.5,2.061v.687H49.717A1.718,1.718,0,0,0,48,4.465V5.839a.687.687,0,0,0,.687.687H65.175a.687.687,0,0,0,.687-.687V4.465A1.718,1.718,0,0,0,64.144,2.748ZM54.87,2.061a.688.688,0,0,1,.687-.687H58.3a.688.688,0,0,1,.687.687v.687H54.87Z"/><path class="a" d="M73.579,184a.215.215,0,0,0-.214.225l.567,11.9a2.058,2.058,0,0,0,2.058,1.963H86.423a2.058,2.058,0,0,0,2.058-1.963l.567-11.9a.215.215,0,0,0-.214-.225Zm10.375,1.717a.687.687,0,0,1,1.374,0v8.931a.687.687,0,0,1-1.374,0Zm-3.435,0a.687.687,0,0,1,1.374,0v8.931a.687.687,0,0,1-1.374,0Zm-3.435,0a.687.687,0,0,1,1.374,0v8.931a.687.687,0,0,1-1.374,0Z" transform="translate(-24.275 -176.1)"/></g></svg>