<svg xmlns="http://www.w3.org/2000/svg" xmlns:xlink="http://www.w3.org/1999/xlink" width="100" height="99" viewBox="0 0 100 99">
  <defs>
    <linearGradient id="linear-gradient" x1="0.116" y1="0.916" x2="1" y2="0.089" gradientUnits="objectBoundingBox">
      <stop offset="0" stop-color="#e8c27b"/>
      <stop offset="1" stop-color="#cf9856"/>
    </linearGradient>
  </defs>
  <g id="Group_195" data-name="Group 195" transform="translate(0)">
    <g id="Ellipse_28" data-name="Ellipse 28" transform="translate(0)" fill="#fff" stroke="#707070" stroke-width="1">
      <ellipse cx="50" cy="49.5" rx="50" ry="49.5" stroke="none"/>
      <ellipse cx="50" cy="49.5" rx="49.5" ry="49" fill="none"/>
    </g>
    <path id="Icon_map-gym" data-name="Icon map-gym" d="M21.574,55a1.251,1.251,0,0,1-.062,1.759l-2.7,2.523a1.241,1.241,0,0,1-1.753-.063L1.349,42.288a1.251,1.251,0,0,1,.063-1.759l2.7-2.519a1.24,1.24,0,0,1,1.753.063ZM41.623,23.141A1.251,1.251,0,0,1,41.56,24.9L24.579,40.762a1.241,1.241,0,0,1-1.753-.063l-4.053-4.374a1.251,1.251,0,0,1,.063-1.759L35.813,18.7a1.238,1.238,0,0,1,1.751.063l4.058,4.374ZM27.352,49.6a1.251,1.251,0,0,1-.063,1.759l-2.7,2.522a1.24,1.24,0,0,1-1.753-.063L7.13,36.887a1.251,1.251,0,0,1,.062-1.759l2.7-2.52a1.241,1.241,0,0,1,1.753.063ZM53.516,23.748a1.251,1.251,0,0,1-.065,1.759l-2.7,2.522A1.242,1.242,0,0,1,49,27.967L33.291,11.037a1.25,1.25,0,0,1,.062-1.759L36.061,6.75a1.238,1.238,0,0,1,1.751.063l15.7,16.935Zm5.769-5.391a1.253,1.253,0,0,1-.063,1.76l-2.7,2.52a1.238,1.238,0,0,1-1.751-.062L39.07,5.638a1.253,1.253,0,0,1,.062-1.76l2.7-2.525a1.236,1.236,0,0,1,1.75.062Z" transform="translate(19.982 18.98)" fill="url(#linear-gradient)"/>
  </g>
</svg>
