<?xml version="1.0"?>
<svg xmlns="http://www.w3.org/2000/svg" xmlns:xlink="http://www.w3.org/1999/xlink" xmlns:svgjs="http://svgjs.com/svgjs" version="1.1" width="512" height="512" x="0" y="0" viewBox="0 0 512 512" style="enable-background:new 0 0 512 512" xml:space="preserve" class=""><g><g xmlns="http://www.w3.org/2000/svg"><ellipse cx="405.331" cy="284.574" rx="9.998" ry="9.998" transform="matrix(.244 -.97 .97 .244 30.48 608.244)" fill="#d9aa66" data-original="#000000"/><path d="m187.269 231.958c-50.642 0-91.841 41.2-91.841 91.841s41.2 91.841 91.841 91.841 91.841-41.2 91.841-91.841-41.199-91.841-91.841-91.841zm0 163.644c-39.592 0-71.802-32.21-71.802-71.802s32.21-71.802 71.802-71.802 71.802 32.21 71.802 71.802-32.21 71.802-71.802 71.802z" fill="#d9aa66" data-original="#000000"/><path d="m501.98 186.239h-177.486c-5.533 0-10.02 4.486-10.02 10.02v20.908h-25.532v-20.908c0-5.534-4.486-10.02-10.02-10.02h-90.961c-54.24 0-101.243 31.559-123.626 77.276-1.299-.083-2.602-.141-3.912-.141-33.317.001-60.423 27.107-60.423 60.425s27.106 60.424 60.424 60.424c1.309 0 2.612-.057 3.911-.141 22.383 45.718 69.386 77.278 123.627 77.278 75.851 0 137.561-61.709 137.561-137.56 0-3.718-.152-7.452-.452-11.172l39.425-8.951c5.396-1.226 8.778-6.593 7.553-11.989-1.225-5.397-6.595-8.778-11.989-7.553l-48.178 10.938c-5.112 1.16-8.465 6.064-7.692 11.248.859 5.764 1.295 11.645 1.295 17.478 0 64.801-52.72 117.521-117.522 117.521s-117.522-52.719-117.522-117.521 52.719-117.521 117.521-117.521h80.941v20.908c0 5.534 4.486 10.02 10.02 10.02h45.571c5.533 0 10.02-4.486 10.02-10.02v-20.908h157.447v47.909l-45.335 10.293c-5.396 1.226-8.778 6.593-7.553 11.989s6.586 8.777 11.989 7.553l53.136-12.064c4.563-1.036 7.801-5.092 7.801-9.771v-65.928c.001-5.534-4.485-10.02-10.019-10.02zm-481.941 137.56c0-20.909 15.972-38.155 36.356-40.183-3.892 12.717-5.993 26.209-5.993 40.184 0 13.974 2.101 27.466 5.992 40.182-20.383-2.029-36.355-19.275-36.355-40.183z" fill="#d9aa66" data-original="#000000"/><path d="m222.45 153.702c2.009 5.4 8.371 8.02 13.607 5.598 4.686-2.168 6.974-7.747 5.176-12.582l-21.478-57.764c-1.93-5.187-7.695-7.826-12.884-5.899-5.187 1.929-7.828 7.697-5.899 12.884z" fill="#d9aa66" data-original="#000000"/><path d="m368.75 159.601c5.123 1.904 10.981-.783 12.884-5.9l21.477-57.764c1.929-5.186-.712-10.954-5.899-12.883-5.187-1.927-10.954.712-12.884 5.9l-21.478 57.764c-1.927 5.186.714 10.954 5.9 12.883z" fill="#d9aa66" data-original="#000000"/><path d="m302.042 137.42c5.533 0 10.02-4.486 10.02-10.02v-66.74c0-5.534-4.486-10.02-10.02-10.02s-10.02 4.486-10.02 10.02v66.74c0 5.534 4.487 10.02 10.02 10.02z" fill="#d9aa66" data-original="#000000"/></g></g></svg>
