<svg xmlns="http://www.w3.org/2000/svg" width="25.697" height="21.414" viewBox="0 0 25.697 21.414"><defs><style>.a{fill:#3d3d3d;}</style></defs><g transform="translate(-436.621 -169.209)"><g transform="translate(436.621 169.209)"><path class="a" d="M12.424,16.99a.8.8,0,0,1-.58-.248L6.223,10.852A.8.8,0,0,1,6.8,9.495H9.747V3.338A1.34,1.34,0,0,1,11.086,2h2.677A1.34,1.34,0,0,1,15.1,3.338V9.495h2.944a.8.8,0,0,1,.58,1.358L13,16.741A.8.8,0,0,1,12.424,16.99Z" transform="translate(25.272 16.99) rotate(180)"/><path class="a" d="M23.823,22.283H1.874A1.876,1.876,0,0,1,0,20.409v-.535A1.876,1.876,0,0,1,1.874,18H23.823A1.876,1.876,0,0,1,25.7,19.874v.535A1.876,1.876,0,0,1,23.823,22.283Z" transform="translate(0 -0.869)"/></g></g></svg>