<svg xmlns="http://www.w3.org/2000/svg" width="59" height="49.167" viewBox="0 0 59 49.167"><defs><style>.a{fill:#e2b76d;}</style></defs><g transform="translate(-436.621 -169.209)"><g transform="translate(436.621 169.209)"><path class="a" d="M14.752,34.417a1.841,1.841,0,0,1-1.332-.57L.513,20.326a1.845,1.845,0,0,1,1.332-3.117h6.76V3.073A3.077,3.077,0,0,1,11.679,0h6.146A3.077,3.077,0,0,1,20.9,3.073V17.208h6.76a1.845,1.845,0,0,1,1.332,3.117L16.084,33.846A1.841,1.841,0,0,1,14.752,34.417Z" transform="translate(44.252 34.417) rotate(180)"/><path class="a" d="M54.7,27.833H4.3a4.307,4.307,0,0,1-4.3-4.3V22.3A4.307,4.307,0,0,1,4.3,18H54.7A4.307,4.307,0,0,1,59,22.3v1.229A4.307,4.307,0,0,1,54.7,27.833Z" transform="translate(0 21.333)"/></g></g></svg>