<svg xmlns="http://www.w3.org/2000/svg" version="1.1" xmlns:xlink="http://www.w3.org/1999/xlink" xmlns:svgjs="http://svgjs.com/svgjs" width="512" height="512" x="0" y="0" viewBox="0 0 512 512" style="enable-background:new 0 0 512 512" xml:space="preserve" class=""><g><path d="M256 489A233 233 0 0 1 91.24 91.24a233 233 0 0 1 329.52 329.52A231.51 231.51 0 0 1 256 489zm0-450C136.35 39 39 136.35 39 256s97.35 217 217 217 217-97.35 217-217S375.65 39 256 39z" fill="#9f9f9f" data-original="#000000"></path><path d="M161 179.31a8 8 0 0 1-5.61-13.7c40.69-40.07 94.45-62.44 159.79-66.48 52.24-3.24 98.39 6.31 121.37 12.33a8 8 0 0 1-1.85 15.78 7.82 7.82 0 0 1-2-.26c-39.86-10.46-176.86-37.79-266 50a8 8 0 0 1-5.7 2.33z" fill="#9f9f9f" data-original="#000000"></path><path d="M161.49 468.24a7.93 7.93 0 0 1-6.35-3.13 8 8 0 0 1 1.48-11.22c41.73-32 69.79-73 83.42-122.06 7.93-28.56 8.38-51.65 8.17-60.66-40.68-23.64-72.36-55.93-94.23-96S124.78 95.77 122.52 70v-.7a8 8 0 0 1 16-.57c2.14 24.3 9 61.13 29.56 98.8 21.09 38.69 52 69.62 91.88 91.94a8 8 0 0 1 4.06 6.29c.11 1.22 2.49 30.33-8.33 69.71-10 36.27-33.55 88.47-89.29 131.17a7.91 7.91 0 0 1-4.91 1.6z" fill="#9f9f9f" data-original="#000000"></path><path d="M222.41 394a8 8 0 0 1-2.35-.36c-58.08-17.87-104.45-49-137.82-92.52-29.72-38.77-43.33-80.36-49.51-108.42a8 8 0 1 1 15.62-3.45c11.9 54 50.65 150.4 176.41 189.1a8 8 0 0 1-2.35 15.65zM256 274.41a8 8 0 0 1-3.54-15.19c41.74-20.49 83.85-32.1 125.16-34.49 46.48-2.7 83.31 6.87 106 15.37a8 8 0 1 1-5.61 15c-21.28-8-55.81-16.92-99.49-14.39-39.17 2.27-79.22 13.33-119 32.89a8.09 8.09 0 0 1-3.52.81z" fill="#9f9f9f" data-original="#000000"></path><path d="M320.28 479.68a8 8 0 0 1-6-13.34C364.78 410 377.33 350 379 309.67c1.78-43.68-8.35-74.08-8.45-74.38a8 8 0 0 1 15.15-5.15c.46 1.35 11.19 33.56 9.29 80.19-1.75 43-15.09 106.79-68.72 166.68a8 8 0 0 1-5.99 2.67z" fill="#9f9f9f" data-original="#000000"></path></g></svg>