<svg xmlns="http://www.w3.org/2000/svg" xmlns:xlink="http://www.w3.org/1999/xlink" viewBox="0 0 443 63"><defs><style>.cls-1{fill:url(#Gradient_bez_nazwy);}.cls-2{isolation:isolate;}</style><linearGradient id="Gradient_bez_nazwy" x1="-75.33" y1="446.72" x2="-75.33" y2="445.72" gradientTransform="matrix(443, 0, 0, -63, 33592, 28143.07)" gradientUnits="userSpaceOnUse"><stop offset="0" stop-color="#f3d48b"/><stop offset="1" stop-color="#cb9150"/></linearGradient></defs><g id="Warstwa_2" data-name="Warstwa 2"><g id="Warstwa_1-2" data-name="Warstwa 1"><rect class="cls-1" width="443" height="63" rx="3"/><g class="cls-2"><path d="M189,44c-2.16,0-3.24-1.08-3.24-3.2V17.36h2.56V41.44H193V17.36h2.56V41.44h4.6V17.36h2.56V44Z"/><path d="M215.88,28.36c0,2.16-1.2,3.24-3.56,3.24V44h-2.6V31.6c-2.36,0-3.56-1.08-3.56-3.24v-11h2.56V29h4.6V17.36h2.56Z"/><path d="M221.84,34.88v6.56h4.6V34.8a3.36,3.36,0,0,0-.16-1.4,3.87,3.87,0,0,0-1.28-.64c-.12,0-.68-.28-1.76-.68a27.38,27.38,0,0,1-2.8-1.16,1.66,1.66,0,0,1-.72-.68,7.3,7.3,0,0,1-.44-3V20.56c0-2.12,1.08-3.2,3.2-3.2h3.32c2.12,0,3.2,1.08,3.2,3.2v6h-2.56V19.92h-4.6v7.4a2.8,2.8,0,0,0,.2,1.36,3.28,3.28,0,0,0,1.28.68l3.76,1.48A3.28,3.28,0,0,1,228.64,32a5.14,5.14,0,0,1,.36,2.28V40.8c0,2.12-1.08,3.2-3.2,3.2h-3.32c-2.12,0-3.2-1.08-3.2-3.2V34.88Zm2.2-19h-1.6l1.44-4.64h2Z"/><path d="M235.16,17.36V41.44h5.12V44H232.6V17.36Z"/><path d="M245.28,44h-2.6V17.36h2.6Z"/><path d="M258.16,40.8c0,2.12-1.08,3.2-3.2,3.2h-3.32c-2.12,0-3.2-1.08-3.2-3.2V34.28H251v7.16h4.6V17.36h2.56Z"/></g></g></g></svg>