<svg xmlns="http://www.w3.org/2000/svg" width="45.893" height="32.134" viewBox="0 0 45.893 32.134"><defs><style>.a{fill:#deb882;}</style></defs><path class="a" d="M44.948,5.028A5.75,5.75,0,0,0,40.9.983C37.312,0,22.946,0,22.946,0S8.581,0,4.99.945A5.864,5.864,0,0,0,.945,5.028C0,8.619,0,16.066,0,16.066S0,23.551.945,27.1A5.75,5.75,0,0,0,4.99,31.152c3.629.983,17.957.983,17.957.983s14.365,0,17.956-.945a5.75,5.75,0,0,0,4.045-4.045c.945-3.589.945-11.038.945-11.038S45.931,8.619,44.948,5.028ZM18.375,22.946V9.188l11.945,6.88Z"/></svg>