<svg xmlns="http://www.w3.org/2000/svg" xmlns:xlink="http://www.w3.org/1999/xlink" width="267" height="99" viewBox="0 0 267 99"><defs><style>.a{fill:#fff;stroke:rgba(255,255,255,0);}.b{clip-path:url(#a);}.c{fill:url(#b);}.d{fill:url(#c);}.e{fill:url(#d);}.f{fill:url(#e);}.g{fill:url(#f);}.h{fill:url(#g);}.i{fill:url(#h);}.j{fill:url(#i);}.k{fill:url(#j);}.l{fill:url(#k);}.m{fill:url(#l);}.n{fill:url(#m);}.o{fill:url(#n);}.p{fill:url(#o);}.q{fill:url(#p);}</style><clipPath id="a"><rect class="a" width="267" height="99" rx="15" transform="translate(80 80)"/></clipPath><linearGradient id="b" x1="0.228" y1="0.65" x2="7.184" y2="-3.182" gradientUnits="objectBoundingBox"><stop offset="0" stop-color="#bd7a3c"/><stop offset="0.49" stop-color="#f5d88e"/><stop offset="1" stop-color="#bd7a3c"/></linearGradient><linearGradient id="c" x1="-0.41" y1="1.002" x2="6.538" y2="-2.828" xlink:href="#b"/><linearGradient id="d" x1="-0.67" y1="1.144" x2="6.287" y2="-2.688" xlink:href="#b"/><linearGradient id="e" x1="-1.307" y1="1.496" x2="5.641" y2="-2.334" xlink:href="#b"/><linearGradient id="f" x1="-1.567" y1="1.639" x2="5.389" y2="-2.193" xlink:href="#b"/><linearGradient id="g" x1="-2.203" y1="1.99" x2="4.745" y2="-1.84" xlink:href="#b"/><linearGradient id="h" x1="-2.606" y1="2.169" x2="4.749" y2="-1.783" xlink:href="#b"/><linearGradient id="i" x1="-3.277" y1="2.53" x2="4.069" y2="-1.418" xlink:href="#b"/><linearGradient id="j" x1="-3.45" y1="2.635" x2="3.805" y2="-1.287" xlink:href="#b"/><linearGradient id="k" x1="-4.111" y1="2.994" x2="3.135" y2="-0.925" xlink:href="#b"/><linearGradient id="l" x1="-2.793" y1="0.883" x2="1.64" y2="0.368" xlink:href="#b"/><linearGradient id="m" x1="-5.328" y1="3.711" x2="1.628" y2="-0.122" xlink:href="#b"/><linearGradient id="n" x1="-5.996" y1="4.08" x2="0.953" y2="0.25" xlink:href="#b"/><linearGradient id="o" x1="-8.981" y1="4.198" x2="4.439" y2="-1.034" xlink:href="#b"/><linearGradient id="p" x1="-2.883" y1="2.665" x2="1.953" y2="-0.461" xlink:href="#b"/></defs><g class="b" transform="translate(-80 -80)"><g transform="translate(87.826 80)"><path class="c" d="M1.145,94.659,35.9,89.569l-1.148,4.344L0,99Z"/><path class="d" d="M15.865,34.49,50.64,29.4l-1.166,4.347L14.7,38.833Z"/><path d="M42.987,39.746,14.866,43.864,2.807,88.989l28.13-4.118,3.684-5.616L43.858,44.7ZM24.767,76.475,16.409,77.7,23.3,51.928l8.358-1.222Z"/><path class="e" d="M33.363,89.941l34.754-5.087L66.972,89.2,32.215,94.284Z"/><path class="f" d="M48.08,29.774l34.778-5.093L81.69,29.028l-34.778,5.09Z"/><path d="M47.709,39.149,35.658,84.274,46.68,82.656,51.4,64.98l6.158-.892L55.038,81.44l11.031-1.614,2.613-19.267,4.686-8.087L78.125,34.7ZM62.836,52.21,61.567,54.2l-7.588,1.1,2.167-8.1,8.373-1.216Z"/><path class="g" d="M65.578,85.225l34.757-5.087-1.148,4.344L64.433,89.569Z"/><path class="h" d="M80.3,25.056l34.778-5.09-1.166,4.347L79.13,29.4Z"/><path d="M80.575,34.433,68.506,79.558l11.031-1.614,4.722-17.676,8.358-1.222L87.895,76.71,98.923,75.1l12.054-45.122ZM95.2,49.371l-8.385,1.222,2.165-8.1,8.358-1.222Z"/><path class="i" d="M97.793,80.509l32.813-4.8-1.148,4.344-32.81,4.8Z"/><path d="M113.411,29.718l28.469-4.168-2.768,10.32-17.444,2.554L119.8,45.434l16.864-2.471L133.918,53.28l-16.864,2.471-4.665,17.474-11.031,1.617Z"/><path class="j" d="M112.513,20.34l32.831-4.8-1.165,4.344-32.834,4.808Z"/><path class="k" d="M128.066,76.079l33.279-4.87L160.2,75.55l-33.282,4.873Z"/><path d="M150.5,34.3l-8.958,1.311,2.771-10.32,28.942-4.237-2.771,10.32-8.955,1.311-9.282,34.8L141.22,69.1Z"/><path class="l" d="M142.784,15.91l33.3-4.876-1.166,4.347-33.3,4.873Z"/><path class="m" d="M178.579,10.638,161.367,75.054l39.122-5.726L217.7,4.912ZM198.7,60.607l-11.028,1.614L192.4,44.548l-19.386,2.839,7.332-27.446,11.028-1.614L186.615,36.1l8.358-1.222,4.757-17.771,11.028-1.614Z"/><path class="n" d="M200.53,65.144l34.754-5.087L234.14,64.4l-34.757,5.087Z"/><path d="M218.141,14.411,229.169,12.8,219.69,48.244l8.358-1.222,9.479-35.45,11.031-1.614L236.5,55.082l-30.416,4.451Z"/><path class="o" d="M216.571,5.09,251.349,0,250.18,4.344,215.405,9.437Z"/><path class="p" d="M167.057,12.342,185.667,9.6l-.508,4.3L167.236,16.5Z"/><path class="q" d="M158.292,71.655l46.915-7.2,3.446,3.672-51.639,7.888"/></g></g></svg>